/* XPM */
static char *result[] = {
/* columns rows colors chars-per-pixel */
"64 64 4 1 ",
"  c #413154",
". c #6F6777",
"X c #C38E76",
"o c #C6CDB9",
/* pixels */
"oooooooooooooooooooooooooooooooooooooooooooooooooooooooooooooooo",
"             o                   o                   o          ",
"             o                   o                   o          ",
"             o                   o                   o          ",
"             o                   o                   o          ",
"             o                   o                   o          ",
"             o                   o                   o          ",
"oooooooooooooooooooooooooooooooooooooooooooooooooooooooooooooooo",
"  o                   o                   o                   o ",
"  o                   o                   o                   o ",
"  o                   o                   o                   o ",
"  o                   o                   o                   o ",
"  o                   o                   o                   o ",
"  o                   o                   o                   o ",
"oooooooooooooooooooooooooooooooooooooooooooooooooooooooooooooooo",
"             o                   o                   o          ",
"             o                   o                   o          ",
"             o                   o                   o          ",
"             o                   o                   o          ",
"             o                  ...                  o          ",
"             o             XX  . o .   X             o          ",
"oooooooooooooooooooooooooooXXoo.ooo.ooXoXooooooooooooooooooooooo",
"  o                   o         .      X  o                   o ",
"  o                   o  X       .        o                   o ",
"  o                   o          .       XX                   o ",
"  o                   o        .....     XX                   o ",
"  o                   o     ...........   o                   o ",
"  o                  XXX   .............  o                   o ",
"ooooooooooooooooooooXoooXoooo.oXXXXXo.oooooooooooooooooooooooooo",
"             o      X   X    .oXXXXXo.     X         o          ",
"             o      X   X    .oXXXXXo.               o          ",
"             o       XXX     .ooXXXoo.               o          ",
"             o               .XoooooX.   X           o          ",
"             o            X   .XXXXX.   X X          o          ",
"             o                 .....     X           o          ",
"oooooooooooooooooooooooooooooooooooooooooooooooooooooooooooooooo",
"  o                   o     XX       XX   o                   o ",
"  o                   o     XX      X  X  o                   o ",
"  o                   o         X   X  X  o                   o ",
"  o                   o              XX   o                   o ",
"  o                   o                   o                   o ",
"  o                   o                   o                   o ",
"oooooooooooooooooooooooooooooooooooooooooooooooooooooooooooooooo",
"             o                   o                   o          ",
"             o                   o                   o          ",
"             o                   o                   o          ",
"             o                   o                   o          ",
"             o                   o                   o          ",
"             o                   o                   o          ",
"oooooooooooooooooooooooooooooooooooooooooooooooooooooooooooooooo",
"  o                   o                   o                   o ",
"  o                   o                   o                   o ",
"  o                   o                   o                   o ",
"  o                   o                   o                   o ",
"  o                   o                   o                   o ",
"  o                   o                   o                   o ",
"oooooooooooooooooooooooooooooooooooooooooooooooooooooooooooooooo",
"             o                   o                   o          ",
"             o                   o                   o          ",
"             o                   o                   o          ",
"             o                   o                   o          ",
"             o                   o                   o          ",
"             o                   o                   o          ",
"oooooooooooooooooooooooooooooooooooooooooooooooooooooooooooooooo"
};
