/* XPM */
static char *result[] = {
/* columns rows colors chars-per-pixel */
"64 64 4 1 ",
"  c #413154",
". c #6F6777",
"X c #C38E76",
"o c #C6CDB9",
/* pixels */
"oooooooooooooooooooooooooooooooooooooooooooooooooooooooooooooooo",
"             o                   o                   o          ",
"             o                   o                   o          ",
"             o                   o                   o          ",
"             o                   o                   o          ",
"             o                   o                   o          ",
"             o                   o                   o          ",
"oooooooooooooooooooooooooooooooooooooooooooooooooooooooooooooooo",
"  o                   o                   o                   o ",
"  o                   o                   o                   o ",
"  o                   o                   o                   o ",
"  o                   o                   o                   o ",
"  o                   o                   o                   o ",
"  o                   o                   o                   o ",
"oooooooooooooooooooooooooooooooooooooooooooooooooooooooooooooooo",
"             o                   o                   o          ",
"             o                   o                   o          ",
"             o                   o                   o          ",
"             o                   o                   o          ",
"             o                  ...   X              o          ",
"             o                 . o . X X             o          ",
"ooooooooooooooooooooooooooXXooo.ooo.ooXooooooooooooooooooooooooo",
"  o                   o   XX    .         o                   o ",
"  o                   o          .      XXo                   o ",
"  o                   o X        .      XXo                   o ",
"  o                   o        .....      o                   o ",
"  o                   o     ...........   o                   o ",
"  o                   o    .............  o                   o ",
"oooooooooooooooooooooXXXooooo.oXXXXXo.ooooXooooooooooooooooooooo",
"             o      X   X    .oXXXXXo.               o          ",
"             o      X   X    .oXXXXXo.               o          ",
"             o      X   X    .ooXXXoo.    X          o          ",
"             o       XXX     .XoooooX.   X X         o          ",
"             o                .XXXXX.     X          o          ",
"             o            X    .....                 o          ",
"ooooooooooooooooooooooooooooooooooooooXXoooooooooooooooooooooooo",
"  o                   o      XX      X  X o                   o ",
"  o                   o      XX      X  X o                   o ",
"  o                   o           X   XX  o                   o ",
"  o                   o                   o                   o ",
"  o                   o                   o                   o ",
"  o                   o                   o                   o ",
"oooooooooooooooooooooooooooooooooooooooooooooooooooooooooooooooo",
"             o                   o                   o          ",
"             o                   o                   o          ",
"             o                   o                   o          ",
"             o                   o                   o          ",
"             o                   o                   o          ",
"             o                   o                   o          ",
"oooooooooooooooooooooooooooooooooooooooooooooooooooooooooooooooo",
"  o                   o                   o                   o ",
"  o                   o                   o                   o ",
"  o                   o                   o                   o ",
"  o                   o                   o                   o ",
"  o                   o                   o                   o ",
"  o                   o                   o                   o ",
"oooooooooooooooooooooooooooooooooooooooooooooooooooooooooooooooo",
"             o                   o                   o          ",
"             o                   o                   o          ",
"             o                   o                   o          ",
"             o                   o                   o          ",
"             o                   o                   o          ",
"             o                   o                   o          ",
"oooooooooooooooooooooooooooooooooooooooooooooooooooooooooooooooo"
};
