/* XPM */
static char *result[] = {
/* columns rows colors chars-per-pixel */
"128 128 4 1 ",
"  c #433455",
". c #6F6776",
"X c #C28D75",
"o c #C5CCB8",
/* pixels */
"oooooooooooooooooooooooooooooooooooooooooooooooooooooooooooooooooooooooooooooooooooooooooooooooooooooooooooooooooooooooooooooooo",
"oooooooooooooooooooooooooooooooooooooooooooooooooooooooooooooooooooooooooooooooooooooooooooooooooooooooooooooooooooooooooooooooo",
"                          oo                                      oo                                      oo                    ",
"                          oo                                      oo                                      oo                    ",
"                          oo                                      oo                                      oo                    ",
"                          oo                                      oo                                      oo                    ",
"                          oo                                      oo                                      oo                    ",
"                          oo                                      oo                                      oo                    ",
"                          oo                                      oo                                      oo                    ",
"                          oo                                      oo                                      oo                    ",
"                          oo                                      oo                                      oo                    ",
"                          oo                                      oo                                      oo                    ",
"                          oo                                      oo                                      oo                    ",
"                          oo                                      oo                                      oo                    ",
"oooooooooooooooooooooooooooooooooooooooooooooooooooooooooooooooooooooooooooooooooooooooooooooooooooooooooooooooooooooooooooooooo",
"oooooooooooooooooooooooooooooooooooooooooooooooooooooooooooooooooooooooooooooooooooooooooooooooooooooooooooooooooooooooooooooooo",
"    oo                                      oo                                      oo                                      oo  ",
"    oo                                      oo                                      oo                                      oo  ",
"    oo                                      oo                                      oo                                      oo  ",
"    oo                                      oo                                      oo                                      oo  ",
"    oo                                      oo                                      oo                                      oo  ",
"    oo                                      oo                                      oo                                      oo  ",
"    oo                                      oo                                      oo                                      oo  ",
"    oo                                      oo                                      oo                                      oo  ",
"    oo                                      oo                                      oo                                      oo  ",
"    oo                                      oo                                      oo                                      oo  ",
"    oo                                      oo                                      oo                                      oo  ",
"    oo                                      oo                                      oo                                      oo  ",
"oooooooooooooooooooooooooooooooooooooooooooooooooooooooooooooooooooooooooooooooooooooooooooooooooooooooooooooooooooooooooooooooo",
"oooooooooooooooooooooooooooooooooooooooooooooooooooooooooooooooooooooooooooooooooooooooooooooooooooooooooooooooooooooooooooooooo",
"                          oo                                      oo                                      oo                    ",
"                          oo                                      oo                                      oo                    ",
"                          oo                                      oo                                      oo                    ",
"                          oo                                      oo                                      oo                    ",
"                          oo                                      oo                                      oo                    ",
"                          oo                                      oo                                      oo                    ",
"                          oo                                      oo                                      oo                    ",
"                          oo                                      oo                                      oo                    ",
"                          oo                                    ......                                    oo                    ",
"                          oo                                    ......                                    oo                    ",
"                          oo                                  ..  oo  ..                                  oo                    ",
"                          oo                                  ..  oo  ..                                  oo                    ",
"oooooooooooooooooooooooooooooooooooooooooooooooooooooooooooooo..oooooo..oooooooooooooooooooooooooooooooooooooooooooooooooooooooo",
"oooooooooooooooooooooooooooooooooooooooooooooooooooooooooooooo..oooooo..oooooooooooooooooooooooooooooooooooooooooooooooooooooooo",
"    oo                                      oo                  ..                  oo                                      oo  ",
"    oo                                      oo                  ..                  oo                                      oo  ",
"    oo                                      oo    XX              ..                oo                                      oo  ",
"    oo                                      oo    XX              ..                oo                                      oo  ",
"    oo                                      oo                    ..              XXXX                                      oo  ",
"    oo                                      oo                    ..              XXXX                                      oo  ",
"    oo                                      oo                ..........          XXXX                                      oo  ",
"    oo                                      oo                ..........          XXXX                                      oo  ",
"    oo                                      oo          ......................      oo                                      oo  ",
"    oo                                      oo          ......................      oo                                      oo  ",
"    oo                                    XXXXXX      ..........................    oo                                      oo  ",
"    oo                                    XXXXXX      ..........................    oo                                      oo  ",
"ooooooooooooooooooooooooooooooooooooooooXXooooooXXoooooooo..ooXXXXXXXXXXoo..oooooooooooooooooooooooooooooooooooooooooooooooooooo",
"ooooooooooooooooooooooooooooooooooooooooXXooooooXXoooooooo..ooXXXXXXXXXXoo..oooooooooooooooooooooooooooooooooooooooooooooooooooo",
"                          oo            XX      XX        ..ooXXXXXXXXXXoo..          XX                  oo                    ",
"                          oo            XX      XX        ..ooXXXXXXXXXXoo..          XX                  oo                    ",
"                          oo            XX      XX        ..ooXXXXXXXXXXoo..                              oo                    ",
"                          oo            XX      XX        ..ooXXXXXXXXXXoo..                              oo                    ",
"                          oo              XXXXXX          ..ooooXXXXXXoooo..                              oo                    ",
"                          oo              XXXXXX          ..ooooXXXXXXoooo..                              oo                    ",
"                          oo                              ..XXooooooooooXX..      XX                      oo                    ",
"                          oo                              ..XXooooooooooXX..      XX                      oo                    ",
"                          oo                        XX      ..XXXXXXXXXX..      XX  XX                    oo                    ",
"                          oo                        XX      ..XXXXXXXXXX..      XX  XX                    oo                    ",
"                          oo                                  ..........          XX                      oo                    ",
"                          oo                                  ..........          XX                      oo                    ",
"oooooooooooooooooooooooooooooooooooooooooooooooooooooooooooooooooooooooooooooooooooooooooooooooooooooooooooooooooooooooooooooooo",
"oooooooooooooooooooooooooooooooooooooooooooooooooooooooooooooooooooooooooooooooooooooooooooooooooooooooooooooooooooooooooooooooo",
"    oo                                      oo          XXXX                        oo                                      oo  ",
"    oo                                      oo          XXXX                        oo                                      oo  ",
"    oo                                      oo          XXXX                        oo                                      oo  ",
"    oo                                      oo          XXXX                        oo                                      oo  ",
"    oo                                      oo                                      oo                                      oo  ",
"    oo                                      oo                                      oo                                      oo  ",
"    oo                                      oo                                      oo                                      oo  ",
"    oo                                      oo                                      oo                                      oo  ",
"    oo                                      oo                                      oo                                      oo  ",
"    oo                                      oo                                      oo                                      oo  ",
"    oo                                      oo                                      oo                                      oo  ",
"    oo                                      oo                                      oo                                      oo  ",
"oooooooooooooooooooooooooooooooooooooooooooooooooooooooooooooooooooooooooooooooooooooooooooooooooooooooooooooooooooooooooooooooo",
"oooooooooooooooooooooooooooooooooooooooooooooooooooooooooooooooooooooooooooooooooooooooooooooooooooooooooooooooooooooooooooooooo",
"                          oo                                      oo                                      oo                    ",
"                          oo                                      oo                                      oo                    ",
"                          oo                                      oo                                      oo                    ",
"                          oo                                      oo                                      oo                    ",
"                          oo                                      oo                                      oo                    ",
"                          oo                                      oo                                      oo                    ",
"                          oo                                      oo                                      oo                    ",
"                          oo                                      oo                                      oo                    ",
"                          oo                                      oo                                      oo                    ",
"                          oo                                      oo                                      oo                    ",
"                          oo                                      oo                                      oo                    ",
"                          oo                                      oo                                      oo                    ",
"oooooooooooooooooooooooooooooooooooooooooooooooooooooooooooooooooooooooooooooooooooooooooooooooooooooooooooooooooooooooooooooooo",
"oooooooooooooooooooooooooooooooooooooooooooooooooooooooooooooooooooooooooooooooooooooooooooooooooooooooooooooooooooooooooooooooo",
"    oo                                      oo                                      oo                                      oo  ",
"    oo                                      oo                                      oo                                      oo  ",
"    oo                                      oo                                      oo                                      oo  ",
"    oo                                      oo                                      oo                                      oo  ",
"    oo                                      oo                                      oo                                      oo  ",
"    oo                                      oo                                      oo                                      oo  ",
"    oo                                      oo                                      oo                                      oo  ",
"    oo                                      oo                                      oo                                      oo  ",
"    oo                                      oo                                      oo                                      oo  ",
"    oo                                      oo                                      oo                                      oo  ",
"    oo                                      oo                                      oo                                      oo  ",
"    oo                                      oo                                      oo                                      oo  ",
"oooooooooooooooooooooooooooooooooooooooooooooooooooooooooooooooooooooooooooooooooooooooooooooooooooooooooooooooooooooooooooooooo",
"oooooooooooooooooooooooooooooooooooooooooooooooooooooooooooooooooooooooooooooooooooooooooooooooooooooooooooooooooooooooooooooooo",
"                          oo                                      oo                                      oo                    ",
"                          oo                                      oo                                      oo                    ",
"                          oo                                      oo                                      oo                    ",
"                          oo                                      oo                                      oo                    ",
"                          oo                                      oo                                      oo                    ",
"                          oo                                      oo                                      oo                    ",
"                          oo                                      oo                                      oo                    ",
"                          oo                                      oo                                      oo                    ",
"                          oo                                      oo                                      oo                    ",
"                          oo                                      oo                                      oo                    ",
"                          oo                                      oo                                      oo                    ",
"                          oo                                      oo                                      oo                    ",
"oooooooooooooooooooooooooooooooooooooooooooooooooooooooooooooooooooooooooooooooooooooooooooooooooooooooooooooooooooooooooooooooo",
"oooooooooooooooooooooooooooooooooooooooooooooooooooooooooooooooooooooooooooooooooooooooooooooooooooooooooooooooooooooooooooooooo"
};
