/* XPM */
static char *result[] = {
/* columns rows colors chars-per-pixel */
"128 128 5 1 ",
"  c #C5CCB8",
". c #433455",
"X c #C28D75",
"o c #6F6776",
"O c white",
/* pixels */
"                                                                                                                                ",
"                                                                                                                                ",
"..........................  ......................................  ......................................  ....................",
"..........................  ......................................  ......................................  ....................",
"..........................  ......................................  ......................................  ....................",
"..........................  ......................................  ......................................  ....................",
"..........................  ......................................  ......................................  ....................",
"..........................  ......................................  ......................................  ....................",
"..........................  ......................................  ......................................  ....................",
"..........................  ......................................  ......................................  ....................",
"..........................  ......................................  ......................................  ....................",
"..........................  ......................................  ......................................  ....................",
"..........................  ......................................  ......................................  ....................",
"..........................  ......................................  ......................................  ....................",
"                                                                                                                                ",
"                                                                                                                                ",
"....  ......................................  ......................................  ......................................  ..",
"....  ......................................  ......................................  ......................................  ..",
"....  ......................................  ......................................  ......................................  ..",
"....  ......................................  ......................................  ......................................  ..",
"....  ......................................  ......................................  ......................................  ..",
"....  ......................................  ......................................  ......................................  ..",
"....  ......................................  ......................................  ......................................  ..",
"....  ......................................  ......................................  ......................................  ..",
"....  ......................................  ......................................  ......................................  ..",
"....  ......................................  ......................................  ......................................  ..",
"....  ......................................  ......................................  ......................................  ..",
"....  ......................................  ......................................  ......................................  ..",
"                                                                                                                                ",
"                                                                                                                                ",
"..........................  ......................................  ......................................  ....................",
"..........................  ......................................  ......................................  ....................",
"..........................  ......................................  ......................................  ....................",
"..........................  ......................................  ......................................  ....................",
"..........................  ......................................  ......................................  ....................",
"..........................  ......................................  ......................................  ....................",
"..........................  ......................................  ......................................  ....................",
"..........................  ......................................  .......XX.............................  ....................",
"..........................  ....................................oooooo.....XX.............................  ....................",
"..........................  ....................................oooooo...XX..XX...........................  ....................",
"..........................  ..................................oo..  ..oo.XX..XX...........................  ....................",
"..........................  ............................XX....oo..  ..oo...XX.............................  ....................",
"                                                        XX    oo      oo   XX                                                   ",
"                                                              oo      oo        XXXX                                            ",
"....  ......................................  ..................oo..............XXXX  ......................................  ..",
"....  ......................................  ....XXXX..........oo..............XXXX  ......................................  ..",
"....  ......................................  ....XXXX............oo............XXXX  ......................................  ..",
"....  ......................................  ....XXXX............oo................  ......................................  ..",
"....  ......................................  ....XXXX............oo................  ......................................  ..",
"....  ......................................  ....................oo................  ......................................  ..",
"....  ......................................  ................oooooooooo............  ......................................  ..",
"....  ......................................  ................oooooooooo............ XX.....................................  ..",
"....  ......................................  XX........oooooooooooooooooooooo...... XX.....................................  ..",
"....  ......................................  XX........oooooooooooooooooooooo......  ......................................  ..",
"....  ......................................  ........oooooooooooooooooooooooooo....  ......................................  ..",
"....  ......................................  ........oooooooooooooooooooooooooo....  ......................................  ..",
"                                                          oo  XXXXXXXXXX  oo                                                    ",
"                                                          oo  XXXXXXXXXX  oo          XX                                        ",
"..........................  ..............................oo  XXXXXXXXXX  oo..........XX..................  ....................",
"..........................  ..............................oo  XXXXXXXXXX  oo........XX..XX................  ....................",
"..........................  .................XXXXXX.......oo  XXXXXXXXXX  oo........XX..XX................  ....................",
"..........................  .................XXXXXX.......oo  XXXXXXXXXX  oo..........XX..................  ....................",
"..........................  ...............XX......XX.....oo    XXXXXX    oo..........XX..................  ....................",
"..........................  ...............XX......XX.....oo    XXXXXX    oo..............................  ....................",
"..........................  ...............XX......XX.....ooXX          XXoo..............................  ....................",
"..........................  ...............XX......XX.....ooXX          XXoo..............................  ....................",
"..........................  ...............XX......XX.......ooXXXXXXXXXXoo................................  ....................",
"..........................  ...............XX......XX.......ooXXXXXXXXXXoo.......XXXX.....................  ....................",
"..........................  .................XXXXXX...........oooooooooo.........XXXX.....................  ....................",
"..........................  .................XXXXXX...........oooooooooo.......XX....XX...................  ....................",
"                                                                               XX    XX                                         ",
"                                                                               XX    XX                                         ",
"....  ......................................  .........XX......................XX... XX.....................................  ..",
"....  ......................................  .........XX........................XXXX ......................................  ..",
"....  ......................................  .................XXXX..............XXXX ......................................  ..",
"....  ......................................  .................XXXX......XX.........  ......................................  ..",
"....  ......................................  .................XXXX......XX.........  ......................................  ..",
"....  ......................................  .................XXXX.................  ......................................  ..",
"....  ......................................  ......................................  ......................................  ..",
"....  ......................................  ......................................  ......................................  ..",
"....  ......................................  ......................................  ......................................  ..",
"....  ......................................  ......................................  ......................................  ..",
"....  ......................................  ......................................  ......................................  ..",
"....  ......................................  ......................................  ......................................  ..",
"                                                                                                                                ",
"                                                                                                                                ",
"..........................  ......................................  ......................................  ....................",
"..........................  ......................................  ......................................  ....................",
"..........................  ......................................  ......................................  ....................",
"..........................  ......................................  ......................................  ....................",
"..........................  ......................................  ......................................  ....................",
"..........................  ......................................  ......................................  ....................",
"..........................  ......................................  ......................................  ....................",
"..........................  ......................................  ......................................  ....................",
"..........................  ......................................  ......................................  ....................",
"..........................  ......................................  ......................................  ....................",
"..........................  ......................................  ......................................  ....................",
"..........................  ......................................  ......................................  ....................",
"                                                                                                                                ",
"                                                                                                                                ",
"....  ......................................  ......................................  ......................................  ..",
"....  ......................................  ......................................  ......................................  ..",
"....  ......................................  ......................................  ......................................  ..",
"....  ......................................  ......................................  ......................................  ..",
"....  ......................................  ......................................  ......................................  ..",
"....  ......................................  ......................................  ......................................  ..",
"....  ......................................  ......................................  ......................................  ..",
"....  ......................................  ......................................  ......................................  ..",
"....  ......................................  ......................................  ......................................  ..",
"....  ......................................  ......................................  ......................................  ..",
"....  ......................................  ......................................  ......................................  ..",
"....  ......................................  ......................................  ......................................  ..",
"                                                                                                                                ",
"                                                                                                                                ",
"..........................  ......................................  ......................................  ....................",
"..........................  ......................................  ......................................  ....................",
"..........................  ......................................  ......................................  ....................",
"..........................  ......................................  ......................................  ....................",
"..........................  ......................................  ......................................  ....................",
"..........................  ......................................  ......................................  ....................",
"..........................  ......................................  ......................................  ....................",
"..........................  ......................................  ......................................  ....................",
"..........................  ......................................  ......................................  ....................",
"..........................  ......................................  ......................................  ....................",
"..........................  ......................................  ......................................  ....................",
"..........................  ......................................  ......................................  ....................",
"                                                                                                                                ",
"                                                                                                                                "
};
