/* XPM */
static char *result[] = {
/* columns rows colors chars-per-pixel */
"128 128 5 1 ",
"  c #C5CCB8",
". c #433455",
"X c #C28D75",
"o c #6F6776",
"O c white",
/* pixels */
"                                                                                                                                ",
"                                                                                                                                ",
"..........................  ......................................  ......................................  ....................",
"..........................  ......................................  ......................................  ....................",
"..........................  ......................................  ......................................  ....................",
"..........................  ......................................  ......................................  ....................",
"..........................  ......................................  ......................................  ....................",
"..........................  ......................................  ......................................  ....................",
"..........................  ......................................  ......................................  ....................",
"..........................  ......................................  ......................................  ....................",
"..........................  ......................................  ......................................  ....................",
"..........................  ......................................  ......................................  ....................",
"..........................  ......................................  ......................................  ....................",
"..........................  ......................................  ......................................  ....................",
"                                                                                                                                ",
"                                                                                                                                ",
"....  ......................................  ......................................  ......................................  ..",
"....  ......................................  ......................................  ......................................  ..",
"....  ......................................  ......................................  ......................................  ..",
"....  ......................................  ......................................  ......................................  ..",
"....  ......................................  ......................................  ......................................  ..",
"....  ......................................  ......................................  ......................................  ..",
"....  ......................................  ......................................  ......................................  ..",
"....  ......................................  ......................................  ......................................  ..",
"....  ......................................  ......................................  ......................................  ..",
"....  ......................................  ......................................  ......................................  ..",
"....  ......................................  ......................................  ......................................  ..",
"....  ......................................  ......................................  ......................................  ..",
"                                                                                                                                ",
"                                                                                                                                ",
"..........................  ......................................  ......................................  ....................",
"..........................  ......................................  ......................................  ....................",
"..........................  ......................................  ......................................  ....................",
"..........................  ......................................  ......................................  ....................",
"..........................  ......................................  ......................................  ....................",
"..........................  ......................................  ......................................  ....................",
"..........................  ......................................  ......................................  ....................",
"..........................  ......................................  ........XX............................  ....................",
"..........................  ....................................oooooo......XX............................  ....................",
"..........................  .............................XX.....oooooo....XX..XX..........................  ....................",
"..........................  .............................XX...oo..  ..oo..XX..XX..........................  ....................",
"..........................  ..................................oo..  ..oo....XX............................  ....................",
"                                                              oo      oo    XX                                                  ",
"                                                              oo      oo                                                        ",
"....  ......................................  ......XXXX........oo..................  ......................................  ..",
"....  ......................................  ......XXXX........oo..............XXXX  ......................................  ..",
"....  ......................................  ......XXXX..........oo............XXXX  ......................................  ..",
"....  ......................................  ......XXXX..........oo............XXXX  ......................................  ..",
"....  ......................................  ....................oo............XXXX  ......................................  ..",
"....  ......................................  .XX.................oo................  ......................................  ..",
"....  ......................................  .XX.............oooooooooo............  ......................................  ..",
"....  ......................................  ................oooooooooo............  ......................................  ..",
"....  ......................................  ..........oooooooooooooooooooooo......  ......................................  ..",
"....  ......................................  ..........oooooooooooooooooooooo......XX......................................  ..",
"....  ......................................  ........oooooooooooooooooooooooooo....XX......................................  ..",
"....  ......................................  ........oooooooooooooooooooooooooo....  ......................................  ..",
"                                                          oo  XXXXXXXXXX  oo                                                    ",
"                                                          oo  XXXXXXXXXX  oo                                                    ",
"..........................  ................XXXXXX........oo  XXXXXXXXXX  oo..............................  ....................",
"..........................  ................XXXXXX........oo  XXXXXXXXXX  oo..............................  ....................",
"..........................  ..............XX......XX......oo  XXXXXXXXXX  oo.........XX...................  ....................",
"..........................  ..............XX......XX......oo  XXXXXXXXXX  oo.........XX...................  ....................",
"..........................  ..............XX......XX......oo    XXXXXX    oo.......XX..XX.................  ....................",
"..........................  ..............XX......XX......oo    XXXXXX    oo.......XX..XX.................  ....................",
"..........................  ..............XX......XX......ooXX          XXoo.........XX...................  ....................",
"..........................  ..............XX......XX......ooXX          XXoo.........XX...................  ....................",
"..........................  ................XXXXXX..........ooXXXXXXXXXXoo................................  ....................",
"..........................  ................XXXXXX..........ooXXXXXXXXXXoo................................  ....................",
"..........................  ..................................oooooooooo..................................  ....................",
"..........................  ..................................oooooooooo.......XXXX.......................  ....................",
"                                                                               XXXX                                             ",
"                                                      XX                     XX    XX                                           ",
"....  ......................................  ........XX.....................XX....XX ......................................  ..",
"....  ......................................  ...............................XX....XX ......................................  ..",
"....  ......................................  ...............XXXX............XX....XX ......................................  ..",
"....  ......................................  ...............XXXX..............XXXX.  ......................................  ..",
"....  ......................................  ...............XXXX......XX......XXXX.  ......................................  ..",
"....  ......................................  ...............XXXX......XX...........  ......................................  ..",
"....  ......................................  ......................................  ......................................  ..",
"....  ......................................  ......................................  ......................................  ..",
"....  ......................................  ......................................  ......................................  ..",
"....  ......................................  ......................................  ......................................  ..",
"....  ......................................  ......................................  ......................................  ..",
"....  ......................................  ......................................  ......................................  ..",
"                                                                                                                                ",
"                                                                                                                                ",
"..........................  ......................................  ......................................  ....................",
"..........................  ......................................  ......................................  ....................",
"..........................  ......................................  ......................................  ....................",
"..........................  ......................................  ......................................  ....................",
"..........................  ......................................  ......................................  ....................",
"..........................  ......................................  ......................................  ....................",
"..........................  ......................................  ......................................  ....................",
"..........................  ......................................  ......................................  ....................",
"..........................  ......................................  ......................................  ....................",
"..........................  ......................................  ......................................  ....................",
"..........................  ......................................  ......................................  ....................",
"..........................  ......................................  ......................................  ....................",
"                                                                                                                                ",
"                                                                                                                                ",
"....  ......................................  ......................................  ......................................  ..",
"....  ......................................  ......................................  ......................................  ..",
"....  ......................................  ......................................  ......................................  ..",
"....  ......................................  ......................................  ......................................  ..",
"....  ......................................  ......................................  ......................................  ..",
"....  ......................................  ......................................  ......................................  ..",
"....  ......................................  ......................................  ......................................  ..",
"....  ......................................  ......................................  ......................................  ..",
"....  ......................................  ......................................  ......................................  ..",
"....  ......................................  ......................................  ......................................  ..",
"....  ......................................  ......................................  ......................................  ..",
"....  ......................................  ......................................  ......................................  ..",
"                                                                                                                                ",
"                                                                                                                                ",
"..........................  ......................................  ......................................  ....................",
"..........................  ......................................  ......................................  ....................",
"..........................  ......................................  ......................................  ....................",
"..........................  ......................................  ......................................  ....................",
"..........................  ......................................  ......................................  ....................",
"..........................  ......................................  ......................................  ....................",
"..........................  ......................................  ......................................  ....................",
"..........................  ......................................  ......................................  ....................",
"..........................  ......................................  ......................................  ....................",
"..........................  ......................................  ......................................  ....................",
"..........................  ......................................  ......................................  ....................",
"..........................  ......................................  ......................................  ....................",
"                                                                                                                                ",
"                                                                                                                                "
};
