/* XPM */
static char *result[] = {
/* columns rows colors chars-per-pixel */
"128 128 5 1 ",
"  c #C5CCB8",
". c #433455",
"X c #6F6776",
"o c #C28D75",
"O c white",
/* pixels */
"                                                                                                                                ",
"                                                                                                                                ",
"..........................  ......................................  ......................................  ....................",
"..........................  ......................................  ......................................  ....................",
"..........................  ......................................  ......................................  ....................",
"..........................  ......................................  ......................................  ....................",
"..........................  ......................................  ......................................  ....................",
"..........................  ......................................  ......................................  ....................",
"..........................  ......................................  ......................................  ....................",
"..........................  ......................................  ......................................  ....................",
"..........................  ......................................  ......................................  ....................",
"..........................  ......................................  ......................................  ....................",
"..........................  ......................................  ......................................  ....................",
"..........................  ......................................  ......................................  ....................",
"                                                                                                                                ",
"                                                                                                                                ",
"....  ......................................  ......................................  ......................................  ..",
"....  ......................................  ......................................  ......................................  ..",
"....  ......................................  ......................................  ......................................  ..",
"....  ......................................  ......................................  ......................................  ..",
"....  ......................................  ......................................  ......................................  ..",
"....  ......................................  ......................................  ......................................  ..",
"....  ......................................  ......................................  ......................................  ..",
"....  ......................................  ......................................  ......................................  ..",
"....  ......................................  ......................................  ......................................  ..",
"....  ......................................  ......................................  ......................................  ..",
"....  ......................................  ......................................  ......................................  ..",
"....  ......................................  ......................................  ......................................  ..",
"                                                                                                                                ",
"                                                                                                                                ",
"..........................  ......................................  ......................................  ....................",
"..........................  ......................................  ......................................  ....................",
"..........................  ......................................  ......................................  ....................",
"..........................  ......................................  ......................................  ....................",
"..........................  ......................................  ......................................  ....................",
"..........................  ......................................  ......................................  ....................",
"..........................  ......................................  ......................................  ....................",
"..........................  ......................................  ......................................  ....................",
"..........................  ....................................XXXXXX....................................  ....................",
"..........................  ....................................XXXXXX.......oo...........................  ....................",
"..........................  ..................................XX..  ..XX.....oo...........................  ....................",
"..........................  ..................................XX..  ..XX...oo..oo.........................  ....................",
"                                                     oooo     XX      XX   oo  oo                                               ",
"                                                     oooo     XX      XX     oo                                                 ",
"....  ......................................  .......oooo.......XX...........oo.....  ......................................  ..",
"....  ......................................  .......oooo.......XX..................  ......................................  ..",
"....  ......................................  ....................XX................  ......................................  ..",
"....  ......................................  ....................XX.............oooo ......................................  ..",
"....  ......................................  ..oo................XX.............oooo ......................................  ..",
"....  ......................................  ..oo................XX.............oooo ......................................  ..",
"....  ......................................  ................XXXXXXXXXX.........oooo ......................................  ..",
"....  ......................................  ................XXXXXXXXXX............  ......................................  ..",
"....  ......................................  ..........XXXXXXXXXXXXXXXXXXXXXX......  ......................................  ..",
"....  ......................................  ..........XXXXXXXXXXXXXXXXXXXXXX......  ......................................  ..",
"....  ......................................  ........XXXXXXXXXXXXXXXXXXXXXXXXXX....  ......................................  ..",
"....  ......................................  ........XXXXXXXXXXXXXXXXXXXXXXXXXX....  ......................................  ..",
"                                           oooooo         XX  oooooooooo  XX        oo                                          ",
"                                           oooooo         XX  oooooooooo  XX        oo                                          ",
"..........................  .............oo......oo.......XX  oooooooooo  XX..............................  ....................",
"..........................  .............oo......oo.......XX  oooooooooo  XX..............................  ....................",
"..........................  .............oo......oo.......XX  oooooooooo  XX..............................  ....................",
"..........................  .............oo......oo.......XX  oooooooooo  XX..............................  ....................",
"..........................  .............oo......oo.......XX    oooooo    XX........oo....................  ....................",
"..........................  .............oo......oo.......XX    oooooo    XX........oo....................  ....................",
"..........................  ...............oooooo.........XXoo          ooXX......oo..oo..................  ....................",
"..........................  ...............oooooo.........XXoo          ooXX......oo..oo..................  ....................",
"..........................  ................................XXooooooooooXX..........oo....................  ....................",
"..........................  ................................XXooooooooooXX..........oo....................  ....................",
"..........................  ..................................XXXXXXXXXX..................................  ....................",
"..........................  ........................oo........XXXXXXXXXX..................................  ....................",
"                                                    oo                       oooo                                               ",
"                                                                             oooo                                               ",
"....  ......................................  .............................oo....oo.  ......................................  ..",
"....  ......................................  ............oooo.............oo....oo.  ......................................  ..",
"....  ......................................  ............oooo.............oo....oo.  ......................................  ..",
"....  ......................................  ............oooo.............oo....oo.  ......................................  ..",
"....  ......................................  ............oooo......oo.......oooo...  ......................................  ..",
"....  ......................................  ......................oo.......oooo...  ......................................  ..",
"....  ......................................  ......................................  ......................................  ..",
"....  ......................................  ......................................  ......................................  ..",
"....  ......................................  ......................................  ......................................  ..",
"....  ......................................  ......................................  ......................................  ..",
"....  ......................................  ......................................  ......................................  ..",
"....  ......................................  ......................................  ......................................  ..",
"                                                                                                                                ",
"                                                                                                                                ",
"..........................  ......................................  ......................................  ....................",
"..........................  ......................................  ......................................  ....................",
"..........................  ......................................  ......................................  ....................",
"..........................  ......................................  ......................................  ....................",
"..........................  ......................................  ......................................  ....................",
"..........................  ......................................  ......................................  ....................",
"..........................  ......................................  ......................................  ....................",
"..........................  ......................................  ......................................  ....................",
"..........................  ......................................  ......................................  ....................",
"..........................  ......................................  ......................................  ....................",
"..........................  ......................................  ......................................  ....................",
"..........................  ......................................  ......................................  ....................",
"                                                                                                                                ",
"                                                                                                                                ",
"....  ......................................  ......................................  ......................................  ..",
"....  ......................................  ......................................  ......................................  ..",
"....  ......................................  ......................................  ......................................  ..",
"....  ......................................  ......................................  ......................................  ..",
"....  ......................................  ......................................  ......................................  ..",
"....  ......................................  ......................................  ......................................  ..",
"....  ......................................  ......................................  ......................................  ..",
"....  ......................................  ......................................  ......................................  ..",
"....  ......................................  ......................................  ......................................  ..",
"....  ......................................  ......................................  ......................................  ..",
"....  ......................................  ......................................  ......................................  ..",
"....  ......................................  ......................................  ......................................  ..",
"                                                                                                                                ",
"                                                                                                                                ",
"..........................  ......................................  ......................................  ....................",
"..........................  ......................................  ......................................  ....................",
"..........................  ......................................  ......................................  ....................",
"..........................  ......................................  ......................................  ....................",
"..........................  ......................................  ......................................  ....................",
"..........................  ......................................  ......................................  ....................",
"..........................  ......................................  ......................................  ....................",
"..........................  ......................................  ......................................  ....................",
"..........................  ......................................  ......................................  ....................",
"..........................  ......................................  ......................................  ....................",
"..........................  ......................................  ......................................  ....................",
"..........................  ......................................  ......................................  ....................",
"                                                                                                                                ",
"                                                                                                                                "
};
