/* XPM */
static char *result[] = {
/* columns rows colors chars-per-pixel */
"128 128 4 1 ",
"  c #433455",
". c #6F6776",
"X c #C28D75",
"o c #C5CCB8",
/* pixels */
"oooooooooooooooooooooooooooooooooooooooooooooooooooooooooooooooooooooooooooooooooooooooooooooooooooooooooooooooooooooooooooooooo",
"oooooooooooooooooooooooooooooooooooooooooooooooooooooooooooooooooooooooooooooooooooooooooooooooooooooooooooooooooooooooooooooooo",
"                          oo                                      oo                                      oo                    ",
"                          oo                                      oo                                      oo                    ",
"                          oo                                      oo                                      oo                    ",
"                          oo                                      oo                                      oo                    ",
"                          oo                                      oo                                      oo                    ",
"                          oo                                      oo                                      oo                    ",
"                          oo                                      oo                                      oo                    ",
"                          oo                                      oo                                      oo                    ",
"                          oo                                      oo                                      oo                    ",
"                          oo                                      oo                                      oo                    ",
"                          oo                                      oo                                      oo                    ",
"                          oo                                      oo                                      oo                    ",
"oooooooooooooooooooooooooooooooooooooooooooooooooooooooooooooooooooooooooooooooooooooooooooooooooooooooooooooooooooooooooooooooo",
"oooooooooooooooooooooooooooooooooooooooooooooooooooooooooooooooooooooooooooooooooooooooooooooooooooooooooooooooooooooooooooooooo",
"    oo                                      oo                                      oo                                      oo  ",
"    oo                                      oo                                      oo                                      oo  ",
"    oo                                      oo                                      oo                                      oo  ",
"    oo                                      oo                                      oo                                      oo  ",
"    oo                                      oo                                      oo                                      oo  ",
"    oo                                      oo                                      oo                                      oo  ",
"    oo                                      oo                                      oo                                      oo  ",
"    oo                                      oo                                      oo                                      oo  ",
"    oo                                      oo                                      oo                                      oo  ",
"    oo                                      oo                                      oo                                      oo  ",
"    oo                                      oo                                      oo                                      oo  ",
"    oo                                      oo                                      oo                                      oo  ",
"oooooooooooooooooooooooooooooooooooooooooooooooooooooooooooooooooooooooooooooooooooooooooooooooooooooooooooooooooooooooooooooooo",
"oooooooooooooooooooooooooooooooooooooooooooooooooooooooooooooooooooooooooooooooooooooooooooooooooooooooooooooooooooooooooooooooo",
"                          oo                                      oo                                      oo                    ",
"                          oo                                      oo                                      oo                    ",
"                          oo                                      oo                                      oo                    ",
"                          oo                                      oo                                      oo                    ",
"                          oo                                      oo                                      oo                    ",
"                          oo                                      oo                                      oo                    ",
"                          oo                                      oo                                      oo                    ",
"                          oo                                      oo                                      oo                    ",
"                          oo                                    ......                                    oo                    ",
"                          oo                                    ......                                    oo                    ",
"                          oo                                  ..  oo  ..                                  oo                    ",
"                          oo                                  ..  oo  ..                                  oo                    ",
"oooooooooooooooooooooooooooooooooooooooooooooooooooooooooooooo..oooooo..ooooooooooooooooXXoooooooooooooooooooooooooooooooooooooo",
"oooooooooooooooooooooooooooooooooooooooooooooooooooooooooooooo..oooooo..ooooooooooooooooXXoooooooooooooooooooooooooooooooooooooo",
"    oo                                      oo                  ..                  oo                                      oo  ",
"    oo                                      oo                  ..                  oo                                      oo  ",
"    oo                                      oo                    ..              XXXX                                      oo  ",
"    oo                                      oo                    ..              XXXX                                      oo  ",
"    oo                                      oo    XX              ..              XXXX                                      oo  ",
"    oo                                      oo    XX              ..              XXXX                                      oo  ",
"    oo                                      oo                ..........            oo                                      oo  ",
"    oo                                      oo                ..........            oo                                      oo  ",
"    oo                                  XX  oo          ......................      oo                                      oo  ",
"    oo                                  XX  oo          ......................      oo                                      oo  ",
"    oo                                XX  XXoo        ..........................    oo                                      oo  ",
"    oo                                XX  XXoo        ..........................    oo                                      oo  ",
"ooooooooooooooooooooooooooooooooooooooooXXoooooooooooooooo..ooXXXXXXXXXXoo..oooooooooooooooooooooooooooooooooooooooooooooooooooo",
"ooooooooooooooooooooooooooooooooooooooooXXoooooooooooooooo..ooXXXXXXXXXXoo..oooooooooooooooooooooooooooooooooooooooooooooooooooo",
"                          oo                  XXXXXX      ..ooXXXXXXXXXXoo..          XX                  oo                    ",
"                          oo                  XXXXXX      ..ooXXXXXXXXXXoo..          XX                  oo                    ",
"                          oo                XX      XX    ..ooXXXXXXXXXXoo..                              oo                    ",
"                          oo                XX      XX    ..ooXXXXXXXXXXoo..                              oo                    ",
"                          oo                XX      XX    ..ooooXXXXXXoooo..                              oo                    ",
"                          oo                XX      XX    ..ooooXXXXXXoooo..                              oo                    ",
"                          oo                XX      XX    ..XXooooooooooXX..            XX                oo                    ",
"                          oo                XX      XX    ..XXooooooooooXX..            XX                oo                    ",
"                          oo                  XXXXXX        ..XXXXXXXXXX..            XX  XX              oo                    ",
"                          oo                  XXXXXX        ..XXXXXXXXXX..            XX  XX              oo                    ",
"                          oo                                  ..........                XX                oo                    ",
"                          oo                                  ..........                XX                oo                    ",
"ooooooooooooooooooooooooooooooooooooooooooooooooooooooooooooooooooooooooooooooXXXXoooooooooooooooooooooooooooooooooooooooooooooo",
"ooooooooooooooooooooooooooooooooooooooooooooooooooooooooooooooooooooooooooooooXXXXoooooooooooooooooooooooooooooooooooooooooooooo",
"    oo                                      oo          XX                    XXXX  oo                                      oo  ",
"    oo                                      oo          XX                    XXXX  oo                                      oo  ",
"    oo                                      XXXX      XX  XX                        oo                                      oo  ",
"    oo                                      XXXX      XX  XX                        oo                                      oo  ",
"    oo                                      XXXX        XX                          oo                                      oo  ",
"    oo                                      XXXX        XX                          oo                                      oo  ",
"    oo                                      oo                    XXXX              oo                                      oo  ",
"    oo                                      oo                    XXXX              oo                                      oo  ",
"    oo                                      oo                                      oo                                      oo  ",
"    oo                                      oo                                      oo                                      oo  ",
"    oo                                      oo                                      oo                                      oo  ",
"    oo                                      oo                                      oo                                      oo  ",
"oooooooooooooooooooooooooooooooooooooooooooooooooooooooooooooooooooooooooooooooooooooooooooooooooooooooooooooooooooooooooooooooo",
"oooooooooooooooooooooooooooooooooooooooooooooooooooooooooooooooooooooooooooooooooooooooooooooooooooooooooooooooooooooooooooooooo",
"                          oo                                      oo                                      oo                    ",
"                          oo                                      oo                                      oo                    ",
"                          oo                                      oo                                      oo                    ",
"                          oo                                      oo                                      oo                    ",
"                          oo                                      oo                                      oo                    ",
"                          oo                                      oo                                      oo                    ",
"                          oo                                      oo                                      oo                    ",
"                          oo                                      oo                                      oo                    ",
"                          oo                                      oo                                      oo                    ",
"                          oo                                      oo                                      oo                    ",
"                          oo                                      oo                                      oo                    ",
"                          oo                                      oo                                      oo                    ",
"oooooooooooooooooooooooooooooooooooooooooooooooooooooooooooooooooooooooooooooooooooooooooooooooooooooooooooooooooooooooooooooooo",
"oooooooooooooooooooooooooooooooooooooooooooooooooooooooooooooooooooooooooooooooooooooooooooooooooooooooooooooooooooooooooooooooo",
"    oo                                      oo                                      oo                                      oo  ",
"    oo                                      oo                                      oo                                      oo  ",
"    oo                                      oo                                      oo                                      oo  ",
"    oo                                      oo                                      oo                                      oo  ",
"    oo                                      oo                                      oo                                      oo  ",
"    oo                                      oo                                      oo                                      oo  ",
"    oo                                      oo                                      oo                                      oo  ",
"    oo                                      oo                                      oo                                      oo  ",
"    oo                                      oo                                      oo                                      oo  ",
"    oo                                      oo                                      oo                                      oo  ",
"    oo                                      oo                                      oo                                      oo  ",
"    oo                                      oo                                      oo                                      oo  ",
"oooooooooooooooooooooooooooooooooooooooooooooooooooooooooooooooooooooooooooooooooooooooooooooooooooooooooooooooooooooooooooooooo",
"oooooooooooooooooooooooooooooooooooooooooooooooooooooooooooooooooooooooooooooooooooooooooooooooooooooooooooooooooooooooooooooooo",
"                          oo                                      oo                                      oo                    ",
"                          oo                                      oo                                      oo                    ",
"                          oo                                      oo                                      oo                    ",
"                          oo                                      oo                                      oo                    ",
"                          oo                                      oo                                      oo                    ",
"                          oo                                      oo                                      oo                    ",
"                          oo                                      oo                                      oo                    ",
"                          oo                                      oo                                      oo                    ",
"                          oo                                      oo                                      oo                    ",
"                          oo                                      oo                                      oo                    ",
"                          oo                                      oo                                      oo                    ",
"                          oo                                      oo                                      oo                    ",
"oooooooooooooooooooooooooooooooooooooooooooooooooooooooooooooooooooooooooooooooooooooooooooooooooooooooooooooooooooooooooooooooo",
"oooooooooooooooooooooooooooooooooooooooooooooooooooooooooooooooooooooooooooooooooooooooooooooooooooooooooooooooooooooooooooooooo"
};
