/* XPM */
static char *result[] = {
/* columns rows colors chars-per-pixel */
"64 64 4 1 ",
"  c #413154",
". c #6F6777",
"X c #C38E76",
"o c #C6CDB9",
/* pixels */
"oooooooooooooooooooooooooooooooooooooooooooooooooooooooooooooooo",
"             o                   o                   o          ",
"             o                   o                   o          ",
"             o                   o                   o          ",
"             o                   o                   o          ",
"             o                   o                   o          ",
"             o                   o                   o          ",
"oooooooooooooooooooooooooooooooooooooooooooooooooooooooooooooooo",
"  o                   o                   o                   o ",
"  o                   o                   o                   o ",
"  o                   o                   o                   o ",
"  o                   o                   o                   o ",
"  o                   o                   o                   o ",
"  o                   o                   o                   o ",
"oooooooooooooooooooooooooooooooooooooooooooooooooooooooooooooooo",
"             o                   o                   o          ",
"             o                   o                   o          ",
"             o                   o                   o          ",
"             o                   o    X              o          ",
"             o              X   ...  X X             o          ",
"             o                 . o .  X              o          ",
"ooooooooooooooooooooooooooooooo.ooo.oooooooooooooooooooooooooooo",
"  o                   o   XX    .       XXo                   o ",
"  o                   o   XX     .      XXo                   o ",
"  o                   oX         .        o                   o ",
"  o                   o        .....      o                   o ",
"  o                   o     ...........   X                   o ",
"  o                   o    .............  o                   o ",
"ooooooooooooooooooooooooooooo.oXXXXXo.oooooooooooooooooooooooooo",
"             o        XXX    .oXXXXXo.               o          ",
"             o       X   X   .oXXXXXo.    X          o          ",
"             o       X   X   .ooXXXoo.   X X         o          ",
"             o       X   X   .XoooooX.    X          o          ",
"             o        XXX     .XXXXX.                o          ",
"             o                 .....   XX            o          ",
"oooooooooooooooooooooooooooXooooooooooXooXoooooooooooooooooooooo",
"  o                   o               X  Xo                   o ",
"  o                   o       XX       XX o                   o ",
"  o                   o       XX   X      o                   o ",
"  o                   o                   o                   o ",
"  o                   o                   o                   o ",
"  o                   o                   o                   o ",
"oooooooooooooooooooooooooooooooooooooooooooooooooooooooooooooooo",
"             o                   o                   o          ",
"             o                   o                   o          ",
"             o                   o                   o          ",
"             o                   o                   o          ",
"             o                   o                   o          ",
"             o                   o                   o          ",
"oooooooooooooooooooooooooooooooooooooooooooooooooooooooooooooooo",
"  o                   o                   o                   o ",
"  o                   o                   o                   o ",
"  o                   o                   o                   o ",
"  o                   o                   o                   o ",
"  o                   o                   o                   o ",
"  o                   o                   o                   o ",
"oooooooooooooooooooooooooooooooooooooooooooooooooooooooooooooooo",
"             o                   o                   o          ",
"             o                   o                   o          ",
"             o                   o                   o          ",
"             o                   o                   o          ",
"             o                   o                   o          ",
"             o                   o                   o          ",
"oooooooooooooooooooooooooooooooooooooooooooooooooooooooooooooooo"
};
