/* XPM */
static char *result[] = {
/* columns rows colors chars-per-pixel */
"64 64 4 1 ",
"  c #413154",
". c #6F6777",
"X c #C38E76",
"o c #C6CDB9",
/* pixels */
"oooooooooooooooooooooooooooooooooooooooooooooooooooooooooooooooo",
"             o                   o                   o          ",
"             o                   o                   o          ",
"             o                   o                   o          ",
"             o                   o                   o          ",
"             o                   o                   o          ",
"             o                   o                   o          ",
"oooooooooooooooooooooooooooooooooooooooooooooooooooooooooooooooo",
"  o                   o                   o                   o ",
"  o                   o                   o                   o ",
"  o                   o                   o                   o ",
"  o                   o                   o                   o ",
"  o                   o                   o                   o ",
"  o                   o                   o                   o ",
"oooooooooooooooooooooooooooooooooooooooooooooooooooooooooooooooo",
"             o                   o                   o          ",
"             o                   o                   o          ",
"             o                   o                   o          ",
"             o                   o   X               o          ",
"             o                  ... X X              o          ",
"             o              X  . o . X               o          ",
"ooooooooooooooooooooooooooooooo.ooo.ooooXXoooooooooooooooooooooo",
"  o                   o  XX     .       XXo                   o ",
"  o                   o  XX      .        o                   o ",
"  o                   o          .        o                   o ",
"  o                   o        .....      X                   o ",
"  o                   oX    ...........   o                   o ",
"  o                   o    .............  o                   o ",
"ooooooooooooooooooooooooooooo.oXXXXXo.oooooXoooooooooooooooooooo",
"             o               .oXXXXXo.    X X        o          ",
"             o        XXX    .oXXXXXo.     X         o          ",
"             o       X   X   .ooXXXoo.               o          ",
"             o       X   X   .XoooooX.               o          ",
"             o       X   X    .XXXXX.   XX           o          ",
"             o        XXX      .....   X  X          o          ",
"oooooooooooooooooooooooooooooooooooooooXooXooooooooooooooooooooo",
"  o                   o    X            XXo                   o ",
"  o                   o        XX   X     o                   o ",
"  o                   o        XX         o                   o ",
"  o                   o                   o                   o ",
"  o                   o                   o                   o ",
"  o                   o                   o                   o ",
"oooooooooooooooooooooooooooooooooooooooooooooooooooooooooooooooo",
"             o                   o                   o          ",
"             o                   o                   o          ",
"             o                   o                   o          ",
"             o                   o                   o          ",
"             o                   o                   o          ",
"             o                   o                   o          ",
"oooooooooooooooooooooooooooooooooooooooooooooooooooooooooooooooo",
"  o                   o                   o                   o ",
"  o                   o                   o                   o ",
"  o                   o                   o                   o ",
"  o                   o                   o                   o ",
"  o                   o                   o                   o ",
"  o                   o                   o                   o ",
"oooooooooooooooooooooooooooooooooooooooooooooooooooooooooooooooo",
"             o                   o                   o          ",
"             o                   o                   o          ",
"             o                   o                   o          ",
"             o                   o                   o          ",
"             o                   o                   o          ",
"             o                   o                   o          ",
"oooooooooooooooooooooooooooooooooooooooooooooooooooooooooooooooo"
};
