/* XPM */
static char *result[] = {
/* columns rows colors chars-per-pixel */
"64 64 4 1 ",
"  c #433455",
". c #C28D75",
"X c #8A8E80",
"o c #C5CCB8",
/* pixels */
"                                                                ",
"    oooooooooooooooooooooooooooooooooooooooooooooooooooooooo    ",
"   o                                                        o   ",
"  o                                                          o  ",
" o                                                            o ",
" o                                                            o ",
" o                                                            o ",
" o                                                            o ",
" o                                                            o ",
" o                                                            o ",
" o                                                            o ",
" o                                                            o ",
" o                        ooooooooooo                         o ",
" o                       ooooooooooooo                        o ",
" o                      ooooooooooooooo                       o ",
" o                     oooooooooooooooo                       o ",
" o                     o...ooooo....ooo                       o ",
" o                     o...o..oo....ooo                       o ",
" o                     o.o.ooooo.o..o o                       o ",
" o                     oooooooooooooo o     o                 o ",
" o               o      oooooooooooo oo  o  o  o              o ",
" o                o     ooo ooo oooooo    o o o               o ",
" o             o  o  o  ooo ooo ooooo                         o ",
" o              o   o   ooo ooo oooo                          o ",
" o                       oo ooo ooo       ooooo               o ",
" o              ooooo                      ooo                o ",
" o               ooo                                          o ",
" o                       oo ooo ooo         o                 o ",
" o                 o      oooooooo         o                  o ",
" o                  o                     o                   o ",
" o                  o                 X  o                    o ",
" o                   o   X     X   o X X                      o ",
" o                    o X X o  X oo   X                       o ",
" o                       X   oooo                             o ",
" o                             X                              o ",
" o                             X   o                          o ",
" o                          o  X oo                           o ",
" o                           oooo                             o ",
" o                             X                              o ",
" o                             X  o                           o ",
" o                           o X o                            o ",
" o                         X  ooo  X                          o ",
" o                        X X     X X                         o ",
" o                         X       X                          o ",
" o                                                            o ",
" o                         o       o                          o ",
" o                         o       o                          o ",
" o                        o       o                           o ",
" o                         o       o                          o ",
" o                         o       o                          o ",
" o                         o       o                          o ",
" o                        o       o                           o ",
" o                       o       o                            o ",
" o                                                            o ",
" o                                                            o ",
" o                                                            o ",
" o                                                            o ",
" o                                                            o ",
" o                                                            o ",
" o                                                            o ",
"  o                                                          o  ",
"   o                                                        o   ",
"    oooooooooooooooooooooooooooooooooooooooooooooooooooooooo    ",
"                                                                "
};
