/* XPM */
static char *result[] = {
/* columns rows colors chars-per-pixel */
"64 64 4 1 ",
"  c #433455",
". c #6F6776",
"X c #C28D75",
"o c #C5CCB8",
/* pixels */
"                                                                ",
"    oooooooooooooooooooooooooooooooooooooooooooooooooooooooo    ",
"   o                                                        o   ",
"  o                                                          o  ",
" o                                                            o ",
" o                                                            o ",
" o                                                            o ",
" o                                                            o ",
" o                                                            o ",
" o                                                            o ",
" o                                                            o ",
" o                                                            o ",
" o                                                            o ",
" o                                                            o ",
" o                                                            o ",
" o                                                            o ",
" o                                                            o ",
" o                                                            o ",
" o                                                            o ",
" o                                                            o ",
" o                                                            o ",
" o                 ooooo                                      o ",
" o                oXXXXXo                                     o ",
" o               oXXXXXXXo                                    o ",
" o               oXXooXXXXo                                   o ",
" o               oXXoooXXXXoooooooooooooooooooooo             o ",
" o               oX.ooooXXXXXXXXXXXXXXXXXXXXXXXoo             o ",
" o               oX.ooooXXX..XXXXXXXX.XX..XXXXXo              o ",
" o               oX.oooXXXXoooooooooooooooXoX.Xo              o ",
" o               oX.ooXXXXo              o.o...o              o ",
" o               o..XXX.Xo               oooooo               o ",
" o                o....Xo                                     o ",
" o                 ooooo                                      o ",
" o                                                            o ",
" o                                                            o ",
" o                 ........                                   o ",
" o                ...............................             o ",
" o                ..........              . ..                o ",
" o                 ........                                   o ",
" o                                                            o ",
" o                                                            o ",
" o                                                            o ",
" o                                                            o ",
" o                                                            o ",
" o                                                            o ",
" o                                                            o ",
" o                                                            o ",
" o                                                            o ",
" o                                                            o ",
" o                                                            o ",
" o                                                            o ",
" o                                                            o ",
" o                                                            o ",
" o                                                            o ",
" o                                                            o ",
" o                                                            o ",
" o                                                            o ",
" o                                                            o ",
" o                                                            o ",
" o                                                            o ",
"  o                                                          o  ",
"   o                                                        o   ",
"    oooooooooooooooooooooooooooooooooooooooooooooooooooooooo    ",
"                                                                "
};
