/* XPM */
static char *ghost_idle11666428681[] = {
/* columns rows colors chars-per-pixel */
"64 64 6 1 ",
"  c black",
". c #2B1F38",
"X c #6F6777",
"o c #886251",
"O c #C38E76",
"+ c #C6CDB9",
/* pixels */
"                                                                ",
"                                                                ",
"                                                                ",
"                                                                ",
"                                                                ",
"                                                                ",
"                                                                ",
"                                                                ",
"                                                                ",
"                                                                ",
"                                                                ",
"                                                                ",
"                                                                ",
"                                                                ",
"                                                                ",
"                                                                ",
"                             XXXXXXXXXXX                        ",
"                           XX+++++++++++XX                      ",
"                          X+++++++++++++++X                     ",
"                         X+++++++++++++++++X                    ",
"                         X+++++++++++++++++X                    ",
"                        X+++++++++++++++++++X                   ",
"                        X+++++++++++++++++++X                   ",
"                        X+++++++++++++++++++X                   ",
"                        X++++++++O+++++O++++X                   ",
"                        X+++++++++++++++++++X                   ",
"                        X++++..X+......X+X++X                   ",
"                        X++++............X++X                   ",
"                        X++++............X++X                   ",
"                        X++++............X++X                   ",
"                        X++++............X++X                   ",
"                        X++++............X++X                   ",
"                       X++++++...ooOOoOXX+++X                   ",
"                       X++++++++++oOOoO+++++X                   ",
"                     XX+++++++++++oOOoO+++++X                   ",
"                   XX+++++++++++++oOOoO+++++X                   ",
"                  X+++++++++++++++oOOoO+++++X                   ",
"                   X++++++++++++++oOOOO+++++X                   ",
"                  X+X+++++++++++++oOOOO+++++X                   ",
"                 X X++++++++++++++++++++++++X                   ",
"                  X+++++++++++++++++++++++++X                   ",
"                 X X+X++++++++++++++++++++X+X                   ",
"                X X X+X++++++++++X+++++++X X                    ",
"                 X X X+++X+X+X+XX++X++++X X                     ",
"                  X X X+X+X+X+X+X+X+X++X X                      ",
"                 X X X X X X X X X X XX                         ",
"                  X X X X XXX X X X X                           ",
"                   X   X  X   X   X                             ",
"                                                                ",
"                                                                ",
"                                                                ",
"                                                                ",
"                                                                ",
"                                                                ",
"                                                                ",
"                                                                ",
"                                                                ",
"                                                                ",
"                                                                ",
"                                                                ",
"                                                                ",
"                                                                ",
"                                                                ",
"                                                                "
};
