/* XPM */
static char *result[] = {
/* columns rows colors chars-per-pixel */
"128 128 4 1 ",
"  c black",
". c #6F6776",
"X c #C6CDB9",
"o c white",
/* pixels */
"                                                                                                                                ",
"                                                                                                                                ",
"                                                                                                                                ",
"                                                ............................................                                    ",
"                                                ............................................                                    ",
"                                              ................................................                                  ",
"                                              ................................................                                  ",
"                                              ............XXXXXX....XXXXXX..XXXXXX............                                  ",
"                                              ............XXXXXX....XXXXXX..XXXXXX............                                  ",
"                                              ............XX..XX....XX..XX..XX..XX............                                  ",
"                                              ............XX..XX....XX..XX..XX..XX............                                  ",
"                                              ............XXXXXXXX..XX..XX..XX..XX............                                  ",
"                                              ............XXXXXXXX..XX..XX..XX..XX............                                  ",
"                                              ............XX....XX..XX..XX..XX..XX............                                  ",
"                                              ............XX....XX..XX..XX..XX..XX............                                  ",
"                                              ............XXXXXXXX..XXXXXX..XXXXXX............                                  ",
"                                              ............XXXXXXXX..XXXXXX..XXXXXX............                                  ",
"                                              ................................................                                  ",
"                                              ................................................                                  ",
"                                                ............................................                                    ",
"                                                ............................................                                    ",
"                                                                           ......                                               ",
"                                                                           ......                                               ",
"                                                                           ....                                                 ",
"                                                                           ....                                                 ",
"                                                                           ..                                                   ",
"                                                                           ..                                                   ",
"                                                                                                                                ",
"                                                                                                                                ",
"                                                                                                                                ",
"                                                                                                                                ",
"                                                                                                                                ",
"                                                                                                                                ",
"                                                                                                                                ",
"                                                                                                                                ",
"                                                                                                                                ",
"                                                                                                                                ",
"                                                                                                                                ",
"                                                                                                                                ",
"                                                                                                                                ",
"                                                                                                                                ",
"                                                                                                                                ",
"                                                                                                                                ",
"                                                                                                                                ",
"                                                                                                                                ",
"                                                                                                                                ",
"                                                                                                                                ",
"                                                                                                                                ",
"                                                                                                                                ",
"                                                                                                                                ",
"                                                                                                                                ",
"                                                                                                                                ",
"                                                                                                                                ",
"                                                                                                                                ",
"                                                                                                                                ",
"                                                                                                                                ",
"                                                                                                                                ",
"                                                                                                                                ",
"                                                                                                                                ",
"                                                                                                                                ",
"                                                                                                                                ",
"                                                                                                                                ",
"                                                                                                                                ",
"                                                                                                                                ",
"                                                                                                                                ",
"                                                                                                                                ",
"                                                                                                                                ",
"                                                                                                                                ",
"                                                                                                                                ",
"                                                                                                                                ",
"                                                                                                                                ",
"                                                                                                                                ",
"                                                                                                                                ",
"                                                                                                                                ",
"                                                                                                                                ",
"                                                                                                                                ",
"                                                                                                                                ",
"                                                                                                                                ",
"                                                                                                                                ",
"                                                                                                                                ",
"                                                                                                                                ",
"                                                                                                                                ",
"                                                                                                                                ",
"                                                                                                                                ",
"                                                                                                                                ",
"                                                                                                                                ",
"                                                                                                                                ",
"                                                                                                                                ",
"                                                                                                                                ",
"                                                                                                                                ",
"                                                                                                                                ",
"                                                                                                                                ",
"                                                                                                                                ",
"                                                                                                                                ",
"                                                                                                                                ",
"                                                                                                                                ",
"                                                                                                                                ",
"                                                                                                                                ",
"                                                                                                                                ",
"                                                                                                                                ",
"                                                                                                                                ",
"                                                                                                                                ",
"                                                                                                                                ",
"                                                                                                                                ",
"                                                                                                                                ",
"                                                                                                                                ",
"                                                                                                                                ",
"                                                                                                                                ",
"                                                                                                                                ",
"                                                                                                                                ",
"                                                                                                                                ",
"                                                                                                                                ",
"                                                                                                                                ",
"                                                                                                                                ",
"                                                                                                                                ",
"                                                                                                                                ",
"                                                                                                                                ",
"                                                                                                                                ",
"                                                                                                                                ",
"                                                                                                                                ",
"                                                                                                                                ",
"                                                                                                                                ",
"                                                                                                                                ",
"                                                                                                                                ",
"                                                                                                                                ",
"                                                                                                                                ",
"                                                                                                                                ",
"                                                                                                                                "
};
