/* XPM */
static char *result[] = {
/* columns rows colors chars-per-pixel */
"128 128 7 1 ",
"  c black",
". c #9C96A1",
"X c #B8B4BC",
"o c #C3B3AB",
"O c #DEC6BC",
"+ c #DFE2D9",
"@ c gray96",
/* pixels */
"                                                                                                                                ",
"                                                                                                                                ",
"                                                                                                                                ",
"                                                                                                                                ",
"                                                                                                                                ",
"                                                                                                                                ",
"                                                                                                                                ",
"                                                                                                                                ",
"                                                                                                                                ",
"                                                                                                                                ",
"                                                                                                                                ",
"                                                                                                                                ",
"                                                                                                                                ",
"                                                                                                                                ",
"                                                                                                                                ",
"                                                                                                                                ",
"                                                                                                                                ",
"                                                                                                                                ",
"                                                                                                                                ",
"                                                                                                                                ",
"                                                                                                                                ",
"                                                                                                                                ",
"                                                                                                                                ",
"                                                                                                                                ",
"                                                                                                                                ",
"                                                                                                                                ",
"                                                                                                                                ",
"                                                                                                                                ",
"                                                                                                                                ",
"                                                                                                                                ",
"                                                                                                                                ",
"                                                                                                                                ",
"                                                          XXXXXXXXXXXXXXXXXXXXXX                                                ",
"                                                          XXXXXXXXXXXXXXXXXXXXXX                                                ",
"                                                      XXXX++++++++++++++++++++++XXXX                                            ",
"                                                      XXXX++++++++++++++++++++++XXXX                                            ",
"                                                    XX++++++++++++++++++++++++++++++XX                                          ",
"                                                    XX++++++++++++++++++++++++++++++XX                                          ",
"                                                  XX++++++++++++++++++++++++++++++++++XX                                        ",
"                                                  XX++++++++++++++++++++++++++++++++++XX                                        ",
"                                                  XX++++++++++++++++++++++++++++++++++XX                                        ",
"                                                  XX++++++++++++++++++++++++++++++++++XX                                        ",
"                                                XX++++++++++++++++++++++++++++++++++++++XX                                      ",
"                                                XX++++++++++++++++++++++++++++++++++++++XX                                      ",
"                                                XX++++++++++++++++++++++++++++++++++++++XX                                      ",
"                                                XX++++++++++++++++++++++++++++++++++++++XX                                      ",
"                                                XX++++++++++++++++++++++++++++++++++++++XX                                      ",
"                                                XX++++++++++++++++++++++++++++++++++++++XX                                      ",
"                                                XX++++++++++++++++OO++++++++++OO++++++++XX                                      ",
"                                                XX++++++++++++++++OO++++++++++OO++++++++XX                                      ",
"                                                XX++++++++++++++++++++++++++++++++++++++XX                                      ",
"                                                XX++++++++++++++++++++++++++++++++++++++XX                                      ",
"                                                XX++++++++....XX++............XX++XX++++XX                                      ",
"                                                XX++++++++....XX++............XX++XX++++XX                                      ",
"                                                XX++++++++........................XX++++XX                                      ",
"                                                XX++++++++........................XX++++XX                                      ",
"                                                XX++++++++........................XX++++XX                                      ",
"                                                XX++++++++........................XX++++XX                                      ",
"                                                XX++++++++........................XX++++XX                                      ",
"                                                XX++++++++........................XX++++XX                                      ",
"                                                XX++++++++........................XX++++XX                                      ",
"                                                XX++++++++........................XX++++XX                                      ",
"                                                XX++++++++........................XX++++XX                                      ",
"                                                XX++++++++........................XX++++XX                                      ",
"                                              XX++++++++++++......ooooOOOOooOOXXXX++++++XX                                      ",
"                                              XX++++++++++++......ooooOOOOooOOXXXX++++++XX                                      ",
"                                              XX++++++++++++++++++++ooOOOOooOO++++++++++XX                                      ",
"                                              XX++++++++++++++++++++ooOOOOooOO++++++++++XX                                      ",
"                                          XXXX++++++++++++++++++++++ooOOOOooOO++++++++++XX                                      ",
"                                          XXXX++++++++++++++++++++++ooOOOOooOO++++++++++XX                                      ",
"                                      XXXX++++++++++++++++++++++++++ooOOOOooOO++++++++++XX                                      ",
"                                      XXXX++++++++++++++++++++++++++ooOOOOooOO++++++++++XX                                      ",
"                                    XX++++++++++++++++++++++++++++++ooOOOOooOO++++++++++XX                                      ",
"                                    XX++++++++++++++++++++++++++++++ooOOOOooOO++++++++++XX                                      ",
"                                      XX++++++++++++++++++++++++++++ooOOOOOOOO++++++++++XX                                      ",
"                                      XX++++++++++++++++++++++++++++ooOOOOOOOO++++++++++XX                                      ",
"                                    XX@@XX++++++++++++++++++++++++++ooOOOOOOOO++++++++++XX                                      ",
"                                    XX@@XX++++++++++++++++++++++++++ooOOOOOOOO++++++++++XX                                      ",
"                                  XX@@XX++++++++++++++++++++++++++++++++++++++++++++++++XX                                      ",
"                                  XX@@XX++++++++++++++++++++++++++++++++++++++++++++++++XX                                      ",
"                                    XX++++++++++++++++++++++++++++++++++++++++++++++++++XX                                      ",
"                                    XX++++++++++++++++++++++++++++++++++++++++++++++++++XX                                      ",
"                                  XX@@XX++XX++++++++++++++++++++++++++++++++++++++++XX++XX                                      ",
"                                  XX@@XX++XX++++++++++++++++++++++++++++++++++++++++XX++XX                                      ",
"                                XX@@XX@@XX++XX++++++++++++++++++++XX++++++++++++++XX@@XX                                        ",
"                                XX@@XX@@XX++XX++++++++++++++++++++XX++++++++++++++XX@@XX                                        ",
"                                  XX@@XX@@XX++++++XX++XX++XX++XXXX++++XX++++++++XX@@XX                                          ",
"                                  XX@@XX@@XX++++++XX++XX++XX++XXXX++++XX++++++++XX@@XX                                          ",
"                                    XX@@XX@@XX++XX++XX++XX++XX++XX++XX++XX++++XX  XX                                            ",
"                                    XX@@XX@@XX++XX++XX++XX++XX++XX++XX++XX++++XX  XX                                            ",
"                                  XX@@XX@@XX@@XX@@XX@@XX@@XX@@XX@@XX@@XX@@XXXX                                                  ",
"                                  XX@@XX@@XX@@XX@@XX@@XX@@XX@@XX@@XX@@XX@@XXXX                                                  ",
"                                    XX@@XX  XX@@XX  XXXXXX  XX  XX  XX  XX                                                      ",
"                                    XX@@XX  XX@@XX  XXXXXX  XX  XX  XX  XX                                                      ",
"                                      XX      XX    XX      XX      XX                                                          ",
"                                      XX      XX    XX      XX      XX                                                          ",
"                                                                                                                                ",
"                                                                                                                                ",
"                                                                                                                                ",
"                                                                                                                                ",
"                                                                                                                                ",
"                                                                                                                                ",
"                                                                                                                                ",
"                                                                                                                                ",
"                                                                                                                                ",
"                                                                                                                                ",
"                                                                                                                                ",
"                                                                                                                                ",
"                                                                                                                                ",
"                                                                                                                                ",
"                                                                                                                                ",
"                                                                                                                                ",
"                                                                                                                                ",
"                                                                                                                                ",
"                                                                                                                                ",
"                                                                                                                                ",
"                                                                                                                                ",
"                                                                                                                                ",
"                                                                                                                                ",
"                                                                                                                                ",
"                                                                                                                                ",
"                                                                                                                                ",
"                                                                                                                                ",
"                                                                                                                                ",
"                                                                                                                                ",
"                                                                                                                                ",
"                                                                                                                                ",
"                                                                                                                                "
};
