/* XPM */
static char *result[] = {
/* columns rows colors chars-per-pixel */
"128 128 8 1 ",
"  c black",
". c #6F6776",
"X c #C5CCB8",
"o c #C28D75",
"O c #2F243B",
"+ c #876252",
"@ c #433455",
"# c white",
/* pixels */
"                                                                                                                                ",
"                                                                                                                                ",
"                                                                                                                                ",
"                                                                                                                                ",
"                                                                                                                                ",
"                                                                                                                                ",
"                                                                                                                                ",
"                                                                                                                                ",
"                                                                                                                                ",
"                                                                                                                                ",
"                                                                                                                                ",
"                                                                                                                                ",
"                                                                                                                                ",
"                                                                                                                                ",
"                                                                                                                                ",
"                                                                                                                                ",
"                                                                                                                                ",
"                                                                                                                                ",
"                                                                                                                                ",
"                                                                                                                                ",
"                                                                                                                                ",
"                                                                                                                                ",
"                                                                                                                                ",
"                                                                                                                                ",
"                                                                                                                                ",
"                                                                                                                                ",
"                                                          ......................                                                ",
"                                                          ......................                                                ",
"                                                      ....XXXXXXXXXXXXXXXXXXXXXX....                                            ",
"                                                      ....XXXXXXXXXXXXXXXXXXXXXX....                                            ",
"                                                    ..XXXXXXXXXXXXXXXXXXXXXXXXXXXXXX..                                          ",
"                                                    ..XXXXXXXXXXXXXXXXXXXXXXXXXXXXXX..                                          ",
"                                                  ..XXXXXXXXXXXXXXXXXXXXXXXXXXXXXXXXXX..                                        ",
"                                                  ..XXXXXXXXXXXXXXXXXXXXXXXXXXXXXXXXXX..                                        ",
"                                                  ..XXXXXXXXXXXXXXXXXXXXXXXXXXXXXXXXXX..                                        ",
"                                                  ..XXXXXXXXXXXXXXXXXXXXXXXXXXXXXXXXXX..                                        ",
"                                                ..XXXXXXXXXXXXXXXXXXXXXXXXXXXXXXXXXXXXXX..                                      ",
"                                                ..XXXXXXXXXXXXXXXXXXXXXXXXXXXXXXXXXXXXXX..                                      ",
"                                                ..XXXXXXXXXXXXXXXXXXXXXXXXXXXXXXXXXXXXXX..                                      ",
"                                                ..XXXXXXXXXXXXXXXXXXXXXXXXXXXXXXXXXXXXXX..                                      ",
"                                                ..XXXXXXXXXXXXXXXXXXXXXXXXXXXXXXXXXXXXXX..                                      ",
"                                                ..XXXXXXXXXXXXXXXXXXXXXXXXXXXXXXXXXXXXXX..                                      ",
"                                                ..XXXXXXXXXXXXXXXXooXXXXXXXXXXooXXXXXXXX..                                      ",
"                                                ..XXXXXXXXXXXXXXXXooXXXXXXXXXXooXXXXXXXX..                                      ",
"                                                ..XXXXXXXXXXXXXXXXXXXXXXXXXXXXXXXXXXXXXX..                                      ",
"                                                ..XXXXXXXXXXXXXXXXXXXXXXXXXXXXXXXXXXXXXX..                                      ",
"                                                ..XXXXXXXXOOOO..XXOOOOOOOOOOOO..XX..XXXX..                                      ",
"                                                ..XXXXXXXXOOOO..XXOOOOOOOOOOOO..XX..XXXX..                                      ",
"                                                ..XXXXXXXXOOOOOOOOOOOOOOOOOOOOOOOO..XXXX..                                      ",
"                                                ..XXXXXXXXOOOOOOOOOOOOOOOOOOOOOOOO..XXXX..                                      ",
"                                                ..XXXXXXXXOOOOOOOOOOOOOOOOOOOOOOOO..XXXX..                                      ",
"                                                ..XXXXXXXXOOOOOOOOOOOOOOOOOOOOOOOO..XXXX..                                      ",
"                                                ..XXXXXXXXXXXXOOOO++++oooo++ooOOOOXXXXXX..                                      ",
"                                                ..XXXXXXXXXXXXOOOO++++oooo++ooOOOOXXXXXX..                                      ",
"                                                ..XXXXXXXXXXXXXXXXXX++oooo++ooXXXXXXXXXX..                                      ",
"                                                ..XXXXXXXXXXXXXXXXXX++oooo++ooXXXXXXXXXX..                                      ",
"                                                ..XXXXXXXXXXXXXXXXXX++oooo++ooXXXXXXXXXX..                                      ",
"                                                ..XXXXXXXXXXXXXXXXXX++oooo++ooXXXXXXXXXX..                                      ",
"                                              ..XXXXXXXXXXXXXXXXXXXX++oooo++ooXXXXXXXXXX..                                      ",
"                                              ..XXXXXXXXXXXXXXXXXXXX++oooo++ooXXXXXXXXXX..                                      ",
"                                              ..XXXXXXXXXXXXXXXXXXXX++oooo++ooXXXXXXXXXX..                                      ",
"                                              ..XXXXXXXXXXXXXXXXXXXX++oooo++ooXXXXXXXXXX..                                      ",
"                                          ....XXXXXXXXXXXXXXXXXXXXXX++ooooooooXXXXXXXXXX..                                      ",
"                                          ....XXXXXXXXXXXXXXXXXXXXXX++ooooooooXXXXXXXXXX..                                      ",
"                                      ....XXXXXXXXXXXXXXXXXXXXXXXXXX++ooooooooXXXXXXXXXX..                                      ",
"                                      ....XXXXXXXXXXXXXXXXXXXXXXXXXX++ooooooooXXXXXXXXXX..                                      ",
"                                    ..XXXXXXXXXXXXXXXXXXXXXXXXXXXXXXXXXXXXXXXXXXXXXXXXXX..                                      ",
"                                    ..XXXXXXXXXXXXXXXXXXXXXXXXXXXXXXXXXXXXXXXXXXXXXXXXXX..                                      ",
"                                      ..XXXXXXXXXXXXXXXXXXXXXXXXXXXXXXXXXXXXXXXXXXXXXXXX..                                      ",
"                                      ..XXXXXXXXXXXXXXXXXXXXXXXXXXXXXXXXXXXXXXXXXXXXXXXX..                                      ",
"                                    ..XX..XXXXXXXXXXXXXXXXXXXXXXXXXXXXXXXXXXXXXXXXXXXXXX..                                      ",
"                                    ..XX..XXXXXXXXXXXXXXXXXXXXXXXXXXXXXXXXXXXXXXXXXXXXXX..                                      ",
"                                  ..@@..XXXXXXXXXXXXXXXXXXXXXXXXXXXXXXXXXXXXXXXXXXXXXXXX..                                      ",
"                                  ..@@..XXXXXXXXXXXXXXXXXXXXXXXXXXXXXXXXXXXXXXXXXXXXXXXX..                                      ",
"                                    ..XXXXXXXXXXXXXXXXXXXXXXXXXXXXXXXXXXXXXXXXXXXXXXXXXX..                                      ",
"                                    ..XXXXXXXXXXXXXXXXXXXXXXXXXXXXXXXXXXXXXXXXXXXXXXXXXX..                                      ",
"                                  ..@@..XX..XXXXXXXXXXXXXXXXXXXXXXXXXXXXXXXXXXXXXXXX..XX..                                      ",
"                                  ..@@..XX..XXXXXXXXXXXXXXXXXXXXXXXXXXXXXXXXXXXXXXXX..XX..                                      ",
"                                ..@@..@@..XX..XXXXXXXXXXXXXXXXXXXX..XXXXXXXXXXXXXX..@@..                                        ",
"                                ..@@..@@..XX..XXXXXXXXXXXXXXXXXXXX..XXXXXXXXXXXXXX..@@..                                        ",
"                                  ..@@..@@..XXXXXX..XX..XX..XX....XXXX..XXXXXXXX..@@..                                          ",
"                                  ..@@..@@..XXXXXX..XX..XX..XX....XXXX..XXXXXXXX..@@..                                          ",
"                                    ..@@..@@..XX..XX..XX..XX..XX..XX..XX..XXXX..  ..                                            ",
"                                    ..@@..@@..XX..XX..XX..XX..XX..XX..XX..XXXX..  ..                                            ",
"                                  ..@@..@@..@@..@@..@@..@@..@@..@@..@@..@@....                                                  ",
"                                  ..@@..@@..@@..@@..@@..@@..@@..@@..@@..@@....                                                  ",
"                                    ..@@..  ..@@..  ......  ..  ..  ..  ..                                                      ",
"                                    ..@@..  ..@@..  ......  ..  ..  ..  ..                                                      ",
"                                      ..      ..    ..      ..      ..                                                          ",
"                                      ..      ..    ..      ..      ..                                                          ",
"                                                                                                                                ",
"                                                                                                                                ",
"                                                                                                                                ",
"                                                                                                                                ",
"                                                                                                                                ",
"                                                                                                                                ",
"                                                                                                                                ",
"                                                                                                                                ",
"                                                                                                                                ",
"                                                                                                                                ",
"                                                                                                                                ",
"                                                                                                                                ",
"                                                                                                                                ",
"                                                                                                                                ",
"                                                                                                                                ",
"                                                                                                                                ",
"                                                                                                                                ",
"                                                                                                                                ",
"                                                                                                                                ",
"                                                                                                                                ",
"                                                                                                                                ",
"                                                                                                                                ",
"                                                                                                                                ",
"                                                                                                                                ",
"                                                                                                                                ",
"                                                                                                                                ",
"                                                                                                                                ",
"                                                                                                                                ",
"                                                                                                                                ",
"                                                                                                                                ",
"                                                                                                                                ",
"                                                                                                                                ",
"                                                                                                                                ",
"                                                                                                                                ",
"                                                                                                                                ",
"                                                                                                                                ",
"                                                                                                                                ",
"                                                                                                                                "
};
