/* XPM */
static char *ghost_idle41666428682[] = {
/* columns rows colors chars-per-pixel */
"64 64 7 1 ",
"  c black",
". c #2B1F38",
"X c #413154",
"o c #6F6777",
"O c #886251",
"+ c #C38E76",
"@ c #C6CDB9",
/* pixels */
"                                                                ",
"                                                                ",
"                                                                ",
"                                                                ",
"                                                                ",
"                                                                ",
"                                                                ",
"                                                                ",
"                                                                ",
"                                                                ",
"                                                                ",
"                                                                ",
"                                                                ",
"                             ooooooooooo                        ",
"                           oo@@@@@@@@@@@oo                      ",
"                          o@@@@@@@@@@@@@@@o                     ",
"                         o@@@@@@@@@@@@@@@@@o                    ",
"                         o@@@@@@@@@@@@@@@@@o                    ",
"                        o@@@@@@@@@@@@@@@@@@@o                   ",
"                        o@@@@@@@@@@@@@@@@@@@o                   ",
"                        o@@@@@@@@@@@@@@@@@@@o                   ",
"                        o@@@@@@@@+@@@@@+@@@@o                   ",
"                        o@@@@@@@@@@@@@@@@@@@o                   ",
"                        o@@@@..o@......o@o@@o                   ",
"                        o@@@@............o@@o                   ",
"                        o@@@@............o@@o                   ",
"                        o@@@@@@..OO++O+..@@@o                   ",
"                        o@@@@@@@@@O++O+@@@@@o                   ",
"                        o@@@@@@@@@O++O+@@@@@o                   ",
"                       o@@@@@@@@@@O++O+@@@@@o                   ",
"                       o@@@@@@@@@@O++O+@@@@@o                   ",
"                     oo@@@@@@@@@@@O++++@@@@@o                   ",
"                   oo@@@@@@@@@@@@@O++++@@@@@o                   ",
"                  o@@@@@@@@@@@@@@@@@@@@@@@@@o                   ",
"                   o@@@@@@@@@@@@@@@@@@@@@@@@o                   ",
"                  o@o@@@@@@@@@@@@@@@@@@@@@@@o                   ",
"                 oXo@@@@@@@@@@@@@@@@@@@@@@@@o                   ",
"                  o@@@@@@@@@@@@@@@@@@@@@@@@@o                   ",
"                 oXo@o@@@@@@@@@@@@@@@@@@@@o@o                   ",
"                oXoXo@o@@@@@@@@@@o@@@@@@@oXo                    ",
"                 oXoXo@@@o@o@o@oo@@o@@@@oXo                     ",
"                  oXoXo@o@o@o@o@o@o@o@@o o                      ",
"                 oXoXoXoXoXoXoXoXoXoXoo                         ",
"                  oXo oXo ooo o o o o                           ",
"                   o   o  o   o   o                             ",
"                                                                ",
"                                                                ",
"                                                                ",
"                                                                ",
"                                                                ",
"                                                                ",
"                                                                ",
"                                                                ",
"                                                                ",
"                                                                ",
"                                                                ",
"                                                                ",
"                                                                ",
"                                                                ",
"                                                                ",
"                                                                ",
"                                                                ",
"                                                                ",
"                                                                "
};
