/* XPM */
static char *result[] = {
/* columns rows colors chars-per-pixel */
"128 128 4 1 ",
"  c black",
". c #6F6776",
"X c #C28D75",
"o c #C5CCB8",
/* pixels */
"                                                                                                                                ",
"                                                                                                                                ",
"                                                                                                                                ",
"                                                                                                                                ",
"                                                                                                                                ",
"                                                                                                                                ",
"                                                                                                                                ",
"                                                                                                                                ",
"                                                                                                                                ",
"                                                                                                                                ",
"                                                                                                                                ",
"                                                                                                                                ",
"                                                                                                                                ",
"                                                                                                                                ",
"                                                                                                                                ",
"                                                                                                                                ",
"                                                                                                                                ",
"                                                                                                                                ",
"                                                                                                                                ",
"                                                                                                                                ",
"                                                                                                                                ",
"                                                                                                                                ",
"                                                                                                                                ",
"                                                                                                                                ",
"                                                                                                                                ",
"                                                                                                                                ",
"                                                                                                                                ",
"                                                                                                                                ",
"                                                                                                                                ",
"                                                                                                                                ",
"                                                                                                                                ",
"                                                                                                                                ",
"                                                                                                                                ",
"                                                                                                                                ",
"                                                                                                                                ",
"                                                                                                                                ",
"                                                                                                                                ",
"                                                                                                                                ",
"                                                                                                                                ",
"                                                                                                                                ",
"                                                                                                                                ",
"                                                                                                                                ",
"                                      oooooooooo                                                                                ",
"                                      oooooooooo                                                                                ",
"                                    ooXXXXXXXXXXoo                                                                              ",
"                                    ooXXXXXXXXXXoo                                                                              ",
"                                  ooXXXXXXXXXXXXXXoo                                                                            ",
"                                  ooXXXXXXXXXXXXXXoo                                                                            ",
"                                  ooXXXXooooXXXXXXXXoo                                                                          ",
"                                  ooXXXXooooXXXXXXXXoo                                                                          ",
"                                  ooXXXXooooooXXXXXXXXoooooooooooooooooooooooooooooooooooooooooooo                              ",
"                                  ooXXXXooooooXXXXXXXXoooooooooooooooooooooooooooooooooooooooooooo                              ",
"                                  ooXX..ooooooooXXXXXXXXXXXXXXXXXXXXXXXXXXXXXXXXXXXXXXXXXXXXXXoooo                              ",
"                                  ooXX..ooooooooXXXXXXXXXXXXXXXXXXXXXXXXXXXXXXXXXXXXXXXXXXXXXXoooo                              ",
"                                  ooXX..ooooooooXXXXXX....XXXXXXXXXXXXXXXX..XXXX....XXXXXXXXXXoo                                ",
"                                  ooXX..ooooooooXXXXXX....XXXXXXXXXXXXXXXX..XXXX....XXXXXXXXXXoo                                ",
"                                  ooXX..ooooooXXXXXXXXooooooooooooooooooooooooooooooXXooXX..XXoo                                ",
"                                  ooXX..ooooooXXXXXXXXooooooooooooooooooooooooooooooXXooXX..XXoo                                ",
"                                  ooXX..ooooXXXXXXXXoo                            oo..oo......oo                                ",
"                                  ooXX..ooooXXXXXXXXoo                            oo..oo......oo                                ",
"                                  oo....XXXXXX..XXoo                              oooooooooooo                                  ",
"                                  oo....XXXXXX..XXoo                              oooooooooooo                                  ",
"                                    oo........XXoo                                                                              ",
"                                    oo........XXoo                                                                              ",
"                                      oooooooooo                                                                                ",
"                                      oooooooooo                                                                                ",
"                                                                                                                                ",
"                                                                                                                                ",
"                                                                                                                                ",
"                                                                                                                                ",
"                                      ................                                                                          ",
"                                      ................                                                                          ",
"                                    ..............................................................                              ",
"                                    ..............................................................                              ",
"                                    ....................                            ..  ....                                    ",
"                                    ....................                            ..  ....                                    ",
"                                      ................                                                                          ",
"                                      ................                                                                          ",
"                                                                                                                                ",
"                                                                                                                                ",
"                                                                                                                                ",
"                                                                                                                                ",
"                                                                                                                                ",
"                                                                                                                                ",
"                                                                                                                                ",
"                                                                                                                                ",
"                                                                                                                                ",
"                                                                                                                                ",
"                                                                                                                                ",
"                                                                                                                                ",
"                                                                                                                                ",
"                                                                                                                                ",
"                                                                                                                                ",
"                                                                                                                                ",
"                                                                                                                                ",
"                                                                                                                                ",
"                                                                                                                                ",
"                                                                                                                                ",
"                                                                                                                                ",
"                                                                                                                                ",
"                                                                                                                                ",
"                                                                                                                                ",
"                                                                                                                                ",
"                                                                                                                                ",
"                                                                                                                                ",
"                                                                                                                                ",
"                                                                                                                                ",
"                                                                                                                                ",
"                                                                                                                                ",
"                                                                                                                                ",
"                                                                                                                                ",
"                                                                                                                                ",
"                                                                                                                                ",
"                                                                                                                                ",
"                                                                                                                                ",
"                                                                                                                                ",
"                                                                                                                                ",
"                                                                                                                                ",
"                                                                                                                                ",
"                                                                                                                                ",
"                                                                                                                                ",
"                                                                                                                                ",
"                                                                                                                                ",
"                                                                                                                                ",
"                                                                                                                                ",
"                                                                                                                                ",
"                                                                                                                                ",
"                                                                                                                                "
};
