/* XPM */
static char *result[] = {
/* columns rows colors chars-per-pixel */
"128 128 5 1 ",
"  c black",
". c #C5CCB8",
"X c #C28D75",
"o c #6F6776",
"O c white",
/* pixels */
"                                                                                                                                ",
"                                                                                                                                ",
"                                                                                                                                ",
"                                                                                                                                ",
"                                                                                                                                ",
"                                                                                                                                ",
"                                                                                                                                ",
"                                                                                                                                ",
"                                                                                                                                ",
"                                                                                                                                ",
"                                                                                                                                ",
"                                                                                                                                ",
"                                                                                                                                ",
"                                                                                                                                ",
"                                                                                                                                ",
"                                                                                                                                ",
"                                                                                                                                ",
"                                                                                                                                ",
"                                                                                                                                ",
"                                                                                                                                ",
"                                                                                                                                ",
"                                                                                                                                ",
"                                                                                                                                ",
"                                                                                                                                ",
"                                                                                                                                ",
"                                                                                                                                ",
"                                                                                                                                ",
"                                                                                                                                ",
"                                                                                                                                ",
"                                                                                                                                ",
"                                                                                                                                ",
"                                                                                                                                ",
"                                                                                                                                ",
"                                                                                                                                ",
"                                                                                                                                ",
"                                                                                                                                ",
"                                                                                                                                ",
"                                                                                                                                ",
"                                                                                                                                ",
"                                                                                                                                ",
"                                      ..........                                                                                ",
"                                      ..........                                                                                ",
"                                    ..XXXXXXXXXX..                                                                              ",
"                                    ..XXXXXXXXXX..                                                                              ",
"                                  ..XXXXXXXXXXXXXX..                                                                            ",
"                                  ..XXXXXXXXXXXXXX..                                                                            ",
"                                  ..XXXX....XXXXXXXX..                                                                          ",
"                                  ..XXXX....XXXXXXXX..                                                                          ",
"                                  ..XXXX......XXXXXXXX............................................                              ",
"                                  ..XXXX......XXXXXXXX............................................                              ",
"                                  ..XXoo........XXXXXXXXXXXXXXXXXXXXXXXXXXXXXXXXXXXXXXXXXXXXXX....                              ",
"                                  ..XXoo........XXXXXXXXXXXXXXXXXXXXXXXXXXXXXXXXXXXXXXXXXXXXXX....                              ",
"                                  ..XXoo........XXXXXXooooXXXXXXXXXXXXXXXXooXXXXooooXXXXXXXXXX..                                ",
"                                  ..XXoo........XXXXXXooooXXXXXXXXXXXXXXXXooXXXXooooXXXXXXXXXX..                                ",
"                                  ..XXoo......XXXXXXXX..............................XX..XXooXX..                                ",
"                                  ..XXoo......XXXXXXXX..............................XX..XXooXX..                                ",
"                                  ..XXoo....XXXXXXXX..                            ..oo..oooooo..                                ",
"                                  ..XXoo....XXXXXXXX..                            ..oo..oooooo..                                ",
"                                  ..ooooXXXXXXooXX..                              ............                                  ",
"                                  ..ooooXXXXXXooXX..                              ............                                  ",
"                                    ..ooooooooXX..                                                                              ",
"                                    ..ooooooooXX..                                                                              ",
"                                      ..........                                                                                ",
"                                      ..........                                                                                ",
"                                                                                                                                ",
"                                                                                                                                ",
"                                                                                                                                ",
"                                                                                                                                ",
"                                                                                                                                ",
"                                                                                                                                ",
"                                        oooooooooooooo                                                                          ",
"                                       oooooooooooooooo                                                                         ",
"                                     oooooooooooooooooooooooooooooooooooooooooooooooooooooooooooo                               ",
"                                     oooooooooooooooooooooooooooooooooooooooooooooooooooooooooooo                               ",
"                                     ooooooooooooooooooo                            oo  oooo                                    ",
"                                     ooooooooooooooooooo                                                                        ",
"                                       oooooooooooooooo                                                                         ",
"                                         oooooooooooo                                                                           ",
"                                                                                                                                ",
"                                                                                                                                ",
"                                                                                                                                ",
"                                                                                                                                ",
"                                                                                                                                ",
"                                                                                                                                ",
"                                                                                                                                ",
"                                                                                                                                ",
"                                                                                                                                ",
"                                                                                                                                ",
"                                                                                                                                ",
"                                                                                                                                ",
"                                                                                                                                ",
"                                                                                                                                ",
"                                                                                                                                ",
"                                                                                                                                ",
"                                                                                                                                ",
"                                                                                                                                ",
"                                                                                                                                ",
"                                                                                                                                ",
"                                                                                                                                ",
"                                                                                                                                ",
"                                                                                                                                ",
"                                                                                                                                ",
"                                                                                                                                ",
"                                                                                                                                ",
"                                                                                                                                ",
"                                                                                                                                ",
"                                                                                                                                ",
"                                                                                                                                ",
"                                                                                                                                ",
"                                                                                                                                ",
"                                                                                                                                ",
"                                                                                                                                ",
"                                                                                                                                ",
"                                                                                                                                ",
"                                                                                                                                ",
"                                                                                                                                ",
"                                                                                                                                ",
"                                                                                                                                ",
"                                                                                                                                ",
"                                                                                                                                ",
"                                                                                                                                ",
"                                                                                                                                ",
"                                                                                                                                ",
"                                                                                                                                ",
"                                                                                                                                ",
"                                                                                                                                ",
"                                                                                                                                ",
"                                                                                                                                "
};
