/* XPM */
static char *d3aa33d4b7f9464fc34373a638d01748oBpHrKWcki5KyOW8[] = {
/* columns rows colors chars-per-pixel */
"64 64 4 1 ",
"  c black",
". c #6F6777",
"X c #C38E76",
"o c #C6CDB9",
/* pixels */
"                                                                ",
"                                                                ",
"                                                                ",
"                                                                ",
"                                                                ",
"                                                                ",
"                                                                ",
"                                                                ",
"                                                                ",
"                                                                ",
"                                                                ",
"                                                                ",
"                                                                ",
"                                                                ",
"                                                                ",
"                                                                ",
"                                                                ",
"                                                                ",
"                                                                ",
"                                                                ",
"                   ooooo                                        ",
"                  oXXXXXo                                       ",
"                 oXXXXXXXo                                      ",
"                 oXXooXXXXo                                     ",
"                 oXXoooXXXXoooooooooooooooooooooo               ",
"                 oX.ooooXXXXXXXXXXXXXXXXXXXXXXXoo               ",
"                 oX.ooooXXX..XXXXXXXX.XX..XXXXXo                ",
"                 oX.oooXXXXoooooooooooooooXoX.Xo                ",
"                 oX.ooXXXXo              o.o...o                ",
"                 o..XXX.Xo               oooooo                 ",
"                  o....Xo                                       ",
"                   ooooo                                        ",
"                                                                ",
"                                                                ",
"                                                                ",
"                   ........                                     ",
"                  ..............................                ",
"                  ..........                                    ",
"                    ......                                      ",
"                                                                ",
"                                                                ",
"                                                                ",
"                                                                ",
"                                                                ",
"                                                                ",
"                                                                ",
"                                                                ",
"                                                                ",
"                                                                ",
"                                                                ",
"                                                                ",
"                                                                ",
"                                                                ",
"                                                                ",
"                                                                ",
"                                                                ",
"                                                                ",
"                                                                ",
"                                                                ",
"                                                                ",
"                                                                ",
"                                                                ",
"                                                                ",
"                                                                "
};
