/* XPM */
static char *result[] = {
/* columns rows colors chars-per-pixel */
"64 64 7 1 ",
"  c #36303D",
". c #3C394E",
"X c #433455",
"o c #58525E",
"O c #4F4D60",
"+ c #6F6776",
"@ c #C5CCB8",
/* pixels */
"XXXXXXXXXXXXXXXXXXXXXXXXXXXXXXXXXXXXXXXXXXXXXXXXXXXXXXXXXXXXXXXX",
"XXXX@@@@@@@@@@@@@@@@@@@@@@@@@@@@@@@@@@@@@@@@@@@@@@@@@@@@@@@@XXXX",
"XXX@XXXXXXXXXXXXXXXXXXXXXXXXXXXXXXXXXXXXXXXXXXXXXXXXXXXXXXXX@XXX",
"XX@XXXXXXXXXXXXXXXXXXXXXXXXXXXXXXXXXXXXXXXXXXXXXXXXXXXXXXXXXX@XX",
"X@XXXXXXXXXXXXXXXXXXXXXXXXXXXXXXXXXXXXXXXXXXXXXXXXXXXXXXXXXXXX@X",
"X@XXXXXXXXXXXXXXXXXXXXXXXXXXXXXXXXXXXXXXXXXXXXXXXXXXXXXXXXXXXX@X",
"X@XXXXXXXXXXXXXXXXXXXXXXXXXXXXXXXXXXXXXXXXXXXXXXXXXXXXXXXXXXXX@X",
"X@XXXXXXXXXXXXXXXXXXXXXXXXXXXXXXXXXXXXXXXXXXXXXXXXXXXXXXXXXXXX@X",
"X@XXXXXXXXXXXXXXXXXXXXXXXXXXXXXXXXXXXXXXXXXXXXXXXXXXXXXXXXXXXX@X",
"X@XXXXXXXXXXXXXXXXXXXXXXXXXXXX   ............  XXXXXXXXXXXXXXX@X",
"X@XXXXXXXXXXXXXXXXXXXXXXXXXXX ooo+++++++++ooo++ XXXXXXXXXXXXXX@X",
"X@XXXXXXXXXXXXXXXXXXXXXXXXX   ooo+++++++++ooo++ XXXXXXXXXXXXXX@X",
"X@XXXXXXXXXXXXXXXXXXXOOOOOO++o+++++++++++++++ooOXXXXXXXXXXXXXX@X",
"X@XXXXXXXXXXXXXXXXXXOoooooo++o+++++++++++++++ooOXXXXXXXXXXXXXX@X",
"X@XXXXXXXXXXXXXXXXOOOoooooo++o+++++++++++++++ooOXXXXXXXXXXXXXX@X",
"X@XXXXXXXXXXXXXXXXO++++++++ooo+++++++++++++++++OXXXXXXXXXXXXXX@X",
"X@XXXXXXXXXXXXXXXXO++++++++ooo+++++++++++++++++OXXXXXXXXXXXXXX@X",
"X@XXXXXXXXXXXXXXXXO++++++++ooo+++++++++++++++++OXXXXXXXXXXXXXX@X",
"X@XXXXXXXXXXXXXXXXO++++++++ooo+++++++++++++++++OXXXXXXXXXXXXXX@X",
"X@XXXXXXXXXXXXXXXXO++++++++ooo+++++++++++++++++OXXXXXXXXXXXXXX@X",
"X@XXXXXXXXXXXXXXXXO++++++++ooo+++++++++++++++++OXXXXXXXXXXXXXX@X",
"X@XXXXXXXXXXXXXXXXO++++++++ooo+++++++++++++++++OXXXXXXXXXXXXXX@X",
"X@XXXXXXXXXXXXXXXXO++++++++ooo+++++++++++++++++OXXXXXXXXXXXXXX@X",
"X@XXXXXXXXXXXXXX  O++++++++ooo+++++++++++++++++O  XXXXXXXXXXXX@X",
"X@XXXXXXXXXXXXX ..O+++++++++++ooo++++++++++++ooO.. XXXXXXXXXXX@X",
"X@XXXXXXXXXXXXX ..O+++++++++++ooo++++++++++++ooO.. XXXXXXXXXXX@X",
"X@XXXXXXXXXXXXX ..Ooo++++++++++++ooo++++++oooooO.. XXXXXXXXXXX@X",
"X@XXXXXXXXXXXXX ..Ooo++++++++++++ooo++++++oooooO.. XXXXXXXXXXX@X",
"X@XXXXXXXXXXXXX ..Ooo++++++++++++ooo++++++oooooO.. XXXXXXXXXXX@X",
"X@XXXXXXXXXXXXX.ooOooooo++++++++++++oooooooooooOoo.XXXXXXXXXXX@X",
"X@XXXXXXXXXXXXX.ooOooooo++++++++++++ooo+++oooooOoo.XXXXXXXXXXX@X",
"X@XXXXXXXXXXXXX.ooOooooo++++++++++++ooo+++oooooOoo.XXXXXXXXXXX@X",
"X@XXXXXXXXXXXXX.ooOoo+++ooooooOOOooo+++++++++++Ooo.XXXXXXXXXXX@X",
"X@XXXXXXXXXXXXX.ooOoo+++++++++OOO+oo+++++++++++Ooo.XXXXXXXXXXX@X",
"X@XXXXXXXXXXXXX.ooOoo+++++++++OOO++++++++++++++Ooo.XXXXXXXXXXX@X",
"X@XXXXXXXXXXXXX.ooOOOOOO++++++OOO++++++++++++OOOoo.XXXXXXXXXXX@X",
"X@XXXXXXXXXXXXX.ooOOOOOO++++++OOO++++++++++++OOOoo.XXXXXXXXXXX@X",
"X@XXXXXXXXXXXXX.ooOOOOOOOOOOOOOOOOOOOOOOOOOOOOOOoo.XXXXXXXXXXX@X",
"X@XXXXXXXXXXXXX.ooOOOOOOOOOOOOOOOOOOOOOOOOOOOOOOoo.XXXXXXXXXXX@X",
"X@XXXXXXXXXXXXX.ooOOOOOOOOOOOOOOOOOOOOOOOOOOOOOOoo.XXXXXXXXXXX@X",
"X@XXXXXXXXXXXXX ooOOOOOO+++++++++OOO++++++OOOOOOoo XXXXXXXXXXX@X",
"X@XXXXXXXXXXXXX ooOOOOOO+++++++++OOO++++++OOOOOOoo XXXXXXXXXXX@X",
"X@XXXXXXXXXXXXX ooOOOOOO+++++++++OOO++++++OOOOOOoo XXXXXXXXXXX@X",
"X@XXXXXXXXXXXXX .ooOOOOO+++++++++OOO++++++OOOOOoo. XXXXXXXXXXX@X",
"X@XXXXXXXXXXXXX .ooOOOOO+++++++++OOO++++++OOOOOoo. XXXXXXXXXXX@X",
"X@XXXXXXXXXXXXX .ooOOOOO+++++++++OOO++++++OOOOOoo. XXXXXXXXXXX@X",
"X@XXXXXXXXXXXXXX ..ooOOOOOOOOOOOOOOOOOOOOOOOOoo.. XXXXXXXXXXXX@X",
"X@XXXXXXXXXXXXXXXX.ooOOOOOOOOOOOOOOOOOOOOOOOOoo.XXXXXXXXXXXXXX@X",
"X@XXXXXXXXXXXXXXXX ooOOOOOOOOOOOOOOOOOOOOOOOOoo XXXXXXXXXXXXXX@X",
"X@XXXXXXXXXXXXXXXX  ..........................  XXXXXXXXXXXXXX@X",
"X@XXXXXXXXXXXXXXXXXX ........................ XXXXXXXXXXXXXXXX@X",
"X@XXXXXXXXXXXXXXXXXX  oooooooooooooooooooooo  XXXXXXXXXXXXXXXX@X",
"X@XXXXXXXXXXXXXXXXXXXXXXXXXXXXXXXXXXXXXXXXXXXXXXXXXXXXXXXXXXXX@X",
"X@XXXXXXXXXXXXXXXXXXXXXXXXXXXXXXXXXXXXXXXXXXXXXXXXXXXXXXXXXXXX@X",
"X@XXXXXXXXXXXXXXXXXXXXXXXXXXXXXXXXXXXXXXXXXXXXXXXXXXXXXXXXXXXX@X",
"X@XXXXXXXXXXXXXXXXXXXXXXXXXXXXXXXXXXXXXXXXXXXXXXXXXXXXXXXXXXXX@X",
"X@XXXXXXXXXXXXXXXXXXXXXXXXXXXXXXXXXXXXXXXXXXXXXXXXXXXXXXXXXXXX@X",
"X@XXXXXXXXXXXXXXXXXXXXXXXXXXXXXXXXXXXXXXXXXXXXXXXXXXXXXXXXXXXX@X",
"X@XXXXXXXXXXXXXXXXXXXXXXXXXXXXXXXXXXXXXXXXXXXXXXXXXXXXXXXXXXXX@X",
"X@XXXXXXXXXXXXXXXXXXXXXXXXXXXXXXXXXXXXXXXXXXXXXXXXXXXXXXXXXXXX@X",
"XX@XXXXXXXXXXXXXXXXXXXXXXXXXXXXXXXXXXXXXXXXXXXXXXXXXXXXXXXXXX@XX",
"XXX@XXXXXXXXXXXXXXXXXXXXXXXXXXXXXXXXXXXXXXXXXXXXXXXXXXXXXXXX@XXX",
"XXXX@@@@@@@@@@@@@@@@@@@@@@@@@@@@@@@@@@@@@@@@@@@@@@@@@@@@@@@@XXXX",
"XXXXXXXXXXXXXXXXXXXXXXXXXXXXXXXXXXXXXXXXXXXXXXXXXXXXXXXXXXXXXXXX"
};
