/* XPM */
static char *result[] = {
/* columns rows colors chars-per-pixel */
"64 64 4 1 ",
"  c #433455",
". c #6F6776",
"X c #C28D75",
"o c #C5CCB8",
/* pixels */
"                                                                ",
"    oooooooooooooooooooooooooooooooooooooooooooooooooooooooo    ",
"   o                                                        o   ",
"  o                                                          o  ",
" o                                                            o ",
" o                                                            o ",
" o                                                            o ",
" o                                                            o ",
" o                           .......                          o ",
" o                        ...XXXXXXX...                       o ",
" o                      ..XoXXXXXXXXXXX..                     o ",
" o                     .XXXXooXXXXXXXXXXX.                    o ",
" o                    .XXXXXXXooXXXXXXXooX.                   o ",
" o                   .XXXXXXXXXXXXXXXXoXXXX.                  o ",
" o                  .XXXXXXXXXoooooXXXXXXXXX.                 o ",
" o                 .XXXXXXXXXo.....ooXXXXXXXX.                o ",
" o                 .XXXXXXXo..     ..oXXXXXXX.                o ",
" o                .XXXXXXX..         ..oXXXXXX.               o ",
" o                .oXXXXX.             .XXXXXX.               o ",
" o                .XoXXXX.             .oXXXXX.               o ",
" o               .XXoXXX.               .oXXXXX.              o ",
" o               .XXXXXo.               .oXXXoX.              o ",
" o               .XXXXX.                 .XXXXo.              o ",
" o               .XXXX.                   .XXXX.              o ",
" o               .XXX..                   .XXXX.              o ",
" o               .XX...                   ..XXX.              o ",
" o               .XX....                 ....XX.              o ",
" o                .......               .......               o ",
" o      oooooooooo.....X. ..         .. .......ooooooooo      o ",
" o     o          o....X..oo.........oo...X...o         o     o ",
" o    o            o..X...ooooooooooooo.XX...o           o    o ",
" o   o             o.........oooooooo........o            o   o ",
" o   o     oooooooo o.........ooooo.........o ooooooo     o   o ",
" o   o    o          o.....................o         o    o   o ",
" o   o X o            o...................o           o   o   o ",
" o   o X o             o.................o            o   o   o ",
" o   oX  o              .................             o   o   o ",
" o   o   o             ...................            o   o   o ",
" o   o   o            .....................           o   o   o ",
" o   o   o             ...................            o   o   o ",
" o   o   o                 ...........                o   o   o ",
" o   o   o                                            o   o   o ",
" o   o    o                                          .  XXo   o ",
" o   o     oooooooooooooooooooooooooooooooooooooooooo  X  o   o ",
" o   o                                                    o   o ",
" o   o                                                    o   o ",
" o   oo                                                  oo   o ",
" o   ..oooooooooooooooooooooooooooooooooooooooooooooooooo..   o ",
" o   ..........X.....X...........................X.........   o ",
" o    ..........XX....X.........................X.........    o ",
" o     ..................................................     o ",
" o                                                            o ",
" o                                                            o ",
" o                                                            o ",
" o                                                            o ",
" o                                                            o ",
" o                                                            o ",
" o                                                            o ",
" o                                                            o ",
" o                                                            o ",
"  o                                                          o  ",
"   o                                                        o   ",
"    oooooooooooooooooooooooooooooooooooooooooooooooooooooooo    ",
"                                                                "
};
