/* XPM */
static char *result[] = {
/* columns rows colors chars-per-pixel */
"64 64 4 1 ",
"  c #433455",
". c #C28D75",
"X c #8A8E80",
"o c #C5CCB8",
/* pixels */
"                                                                ",
"    oooooooooooooooooooooooooooooooooooooooooooooooooooooooo    ",
"   o                                                        o   ",
"  o                                                          o  ",
" o                                                            o ",
" o                                                            o ",
" o                                                            o ",
" o                                                            o ",
" o                                                            o ",
" o                                                            o ",
" o                                                            o ",
" o                                                            o ",
" o                       oooooooooooo                         o ",
" o                      oooooooooooooo                        o ",
" o                     oooooooooooooooo                       o ",
" o                    ooooooooooooooooo                       o ",
" o                    o...ooooo....oooo                       o ",
" o                    o...o..oo....oooo                       o ",
" o                    o.o.ooooo.o..oooo                       o ",
" o                    oooooooooooooo oo                       o ",
" o                     ooooooooooooo oo       o               o ",
" o             o       oooooooooooo oo     o  o  o            o ",
" o          o  o  o    ooo ooo oooooo       o o o             o ",
" o           o o o     ooo ooo ooooo                          o ",
" o                     ooo ooo oooo         ooooo             o ",
" o           ooooo      oo ooo ooo           ooo              o ",
" o            ooo                                             o ",
" o                      oo ooo ooo         oo                 o ",
" o             o         oooooooo        oo                   o ",
" o              o                       o                     o ",
" o               oo                   X                       o ",
" o                 ooo   X     X   o X X                      o ",
" o                    o X X o  X oo   X                       o ",
" o                       X   oooo                             o ",
" o                             X                              o ",
" o                             X   o                          o ",
" o                          o  X oo                           o ",
" o                           oooo                             o ",
" o                             X                              o ",
" o                             X  o                           o ",
" o                           o X o                            o ",
" o                         X  ooo  X                          o ",
" o                        X X     X X                         o ",
" o                         X       X                          o ",
" o                                                            o ",
" o                         o       o                          o ",
" o                         o       o                          o ",
" o                        o       o                           o ",
" o                         o       o                          o ",
" o                         o       o                          o ",
" o                         o       o                          o ",
" o                        o       o                           o ",
" o                       o       o                            o ",
" o                                                            o ",
" o                                                            o ",
" o                                                            o ",
" o                                                            o ",
" o                                                            o ",
" o                                                            o ",
" o                                                            o ",
"  o                                                          o  ",
"   o                                                        o   ",
"    oooooooooooooooooooooooooooooooooooooooooooooooooooooooo    ",
"                                                                "
};
