/* XPM */
static char *result[] = {
/* columns rows colors chars-per-pixel */
"64 64 4 1 ",
"  c #433455",
". c #C28D75",
"X c #8A8E80",
"o c #C5CCB8",
/* pixels */
"                                                                ",
"    oooooooooooooooooooooooooooooooooooooooooooooooooooooooo    ",
"   o                                                        o   ",
"  o                                                          o  ",
" o                                                            o ",
" o                                                            o ",
" o                                                            o ",
" o                                                            o ",
" o                        oooooooooooooo                      o ",
" o                       oooooooooooooooo        o            o ",
" o                      oooooooooooooooooo    o  o  o         o ",
" o                     ooooooooooooooooooo     o o o          o ",
" o             o      oooooooooooooooooooo                    o ",
" o             o      oooooooooooooooooooo                    o ",
" o          o  o  o   oooooooooooooooooooo     ooooo          o ",
" o           o   o    o...ooooo....ooooooo      ooo           o ",
" o                    o...ooooo....ooooooo                    o ",
" o           ooooo    o.o.o..oo.o..ooo ooo                    o ",
" o            ooo     oooooooooooooooo ooo       o            o ",
" o                    ooooooooooooooo oooo       o            o ",
" o                     ooooooooooooo oooo        o            o ",
" o             o       ooooooooooooooooo         o            o ",
" o             o       ooo ooo ooooooo           o            o ",
" o             o       ooo ooo oooooo            o            o ",
" o             o       ooo ooo oooooo            o            o ",
" o             o       ooo ooo ooooo            o             o ",
" o             o                                o             o ",
" o              o                              o              o ",
" o               o      oo ooo ooo             o              o ",
" o               o      oo ooo ooo            o               o ",
" o               o       oooooooo            o                o ",
" o                o                         o                 o ",
" o                o                       X                   o ",
" o                 o           X     o   X X                  o ",
" o                  o  X        X   o     X                   o ",
" o                    X X  o    X oo                          o ",
" o                     X    oooooo                            o ",
" o                              X    o                        o ",
" o                              X   o                         o ",
" o                         oo   X oo                          o ",
" o                           ooooo                            o ",
" o                              X                             o ",
" o                          o   X   o                         o ",
" o                           o  X oo                          o ",
" o                            oooo                            o ",
" o                          X       X                         o ",
" o                         X X     X X                        o ",
" o                          X       X                         o ",
" o                                                            o ",
" o                          o       o                         o ",
" o                          o       o                         o ",
" o                         o       o                          o ",
" o                          o       o                         o ",
" o                          o       o                         o ",
" o                          o       o                         o ",
" o                          o       o                         o ",
" o                          o       o                         o ",
" o                       ooo       o                          o ",
" o                               oo                           o ",
" o                                                            o ",
"  o                                                          o  ",
"   o                                                        o   ",
"    oooooooooooooooooooooooooooooooooooooooooooooooooooooooo    ",
"                                                                "
};
