/* XPM */
static char *result[] = {
/* columns rows colors chars-per-pixel */
"64 64 4 1 ",
"  c #2E243B",
". c #2F243B",
"X c #433455",
"o c #C5CCB8",
/* pixels */
"XXXXXXXXXXXXXXXXXXXXXXXXXXXXXXXXXXXXXXXXXXXXXXXXXXXXXXXXXXXXXXXX",
"XXXXooooooooooooooooooooooooooooooooooooooooooooooooooooooooXXXX",
"XXXoXXXXXXXXXXXXXXXXXXXXXXXXXXXXXXXXXXXXXXXXXXXXXXXXXXXXXXXXoXXX",
"XXoXXXXXXXXXXXXXXXXXXXXXXXXXXXXXXXXXXXXXXXXXXXXXXXXXXXXXXXXXXoXX",
"XoXXXXXXXXXXXXXXXXXXXXXXXXXXXXXXXXXXXXXXXXXXXXXXXXXXXXXXXXXXXXoX",
"XoXXXooooooooooooooooooooooooooooooooooooooooooooooooooooooXXXoX",
"XoXXXo               .....................................oXXXoX",
"XoXXXo ooooooooooooo......................................oXXXoX",
"XoXXXo ooooooooooooo .....................................oXXXoX",
"XoXXXo ooooooooooooo .....................................oXXXoX",
"XoXXXo ooooooooooooo .....................................oXXXoX",
"XoXXXo ooooooooooooo .....................................oXXXoX",
"XoXXXo ooooooooooooo .....................................oXXXoX",
"XoXXXo ooooooooooooo .....................................oXXXoX",
"XoXXXo ooooooooooooo .....................................oXXXoX",
"XoXXXo ooooooooooooo               .......................oXXXoX",
"XoXXXo ooooooooooooo ooooooooooooo .......................oXXXoX",
"XoXXXo ooooooooooooo ooooooooooooo .......................oXXXoX",
"XoXXXo ooooooooooooo ooooooooooooo .......................oXXXoX",
"XoXXXo ooooooooooooo ooooooooooooo .......................oXXXoX",
"XoXXXo ooooooooooooo ooooooooooooo .......................oXXXoX",
"XoXXXo ooooooooooooo ooooooooooooo .......................oXXXoX",
"XoXXXo ooooooooooooo ooooooooooooo .......................oXXXoX",
"XoXXXo ooooooooooooo ooooooooooooo               .........oXXXoX",
"XoXXXo ooooooooooooo ooooooooooooo ooooooooooooo .........oXXXoX",
"XoXXXo ooooooooooooo ooooooooooooo ooooooooooooo .........oXXXoX",
"XoXXXo ooooooooooooo ooooooooooooo ooooooooooooo .........oXXXoX",
"XoXXXo ooooooooooooo ooooooooooooo ooooooooooooo .........oXXXoX",
"XoXXXo ooooooooooooo ooooooooooooo ooooooooooooo .........oXXXoX",
"XoXXXo ooooooooooooo ooooooooooooo ooooooooooooo .........oXXXoX",
"XoXXXo ooooooooooooo ooooooooooooo ooooooooooooo .........oXXXoX",
"XoXXXo ooooooooooooo ooooooooooooo ooooooooooooo .........oXXXoX",
"XoXXXo ooooooooooooo ooooooooooooo ooooooooooooo..........oXXXoX",
"XoXXXo ooooooooooooo ooooooooooooo ooooooooooooo ooooooooooXXXoX",
"XoXXXo ooooooooooooo ooooooooooooo ooooooooooooo ooooooooooXXXoX",
"XoXXXo ooooooooooooo ooooooooooooo ooooooooooooo ooooooooooXXXoX",
"XoXXXo ooooooooooooo ooooooooooooo ooooooooooooo ooooooooooXXXoX",
"XoXXXo ooooooooooooo ooooooooooooo ooooooooooooo ooooooooooXXXoX",
"XoXXXo ooooooooooooo ooooooooooooo ooooooooooooo ooooooooooXXXoX",
"XoXXXo ooooooooooooo ooooooooooooo ooooooooooooo ooooooooooXXXoX",
"XoXXXo ooooooooooooo ooooooooooooo ooooooooooooo ooooooooooXXXoX",
"XoXXXo ooooooooooooo ooooooooooooo ooooooooooooo ooooooooooXXXoX",
"XoXXXo ooooooooooooo ooooooooooooo ooooooooooooo ooooooooooXXXoX",
"XoXXXo ooooooooooooo ooooooooooooo ooooooooooooo ooooooooooXXXoX",
"XoXXXo ooooooooooooo ooooooooooooo ooooooooooooo ooooooooooXXXoX",
"XoXXXo ooooooooooooo ooooooooooooo ooooooooooooo ooooooooooXXXoX",
"XoXXXo ooooooooooooo ooooooooooooo ooooooooooooo ooooooooooXXXoX",
"XoXXXo ooooooooooooo ooooooooooooo ooooooooooooo ooooooooooXXXoX",
"XoXXXo ooooooooooooo ooooooooooooo ooooooooooooo ooooooooooXXXoX",
"XoXXXo ooooooooooooo ooooooooooooo ooooooooooooo ooooooooooXXXoX",
"XoXXXo ooooooooooooo ooooooooooooo ooooooooooooo ooooooooooXXXoX",
"XoXXXo ooooooooooooo ooooooooooooo ooooooooooooo ooooooooooXXXoX",
"XoXXXo ooooooooooooo ooooooooooooo ooooooooooooo ooooooooooXXXoX",
"XoXXXo ooooooooooooo ooooooooooooo ooooooooooooo ooooooooooXXXoX",
"XoXXXo ooooooooooooo ooooooooooooo ooooooooooooo ooooooooooXXXoX",
"XoXXXo ooooooooooooo ooooooooooooo ooooooooooooo ooooooooooXXXoX",
"XoXXXo ooooooooooooo ooooooooooooo ooooooooooooo ooooooooooXXXoX",
"XoXXXo              .                                     oXXXoX",
"XoXXXooooooooooooooooooooooooooooooooooooooooooooooooooooooXXXoX",
"XoXXXXXXXXXXXXXXXXXXXXXXXXXXXXXXXXXXXXXXXXXXXXXXXXXXXXXXXXXXXXoX",
"XXoXXXXXXXXXXXXXXXXXXXXXXXXXXXXXXXXXXXXXXXXXXXXXXXXXXXXXXXXXXoXX",
"XXXoXXXXXXXXXXXXXXXXXXXXXXXXXXXXXXXXXXXXXXXXXXXXXXXXXXXXXXXXoXXX",
"XXXXooooooooooooooooooooooooooooooooooooooooooooooooooooooooXXXX",
"XXXXXXXXXXXXXXXXXXXXXXXXXXXXXXXXXXXXXXXXXXXXXXXXXXXXXXXXXXXXXXXX"
};
