/* XPM */
static char *result[] = {
/* columns rows colors chars-per-pixel */
"64 64 6 1 ",
"  c #2F243B",
". c #433455",
"X c #6F6776",
"o c #876252",
"O c #C28D75",
"+ c #C5CCB8",
/* pixels */
"................................................................",
"....++++++++++++++++++++++++++++++++++++++++++++++++++++++++....",
"...+........................................................+...",
"..+..........................................................+..",
".+............................................................+.",
".+............................................................+.",
".+............................................................+.",
".+............................................................+.",
".+............................................................+.",
".+............................................................+.",
".+............................................................+.",
".+............................................................+.",
".+............................................................+.",
".+............................................................+.",
".+............................................................+.",
".+............................................................+.",
".+...........................XXXXXXXXXXX......................+.",
".+.........................XX+++++++++++XX....................+.",
".+........................X+++++++++++++++X...................+.",
".+.......................X+++++++++++++++++X..................+.",
".+.......................X+++++++++++++++++X..................+.",
".+......................X+++++++++++++++++++X.................+.",
".+......................X+++++++++++++++++++X.................+.",
".+......................X+++++++++++++++++++X.................+.",
".+......................X++++++++O+++++O++++X.................+.",
".+......................X+++++++++++++++++++X.................+.",
".+......................X++++  X+      X+X++X.................+.",
".+......................X++++            X++X.................+.",
".+......................X++++            X++X.................+.",
".+......................X++++            X++X.................+.",
".+......................X++++            X++X.................+.",
".+......................X++++            X++X.................+.",
".+.....................X++++++   ooOOoOXX+++X.................+.",
".+.....................X++++++++++oOOoO+++++X.................+.",
".+...................XX+++++++++++oOOoO+++++X.................+.",
".+.................XX+++++++++++++oOOoO+++++X.................+.",
".+................X+++++++++++++++oOOoO+++++X.................+.",
".+.................X++++++++++++++oOOOO+++++X.................+.",
".+................X+X+++++++++++++oOOOO+++++X.................+.",
".+...............X.X++++++++++++++++++++++++X.................+.",
".+................X+++++++++++++++++++++++++X.................+.",
".+...............X.X+X++++++++++++++++++++X+X.................+.",
".+..............X.X.X+X++++++++++X+++++++X.X..................+.",
".+...............X.X.X+++X+X+X+XX++X++++X.X...................+.",
".+................X.X.X+X+X+X+X+X+X+X++X.X....................+.",
".+...............X.X.X.X.X.X.X.X.X.X.XX.......................+.",
".+................X.X.X.X.XXX.X.X.X.X.........................+.",
".+.................X...X..X...X...X...........................+.",
".+............................................................+.",
".+............................................................+.",
".+............................................................+.",
".+............................................................+.",
".+............................................................+.",
".+............................................................+.",
".+............................................................+.",
".+............................................................+.",
".+............................................................+.",
".+............................................................+.",
".+............................................................+.",
".+............................................................+.",
"..+..........................................................+..",
"...+........................................................+...",
"....++++++++++++++++++++++++++++++++++++++++++++++++++++++++....",
"................................................................"
};
