/* XPM */
static char *result[] = {
/* columns rows colors chars-per-pixel */
"64 64 4 1 ",
"  c #433455",
". c #6F6776",
"X c #C28D75",
"o c #C5CCB8",
/* pixels */
"                                                                ",
"    oooooooooooooooooooooooooooooooooooooooooooooooooooooooo    ",
"   o                                                        o   ",
"  o                                                          o  ",
" o                                                            o ",
" o                                                            o ",
" o                                                            o ",
" o                                                            o ",
" o                                                            o ",
" o                                                            o ",
" o                                                            o ",
" o                                                            o ",
" o                                                            o ",
" o                                                            o ",
" o                                                            o ",
" o                                                            o ",
" o                                                            o ",
" o                                                            o ",
" o                                                            o ",
" o                                                            o ",
" o                                                            o ",
" o                 ooooo                                      o ",
" o                o    Xo                                     o ",
" o               o      Xo                                    o ",
" o               o  oo   Xo                                   o ",
" o               o  ooo   .oooooooooooooooooooooo             o ",
" o               o Xoooo  .....                 o             o ",
" o               o Xoooo  .XXXXXXXXXXXXXXXXXX. o              o ",
" o               o Xooo   .ooooooooooooooo.o.X o              o ",
" o               o Xoo   .o              oXoXXXo              o ",
" o               oXX   X.o               oooooo               o ",
" o                oXXXX.o                                     o ",
" o                 ooooo                                      o ",
" o                                                            o ",
" o                                                            o ",
" o                      ...................                   o ",
" o                 .............................              o ",
" o                ...............................             o ",
" o                 .............................              o ",
" o                      ...................                   o ",
" o                                                            o ",
" o                                                            o ",
" o                                                            o ",
" o                                                            o ",
" o                                                            o ",
" o                                                            o ",
" o                                                            o ",
" o                                                            o ",
" o                                                            o ",
" o                                                            o ",
" o                                                            o ",
" o                                                            o ",
" o                                                            o ",
" o                                                            o ",
" o                                                            o ",
" o                                                            o ",
" o                                                            o ",
" o                                                            o ",
" o                                                            o ",
" o                                                            o ",
"  o                                                          o  ",
"   o                                                        o   ",
"    oooooooooooooooooooooooooooooooooooooooooooooooooooooooo    ",
"                                                                "
};
