/* XPM */
static char *result[] = {
/* columns rows colors chars-per-pixel */
"64 64 6 1 ",
"  c #433455",
". c #6F6776",
"X c #C28D75",
"o c #D4AF9F",
"O c #C5CCB8",
"+ c #D6DBCD",
/* pixels */
"                                                                ",
"    OOOOOOOOOOOOOOOOOOOOOOOOOOOOOOOOOOOOOOOOOOOOOOOOOOOOOOOO    ",
"   O                                                        O   ",
"  O                                                          O  ",
" O                                                            O ",
" O   OOOOOOOOOOOOOOOOOOOOOOOOOOOOOOOOOOOOOOOOOOOOOOOOOOOOOO   O ",
" O   O....................................................O   O ",
" O   O.OOOOOOOOOOOOOOOOOOOOOOOOOOOOOOOOOOOOOOOOOOOOOOOOOO.O   O ",
" O   O.O........................O.......................O.O   O ",
" O   O.O........................O.......................O.O   O ",
" O   O.O............. ..........O........ ..............O.O   O ",
" O   O.O............ O .........O....... + .............O.O   O ",
" O   O.O........... O ..........O........ + ............O.O   O ",
" O   O.O........... O ..........O........ ++ ...........O.O   O ",
" O   O.O.......... OO   ........O....... OO+ ...........O.O   O ",
" O   O.O.......... OOOOO                 OO+ ...........O.O   O ",
" O   O.O........... OOO  OOOOOOOOOOOOOO+ O  ............O.O   O ",
" O   O.O............ O  OOOOOOOOOOOOOOO+   .............O.O   O ",
" O   O.O.............  OOOOOOOOOOOOOOOO+++ .............O.O   O ",
" O   O.O.............. OOOOOOOOOOOOOOOOOO+ .............O.O   O ",
" O   O.O.............. OOOOOOOOOOOOOOOOOO+ .............O.O   O ",
" O   O.O.............. OOOOOOOOOOOOOOOOOO+ .............O.O   O ",
" O   O.O.............. OOOOOOOOXXXXXXXXXXo .............O.O   O ",
" O   O.O.............. OOOOOOOX            .............O.O   O ",
" O   O.O.............. OOOOOOOOX           .............O.O   O ",
" O   O.O.............. OOOOOOOOXXXXXX  XXo .............O.O   O ",
" O   O.O.............. OOOOOOOOOOOOOX  XOO .............O.O   O ",
" O   O.O.............. OOOOOOOOOOOOOX  XOO .............O.O   O ",
" O   O.O.............. OOOOOOOOOOOOOX  XOO .............O.O   O ",
" O   O.O.............. OOOOOOOOOOOOOX  XOO .............O.O   O ",
" O   O.O...............  OOOOOOOOOOOX  XO ..............O.O   O ",
" O   O.O.................                O..............O.O   O ",
" O   O.O.................O   XOOOOOOO X  O..............O.O   O ",
" O   O.O................   XXOOOOOOOOO XX ..............O.O   O ",
" O   O.O............... .....OOOOOOOOO OO ..............O.O   O ",
" O   O.O.............. .......OOOOOXOX O ...............O.O   O ",
" O   O.O............. ..XXXXX..OOOXXOX O ...............O.O   O ",
" O   O.O............ ..XXXXXXX..OOOOOO O ...............O.O   O ",
" O   O.O........... ..XXXOXOXXX..OXXOX O ...............O.O   O ",
" O   O.O........... ..XXOOXOOXX..OOXOX O ...............O.O   O ",
" O   O.O........... ..XXXXXXXXX..OOOOO   ...............O.O   O ",
" O   O.O........... ..XXOOXOOXX..OOOOO O ...............O.O   O ",
" O   O.O........... ..XXXOXOXXX..OOOO  O ...............O.O   O ",
" O   O.O............ ..XXXXXXX..      O ................O.O   O ",
" O   O.O............. ..XXXXX.. O  O . .................O.O   O ",
" O   O.O.............. .......  O  O ...................O.O   O ",
" O   O.O............... ..... . O  O ...................O.O   O ",
" O   O.O................     .. O  O  ..................O.O   O ",
" O   O.O....................... OX OX ..................O.O   O ",
" O   O.O........................     ...................O.O   O ",
" O   O.O........................O.......................O.O   O ",
" O   O.O........................O.......................O.O   O ",
" O   O.O........................O.......................O.O   O ",
" O   O.O........................O.......................O.O   O ",
" O   O.O........................O.......................O.O   O ",
" O   O.O........................O.......................O.O   O ",
" O   O.OOOOOOOOOOOOOOOOOOOOOOOOOOOOOOOOOOOOOOOOOOOOOOOOOO.O   O ",
" O   O....................................................O   O ",
" O   OOOOOOOOOOOOOOOOOOOOOOOOOOOOOOOOOOOOOOOOOOOOOOOOOOOOOO   O ",
" O                                                            O ",
"  O                                                          O  ",
"   O                                                        O   ",
"    OOOOOOOOOOOOOOOOOOOOOOOOOOOOOOOOOOOOOOOOOOOOOOOOOOOOOOOO    ",
"                                                                "
};
