/* XPM */
static char *result[] = {
/* columns rows colors chars-per-pixel */
"64 64 7 1 ",
"  c #433455",
". c #6F6776",
"X c #C28D75",
"o c #9A959F",
"O c #D4AF9F",
"+ c #C5CCB8",
"@ c #D6DBCD",
/* pixels */
"                                                                ",
"    ++++++++++++++++++++++++++++++++++++++++++++++++++++++++    ",
"   +                                                        +   ",
"  +                                                          +  ",
" +                                                            + ",
" +                                                            + ",
" +                  +                       @                 + ",
" +                 +                         @                + ",
" +                 +                         @@               + ",
" +                ++                       +++@               + ",
" +                +++++                     ++@               + ",
" +                 +++  ++++++++++++++++++@  +                + ",
" +                  +   ++++++++++++++++++@                   + ",
" +                    ++++++++++++++++++++@@@                 + ",
" +                    ++++++++++++++++++++++@                 + ",
" +                    ++++++++++++++++++++++@                 + ",
" +                    ++++++++++++++++++++++@                 + ",
" +                    ++++++++++++XXXXXXXXXXO                 + ",
" +                    +++++++++++X                            + ",
" +                    ++++++++++++X                           + ",
" +                    ++++++++++++XXXXXX  XXO                 + ",
" +                    +++++++++++++++++X  X++                 + ",
" +                    +++++++++++++++++X  X++                 + ",
" +                    +++++++++++++++++X  X++                 + ",
" +                     ++++++++++++++++X  X++                 + ",
" +                     ++++++++++++++++X  X++                 + ",
" +                      +++++++++++++++X  X++                 + ",
" +                       ++++++++++++++X  X+                  + ",
" +                                                            + ",
" +                   .......                 XO               + ",
" +                 ...XXXXX...++++++++++++@@  XOO             + ",
" +                ..XXXXXXXXX..++++++++++++@@  XXOO           + ",
" +               ..XXXXXXXXXXX..++++++++++++@                 + ",
" +              ..XXXX+++++XXXX..+++++++++o+@ @@              + ",
" +             ..XXXX+++++++XXXX..++++++..Oo+ +@@             + ",
" +             .XXXX+++++++++XXXX.+++++.XXXOo ++@@            + ",
" +            ..XXX++++X+X++++XXX..+++.X..X.O +++@            + ",
" +            .XXX+++++X+X+++++XXX.++.X.+.X.o +++@            + ",
" +            .XXX+++XXX+XXX+++XXX.++..++.X.+  ++@@           + ",
" +            .XXX+++++++++++++XXX.++++++.X.+   ++@           + ",
" +            .XXX+++XXX+XXX+++XXX.++++++.X.+    +@           + ",
" +            .XXX+++++X+X+++++XXX.+++++.X.+@     +           + ",
" +            ..XXX++++X+X++++XXX..++++++.++@     ++          + ",
" +             .XXXX+++++++++XXXX.+++++++++@@     ++          + ",
" +             ..XXXX+++++++XXXX..                            + ",
" +              ..XXXX+++++XXXX..++++++++++                   + ",
" +               .XXXXXXXXXXXX..+++++++++++                   + ",
" +                ..XXXXXXXXX..       ++++                    + ",
" +                 ...XXXXX...+       ++++                    + ",
" +                   .......++        ++++                    + ",
" +                       +++X        +++X                     + ",
" +                       +++X        +++X                     + ",
" +                       ++X         ++X                      + ",
" +                       ++          ++                       + ",
" +                       ++          ++                       + ",
" +                       +++         +++                      + ",
" +                                                            + ",
" +                                                            + ",
" +                                                            + ",
" +                                                            + ",
"  +                                                          +  ",
"   +                                                        +   ",
"    ++++++++++++++++++++++++++++++++++++++++++++++++++++++++    ",
"                                                                "
};
