/* XPM */
static char *result[] = {
/* columns rows colors chars-per-pixel */
"64 64 10 1 ",
"  c #433455",
". c #4E4852",
"X c #6F6776",
"o c #876252",
"O c #C28D75",
"+ c #8A8E80",
"@ c #D4AF9F",
"# c #C5CCB8",
"$ c #D6DBCD",
"% c #E3E6DC",
/* pixels */
"                                                                ",
"    ########################################################    ",
"   #                                                        #   ",
"  #                                                          #  ",
" #                                                            # ",
" #                                                            # ",
" #                  #                       $                 # ",
" #                 #                         $                # ",
" #                 #                         #$               # ",
" #                +#                       ###$               # ",
" #                ++###                     ##$               # ",
" #                 +##  ###############$$$$  #                # ",
" #                  +   #################$$                   # ",
" #                    ####################$$$                 # ",
" #                    #####################$$                 # ",
" #                    ######################$                 # ",
" #                    ######################$                 # ",
" #                    ############OOOOOOOOOO@                 # ",
" #                    ###########O                            # ",
" #                    +###########O                           # ",
" #                    +###########OOOOOO  OO@                 # ",
" #                    +################O  O#$                 # ",
" #                    +################O  O#$                 # ",
" #                    ++###############O  O#$                 # ",
" #                     +###############O  O#$                 # ",
" #                     ++##############O  O#$                 # ",
" #                      +++############O  O$#                 # ",
" #                       +++++#########O  O#                  # ",
" #                                                            # ",
" #                   XXXXXXX                 O@               # ",
" #                 XXXOOOOOXXX+##########$$$  O@@             # ",
" #                XXOOOOOOOOOXX+##########$%$  OO@@           # ",
" #               XXOOOOOOOOOOOXX+#######X###$                 # ",
" #              XXOOOO#####OOOOXX+#######OX#$ #$              # ",
" #             XXOOOO#######OOOOXX+#####XXOX$ #$$             # ",
" #             XOOOO#########OOOOX+####XOOOOX ##$$            # ",
" #            XXOOO####O#O####OOOXX+##XOXXOXO ##$$            # ",
" #            XOOO#####O#O#####OOOX+#XOX#XOXX ###$            # ",
" #            XOOO###OOO#OOO###OOOX+#XX##XOX#  ##$$           # ",
" #            XOOO#############OOOX+#####XOX#   ##$           # ",
" #            .OOO###OOO#OOO###OOOX+#####XOX#    #$           # ",
" #            .oOO#####O#O#####OOOX+####XOX##     $           # ",
" #            ..oOO####O#O####OOOXX+#####X###     #$          # ",
" #             .ooOO#########OOOOX+##########     ##          # ",
" #             ..oOOO#######OOOOXX                            # ",
" #              ..oOOO#####OOOOXX+#########                   # ",
" #               .oooOOOOOOOOOXX++#########                   # ",
" #                ..oooOOOOOOXX       ####                    # ",
" #                 ...oOOOOXXX+       ####                    # ",
" #                   ...XXXX++        ####                    # ",
" #                       +++O        ###O                     # ",
" #                       +++O        ###O                     # ",
" #                       ++O         ##O                      # ",
" #                       ++          ##                       # ",
" #                       ++          ##                       # ",
" #                       +++         ###                      # ",
" #                                                            # ",
" #                                                            # ",
" #                                                            # ",
" #                                                            # ",
"  #                                                          #  ",
"   #                                                        #   ",
"    ########################################################    ",
"                                                                "
};
