/* XPM */
static char *result[] = {
/* columns rows colors chars-per-pixel */
"64 64 4 1 ",
"  c #433455",
". c #6F6776",
"X c #C28D75",
"o c #C5CCB8",
/* pixels */
"oooooooooooooooooooooooooooooooooooooooooooooooooooooooooooooooo",
"             o                   o                   o          ",
"             o                   o                   o          ",
"             o                   o                   o          ",
"             o                   o                   o          ",
"             o                   o                   o          ",
"             o                   o                   o          ",
"oooooooooooooooooooooooooooooooooooooooooooooooooooooooooooooooo",
"  o                   o                   o                   o ",
"  o                   o                   o                   o ",
"  o                   o                   o                   o ",
"  o                   o                   o                   o ",
"  o                   o                   o                   o ",
"  o                   o                   o                   o ",
"oooooooooooooooooooooooooooooooooooooooooooooooooooooooooooooooo",
"             o                   o                   o          ",
"             o                   o                   o          ",
"             o                   o                   o          ",
"             o                   o                   o          ",
"             o                  ...                  o          ",
"             o                 . o .                 o          ",
"ooooooooooooooooooooooooooooooo.ooo.ooooooooXooooooooooooooooooo",
"  o                   o         .         o                   o ",
"  o                   o          .       XX                   o ",
"  o                   o  X       .       XX                   o ",
"  o                   o        .....      o                   o ",
"  o                 X o     ...........   o                   o ",
"  o                X Xo    .............  o                   o ",
"ooooooooooooooooooooXoooooooo.oXXXXXo.oooooooooooooooooooooooooo",
"             o         XXX   .oXXXXXo.     X         o          ",
"             o        X   X  .oXXXXXo.               o          ",
"             o        X   X  .ooXXXoo.               o          ",
"             o        X   X  .XoooooX.      X        o          ",
"             o         XXX    .XXXXX.      X X       o          ",
"             o                 .....        X        o          ",
"oooooooooooooooooooooooooooooooooooooooXXooooooooooooooooooooooo",
"  o                   o     X          XX o                   o ",
"  o                   XX   X X            o                   o ",
"  o                   XX    X             o                   o ",
"  o                   o          XX       o                   o ",
"  o                   o                   o                   o ",
"  o                   o                   o                   o ",
"oooooooooooooooooooooooooooooooooooooooooooooooooooooooooooooooo",
"             o                   o                   o          ",
"             o                   o                   o          ",
"             o                   o                   o          ",
"             o                   o                   o          ",
"             o                   o                   o          ",
"             o                   o                   o          ",
"oooooooooooooooooooooooooooooooooooooooooooooooooooooooooooooooo",
"  o                   o                   o                   o ",
"  o                   o                   o                   o ",
"  o                   o                   o                   o ",
"  o                   o                   o                   o ",
"  o                   o                   o                   o ",
"  o                   o                   o                   o ",
"oooooooooooooooooooooooooooooooooooooooooooooooooooooooooooooooo",
"             o                   o                   o          ",
"             o                   o                   o          ",
"             o                   o                   o          ",
"             o                   o                   o          ",
"             o                   o                   o          ",
"             o                   o                   o          ",
"oooooooooooooooooooooooooooooooooooooooooooooooooooooooooooooooo"
};
