/* XPM */
static char *result[] = {
/* columns rows colors chars-per-pixel */
"64 64 4 1 ",
"  c #433455",
". c #6F6776",
"X c #C28D75",
"o c #C5CCB8",
/* pixels */
"oooooooooooooooooooooooooooooooooooooooooooooooooooooooooooooooo",
"             o                   o                   o          ",
"             o                   o                   o          ",
"             o                   o                   o          ",
"             o                   o                   o          ",
"             o                   o                   o          ",
"             o                   o                   o          ",
"oooooooooooooooooooooooooooooooooooooooooooooooooooooooooooooooo",
"  o                   o                   o                   o ",
"  o                   o                   o                   o ",
"  o                   o                   o                   o ",
"  o                   o                   o                   o ",
"  o                   o                   o                   o ",
"  o                   o                   o                   o ",
"oooooooooooooooooooooooooooooooooooooooooooooooooooooooooooooooo",
"             o                   o                   o          ",
"             o                   o                   o          ",
"             o                   o                   o          ",
"             o                   o                   o          ",
"             o                  ...                  o          ",
"             o                 . o .                 o          ",
"ooooooooooooooooooooooooooooooo.ooo.oooooooXXooooooooooooooooooo",
"  o                   o    X    .         oXX                 o ",
"  o                   o          .      X o                   o ",
"  o                   o          .      X o                   o ",
"  o                   o        .....      o                   o ",
"  o                 XXX     ...........   o                   o ",
"  o                X  oX   .............  o                   o ",
"oooooooooooooooooooXoooXooooo.oXXXXXo.oooooXXooooooooooooooooooo",
"             o     X   X     .oXXXXXo.     XX        o          ",
"             o      XXX   X  .oXXXXXo.               o          ",
"             o           X X .ooXXXoo.               o          ",
"             o            X  .XoooooX.     XX        o          ",
"             o                .XXXXX.     X  X       o          ",
"             o                 .....  XX  X  X       o          ",
"ooooooooooooooooooooooooXXooooooooooooXXoooXXooooooooooooooooooo",
"  o                   o       XX          o                   o ",
"  o                   o      X  X   X     o                   o ",
"  o                   o      X  X         o                   o ",
"  o                   o       XX          o                   o ",
"  o                   o                   o                   o ",
"  o                   o                   o                   o ",
"oooooooooooooooooooooooooooooooooooooooooooooooooooooooooooooooo",
"             o                   o                   o          ",
"             o                   o                   o          ",
"             o                   o                   o          ",
"             o                   o                   o          ",
"             o                   o                   o          ",
"             o                   o                   o          ",
"oooooooooooooooooooooooooooooooooooooooooooooooooooooooooooooooo",
"  o                   o                   o                   o ",
"  o                   o                   o                   o ",
"  o                   o                   o                   o ",
"  o                   o                   o                   o ",
"  o                   o                   o                   o ",
"  o                   o                   o                   o ",
"oooooooooooooooooooooooooooooooooooooooooooooooooooooooooooooooo",
"             o                   o                   o          ",
"             o                   o                   o          ",
"             o                   o                   o          ",
"             o                   o                   o          ",
"             o                   o                   o          ",
"             o                   o                   o          ",
"oooooooooooooooooooooooooooooooooooooooooooooooooooooooooooooooo"
};
