/* XPM */
static char *result[] = {
/* columns rows colors chars-per-pixel */
"64 64 4 1 ",
"  c black",
". c #433455",
"X c #6F6776",
"o c #C5CCB8",
/* pixels */
"                                                                ",
"                                                                ",
"                                                                ",
"                                                                ",
"                                                                ",
"                                                                ",
"                                                                ",
"                                                                ",
"                                                                ",
"                                                                ",
"                                                                ",
"                                                                ",
"                                                                ",
"                                                                ",
"                                                                ",
"                              ooo                               ",
"                             oXXXo                              ",
"                             oXXXoo                             ",
"                           ooXXXXXXooo                          ",
"                          oXXXXXXXXXXXo                         ",
"                         oXXXXXXXXXXXXXoo                       ",
"                        oXXXXXXXX.XXXXXXXo                      ",
"                        oXXXXXXXX.XXXXXXXo                      ",
"                        XXXXXXXX...XXXXXXo                      ",
"                       oX..XXXXXX.XXXXXXXXo                     ",
"                     ooXX..XXXXXX.XXXXXXXXo                     ",
"                    oXXX.XXXXX....XXXXXXXXo                     ",
"                    oXXXXX.........XXXXXXXXo                    ",
"                  ooXXXXXX.........XXXXXXXXo                    ",
"                 oXXX..X...........XXXX..XXo                    ",
"                 oXXXXX............X...XXXXoo                   ",
"               ooXXX.......XXX......XXXXX.XXXoo                 ",
"              o..X.........XXXXXXX.......XXXXXXo                ",
"              o..X.........XXXXXXX.......XXXXXXo                ",
"             o...........XX..XXXXX.......X.XXXXXo               ",
"             o..........XXXXX.XXXXX.......X..XXXo               ",
"             o..........XXXXX.XXXXX.......X..XXXoo              ",
"             o.........XXXXXX....X.........XXXXX..o             ",
"             o.........XXXX..XXXX.XX..............o             ",
"             o.........XXXX..XXXX.XX..............o             ",
"              o........X.....XXXX..XXXXXXX......oo              ",
"              o........X.....XXXX..XXXXXXX......o               ",
"               oooooo.................X......ooo                ",
"                     oo......................o                  ",
"                       oo....................o                  ",
"                         ....................o                  ",
"                         oooo...ooooooooooooo                   ",
"                             ooo                                ",
"                                                                ",
"                                                                ",
"                                                                ",
"                                                                ",
"                                                                ",
"                                                                ",
"                                                                ",
"                                                                ",
"                                                                ",
"                                                                ",
"                                                                ",
"                                                                ",
"                                                                ",
"                                                                ",
"                                                                ",
"                                                                "
};
