/* XPM */
static char *_511231aee3046f4d4047a530d2b5bfcABH7cRSYFMISUr9A[] = {
/* columns rows colors chars-per-pixel */
"128 128 4 1 ",
"  c black",
". c #433455",
"X c #6F6776",
"o c #C5CCB8",
/* pixels */
"                                                                                                                                ",
"                                                                                                                                ",
"                                                                                                                                ",
"                                                                                                                                ",
"                                                                                                                                ",
"                                                                                                                                ",
"                                                                                                                                ",
"                                                                                                                                ",
"                                                                                                                                ",
"                                                                                                                                ",
"                                                                                                                                ",
"                                                                                                                                ",
"                                                                                                                                ",
"                                                                                                                                ",
"                                                                                                                                ",
"                                                                                                                                ",
"                                                                                                                                ",
"                                                                                                                                ",
"                                                                                                                                ",
"                                                                                                                                ",
"                                                                                                                                ",
"                                                                                                                                ",
"                                                                                                                                ",
"                                                                                                                                ",
"                                                                                                                                ",
"                                                                                                                                ",
"                                                                                                                                ",
"                                                                                                                                ",
"                                                                                                                                ",
"                                                                                                                                ",
"                                                                                                                                ",
"                                                             ooooo                                                              ",
"                                                             ooooo                                                              ",
"                                                           ooXXXXXoo                                                            ",
"                                                           ooXXXXXooooo                                                         ",
"                                                           ooXXXXXooooo                                                         ",
"                                                           XXXXXXXXXXXXoooooo                                                   ",
"                                                       ooooXXXXXXXXXXXXoooooo                                                   ",
"                                                       ooooXXXXXXXXXXXXXXXXXXoo                                                 ",
"                                                     ooXXXXXXXXXXXXXXXXXXXXXXoo                                                 ",
"                                                     ooXXXXXXXXXXXXXXXXXXXXXXoo                                                 ",
"                                                  oooXXXXXXXXXXXXXXXXXXXXXXXXXXooo                                              ",
"                                                  oooXXXXXXXXXXXXXXXXXXXXXXXXXXooo                                              ",
"                                                ooXXXXXXXXXXXXXXXX..XXXXXXXXXXXXXXoo                                            ",
"                                                ooXXXXXXXXXXXXXXXX..XXXXXXXXXXXXXXoo                                            ",
"                                                ooXXXXXXXXXXXXXXXX..XXXXXXXXXXXXXXoo                                            ",
"                                                ooXXXXXXXXXXXXXXXX..XXXXXXXXXXXXXXoo                                            ",
"                                                XXXXXXXXXXXXXXXX.......XXXXXXXXXXXoo                                            ",
"                                              ooXXXXXXXXXXXXXXXX.......XXXXXXXXXXXoo                                            ",
"                                              ooXX.....XXXXXXXXXXX..XXXXXXXXXXXXXXXXoo                                          ",
"                                          ooooXXXX.....XXXXXXXXXXX..XXXXXXXXXXXXXXXXoo                                          ",
"                                          ooooXXXX.....XXXXXXXXXXX..XXXXXXXXXXXXXXXXoo                                          ",
"                                        ooXXXXXX..XXXXXXXXXXX.......XXXXXXXXXXXXXXXXoo                                          ",
"                                        ooXXXXXX..XXXXXXXXXXX.......XXXXXXXXXXXXXXXXoo                                          ",
"                                        ooXXXXXXXXXXX..................XXXXXXXXXXXXXXXoo                                        ",
"                                        ooXXXXXXXXXXX..................XXXXXXXXXXXXXXXoo                                        ",
"                                     oooXXXXXXXXXXXXX..................XXXXXXXXXXXXXXXoo                                        ",
"                                     oooXXXXXXXXXXXXX..................XXXXXXXXXXXXXXXoo                                        ",
"                                   ooXXXXX....XX.......................XXXXXXXX...XXXXoo                                        ",
"                                   ooXXXXX....XX.......................XXXXXXXX...XXXXoo                                        ",
"                                   ooXXXXXXXXX.........................XX......XXXXXXXoo                                        ",
"                                   ooXXXXXXXXX.........................XX......XXXXXXXoooo                                      ",
"                                   ooXXXXXXXXX.........................XX......XXXXXXXoooo                                      ",
"                               ooooXXXXX...............XXXXXX............XXXXXXXXX..XXXXXXooooo                                 ",
"                               ooooXXXXX...............XXXXXX............XXXXXXXXX..XXXXXXooooo                                 ",
"                             oo....XX..................XXXXXXXXXXXXX..............XXXXXXXXXXXXXoo                               ",
"                             oo....XX..................XXXXXXXXXXXXX..............XXXXXXXXXXXXXoo                               ",
"                             oo....XX..................XXXXXXXXXXXXX..............XXXXXXXXXXXXXoo                               ",
"                             oo....XX..................XXXXXXXXXXXXX..............XXXXXXXXXXXXXoo                               ",
"                           oo.....................XXXXX....XXXXXXXXX..............XX..XXXXXXXXXXXoo                             ",
"                           oo...................XXXXXXXXXXX..XXXXXXXXXX.............XX....XXXXXXXoo                             ",
"                           oo...................XXXXXXXXXXX..XXXXXXXXXX.............XX....XXXXXXXoo                             ",
"                           oo...................XXXXXXXXXXX..XXXXXXXXXX.............XX....XXXXXXXoooo                           ",
"                           oo...................XXXXXXXXXXX..XXXXXXXXXX.............XX....XXXXXXXoooo                           ",
"                           oo.................XXXXXXXXXXXXX.......XX..................XXXXXXXXXXX....oo                         ",
"                           oo.................XXXXXXXXXXXXX.......XX..................XXXXXXXXXXX....oo                         ",
"                           oo.................XXXXXXXXX....XXXXXXX..XXXXX............................oo                         ",
"                           oo.................XXXXXXXXX....XXXXXXX..XXXXX............................oo                         ",
"                           oo.................XXXXXXXXX....XXXXXXX..XXXXX............................oo                         ",
"                           oo.................XXXXXXXXX....XXXXXXX..XXXXX............................oo                         ",
"                           oo.............XXXXXXXXXXX..XXXXXXXXXXX.....XXXXXXXX......................oo                         ",
"                             oo...............XX...........XXXXXXX.....XXXXXXXXXXXXX.............oooo                           ",
"                             oo...............XX...........XXXXXXX.....XXXXXXXXXXXXX.............oooo                           ",
"                             oo...............XX...........XXXXXXX.....XXXXXXXXXXXXX.............oo                             ",
"                             oo...............XX...........XXXXXXX.....XXXXXXXXXXXXX.............oo                             ",
"                               ooooooooooo...................................XX...........ooooooo                               ",
"                               ooooooooooo...................................XX...........ooooooo                               ",
"                                          oooo............................................oo                                    ",
"                                          oooo............................................oo                                    ",
"                                              oooo........................................oo                                    ",
"                                              oooo........................................oo                                    ",
"                                                  ........................................oo                                    ",
"                                                  ooooooooo.....oooooooooooooooooooooooooo                                      ",
"                                                  ooooooooo.....oooooooooooooooooooooooooo                                      ",
"                                                           ooooo                                                                ",
"                                                           ooooo                                                                ",
"                                                                                                                                ",
"                                                                                                                                ",
"                                                                                                                                ",
"                                                                                                                                ",
"                                                                                                                                ",
"                                                                                                                                ",
"                                                                                                                                ",
"                                                                                                                                ",
"                                                                                                                                ",
"                                                                                                                                ",
"                                                                                                                                ",
"                                                                                                                                ",
"                                                                                                                                ",
"                                                                                                                                ",
"                                                                                                                                ",
"                                                                                                                                ",
"                                                                                                                                ",
"                                                                                                                                ",
"                                                                                                                                ",
"                                                                                                                                ",
"                                                                                                                                ",
"                                                                                                                                ",
"                                                                                                                                ",
"                                                                                                                                ",
"                                                                                                                                ",
"                                                                                                                                ",
"                                                                                                                                ",
"                                                                                                                                ",
"                                                                                                                                ",
"                                                                                                                                ",
"                                                                                                                                ",
"                                                                                                                                "
};
