/* XPM */
static char *result[] = {
/* columns rows colors chars-per-pixel */
"128 128 8 1 ",
"  c none",
". c #36303D",
"X c #3C394E",
"o c #58525E",
"O c #4F4D60",
"+ c gray39",
"@ c #6F6776",
"# c #AE7E69",
/* pixels */
"                                                                                                                                ",
"                                                                                                                                ",
"                                                                                                                                ",
"                                                                                                                                ",
"                                                                                                                                ",
"                                                                                                                                ",
"                                                                                                                                ",
"                                                                                                                                ",
"                                                                                                                                ",
"                                                                                                                                ",
"                                                                                                                                ",
"                                                                                                                                ",
"                                                                                                                                ",
"                                                                                                                                ",
"                                                                                                                                ",
"                                                                                                                                ",
"                                                                                                                                ",
"                                                                                                                                ",
"                                                            ......XXXXXXXXXXXXXXXXXXXXXXXX....                                  ",
"                                                            ......XXXXXXXXXXXXXXXXXXXXXXXX....                                  ",
"                                                          ..oooooo@@@@@@@@@@@@@@@@@@oooooo####..                                ",
"                                                          ..oooooo@@@@@@@@@@@@@@@@@@oooooo####..                                ",
"                                                      ......oooooo@@@@@@@@@@@@@@@@@@oooooo####..                                ",
"                                                      ......oooooo@@@@@@@@@@@@@@@@@@oooooo####..                                ",
"                                          OOOOOOOOOOOO######@@@@@@@@@@@@@@@@@@@@@@@@@@@@@@ooooOO                                ",
"                                          OOOOOOOOOOOO######@@@@@@@@@@@@@@@@@@@@@@@@@@@@@@ooooOO                                ",
"                                        OOoooooooooooo######@@@@@@@@@@@@@@@@@@@@@@@@@@@@@@ooooOO                                ",
"                                        OOoooooooooooo######@@@@@@@@@@@@@@@@@@@@@@@@@@@@@@ooooOO                                ",
"                                    OOOOOOoooooooooooo######@@@@@@@@@@@@@@@@@@@@@@@@@@@@@@ooooOO                                ",
"                                    OOOOOOoooooooooooo######@@@@@@@@@@@@@@@@@@@@@@@@@@@@@@ooooOO                                ",
"                                    OO@@@@@@@@@@@@@@@@oooooo@@@@@@@@@@@@@@@@@@@@@@@@@@@@@@@@@@OO                                ",
"                                    OO@@@@@@@@@@@@@@@@oooooo@@@@@@@@@@@@@@@@@@@@@@@@@@@@@@@@@@OO                                ",
"                                    OO@@@@@@@@@@@@@@@@oooooo@@@@@@@@@@@@@@@@@@@@@@@@@@@@@@@@@@OO                                ",
"                                    OO@@@@@@@@@@@@@@@@oooooo@@@@@@@@@@@@@@@@@@@@@@@@@@@@@@@@@@OO                                ",
"                                    OO@@@@@@@@@@@@@@@@oooooo@@@@@@@@@@@@@@@@@@@@@@@@@@@@@@@@@@OO                                ",
"                                    OO@@@@@@@@@@@@@@@@oooooo@@@@@@@@@@@@@@@@@@@@@@@@@@@@@@@@@@OO                                ",
"                                    OO@@@@@@@@@@@@@@@@oooooo@@@@@@@@@@@@@@@@@@@@@@@@@@@@@@@@@@OO                                ",
"                                    OO@@@@@@@@@@@@@@@@oooooo@@@@@@@@@@@@@@@@@@@@@@@@@@@@@@@@@@OO                                ",
"                                    OO@@@@@@@@@@@@@@@@oooooo@@@@@@@@@@@@@@@@@@@@@@@@@@@@@@@@@@OO                                ",
"                                    OO@@@@@@@@@@@@@@@@oooooo@@@@@@@@@@@@@@@@@@@@@@@@@@@@@@@@@@OO                                ",
"                                    OO@@@@@@@@@@@@@@@@oooooo@@@@@@@@@@@@@@@@@@@@@@@@@@@@@@@@@@OO                                ",
"                                    OO@@@@@@@@@@@@@@@@oooooo@@@@@@@@@@@@@@@@@@@@@@@@@@@@@@@@@@OO                                ",
"                                    OO@@@@@@@@@@@@@@@@oooooo@@@@@@@@@@@@@@@@@@@@@@@@@@@@@@@@@@OO                                ",
"                                    OO@@@@@@@@@@@@@@@@oooooo@@@@@@@@@@@@@@@@@@@@@@@@@@@@@@@@@@OO                                ",
"                                    OO@@@@@@@@@@@@@@@@oooooo@@@@@@@@@@@@@@@@@@@@@@@@@@@@@@@@@@OO                                ",
"                                    OO@@@@@@@@@@@@@@@@oooooo@@@@@@@@@@@@@@@@@@@@@@@@@@@@@@@@@@OO                                ",
"                                ....OO@@@@@@@@@@@@@@@@oooooo@@@@@@@@@@@@@@@@@@@@@@@@@@@@@@@@@@OO....                            ",
"                                ....OO@@@@@@@@@@@@@@@@oooooo@@@@@@@@@@@@@@@@@@@@@@@@@@@@@@@@@@OO....                            ",
"                              ..####OO@@@@@@@@@@@@@@@@@@@@@@oooooo@@@@@@@@@@@@@@@@@@@@@@@@ooooOO####..                          ",
"                              ..####OO@@@@@@@@@@@@@@@@@@@@@@oooooo@@@@@@@@@@@@@@@@@@@@@@@@ooooOO####..                          ",
"                              ..####OO@@@@@@@@@@@@@@@@@@@@@@oooooo@@@@@@@@@@@@@@@@@@@@@@@@ooooOO####..                          ",
"                              ..####OO@@@@@@@@@@@@@@@@@@@@@@oooooo@@@@@@@@@@@@@@@@@@@@@@@@ooooOO####..                          ",
"                              XX####OOoooo@@@@@@@@@@@@@@@@@@@@@@@@oooooo@@@@@@@@@@@@ooooooooooOO####XX                          ",
"                              XX####OOoooo@@@@@@@@@@@@@@@@@@@@@@@@oooooo@@@@@@@@@@@@ooooooooooOO####XX                          ",
"                              XX####OOoooo@@@@@@@@@@@@@@@@@@@@@@@@oooooo@@@@@@@@@@@@ooooooooooOO####XX                          ",
"                              XX####OOoooo@@@@@@@@@@@@@@@@@@@@@@@@oooooo@@@@@@@@@@@@ooooooooooOO####XX                          ",
"                              XX####OOoooo@@@@@@@@@@@@@@@@@@@@@@@@oooooo@@@@@@@@@@@@ooooooooooOO####XX                          ",
"                              XX####OOoooo@@@@@@@@@@@@@@@@@@@@@@@@oooooo@@@@@@@@@@@@ooooooooooOO####XX                          ",
"                              XXooooOOoooooooooo@@@@@@@@@@@@@@@@@@######oooooo######ooooooooooOOooooXX                          ",
"                              XXooooOOoooooooooo@@@@@@@@@@@@@@@@@@######oooooo######ooooooooooOOooooXX                          ",
"                              XXooooOOoooooooooo@@@@@@@@@@@@@@@@@@######oooooo######ooooooooooOOooooXX                          ",
"                              XXooooOOoooooooooo@@@@@@@@@@@@@@@@@@######oooooo######ooooooooooOOooooXX                          ",
"                              XXooooOOoooooooooo@@@@@@@@@@@@@@@@@@######oooooo######ooooooooooOOooooXX                          ",
"                              XXooooOOoooooooooo@@@@@@@@@@@@@@@@@@######oooooo######ooooooooooOOooooXX                          ",
"                              XXooooOOoooo##################OOOOOO############################OOooooXX                          ",
"                              XXooooOOoooo##################OOOOOO############################OOooooXX                          ",
"                              XXooooOOoooo##################OOOOOO############################OOooooXX                          ",
"                              XXooooOOoooo##################OOOOOO############################OOooooXX                          ",
"                              XXooooOOoooo##################OOOOOO############################OOooooXX                          ",
"                              XXooooOOoooo##################OOOOOO############################OOooooXX                          ",
"                              XXooooOOOOOOOOOOOO############OOOOOO########################OOOOOOooooXX                          ",
"                              XXooooOOOOOOOOOOOO############OOOOOO########################OOOOOOooooXX                          ",
"                              XXooooOOOOOOOOOOOO############OOOOOO########################OOOOOOooooXX                          ",
"                              XXooooOOOOOOOOOOOO############OOOOOO########################OOOOOOooooXX                          ",
"                              XXooooOOOOOOOOOOOOOOOOOOOOOOOOOOOOOOOOOOOOOOOOOOOOOOOOOOOOOOOOOOOOooooXX                          ",
"                              XXooooOOOOOOOOOOOOOOOOOOOOOOOOOOOOOOOOOOOOOOOOOOOOOOOOOOOOOOOOOOOOooooXX                          ",
"                              XXooooOOOOOOOOOOOOOOOOOOOOOOOOOOOOOOOOOOOOOOOOOOOOOOOOOOOOOOOOOOOOooooXX                          ",
"                              XXooooOOOOOOOOOOOOOOOOOOOOOOOOOOOOOOOOOOOOOOOOOOOOOOOOOOOOOOOOOOOOooooXX                          ",
"                              XXooooOOOOOOOOOOOOOOOOOOOOOOOOOOOOOOOOOOOOOOOOOOOOOOOOOOOOOOOOOOOOooooXX                          ",
"                              XXooooOOOOOOOOOOOOOOOOOOOOOOOOOOOOOOOOOOOOOOOOOOOOOOOOOOOOOOOOOOOOooooXX                          ",
"                              ..ooooOOOOOOOOOOOO##################OOOOOO############OOOOOOOOOOOOoooo..                          ",
"                              ..ooooOOOOOOOOOOOO##################OOOOOO############OOOOOOOOOOOOoooo..                          ",
"                              ..ooooOOOOOOOOOOOO##################OOOOOO############OOOOOOOOOOOOoooo..                          ",
"                              ..ooooOOOOOOOOOOOO##################OOOOOO############OOOOOOOOOOOOoooo..                          ",
"                              ..ooooOOOOOOOOOOOO##################OOOOOO############OOOOOOOOOOOOoooo..                          ",
"                              ..ooooOOOOOOOOOOOO##################OOOOOO############OOOOOOOOOOOOoooo..                          ",
"                              ..XXooooOOOOOOOOOO##################OOOOOO############OOOOOOOOOOooooXX..                          ",
"                              ..XXooooOOOOOOOOOO##################OOOOOO############OOOOOOOOOOooooXX..                          ",
"                              ..XXooooOOOOOOOOOO##################OOOOOO############OOOOOOOOOOooooXX..                          ",
"                              ..XXooooOOOOOOOOOO##################OOOOOO############OOOOOOOOOOooooXX..                          ",
"                              ..XXooooOOOOOOOOOO##################OOOOOO############OOOOOOOOOOooooXX..                          ",
"                              ..XXooooOOOOOOOOOO##################OOOOOO############OOOOOOOOOOooooXX..                          ",
"                                ..XXXXooooOOOOOOOOOOOOOOOOOOOOOOOOOOOOOOOOOOOOOOOOOOOOOOOOooooXXXX..                            ",
"                                ..XXXXooooOOOOOOOOOOOOOOOOOOOOOOOOOOOOOOOOOOOOOOOOOOOOOOOOooooXXXX..                            ",
"                                    XXooooOOOOOOOOOOOOOOOOOOOOOOOOOOOOOOOOOOOOOOOOOOOOOOOOooooXX                                ",
"                                    XXooooOOOOOOOOOOOOOOOOOOOOOOOOOOOOOOOOOOOOOOOOOOOOOOOOooooXX                                ",
"                                    XXooooOOOOOOOOOOOOOOOOOOOOOOOOOOOOOOOOOOOOOOOOOOOOOOOOooooXX                                ",
"                                    XXooooOOOOOOOOOOOOOOOOOOOOOOOOOOOOOOOOOOOOOOOOOOOOOOOOooooXX                                ",
"                                    XXXXXX++++++++++++++++++++++++++++++++++++++++++++++++XXXXXX                                ",
"                                    XXXXXX++++++++++++++++++++++++++++++++++++++++++++++++XXXXXX                                ",
"                                        XX++++++++++++++++++++++++++++++++++++++++++++++++XX                                    ",
"                                        XX++++++++++++++++++++++++++++++++++++++++++++++++XX                                    ",
"                                        XXooooooooooooooooooooooooooooooooooooooooooooooooXX                                    ",
"                                        XXooooooooooooooooooooooooooooooooooooooooooooooooXX                                    ",
"                                                                                                                                ",
"                                                                                                                                ",
"                                                                                                                                ",
"                                                                                                                                ",
"                                                                                                                                ",
"                                                                                                                                ",
"                                                                                                                                ",
"                                                                                                                                ",
"                                                                                                                                ",
"                                                                                                                                ",
"                                                                                                                                ",
"                                                                                                                                ",
"                                                                                                                                ",
"                                                                                                                                ",
"                                                                                                                                ",
"                                                                                                                                ",
"                                                                                                                                ",
"                                                                                                                                ",
"                                                                                                                                ",
"                                                                                                                                ",
"                                                                                                                                ",
"                                                                                                                                ",
"                                                                                                                                ",
"                                                                                                                                "
};
