/* XPM */
static char *result[] = {
/* columns rows colors chars-per-pixel */
"128 128 5 1 ",
"  c black",
". c #C5CCB8",
"X c #6F6776",
"o c #443A4F",
"O c white",
/* pixels */
"                                                                                                                                ",
"                                                                                                                                ",
"                                                                                                                                ",
"                                                                                                                                ",
"                                                                                                                                ",
"                                                                                                                                ",
"                                                                                                                                ",
"                                                                                                                                ",
"                                                                                                                                ",
"                                                                                                                                ",
"          ............................................................................................................          ",
"          ............................................................................................................          ",
"          ..XXXXXXXXXXXXXXXXXXXXXXXXXXXXXXXXXXXXXXXXXXXXXXXXXXXXXXXXXXXXXXXXXXXXXXXXXXXXXXXXXXXXXXXXXXXXXXXXXXXXXXXX..          ",
"          ..XXXXXXXXXXXXXXXXXXXXXXXXXXXXXXXXXXXXXXXXXXXXXXXXXXXXXXXXXXXXXXXXXXXXXXXXXXXXXXXXXXXXXXXXXXXXXXXXXXXXXXXX..          ",
"          ..XX....................................................................................................XX..          ",
"          ..XX....................................................................................................XX..          ",
"          ..XX..oooooooooooooooooooooooooooooooooooooooooooooooooooooooooooooooooooooooooooooooooooooooooooooooo..XX..          ",
"          ..XX..oooooooooooooooooooooooooooooooooooooooooooooooooooooooooooooooooooooooooooooooooooooooooooooooo..XX..          ",
"          ..XX..oo......................oooooooooooooooooooooooooooooooooooooooooooooooooooooooooooooooooooooooo..XX..          ",
"          ..XX..oo......................oooooooooooooooooooooooooooooooooooooooooooooooooooooooooooooooooooooooo..XX..          ",
"          ..XX..oo......................oooooooooooooooooooooooooooooooooooooooooooooooooooooooooooooooooooooooo..XX..          ",
"          ..XX..oo......................oooooooooooooooooooooooooooooooooooooooooooooooooooooooooooooooooooooooo..XX..          ",
"          ..XX..oo......................oooooooooooooooooooooooooooooooooooooooooooooooooooooooooooooooooooooooo..XX..          ",
"          ..XX..oo......................oooooooooooooooooooooooooooooooooooooooooooooooooooooooooooooooooooooooo..XX..          ",
"          ..XX..oo......................oooooooooooooooooooooooooooooooooooooooooooooooooooooooooooooooooooooooo..XX..          ",
"          ..XX..oo......................oooooooooooooooooooooooooooooooooooooooooooooooooooooooooooooooooooooooo..XX..          ",
"          ..XX..oo......................oooooooooooooooooooooooooooooooooooooooooooooooooooooooooooooooooooooooo..XX..          ",
"          ..XX..oo......................oooooooooooooooooooooooooooooooooooooooooooooooooooooooooooooooooooooooo..XX..          ",
"          ..XX..oo......................oooooooooooooooooooooooooooooooooooooooooooooooooooooooooooooooooooooooo..XX..          ",
"          ..XX..oo......................oooooooooooooooooooooooooooooooooooooooooooooooooooooooooooooooooooooooo..XX..          ",
"          ..XX..oo......................oooooooooooooooooooooooooooooooooooooooooooooooooooooooooooooooooooooooo..XX..          ",
"          ..XX..oo......................oooooooooooooooooooooooooooooooooooooooooooooooooooooooooooooooooooooooo..XX..          ",
"          ..XX..oo......................oo..........................oooooooooooooooooooooooooooooooooooooooooooo..XX..          ",
"          ..XX..oo......................oo..........................oooooooooooooooooooooooooooooooooooooooooooo..XX..          ",
"          ..XX..oo......................oo..........................oooooooooooooooooooooooooooooooooooooooooooo..XX..          ",
"          ..XX..oo......................oo..........................oooooooooooooooooooooooooooooooooooooooooooo..XX..          ",
"          ..XX..oo......................oo..........................oooooooooooooooooooooooooooooooooooooooooooo..XX..          ",
"          ..XX..oo......................oo..........................oooooooooooooooooooooooooooooooooooooooooooo..XX..          ",
"          ..XX..oo......................oo..........................oooooooooooooooooooooooooooooooooooooooooooo..XX..          ",
"          ..XX..oo......................oo..........................oooooooooooooooooooooooooooooooooooooooooooo..XX..          ",
"          ..XX..oo......................oo..........................oooooooooooooooooooooooooooooooooooooooooooo..XX..          ",
"          ..XX..oo......................oo..........................oooooooooooooooooooooooooooooooooooooooooooo..XX..          ",
"          ..XX..oo......................oo..........................oooooooooooooooooooooooooooooooooooooooooooo..XX..          ",
"          ..XX..oo......................oo..........................oooooooooooooooooooooooooooooooooooooooooooo..XX..          ",
"          ..XX..oo......................oo..........................oooooooooooooooooooooooooooooooooooooooooooo..XX..          ",
"          ..XX..oo......................oo..........................oooooooooooooooooooooooooooooooooooooooooooo..XX..          ",
"          ..XX..oo......................oo..........................oooooooooooooooooooooooooooooooooooooooooooo..XX..          ",
"          ..XX..oo......................oo..........................oooooooooooooooooooooooooooooooooooooooooooo..XX..          ",
"          ..XX..oo......................oo..........................oo..........................oooooooooooooooo..XX..          ",
"          ..XX..oo......................oo..........................oo..........................oooooooooooooooo..XX..          ",
"          ..XX..oo......................oo..........................oo..........................oooooooooooooooo..XX..          ",
"          ..XX..oo......................oo..........................oo..........................oooooooooooooooo..XX..          ",
"          ..XX..oo......................oo..........................oo..........................oooooooooooooooo..XX..          ",
"          ..XX..oo......................oo..........................oo..........................oooooooooooooooo..XX..          ",
"          ..XX..oo......................oo..........................oo..........................oooooooooooooooo..XX..          ",
"          ..XX..oo......................oo..........................oo..........................oooooooooooooooo..XX..          ",
"          ..XX..oo......................oo..........................oo..........................oooooooooooooooo..XX..          ",
"          ..XX..oo......................oo..........................oo..........................oooooooooooooooo..XX..          ",
"          ..XX..oo......................oo..........................oo..........................oooooooooooooooo..XX..          ",
"          ..XX..oo......................oo..........................oo..........................oooooooooooooooo..XX..          ",
"          ..XX..oo......................oo..........................oo..........................oooooooooooooooo..XX..          ",
"          ..XX..oo......................oo..........................oo..........................oooooooooooooooo..XX..          ",
"          ..XX..oo......................oo..........................oo..........................oooooooooooooooo..XX..          ",
"          ..XX..oo......................oo..........................oo..........................oooooooooooooooo..XX..          ",
"          ..XX..oo......................oo..........................oo..........................oooooooooooooooo..XX..          ",
"          ..XX..oo......................oo..........................oo..........................oooooooooooooooo..XX..          ",
"          ..XX..oo......................oo..........................oo..........................oo............oo..XX..          ",
"          ..XX..oo......................oo..........................oo..........................oo............oo..XX..          ",
"          ..XX..oo......................oo..........................oo..........................oo............oo..XX..          ",
"          ..XX..oo......................oo..........................oo..........................oo............oo..XX..          ",
"          ..XX..oo......................oo..........................oo..........................oo............oo..XX..          ",
"          ..XX..oo......................oo..........................oo..........................oo............oo..XX..          ",
"          ..XX..oo......................oo..........................oo..........................oo............oo..XX..          ",
"          ..XX..oo......................oo..........................oo..........................oo............oo..XX..          ",
"          ..XX..oo......................oo..........................oo..........................oo............oo..XX..          ",
"          ..XX..oo......................oo..........................oo..........................oo............oo..XX..          ",
"          ..XX..oo......................oo..........................oo..........................oo............oo..XX..          ",
"          ..XX..oo......................oo..........................oo..........................oo............oo..XX..          ",
"          ..XX..oo......................oo..........................oo..........................oo............oo..XX..          ",
"          ..XX..oo......................oo..........................oo..........................oo............oo..XX..          ",
"          ..XX..oo......................oo..........................oo..........................oo............oo..XX..          ",
"          ..XX..oo......................oo..........................oo..........................oo............oo..XX..          ",
"          ..XX..oo......................oo..........................oo..........................oo............oo..XX..          ",
"          ..XX..oo......................oo..........................oo..........................oo............oo..XX..          ",
"          ..XX..oo......................oo..........................oo..........................oo............oo..XX..          ",
"          ..XX..oo......................oo..........................oo..........................oo............oo..XX..          ",
"          ..XX..oo......................oo..........................oo..........................oo............oo..XX..          ",
"          ..XX..oo......................oo..........................oo..........................oo............oo..XX..          ",
"          ..XX..oo......................oo..........................oo..........................oo............oo..XX..          ",
"          ..XX..oo......................oo..........................oo..........................oo............oo..XX..          ",
"          ..XX..oo......................oo..........................oo..........................oo............oo..XX..          ",
"          ..XX..oo......................oo..........................oo..........................oo............oo..XX..          ",
"          ..XX..oo......................oo..........................oo..........................oo............oo..XX..          ",
"          ..XX..oo......................oo..........................oo..........................oo............oo..XX..          ",
"          ..XX..oo......................oo..........................oo..........................oo............oo..XX..          ",
"          ..XX..oo......................oo..........................oo..........................oo............oo..XX..          ",
"          ..XX..oo......................oo..........................oo..........................oo............oo..XX..          ",
"          ..XX..oo......................oo..........................oo..........................oo............oo..XX..          ",
"          ..XX..oo......................oo..........................oo..........................oo............oo..XX..          ",
"          ..XX..oo......................oo..........................oo..........................oo............oo..XX..          ",
"          ..XX..oo......................oo..........................oo..........................oo............oo..XX..          ",
"          ..XX..oo......................oo..........................oo..........................oo............oo..XX..          ",
"          ..XX..oo......................oo..........................oo..........................oo............oo..XX..          ",
"          ..XX..oo......................oo..........................oo..........................oo............oo..XX..          ",
"          ..XX..oo......................oo..........................oo..........................oo............oo..XX..          ",
"          ..XX..oo......................oo..........................oo..........................oo............oo..XX..          ",
"          ..XX..oo......................oo..........................oo..........................oo............oo..XX..          ",
"          ..XX..oo......................oo..........................oo..........................oo............oo..XX..          ",
"          ..XX..oo......................oo..........................oo..........................oo............oo..XX..          ",
"          ..XX..oo......................oo..........................oo..........................oo............oo..XX..          ",
"          ..XX..oooooooooooooooooooooooooooooooooooooooooooooooooooooooooooooooooooooooooooooooooooooooooooooooo..XX..          ",
"          ..XX..oooooooooooooooooooooooooooooooooooooooooooooooooooooooooooooooooooooooooooooooooooooooooooooooo..XX..          ",
"          ..XX....................................................................................................XX..          ",
"          ..XX....................................................................................................XX..          ",
"          ..XXXXXXXXXXXXXXXXXXXXXXXXXXXXXXXXXXXXXXXXXXXXXXXXXXXXXXXXXXXXXXXXXXXXXXXXXXXXXXXXXXXXXXXXXXXXXXXXXXXXXXXX..          ",
"          ..XXXXXXXXXXXXXXXXXXXXXXXXXXXXXXXXXXXXXXXXXXXXXXXXXXXXXXXXXXXXXXXXXXXXXXXXXXXXXXXXXXXXXXXXXXXXXXXXXXXXXXXX..          ",
"          ............................................................................................................          ",
"          ............................................................................................................          ",
"                                                                                                                                ",
"                                                                                                                                ",
"                                                                                                                                ",
"                                                                                                                                ",
"                                                                                                                                ",
"                                                                                                                                ",
"                                                                                                                                ",
"                                                                                                                                ",
"                                                                                                                                ",
"                                                                                                                                "
};
