/* XPM */
static char *_9c7d4c219de4935c7667b2d77a3f4f3ROS98anK8q2QqJvP[] = {
/* columns rows colors chars-per-pixel */
"64 64 7 1 ",
"  c black",
". c #2A1F38",
"X c #2B1F38",
"o c #6F6777",
"O c #C38E76",
"+ c #C6CDB9",
"@ c #C7CEBA",
/* pixels */
"                                                                ",
"                                                                ",
"                                                                ",
"                                                                ",
"                                                                ",
"     ++++++++++++++++++++++++++++++++++++++++++++++++++++++     ",
"     +oooooooooooooooooooooooooooooooooooooooooooooooooooo+     ",
"     +o++++++++++++++++++++++++++++++++++++++++++++++++++o+     ",
"     +o+ooooooooo+XXXXXXXXXXXXXXXXXXXXXXXXXXXXXXoooooooo+o+     ",
"     +o+ooooooooo+++.XXXXXXXXXXXXXXXXXXXXXXXXXXXoooooooo+o+     ",
"     +o+ooooooooo+++.XXXXXXXXXXXXXXXXXXXXXXXXXXXoooooooo+o+     ",
"     +o+ooooooooo+++.XXXXXXXXXXXXXXXXXXXXXXXXXXXoooooooo+o+     ",
"     +o+ooooooooo+++.XXXXXXXXXXXXXXXXXXXXXXXXXXXoooooooo+o+     ",
"     +o+ooooooooo+++.XXXXXXXXXXXXXXXXXXXXXXXXXXXoooooooo+o+     ",
"     +o+ooooooooo+++.XXXXXXXXXXXXXXXXXXXXXXXXXXXoooooooo+o+     ",
"     +o+ooooooooo+++........XXXXXXXXXXXXXXXXXXXXoooooooo+o+     ",
"     +o+ooooooooo+++.+++++++++++++.XXXXXXXXXXXXXoooooooo+o+     ",
"     +o+ooooooooo+++.+++++++++++++.XXXXXXXXXXXXXoooooooo+o+     ",
"     +o+ooooooooo+++.+++++++++++++.XXXXXXXXXXXXXoooooooo+o+     ",
"     +o+ooooooooo+++.+++++++++++++.XXXXXXXXXXXXXoooooooo+o+     ",
"     +o+ooooooooo+++.+++++++++++++.XXXXXXXXXXXXXoooooooo+o+     ",
"     +o+ooooooooo+++.+++++++++++++.XXXXXXXXXXXXXoooooooo+o+     ",
"     +o+ooooooooo+++.+++++++++++++.XXXXXXXXXXXXXoooooooo+o+     ",
"     +o+ooooooooo+++.+++++++++++++............XXoooooooo+o+     ",
"     +o+oooooooooo++X+++++++++++++.+++++++++++++Xooooooo+o+     ",
"     +o+oooo+ooooo++X+++++++++++++.+++++++++++++Xooooo+o+o+     ",
"     +o+ooo+O+oooo@+X+++++++++++++.+++++++++++++Xoooo+O++o+     ",
"     +o+oo+OOO+ooo@+X+++++++++++++.+++++++++++++Xooo+OOO+o+     ",
"     +o+oo+OOO+ooo@+X+++++++++++++.+++++++++++++Xooo+OOO+o+     ",
"     +o+oo+OOO+ooo@+X+++++++++++++.+++++++++++++Xooo+OOO+o+     ",
"     +o+oo+OOO+ooo@+X+++++++++++++.+++++++++++++Xooo+OOO+o+     ",
"     +o+oo+OOO+ooo@+X+++++++++++++.+++++++++++++Xooo+OOO+o+     ",
"     +o+oo+OOO+ooo++.+++++++++++++.+++++++++++++Xooo+OOO+o+     ",
"     +o+oo+OOO+ooo++.+++++++++++++.+++++++++++++.ooo+OOO+o+     ",
"     +o+ooo+O+oooo++.+++++++++++++.+++++++++++++.oooo+O++o+     ",
"     +o+oooo+ooooo++.+++++++++++++.+++++++++++++.ooooo+o+o+     ",
"     +o+oooooooooo@+.+++++++++++++.+++++++++++++.ooooooo+o+     ",
"     +o+oooooooooo@+X+++++++++++++.+++++++++++++.ooooooo+o+     ",
"     +o+ooooooooo+++X+++++++++++++.+++++++++++++oooooooo+o+     ",
"     +o+ooooooooo+++X+++++++++++++.+++++++++++++oooooooo+o+     ",
"     +o+ooooooooo+++X+++++++++++++.+++++++++++++oooooooo+o+     ",
"     +o+ooooooooo+++X+++++++++++++.+++++++++++++oooooooo+o+     ",
"     +o+ooooooooo+++X+++++++++++++.+++++++++++++oooooooo+o+     ",
"     +o+ooooooooo+++X+++++++++++++.+++++++++++++oooooooo+o+     ",
"     +o+ooooooooo+++.+++++++++++++.+++++++++++++oooooooo+o+     ",
"     +o+ooooooooo+++.+++++++++++++.+++++++++++++oooooooo+o+     ",
"     +o+ooooooooo+++.+++++++++++++.+++++++++++++oooooooo+o+     ",
"     +o+ooooooooo+++.+++++++++++++.+++++++++++++oooooooo+o+     ",
"     +o+ooooooooo+++X+++++++++++++X+++++++++++++oooooooo+o+     ",
"     +o+ooooooooo+++X+++++++++++++X+++++++++++++oooooooo+o+     ",
"     +o+ooooooooo+++X+++++++++++++X+++++++++++++oooooooo+o+     ",
"     +o+ooooooooo+++X+++++++++++++X+++++++++++++oooooooo+o+     ",
"     +o+ooooooooo+++X+++++++++++++X+++++++++++++oooooooo+o+     ",
"     +o+ooooooooo+++X+++++++++++++X+++++++++++++oooooooo+o+     ",
"     +o+ooooooooo+++X+++++++++++++X+++++++++++++oooooooo+o+     ",
"     +o+ooooooooo+XXXXXXXXXXXXXXXXXXXXXXXXXXXXXXoooooooo+o+     ",
"     +o++++++++++++++++++++++++++++++++++++++++++++++++++o+     ",
"     +oooooooooooooooooooooooooooooooooooooooooooooooooooo+     ",
"     ++++++++++++++++++++++++++++++++++++++++++++++++++++++     ",
"                                                                ",
"                                                                ",
"                                                                ",
"                                                                ",
"                                                                "
};
