/* XPM */
static char *result[] = {
/* columns rows colors chars-per-pixel */
"128 128 4 1 ",
"  c black",
". c #6F6776",
"X c #C28D75",
"o c #C5CCB8",
/* pixels */
"                                                                                                                                ",
"                                                                                                                                ",
"                                                                                                                                ",
"                                                                                                                                ",
"                                                                                                                                ",
"                                                                                                                                ",
"                                                                                                                                ",
"                                                                                                                                ",
"                                                                                                                                ",
"                                                                                                                                ",
"          oooooooooooooooooooooooooooooooooooooooooooooooooooooooooooooooooooooooooooooooooooooooooooooooooooooooooooo          ",
"          oooooooooooooooooooooooooooooooooooooooooooooooooooooooooooooooooooooooooooooooooooooooooooooooooooooooooooo          ",
"          oo........................................................................................................oo          ",
"          oo........................................................................................................oo          ",
"          oo..oooooooooooooooooooooooooooooooooooooooooooooooooooooooooooooooooooooooooooooooooooooooooooooooooooo..oo          ",
"          oo..oooooooooooooooooooooooooooooooooooooooooooooooooooooooooooooooooooooooooooooooooooooooooooooooooooo..oo          ",
"          oo..oo................................................oo..............................................oo..oo          ",
"          oo..oo................................................oo..............................................oo..oo          ",
"          oo..oo................................................oo..............................................oo..oo          ",
"          oo..oo................................................oo..............................................oo..oo          ",
"          oo..oo................................................oo..............................................oo..oo          ",
"          oo..oo................................................oo..............................................oo..oo          ",
"          oo..oo................................................oo..............................................oo..oo          ",
"          oo..oo................................................oo..............................................oo..oo          ",
"          oo..oo................................................oo..............................................oo..oo          ",
"          oo..oo................................................oo..............................................oo..oo          ",
"          oo..oo................................................oo..............................................oo..oo          ",
"          oo..oo................................................oo..............................................oo..oo          ",
"          oo..oo................................................oo..............................................oo..oo          ",
"          oo..oo................................................oo..............................................oo..oo          ",
"          oo..oo................................................oo..............................................oo..oo          ",
"          oo..oo................................................oo..............................................oo..oo          ",
"          oo..oo................................................oo..............................................oo..oo          ",
"          oo..oo................................................oo..............................................oo..oo          ",
"          oo..oo................................................oo..............................................oo..oo          ",
"          oo..oo................................................oo..............................................oo..oo          ",
"          oo..oo................................................oo..............................................oo..oo          ",
"          oo..oo................................................oo..............................................oo..oo          ",
"          oo..oo................................................oo..............................................oo..oo          ",
"          oo..oo................................................oo..............................................oo..oo          ",
"          oo..oo................................................oo..............................................oo..oo          ",
"          oo..oo................................................oo..............................................oo..oo          ",
"          oo..oo................................................oo..............................................oo..oo          ",
"          oo..oo................................................oo..............................................oo..oo          ",
"          oo..oo................................................oo..............................................oo..oo          ",
"          oo..oo................................................oo..............................................oo..oo          ",
"          oo..oo................................................oo..............................................oo..oo          ",
"          oo..oo................................................oo..............................................oo..oo          ",
"          oo..oo..................................................oo............................................oo..oo          ",
"          oo..oo..................................................oo............................................oo..oo          ",
"          oo..oo......................................oo..........oo..........oo................................oo..oo          ",
"          oo..oo......................................oo..........oo..........oo................................oo..oo          ",
"          oo..oo....................................ooXXoo........oo........ooXXoo..............................oo..oo          ",
"          oo..oo....................................ooXXoo........oo........ooXXoo..............................oo..oo          ",
"          oo..oo..................................ooXXXXXXoo......oo......ooXXXXXXoo............................oo..oo          ",
"          oo..oo..................................ooXXXXXXoo......oo......ooXXXXXXoo............................oo..oo          ",
"          oo..oo..................................ooXXXXXXoo......oo......ooXXXXXXoo............................oo..oo          ",
"          oo..oo..................................ooXXXXXXoo......oo......ooXXXXXXoo............................oo..oo          ",
"          oo..oo..................................ooXXXXXXoo......oo......ooXXXXXXoo............................oo..oo          ",
"          oo..oo..................................ooXXXXXXoo......oo......ooXXXXXXoo............................oo..oo          ",
"          oo..oo..................................ooXXXXXXoo......oo......ooXXXXXXoo............................oo..oo          ",
"          oo..oo..................................ooXXXXXXoo......oo......ooXXXXXXoo............................oo..oo          ",
"          oo..oo..................................ooXXXXXXoo......oo......ooXXXXXXoo............................oo..oo          ",
"          oo..oo..................................ooXXXXXXoo......oo......ooXXXXXXoo............................oo..oo          ",
"          oo..oo..................................ooXXXXXXoo......oo......ooXXXXXXoo............................oo..oo          ",
"          oo..oo..................................ooXXXXXXoo......oo......ooXXXXXXoo............................oo..oo          ",
"          oo..oo..................................ooXXXXXXoo......oo......ooXXXXXXoo............................oo..oo          ",
"          oo..oo..................................ooXXXXXXoo......oo......ooXXXXXXoo............................oo..oo          ",
"          oo..oo....................................ooXXoo........oo........ooXXoo..............................oo..oo          ",
"          oo..oo....................................ooXXoo........oo........ooXXoo..............................oo..oo          ",
"          oo..oo......................................oo..........oo..........oo................................oo..oo          ",
"          oo..oo......................................oo..........oo..........oo................................oo..oo          ",
"          oo..oo..................................................oo............................................oo..oo          ",
"          oo..oo..................................................oo............................................oo..oo          ",
"          oo..oo..................................................oo............................................oo..oo          ",
"          oo..oo..................................................oo............................................oo..oo          ",
"          oo..oo................................................oo..............................................oo..oo          ",
"          oo..oo................................................oo..............................................oo..oo          ",
"          oo..oo................................................oo..............................................oo..oo          ",
"          oo..oo................................................oo..............................................oo..oo          ",
"          oo..oo................................................oo..............................................oo..oo          ",
"          oo..oo................................................oo..............................................oo..oo          ",
"          oo..oo................................................oo..............................................oo..oo          ",
"          oo..oo................................................oo..............................................oo..oo          ",
"          oo..oo................................................oo..............................................oo..oo          ",
"          oo..oo................................................oo..............................................oo..oo          ",
"          oo..oo................................................oo..............................................oo..oo          ",
"          oo..oo................................................oo..............................................oo..oo          ",
"          oo..oo................................................oo..............................................oo..oo          ",
"          oo..oo................................................oo..............................................oo..oo          ",
"          oo..oo................................................oo..............................................oo..oo          ",
"          oo..oo................................................oo..............................................oo..oo          ",
"          oo..oo................................................oo..............................................oo..oo          ",
"          oo..oo................................................oo..............................................oo..oo          ",
"          oo..oo................................................oo..............................................oo..oo          ",
"          oo..oo................................................oo..............................................oo..oo          ",
"          oo..oo................................................oo..............................................oo..oo          ",
"          oo..oo................................................oo..............................................oo..oo          ",
"          oo..oo................................................oo..............................................oo..oo          ",
"          oo..oo................................................oo..............................................oo..oo          ",
"          oo..oo................................................oo..............................................oo..oo          ",
"          oo..oo................................................oo..............................................oo..oo          ",
"          oo..oo................................................oo..............................................oo..oo          ",
"          oo..oo................................................oo..............................................oo..oo          ",
"          oo..oo................................................oo..............................................oo..oo          ",
"          oo..oo................................................oo..............................................oo..oo          ",
"          oo..oo................................................oo..............................................oo..oo          ",
"          oo..oo................................................oo..............................................oo..oo          ",
"          oo..oo................................................oo..............................................oo..oo          ",
"          oo..oo................................................oo..............................................oo..oo          ",
"          oo..oo................................................oo..............................................oo..oo          ",
"          oo..oo................................................oo..............................................oo..oo          ",
"          oo..oooooooooooooooooooooooooooooooooooooooooooooooooooooooooooooooooooooooooooooooooooooooooooooooooooo..oo          ",
"          oo..oooooooooooooooooooooooooooooooooooooooooooooooooooooooooooooooooooooooooooooooooooooooooooooooooooo..oo          ",
"          oo........................................................................................................oo          ",
"          oo........................................................................................................oo          ",
"          oooooooooooooooooooooooooooooooooooooooooooooooooooooooooooooooooooooooooooooooooooooooooooooooooooooooooooo          ",
"          oooooooooooooooooooooooooooooooooooooooooooooooooooooooooooooooooooooooooooooooooooooooooooooooooooooooooooo          ",
"                                                                                                                                ",
"                                                                                                                                ",
"                                                                                                                                ",
"                                                                                                                                ",
"                                                                                                                                ",
"                                                                                                                                ",
"                                                                                                                                ",
"                                                                                                                                ",
"                                                                                                                                ",
"                                                                                                                                "
};
