/* XPM */
static char *result[] = {
/* columns rows colors chars-per-pixel */
"128 128 11 1 ",
"  c black",
". c #C5CCB8",
"X c #6F6776",
"o c #261D2F",
"O c #1E1726",
"+ c #7E8276",
"@ c #9EA393",
"# c #C6CDB9",
"$ c #C28D75",
"% c #2F243B",
"& c white",
/* pixels */
"                                                                                                                                ",
"                                                                                                                                ",
"                                                                                                                                ",
"                                                                                                                                ",
"                                                                                                                                ",
"                                                                                                                                ",
"                                                                                                                                ",
"                                                                                                                                ",
"                                                                                                                                ",
"                                                                                                                                ",
"          ............................................................................................................          ",
"          ............................................................................................................          ",
"          ..XXXXXXXXXXXXXXXXXXXXXXXXXXXXXXXXXXXXXXXXXXXXXXXXXXXXXXXXXXXXXXXXXXXXXXXXXXXXXXXXXXXXXXXXXXXXXXXXXXXXXXXX..          ",
"          ..XXXXXXXXXXXXXXXXXXXXXXXXXXXXXXXXXXXXXXXXXXXXXXXXXXXXXXXXXXXXXXXXXXXXXXXXXXXXXXXXXXXXXXXXXXXXXXXXXXXXXXXX..          ",
"          ..XX....................................................................................................XX..          ",
"          ..XX....................................................................................................XX..          ",
"          ..XX..XXXXXXXXXXXXXXXXXXXXXXXXXXXXXXXXXXXXXXXXXX..ooooooooooooXXXXXXXXXXXXXXXXXXXXXXXXXXXXXXXXXXXXXXXX..XX..          ",
"          ..XX..XXXXXXXXXXXXXXXXXXXXXXXXXXXXXXXXXXXXXXXXXX..ooooooooooooXXXXXXXXXXXXXXXXXXXXXXXXXXXXXXXXXXXXXXXX..XX..          ",
"          ..XX..XXXXXXXXXXXXXXXXXXXXXXXXXXXXXXXXXXXXXXXXXX..OooOOOoooooOXXXXXXXXXXXXXXXXXXXXXXXXXXXXXXXXXXXXXXXX..XX..          ",
"          ..XX..XXXXXXXXXXXXXXXXXXXXXXXXXXXXXXXXXXXXXXXXXX..OoooooooooooXXXXXXXXXXXXXXXXXXXXXXXXXXXXXXXXXXXXXXXX..XX..          ",
"          ..XX..XXXXXXXXXXXXXXXXXXXXXXXXXXXXXXXXXXXXXXXXXX..OoooooooooooXXXXXXXXXXXXXXXXXXXXXXXXXXXXXXXXXXXXXXXX..XX..          ",
"          ..XX..XXXXXXXXXXXXXXXXXXXXXXXXXXXXXXXXXXXXXXXXXX..ooooOoooooooXXXXXXXXXXXXXXXXXXXXXXXXXXXXXXXXXXXXXXXX..XX..          ",
"          ..XX..XXXXXXXXXXXXXXXXXXXXXXXXXXXXXXXXXXXXXXXXXX..ooooooooooooXXXXXXXXXXXXXXXXXXXXXXXXXXXXXXXXXXXXXXXX..XX..          ",
"          ..XX..XXXXXXXXXXXXXXXXXXXXXXXXXXXXXXXXXXXXXXXXXX..ooooooooooooXXXXXXXXXXXXXXXXXXXXXXXXXXXXXXXXXXXXXXXX..XX..          ",
"          ..XX..XXXXXXXXXXXXXXXXXXXXXXXXXXXXXXXXXXXXXXXXXX..ooooooooooooXXXXXXXXXXXXXXXXXXXXXXXXXXXXXXXXXXXXXXXX..XX..          ",
"          ..XX..XXXXXXXXXXXXXXXXXXXXXXXXXXXXXXXXXXXXXXXXXX..ooooooooooooXXXXXXXXXXXXXXXXXXXXXXXXXXXXXXXXXXXXXXXX..XX..          ",
"          ..XX..XXXXXXXXXXXXXXXXXXXXXXXXXXXXXXXXXXXXXXXXXX..ooooooooooooXXXXXXXXXXXXXXXXXXXXXXXXXXXXXXXXXXXXXXXX..XX..          ",
"          ..XX..XXXXXXXXXXXXXXXXXXXXXXXXXXXXXXXXXXXXXXXXXX..ooooooooooooXXXXXXXXXXXXXXXXXXXXXXXXXXXXXXXXXXXXXXXX..XX..          ",
"          ..XX..XXXXXXXXXXXXXXXXXXXXXXXXXXXXXXXXXXXXXXXXXX..ooooooooooooXXXXXXXXXXXXXXXXXXXXXXXXXXXXXXXXXXXXXXXX..XX..          ",
"          ..XX..XXXXXXXXXXXXXXXXXXXXXXXXXXXXXXXXXXXXXXXXXX..ooooooooooooXXXXXXXXXXXXXXXXXXXXXXXXXXXXXXXXXXXXXXXX..XX..          ",
"          ..XX..XXXXXXXXXXXXXXXXXXXXXXXXXXXXXXXXXXXXXXXXXX..ooooooooooooXXXXXXXXXXXXXXXXXXXXXXXXXXXXXXXXXXXXXXXX..XX..          ",
"          ..XX..XXXXXXXXXXXXXXXXXXXXXXXXXXXXXXXXXXXXXXXXXX..ooooooooooooXXXXXXXXXXXXXXXXXXXXXXXXXXXXXXXXXXXXXXXX..XX..          ",
"          ..XX..XXXXXXXXXXXXXXXXXXXXXXXXXXXXXXXXXXXXXXXXXX..++++++@@ooooXXXXXXXXXXXXXXXXXXXXXXXXXXXXXXXXXXXXXXXX..XX..          ",
"          ..XX..XXXXXXXXXXXXXXXXXXXXXXXXXXXXXXXXXXXXXXXXXX..@@@@@@@@ooooXXXXXXXXXXXXXXXXXXXXXXXXXXXXXXXXXXXXXXXX..XX..          ",
"          ..XX..XXXXXXXXXXXXXXXXXXXXXXXXXXXXXXXXXXXXXXXXXX..@@@@@@@@ooooXXXXXXXXXXXXXXXXXXXXXXXXXXXXXXXXXXXXXXXX..XX..          ",
"          ..XX..XXXXXXXXXXXXXXXXXXXXXXXXXXXXXXXXXXXXXXXXXX..@@@@@@@@ooooXXXXXXXXXXXXXXXXXXXXXXXXXXXXXXXXXXXXXXXX..XX..          ",
"          ..XX..XXXXXXXXXXXXXXXXXXXXXXXXXXXXXXXXXXXXXXXXXX..@@@@@@@@ooooXXXXXXXXXXXXXXXXXXXXXXXXXXXXXXXXXXXXXXXX..XX..          ",
"          ..XX..XXXXXXXXXXXXXXXXXXXXXXXXXXXXXXXXXXXXXXXXXX..@@@@@@@@ooooXXXXXXXXXXXXXXXXXXXXXXXXXXXXXXXXXXXXXXXX..XX..          ",
"          ..XX..XXXXXXXXXXXXXXXXXXXXXXXXXXXXXXXXXXXXXXXXXX..@@@@@@@@ooooXXXXXXXXXXXXXXXXXXXXXXXXXXXXXXXXXXXXXXXX..XX..          ",
"          ..XX..XXXXXXXXXXXXXXXXXXXXXXXXXXXXXXXXXXXXXXXXXX..@@@@@@@@ooooXXXXXXXXXXXXXXXXXXXXXXXXXXXXXXXXXXXXXXXX..XX..          ",
"          ..XX..XXXXXXXXXXXXXXXXXXXXXXXXXXXXXXXXXXXXXXXXXX..@@@@@@@@ooooXXXXXXXXXXXXXXXXXXXXXXXXXXXXXXXXXXXXXXXX..XX..          ",
"          ..XX..XXXXXXXXXXXXXXXXXXXXXXXXXXXXXXXXXXXXXXXXXX..@@@@@@@@ooooXXXXXXXXXXXXXXXXXXXXXXXXXXXXXXXXXXXXXXXX..XX..          ",
"          ..XX..XXXXXXXXXXXXXXXXXXXXXXXXXXXXXXXXXXXXXXXXXX..@@@@@@@@ooooXXXXXXXXXXXXXXXXXXXXXXXXXXXXXXXXXXXXXXXX..XX..          ",
"          ..XX..XXXXXXXXXXXXXXXXXXXXXXXXXXXXXXXXXXXXXXXXXX..@@@@@@@@ooooXXXXXXXXXXXXXXXXXXXXXXXXXXXXXXXXXXXXXXXX..XX..          ",
"          ..XX..XXXXXXXXXXXXXXXXXXXXXXXXXXXXXXXXXXXXXXXXXX..@@@@@@@@ooooXXXXXXXXXXXXXXXXXXXXXXXXXXXXXXXXXXXXXXXX..XX..          ",
"          ..XX..XXXXXXXXXXXXXXXXXXXXXXXXXXXXXXXXXXXXXXXXXX..@@@@@@@@ooooXXXXXXXXXXXXXXXXXXXXXXXXXXXXXXXXXXXXXXXX..XX..          ",
"          ..XX..XXXXXXXXXXXXXXXXXXXXXXXXXXXXXXXXXXXXXXXXXX..@@@@@@@@ooooXXXXXXXXXXXXXXXXXXXXXXXXXXXXXXXXXXXXXXXX..XX..          ",
"          ..XX..XXXXXXXXXXXXXXXXXXXXXXXXXXXXXXXXXXXXXXXXXX..@@@@@@@@ooooXXXXXXXXXXXXXXXXXXXXXXXXXXXXXXXXXXXXXXXX..XX..          ",
"          ..XX..XXXXXXXXXXXXXXXXXXXXXXXXXXXXXXXXXXXXXXXXXXXX##@@@@@@oo@@@@XXXXXXXXXXXXXXXXXXXXXXXXXXXXXXXXXXXXXX..XX..          ",
"          ..XX..XXXXXXXXXXXXXXXXXXXXXXXXXXXXXXXXXXXXXXXXXXXX##@@@@@@oo@@@@XXXXXXXXXXXXXXXXXXXXXXXXXXXXXXXXXXXXXX..XX..          ",
"          ..XX..XXXXXXXXXXXXXXXXXXXXXXXXXXXXXXXX..XXXXXXXXXX##@@@@@@oo@@@@XXXXXXXXXX..XXXXXXXXXXXXXXXXXXXXXXXXXX..XX..          ",
"          ..XX..XXXXXXXXXXXXXXXXXXXXXXXXXXXXXXXX..XXXXXXXXXX##@@@@@@oo@@@@XXXXXXXXXX..XXXXXXXXXXXXXXXXXXXXXXXXXX..XX..          ",
"          ..XX..XXXXXXXXXXXXXXXXXXXXXXXXXXXXXX..$$..XXXXXXXX##@@@@@@oo@@@@XXXXXXXX..$$..XXXXXXXXXXXXXXXXXXXXXXXX..XX..          ",
"          ..XX..XXXXXXXXXXXXXXXXXXXXXXXXXXXXXX..$$..XXXXXXXX##@@@@@@oo@@@@XXXXXXXX..$$..XXXXXXXXXXXXXXXXXXXXXXXX..XX..          ",
"          ..XX..XXXXXXXXXXXXXXXXXXXXXXXXXXXX..$$$$$$..XXXXXX##@@@@@@oo@@@@XXXXXX..$$$$$$..XXXXXXXXXXXXXXXXXXXXXX..XX..          ",
"          ..XX..XXXXXXXXXXXXXXXXXXXXXXXXXXXX..$$$$$$..XXXXXX##@@@@@@oo@@@@XXXXXX..$$$$$$..XXXXXXXXXXXXXXXXXXXXXX..XX..          ",
"          ..XX..XXXXXXXXXXXXXXXXXXXXXXXXXXXX..$$$$$$..XXXXXX##@@@@@@oo@@@@XXXXXX..$$$$$$..XXXXXXXXXXXXXXXXXXXXXX..XX..          ",
"          ..XX..XXXXXXXXXXXXXXXXXXXXXXXXXXXX..$$$$$$..XXXXXX##@@@@@@oo@@@@XXXXXX..$$$$$$..XXXXXXXXXXXXXXXXXXXXXX..XX..          ",
"          ..XX..XXXXXXXXXXXXXXXXXXXXXXXXXXXX..$$$$$$..XXXXXX##@@@@@@oo@@@@XXXXXX..$$$$$$..XXXXXXXXXXXXXXXXXXXXXX..XX..          ",
"          ..XX..XXXXXXXXXXXXXXXXXXXXXXXXXXXX..$$$$$$..XXXXXX##@@@@@@oo@@@@XXXXXX..$$$$$$..XXXXXXXXXXXXXXXXXXXXXX..XX..          ",
"          ..XX..XXXXXXXXXXXXXXXXXXXXXXXXXXXX..$$$$$$..XXXXXX##@@@@@@oo@@@@XXXXXX..$$$$$$..XXXXXXXXXXXXXXXXXXXXXX..XX..          ",
"          ..XX..XXXXXXXXXXXXXXXXXXXXXXXXXXXX..$$$$$$..XXXXXX##@@@@@@oo@@@@XXXXXX..$$$$$$..XXXXXXXXXXXXXXXXXXXXXX..XX..          ",
"          ..XX..XXXXXXXXXXXXXXXXXXXXXXXXXXXX..$$$$$$..XXXXXX##@@@@@@oo@@@@XXXXXX..$$$$$$..XXXXXXXXXXXXXXXXXXXXXX..XX..          ",
"          ..XX..XXXXXXXXXXXXXXXXXXXXXXXXXXXX..$$$$$$..XXXXXX##@@@@@@oo@@@@XXXXXX..$$$$$$..XXXXXXXXXXXXXXXXXXXXXX..XX..          ",
"          ..XX..XXXXXXXXXXXXXXXXXXXXXXXXXXXX..$$$$$$..XXXXXX##@@@@@@oo@@@@XXXXXX..$$$$$$..XXXXXXXXXXXXXXXXXXXXXX..XX..          ",
"          ..XX..XXXXXXXXXXXXXXXXXXXXXXXXXXXX..$$$$$$..XXXXXX##@@@@@@oo@@@@XXXXXX..$$$$$$..XXXXXXXXXXXXXXXXXXXXXX..XX..          ",
"          ..XX..XXXXXXXXXXXXXXXXXXXXXXXXXXXX..$$$$$$..XXXXXX##@@@@@@oo@@@@XXXXXX..$$$$$$..XXXXXXXXXXXXXXXXXXXXXX..XX..          ",
"          ..XX..XXXXXXXXXXXXXXXXXXXXXXXXXXXX..$$$$$$..XXXXXX##@@@@@@oo@@@@XXXXXX..$$$$$$..XXXXXXXXXXXXXXXXXXXXXX..XX..          ",
"          ..XX..XXXXXXXXXXXXXXXXXXXXXXXXXXXXXX..$$..XXXXXXXX##@@@@@@oo@@@@XXXXXXXX..$$..XXXXXXXXXXXXXXXXXXXXXXXX..XX..          ",
"          ..XX..XXXXXXXXXXXXXXXXXXXXXXXXXXXXXX..$$..XXXXXXXX##@@@@@@oo@@@@XXXXXXXX..$$..XXXXXXXXXXXXXXXXXXXXXXXX..XX..          ",
"          ..XX..XXXXXXXXXXXXXXXXXXXXXXXXXXXXXXXX..XXXXXXXXXX##@@@@@@oo@@@@XXXXXXXXXX..XXXXXXXXXXXXXXXXXXXXXXXXXX..XX..          ",
"          ..XX..XXXXXXXXXXXXXXXXXXXXXXXXXXXXXXXX..XXXXXXXXXX##@@@@@@oo@@@@XXXXXXXXXX..XXXXXXXXXXXXXXXXXXXXXXXXXX..XX..          ",
"          ..XX..XXXXXXXXXXXXXXXXXXXXXXXXXXXXXXXXXXXXXXXXXXXX##@@@@@@oo@@@@XXXXXXXXXXXXXXXXXXXXXXXXXXXXXXXXXXXXXX..XX..          ",
"          ..XX..XXXXXXXXXXXXXXXXXXXXXXXXXXXXXXXXXXXXXXXXXXXX##@@@@@@oo@@@@XXXXXXXXXXXXXXXXXXXXXXXXXXXXXXXXXXXXXX..XX..          ",
"          ..XX..XXXXXXXXXXXXXXXXXXXXXXXXXXXXXXXXXXXXXXXXXXXX##@@@@@@oo@@@@XXXXXXXXXXXXXXXXXXXXXXXXXXXXXXXXXXXXXX..XX..          ",
"          ..XX..XXXXXXXXXXXXXXXXXXXXXXXXXXXXXXXXXXXXXXXXXXXX##@@@@@@oo@@@@XXXXXXXXXXXXXXXXXXXXXXXXXXXXXXXXXXXXXX..XX..          ",
"          ..XX..XXXXXXXXXXXXXXXXXXXXXXXXXXXXXXXXXXXXXXXXXX..@@@@@@@@oo@@XXXXXXXXXXXXXXXXXXXXXXXXXXXXXXXXXXXXXXXX..XX..          ",
"          ..XX..XXXXXXXXXXXXXXXXXXXXXXXXXXXXXXXXXXXXXXXXXX..@@@@@@@@oo@@XXXXXXXXXXXXXXXXXXXXXXXXXXXXXXXXXXXXXXXX..XX..          ",
"          ..XX..XXXXXXXXXXXXXXXXXXXXXXXXXXXXXXXXXXXXXXXXXX..@@@@@@@@oo@@XXXXXXXXXXXXXXXXXXXXXXXXXXXXXXXXXXXXXXXX..XX..          ",
"          ..XX..XXXXXXXXXXXXXXXXXXXXXXXXXXXXXXXXXXXXXXXXXX..@@@@@@@@oo@@XXXXXXXXXXXXXXXXXXXXXXXXXXXXXXXXXXXXXXXX..XX..          ",
"          ..XX..XXXXXXXXXXXXXXXXXXXXXXXXXXXXXXXXXXXXXXXXXX..@@@@@@@@oo@@XXXXXXXXXXXXXXXXXXXXXXXXXXXXXXXXXXXXXXXX..XX..          ",
"          ..XX..XXXXXXXXXXXXXXXXXXXXXXXXXXXXXXXXXXXXXXXXXX..@@@@@@@@oo@@XXXXXXXXXXXXXXXXXXXXXXXXXXXXXXXXXXXXXXXX..XX..          ",
"          ..XX..XXXXXXXXXXXXXXXXXXXXXXXXXXXXXXXXXXXXXXXXXX..@@@@@@@@oo@@XXXXXXXXXXXXXXXXXXXXXXXXXXXXXXXXXXXXXXXX..XX..          ",
"          ..XX..XXXXXXXXXXXXXXXXXXXXXXXXXXXXXXXXXXXXXXXXXX..@@@@@@@@oo@@XXXXXXXXXXXXXXXXXXXXXXXXXXXXXXXXXXXXXXXX..XX..          ",
"          ..XX..XXXXXXXXXXXXXXXXXXXXXXXXXXXXXXXXXXXXXXXXXX..@@@@@@@@oo@@XXXXXXXXXXXXXXXXXXXXXXXXXXXXXXXXXXXXXXXX..XX..          ",
"          ..XX..XXXXXXXXXXXXXXXXXXXXXXXXXXXXXXXXXXXXXXXXXX..@@@@@@@@oo@@XXXXXXXXXXXXXXXXXXXXXXXXXXXXXXXXXXXXXXXX..XX..          ",
"          ..XX..XXXXXXXXXXXXXXXXXXXXXXXXXXXXXXXXXXXXXXXXXX..@@@@@@@@oo@@XXXXXXXXXXXXXXXXXXXXXXXXXXXXXXXXXXXXXXXX..XX..          ",
"          ..XX..XXXXXXXXXXXXXXXXXXXXXXXXXXXXXXXXXXXXXXXXXX..@@@@@@@@oo@@XXXXXXXXXXXXXXXXXXXXXXXXXXXXXXXXXXXXXXXX..XX..          ",
"          ..XX..XXXXXXXXXXXXXXXXXXXXXXXXXXXXXXXXXXXXXXXXXX..@@@@@@@@oo@@XXXXXXXXXXXXXXXXXXXXXXXXXXXXXXXXXXXXXXXX..XX..          ",
"          ..XX..XXXXXXXXXXXXXXXXXXXXXXXXXXXXXXXXXXXXXXXXXX..@@@@@@@@oo@@XXXXXXXXXXXXXXXXXXXXXXXXXXXXXXXXXXXXXXXX..XX..          ",
"          ..XX..XXXXXXXXXXXXXXXXXXXXXXXXXXXXXXXXXXXXXXXXXX..@@@@@@@@oo@@XXXXXXXXXXXXXXXXXXXXXXXXXXXXXXXXXXXXXXXX..XX..          ",
"          ..XX..XXXXXXXXXXXXXXXXXXXXXXXXXXXXXXXXXXXXXXXXXX..@@@@@@@@oo@@XXXXXXXXXXXXXXXXXXXXXXXXXXXXXXXXXXXXXXXX..XX..          ",
"          ..XX..XXXXXXXXXXXXXXXXXXXXXXXXXXXXXXXXXXXXXXXXXX..@@@@@@@@oo@@XXXXXXXXXXXXXXXXXXXXXXXXXXXXXXXXXXXXXXXX..XX..          ",
"          ..XX..XXXXXXXXXXXXXXXXXXXXXXXXXXXXXXXXXXXXXXXXXX..@@@@@@@@oo@@XXXXXXXXXXXXXXXXXXXXXXXXXXXXXXXXXXXXXXXX..XX..          ",
"          ..XX..XXXXXXXXXXXXXXXXXXXXXXXXXXXXXXXXXXXXXXXXXX..@@@@@@@@oo@@XXXXXXXXXXXXXXXXXXXXXXXXXXXXXXXXXXXXXXXX..XX..          ",
"          ..XX..XXXXXXXXXXXXXXXXXXXXXXXXXXXXXXXXXXXXXXXXXX..@@@@@@@@oo@@XXXXXXXXXXXXXXXXXXXXXXXXXXXXXXXXXXXXXXXX..XX..          ",
"          ..XX..XXXXXXXXXXXXXXXXXXXXXXXXXXXXXXXXXXXXXXXXXX..@@@@@@@@oo@@XXXXXXXXXXXXXXXXXXXXXXXXXXXXXXXXXXXXXXXX..XX..          ",
"          ..XX..XXXXXXXXXXXXXXXXXXXXXXXXXXXXXXXXXXXXXXXXXX..@@@@@@@@oo@@XXXXXXXXXXXXXXXXXXXXXXXXXXXXXXXXXXXXXXXX..XX..          ",
"          ..XX..XXXXXXXXXXXXXXXXXXXXXXXXXXXXXXXXXXXXXXXXXX..@@@@@@@@oo@@XXXXXXXXXXXXXXXXXXXXXXXXXXXXXXXXXXXXXXXX..XX..          ",
"          ..XX..XXXXXXXXXXXXXXXXXXXXXXXXXXXXXXXXXXXXXXXXXX..@@@@@@@@oo@@XXXXXXXXXXXXXXXXXXXXXXXXXXXXXXXXXXXXXXXX..XX..          ",
"          ..XX..XXXXXXXXXXXXXXXXXXXXXXXXXXXXXXXXXXXXXXXXXX..@@@@@@@@oo@@XXXXXXXXXXXXXXXXXXXXXXXXXXXXXXXXXXXXXXXX..XX..          ",
"          ..XX..XXXXXXXXXXXXXXXXXXXXXXXXXXXXXXXXXXXXXXXXXX..@@@@@@@@oo@@XXXXXXXXXXXXXXXXXXXXXXXXXXXXXXXXXXXXXXXX..XX..          ",
"          ..XX..XXXXXXXXXXXXXXXXXXXXXXXXXXXXXXXXXXXXXXXXXX..@@@@@@@@oo@@XXXXXXXXXXXXXXXXXXXXXXXXXXXXXXXXXXXXXXXX..XX..          ",
"          ..XX..XXXXXXXXXXXXXXXXXXXXXXXXXXXXXXXXXXXXXXXXXX..@@@@@@@@oo@@XXXXXXXXXXXXXXXXXXXXXXXXXXXXXXXXXXXXXXXX..XX..          ",
"          ..XX..XXXXXXXXXXXXXXXXXXXXXXXXXXXXXXXXXXXXXXXXXX..@@@@@@@@oo@@XXXXXXXXXXXXXXXXXXXXXXXXXXXXXXXXXXXXXXXX..XX..          ",
"          ..XX..XXXXXXXXXXXXXXXXXXXXXXXXXXXXXXXXXXXXXXXXXX..@@@@@@@@oo@@XXXXXXXXXXXXXXXXXXXXXXXXXXXXXXXXXXXXXXXX..XX..          ",
"          ..XX..XXXXXXXXXXXXXXXXXXXXXXXXXXXXXXXXXXXXXXXXXX..@@@@@@@@oo@@XXXXXXXXXXXXXXXXXXXXXXXXXXXXXXXXXXXXXXXX..XX..          ",
"          ..XX..XXXXXXXXXXXXXXXXXXXXXXXXXXXXXXXXXXXXXXXXXX..@@@@@@@@oo@@XXXXXXXXXXXXXXXXXXXXXXXXXXXXXXXXXXXXXXXX..XX..          ",
"          ..XX..XXXXXXXXXXXXXXXXXXXXXXXXXXXXXXXXXXXXXXXXXX..@@@@@@@@oo@@XXXXXXXXXXXXXXXXXXXXXXXXXXXXXXXXXXXXXXXX..XX..          ",
"          ..XX..XXXXXXXXXXXXXXXXXXXXXXXXXXXXXXXXXXXXXXXXXX..@@@@@@@@oo@@XXXXXXXXXXXXXXXXXXXXXXXXXXXXXXXXXXXXXXXX..XX..          ",
"          ..XX..XXXXXXXXXXXXXXXXXXXXXXXXXXXXXXXXXXXXXXXXXX..%%%%%%%%%%%%XXXXXXXXXXXXXXXXXXXXXXXXXXXXXXXXXXXXXXXX..XX..          ",
"          ..XX..XXXXXXXXXXXXXXXXXXXXXXXXXXXXXXXXXXXXXXXXXX..%%%%%%%%%%%%XXXXXXXXXXXXXXXXXXXXXXXXXXXXXXXXXXXXXXXX..XX..          ",
"          ..XX....................................................................................................XX..          ",
"          ..XX....................................................................................................XX..          ",
"          ..XXXXXXXXXXXXXXXXXXXXXXXXXXXXXXXXXXXXXXXXXXXXXXXXXXXXXXXXXXXXXXXXXXXXXXXXXXXXXXXXXXXXXXXXXXXXXXXXXXXXXXXX..          ",
"          ..XXXXXXXXXXXXXXXXXXXXXXXXXXXXXXXXXXXXXXXXXXXXXXXXXXXXXXXXXXXXXXXXXXXXXXXXXXXXXXXXXXXXXXXXXXXXXXXXXXXXXXXX..          ",
"          ............................................................................................................          ",
"          ............................................................................................................          ",
"                                                                                                                                ",
"                                                                                                                                ",
"                                                                                                                                ",
"                                                                                                                                ",
"                                                                                                                                ",
"                                                                                                                                ",
"                                                                                                                                ",
"                                                                                                                                ",
"                                                                                                                                ",
"                                                                                                                                "
};
