/* XPM */
static char *_9766b8dcb8c4d71b738ebf09942aa598rPTonGlr1CQipKG[] = {
/* columns rows colors chars-per-pixel */
"64 64 7 1 ",
"  c black",
". c #251A32",
"X c #6F6777",
"o c #C38E76",
"O c #B1B8A6",
"+ c #C6CDB9",
"@ c #C7CEBA",
/* pixels */
"                                                                ",
"                                                                ",
"                                                                ",
"                                                                ",
"                                                                ",
"     ++++++++++++++++++++++++++++++++++++++++++++++++++++++     ",
"     +XXXXXXXXXXXXXXXXXXXXXXXXXXXXXXXXXXXXXXXXXXXXXXXXXXXX+     ",
"     +X++++++++++++++++++++++++++++++++++++++++++++++++++X+     ",
"     +X+XXXXXXXXXXXXXXXXX+..............XXXXXXXXXXXXXXXX+X+     ",
"     +X+XXXXXXXXXXXXXXXXX+..............XXXXXXXXXXXXXXXX+X+     ",
"     +X+XXXXXXXXXXXXXXXXX+..............XXXXXXXXXXXXXXXX+X+     ",
"     +X+XXXXXXXXXXXXXXXXX+..............XXXXXXXXXXXXXXXX+X+     ",
"     +X+XXXXXXXXXXXXXXXXX+..............XXXXXXXXXXXXXXXX+X+     ",
"     +X+XXXXXXXXXXXXXXXXX+..............XXXXXXXXXXXXXXXX+X+     ",
"     +X+XXXXXXXXXXXXXXXXX+..............XXXXXXXXXXXXXXXX+X+     ",
"     +X+XXXXXXXXXXXXXXXXX+..............XXXXXXXXXXXXXXXX+X+     ",
"     +X+XXXXXXXXXXXXXXXXX+OOOOOOOO......XXXXXXXXXXXXXXXX+X+     ",
"     +X+XXXXXXXXXXXXXXXXX+OOOOOOOO......XXXXXXXXXXXXXXXX+X+     ",
"     +X+XXXXXXXXXXXXXXXXX+OOOOOOOO......XXXXXXXXXXXXXXXX+X+     ",
"     +X+XXXXXXXXXXXXXXXXX+OOOOOOOO......XXXXXXXXXXXXXXXX+X+     ",
"     +X+XXXXXXXXXXXXXXXXX+OOOOOOOO......XXXXXXXXXXXXXXXX+X+     ",
"     +X+XXXXXXXXXXXXXXXXX+OOOOOOOO......XXXXXXXXXXXXXXXX+X+     ",
"     +X+XXXXXXXXXXXXXXXXX+OOOOOOOO......XXXXXXXXXXXXXXXX+X+     ",
"     +X+XXXXXXXXXXXXXXXXX+OOOOOOOO......XXXXXXXXXXXXXXXX+X+     ",
"     +X+XXXXXXXXXXXXXXXXXX+OOOOOOO.OOOOOOXXXXXXXXXXXXXXX+X+     ",
"     +X+XXXXXXXXXXXX+XXXXX+OOOOOOO.OOOOOOXXXXX+XXXXXXXXX+X+     ",
"     +X+XXXXXXXXXXX+o+XXXX@OOOOOOO.OOOOOOXXXX+o+XXXXXXXX+X+     ",
"     +X+XXXXXXXXXX+ooo+XXX@OOOOOOO.OOOOOOXXX+ooo+XXXXXXX+X+     ",
"     +X+XXXXXXXXXX+ooo+XXX@OOOOOOO.OOOOOOXXX+ooo+XXXXXXX+X+     ",
"     +X+XXXXXXXXXX+ooo+XXX@OOOOOOO.OOOOOOXXX+ooo+XXXXXXX+X+     ",
"     +X+XXXXXXXXXX+ooo+XXX@OOOOOOO.OOOOOOXXX+ooo+XXXXXXX+X+     ",
"     +X+XXXXXXXXXX+ooo+XXX@OOOOOOO.OOOOOOXXX+ooo+XXXXXXX+X+     ",
"     +X+XXXXXXXXXX+ooo+XXX@OOOOOOO.OOOOOOXXX+ooo+XXXXXXX+X+     ",
"     +X+XXXXXXXXXX+ooo+XXX@OOOOOOO.OOOOOOXXX+ooo+XXXXXXX+X+     ",
"     +X+XXXXXXXXXXX+o+XXXX@OOOOOOO.OOOOOOXXXX+o+XXXXXXXX+X+     ",
"     +X+XXXXXXXXXXXX+XXXXX@OOOOOOO.OOOOOOXXXXX+XXXXXXXXX+X+     ",
"     +X+XXXXXXXXXXXXXXXXXX@OOOOOOO.OOOOOOXXXXXXXXXXXXXXX+X+     ",
"     +X+XXXXXXXXXXXXXXXXXX@OOOOOOO.OOOOOOXXXXXXXXXXXXXXX+X+     ",
"     +X+XXXXXXXXXXXXXXXXX+OOOOOOOO.OOOOOXXXXXXXXXXXXXXXX+X+     ",
"     +X+XXXXXXXXXXXXXXXXX+OOOOOOOO.OOOOOXXXXXXXXXXXXXXXX+X+     ",
"     +X+XXXXXXXXXXXXXXXXX+OOOOOOOO.OOOOOXXXXXXXXXXXXXXXX+X+     ",
"     +X+XXXXXXXXXXXXXXXXX+OOOOOOOO.OOOOOXXXXXXXXXXXXXXXX+X+     ",
"     +X+XXXXXXXXXXXXXXXXX+OOOOOOOO.OOOOOXXXXXXXXXXXXXXXX+X+     ",
"     +X+XXXXXXXXXXXXXXXXX+OOOOOOOO.OOOOOXXXXXXXXXXXXXXXX+X+     ",
"     +X+XXXXXXXXXXXXXXXXX+OOOOOOOO.OOOOOXXXXXXXXXXXXXXXX+X+     ",
"     +X+XXXXXXXXXXXXXXXXX+OOOOOOOO.OOOOOXXXXXXXXXXXXXXXX+X+     ",
"     +X+XXXXXXXXXXXXXXXXX+OOOOOOOO.OOOOOXXXXXXXXXXXXXXXX+X+     ",
"     +X+XXXXXXXXXXXXXXXXX+OOOOOOOO.OOOOOXXXXXXXXXXXXXXXX+X+     ",
"     +X+XXXXXXXXXXXXXXXXX+OOOOOOOO.OOOOOXXXXXXXXXXXXXXXX+X+     ",
"     +X+XXXXXXXXXXXXXXXXX+OOOOOOOO.OOOOOXXXXXXXXXXXXXXXX+X+     ",
"     +X+XXXXXXXXXXXXXXXXX+OOOOOOOO.OOOOOXXXXXXXXXXXXXXXX+X+     ",
"     +X+XXXXXXXXXXXXXXXXX+OOOOOOOO.OOOOOXXXXXXXXXXXXXXXX+X+     ",
"     +X+XXXXXXXXXXXXXXXXX+OOOOOOOO.OOOOOXXXXXXXXXXXXXXXX+X+     ",
"     +X+XXXXXXXXXXXXXXXXX+OOOOOOOO.OOOOOXXXXXXXXXXXXXXXX+X+     ",
"     +X+XXXXXXXXXXXXXXXXX+OOOOOOOO.OOOOOXXXXXXXXXXXXXXXX+X+     ",
"     +X+XXXXXXXXXXXXXXXXX+..............XXXXXXXXXXXXXXXX+X+     ",
"     +X++++++++++++++++++++++++++++++++++++++++++++++++++X+     ",
"     +XXXXXXXXXXXXXXXXXXXXXXXXXXXXXXXXXXXXXXXXXXXXXXXXXXXX+     ",
"     ++++++++++++++++++++++++++++++++++++++++++++++++++++++     ",
"                                                                ",
"                                                                ",
"                                                                ",
"                                                                ",
"                                                                "
};
