/* XPM */
static char *result[] = {
/* columns rows colors chars-per-pixel */
"128 128 8 1 ",
"  c black",
". c #C5CCB8",
"X c #6F6776",
"o c #2F243B",
"O c #2E243B",
"+ c #C6CDB9",
"@ c #C28D75",
"# c white",
/* pixels */
"                                                                                                                                ",
"                                                                                                                                ",
"                                                                                                                                ",
"                                                                                                                                ",
"                                                                                                                                ",
"                                                                                                                                ",
"                                                                                                                                ",
"                                                                                                                                ",
"                                                                                                                                ",
"                                                                                                                                ",
"          ............................................................................................................          ",
"          ............................................................................................................          ",
"          ..XXXXXXXXXXXXXXXXXXXXXXXXXXXXXXXXXXXXXXXXXXXXXXXXXXXXXXXXXXXXXXXXXXXXXXXXXXXXXXXXXXXXXXXXXXXXXXXXXXXXXXXX..          ",
"          ..XXXXXXXXXXXXXXXXXXXXXXXXXXXXXXXXXXXXXXXXXXXXXXXXXXXXXXXXXXXXXXXXXXXXXXXXXXXXXXXXXXXXXXXXXXXXXXXXXXXXXXXX..          ",
"          ..XX....................................................................................................XX..          ",
"          ..XX....................................................................................................XX..          ",
"          ..XX..XXXXXXXXXXXXXXXXXX..ooooooooooooooooooooooooooooooooooooooooooooooooooooooooooooXXXXXXXXXXXXXXXX..XX..          ",
"          ..XX..XXXXXXXXXXXXXXXXXX..ooooooooooooooooooooooooooooooooooooooooooooooooooooooooooooXXXXXXXXXXXXXXXX..XX..          ",
"          ..XX..XXXXXXXXXXXXXXXXXX......OOooooooooooooooooooooooooooooooooooooooooooooooooooooooXXXXXXXXXXXXXXXX..XX..          ",
"          ..XX..XXXXXXXXXXXXXXXXXX......OOooooooooooooooooooooooooooooooooooooooooooooooooooooooXXXXXXXXXXXXXXXX..XX..          ",
"          ..XX..XXXXXXXXXXXXXXXXXX......OOooooooooooooooooooooooooooooooooooooooooooooooooooooooXXXXXXXXXXXXXXXX..XX..          ",
"          ..XX..XXXXXXXXXXXXXXXXXX......OOooooooooooooooooooooooooooooooooooooooooooooooooooooooXXXXXXXXXXXXXXXX..XX..          ",
"          ..XX..XXXXXXXXXXXXXXXXXX......OOooooooooooooooooooooooooooooooooooooooooooooooooooooooXXXXXXXXXXXXXXXX..XX..          ",
"          ..XX..XXXXXXXXXXXXXXXXXX......OOooooooooooooooooooooooooooooooooooooooooooooooooooooooXXXXXXXXXXXXXXXX..XX..          ",
"          ..XX..XXXXXXXXXXXXXXXXXX......OOooooooooooooooooooooooooooooooooooooooooooooooooooooooXXXXXXXXXXXXXXXX..XX..          ",
"          ..XX..XXXXXXXXXXXXXXXXXX......OOooooooooooooooooooooooooooooooooooooooooooooooooooooooXXXXXXXXXXXXXXXX..XX..          ",
"          ..XX..XXXXXXXXXXXXXXXXXX......OOooooooooooooooooooooooooooooooooooooooooooooooooooooooXXXXXXXXXXXXXXXX..XX..          ",
"          ..XX..XXXXXXXXXXXXXXXXXX......OOooooooooooooooooooooooooooooooooooooooooooooooooooooooXXXXXXXXXXXXXXXX..XX..          ",
"          ..XX..XXXXXXXXXXXXXXXXXX......OOooooooooooooooooooooooooooooooooooooooooooooooooooooooXXXXXXXXXXXXXXXX..XX..          ",
"          ..XX..XXXXXXXXXXXXXXXXXX......OOooooooooooooooooooooooooooooooooooooooooooooooooooooooXXXXXXXXXXXXXXXX..XX..          ",
"          ..XX..XXXXXXXXXXXXXXXXXX......OOOOOOOOOOOOOOOOOOOOOOOOOOOOOOooooooooooooooooooooooooooXXXXXXXXXXXXXXXX..XX..          ",
"          ..XX..XXXXXXXXXXXXXXXXXX......OOOOOOOOOOOOOOOOOOOOOOOOOOOOOOooooooooooooooooooooooooooXXXXXXXXXXXXXXXX..XX..          ",
"          ..XX..XXXXXXXXXXXXXXXXXX......OO..........................OOooooooooooooooooooooooooooXXXXXXXXXXXXXXXX..XX..          ",
"          ..XX..XXXXXXXXXXXXXXXXXX......OO..........................OOooooooooooooooooooooooooooXXXXXXXXXXXXXXXX..XX..          ",
"          ..XX..XXXXXXXXXXXXXXXXXX......OO..........................OOooooooooooooooooooooooooooXXXXXXXXXXXXXXXX..XX..          ",
"          ..XX..XXXXXXXXXXXXXXXXXX......OO..........................OOooooooooooooooooooooooooooXXXXXXXXXXXXXXXX..XX..          ",
"          ..XX..XXXXXXXXXXXXXXXXXX......OO..........................OOooooooooooooooooooooooooooXXXXXXXXXXXXXXXX..XX..          ",
"          ..XX..XXXXXXXXXXXXXXXXXX......OO..........................OOooooooooooooooooooooooooooXXXXXXXXXXXXXXXX..XX..          ",
"          ..XX..XXXXXXXXXXXXXXXXXX......OO..........................OOooooooooooooooooooooooooooXXXXXXXXXXXXXXXX..XX..          ",
"          ..XX..XXXXXXXXXXXXXXXXXX......OO..........................OOooooooooooooooooooooooooooXXXXXXXXXXXXXXXX..XX..          ",
"          ..XX..XXXXXXXXXXXXXXXXXX......OO..........................OOooooooooooooooooooooooooooXXXXXXXXXXXXXXXX..XX..          ",
"          ..XX..XXXXXXXXXXXXXXXXXX......OO..........................OOooooooooooooooooooooooooooXXXXXXXXXXXXXXXX..XX..          ",
"          ..XX..XXXXXXXXXXXXXXXXXX......OO..........................OOooooooooooooooooooooooooooXXXXXXXXXXXXXXXX..XX..          ",
"          ..XX..XXXXXXXXXXXXXXXXXX......OO..........................OOooooooooooooooooooooooooooXXXXXXXXXXXXXXXX..XX..          ",
"          ..XX..XXXXXXXXXXXXXXXXXX......OO..........................OOooooooooooooooooooooooooooXXXXXXXXXXXXXXXX..XX..          ",
"          ..XX..XXXXXXXXXXXXXXXXXX......OO..........................OOooooooooooooooooooooooooooXXXXXXXXXXXXXXXX..XX..          ",
"          ..XX..XXXXXXXXXXXXXXXXXX......OO..........................OOOOOOOOOOOOOOOOOOOOOOOOOOOOXXXXXXXXXXXXXXXX..XX..          ",
"          ..XX..XXXXXXXXXXXXXXXXXX......OO..........................OOOOOOOOOOOOOOOOOOOOOOOOOOOOXXXXXXXXXXXXXXXX..XX..          ",
"          ..XX..XXXXXXXXXXXXXXXXXXXX++..OO..........................OO..........................OOXXXXXXXXXXXXXX..XX..          ",
"          ..XX..XXXXXXXXXXXXXXXXXXXX++..OO..........................OO..........................OOXXXXXXXXXXXXXX..XX..          ",
"          ..XX..XXXXXXXX..XXXXXXXXXX++..OO..........................OO..........................OOXXXXXXXXXX..XX..XX..          ",
"          ..XX..XXXXXXXX..XXXXXXXXXX++..OO..........................OO..........................OOXXXXXXXXXX..XX..XX..          ",
"          ..XX..XXXXXX..@@..XXXXXXXX++..OO..........................OO..........................OOXXXXXXXX..@@....XX..          ",
"          ..XX..XXXXXX..@@..XXXXXXXX++..OO..........................OO..........................OOXXXXXXXX..@@....XX..          ",
"          ..XX..XXXX..@@@@@@..XXXXXX++..OO..........................OO..........................OOXXXXXX..@@@@@@..XX..          ",
"          ..XX..XXXX..@@@@@@..XXXXXX++..OO..........................OO..........................OOXXXXXX..@@@@@@..XX..          ",
"          ..XX..XXXX..@@@@@@..XXXXXX++..OO..........................OO..........................OOXXXXXX..@@@@@@..XX..          ",
"          ..XX..XXXX..@@@@@@..XXXXXX++..OO..........................OO..........................OOXXXXXX..@@@@@@..XX..          ",
"          ..XX..XXXX..@@@@@@..XXXXXX++..OO..........................OO..........................OOXXXXXX..@@@@@@..XX..          ",
"          ..XX..XXXX..@@@@@@..XXXXXX++..OO..........................OO..........................OOXXXXXX..@@@@@@..XX..          ",
"          ..XX..XXXX..@@@@@@..XXXXXX++..OO..........................OO..........................OOXXXXXX..@@@@@@..XX..          ",
"          ..XX..XXXX..@@@@@@..XXXXXX++..OO..........................OO..........................OOXXXXXX..@@@@@@..XX..          ",
"          ..XX..XXXX..@@@@@@..XXXXXX++..OO..........................OO..........................OOXXXXXX..@@@@@@..XX..          ",
"          ..XX..XXXX..@@@@@@..XXXXXX++..OO..........................OO..........................OOXXXXXX..@@@@@@..XX..          ",
"          ..XX..XXXX..@@@@@@..XXXXXX++..OO..........................OO..........................ooXXXXXX..@@@@@@..XX..          ",
"          ..XX..XXXX..@@@@@@..XXXXXX++..OO..........................OO..........................ooXXXXXX..@@@@@@..XX..          ",
"          ..XX..XXXX..@@@@@@..XXXXXX++..OO..........................OO..........................OOXXXXXX..@@@@@@..XX..          ",
"          ..XX..XXXX..@@@@@@..XXXXXX++..OO..........................OO..........................OOXXXXXX..@@@@@@..XX..          ",
"          ..XX..XXXXXX..@@..XXXXXXXX++..OO..........................OO..........................OOXXXXXXXX..@@....XX..          ",
"          ..XX..XXXXXX..@@..XXXXXXXX++..OO..........................OO..........................OOXXXXXXXX..@@....XX..          ",
"          ..XX..XXXXXXXX..XXXXXXXXXX++..OO..........................OO..........................OOXXXXXXXXXX..XX..XX..          ",
"          ..XX..XXXXXXXX..XXXXXXXXXX++..OO..........................OO..........................OOXXXXXXXXXX..XX..XX..          ",
"          ..XX..XXXXXXXXXXXXXXXXXXXX++..OO..........................OO..........................OOXXXXXXXXXXXXXX..XX..          ",
"          ..XX..XXXXXXXXXXXXXXXXXXXX++..OO..........................OO..........................OOXXXXXXXXXXXXXX..XX..          ",
"          ..XX..XXXXXXXXXXXXXXXXXXXX++..OO..........................OO..........................OOXXXXXXXXXXXXXX..XX..          ",
"          ..XX..XXXXXXXXXXXXXXXXXXXX++..OO..........................OO..........................OOXXXXXXXXXXXXXX..XX..          ",
"          ..XX..XXXXXXXXXXXXXXXXXX......OO..........................OO..........................XXXXXXXXXXXXXXXX..XX..          ",
"          ..XX..XXXXXXXXXXXXXXXXXX......OO..........................OO..........................XXXXXXXXXXXXXXXX..XX..          ",
"          ..XX..XXXXXXXXXXXXXXXXXX......OO..........................OO..........................XXXXXXXXXXXXXXXX..XX..          ",
"          ..XX..XXXXXXXXXXXXXXXXXX......OO..........................OO..........................XXXXXXXXXXXXXXXX..XX..          ",
"          ..XX..XXXXXXXXXXXXXXXXXX......OO..........................OO..........................XXXXXXXXXXXXXXXX..XX..          ",
"          ..XX..XXXXXXXXXXXXXXXXXX......OO..........................OO..........................XXXXXXXXXXXXXXXX..XX..          ",
"          ..XX..XXXXXXXXXXXXXXXXXX......OO..........................OO..........................XXXXXXXXXXXXXXXX..XX..          ",
"          ..XX..XXXXXXXXXXXXXXXXXX......OO..........................OO..........................XXXXXXXXXXXXXXXX..XX..          ",
"          ..XX..XXXXXXXXXXXXXXXXXX......OO..........................OO..........................XXXXXXXXXXXXXXXX..XX..          ",
"          ..XX..XXXXXXXXXXXXXXXXXX......OO..........................OO..........................XXXXXXXXXXXXXXXX..XX..          ",
"          ..XX..XXXXXXXXXXXXXXXXXX......OO..........................OO..........................XXXXXXXXXXXXXXXX..XX..          ",
"          ..XX..XXXXXXXXXXXXXXXXXX......OO..........................OO..........................XXXXXXXXXXXXXXXX..XX..          ",
"          ..XX..XXXXXXXXXXXXXXXXXX......OO..........................OO..........................XXXXXXXXXXXXXXXX..XX..          ",
"          ..XX..XXXXXXXXXXXXXXXXXX......OO..........................OO..........................XXXXXXXXXXXXXXXX..XX..          ",
"          ..XX..XXXXXXXXXXXXXXXXXX......OO..........................OO..........................XXXXXXXXXXXXXXXX..XX..          ",
"          ..XX..XXXXXXXXXXXXXXXXXX......OO..........................OO..........................XXXXXXXXXXXXXXXX..XX..          ",
"          ..XX..XXXXXXXXXXXXXXXXXX......OO..........................OO..........................XXXXXXXXXXXXXXXX..XX..          ",
"          ..XX..XXXXXXXXXXXXXXXXXX......OO..........................OO..........................XXXXXXXXXXXXXXXX..XX..          ",
"          ..XX..XXXXXXXXXXXXXXXXXX......OO..........................OO..........................XXXXXXXXXXXXXXXX..XX..          ",
"          ..XX..XXXXXXXXXXXXXXXXXX......OO..........................OO..........................XXXXXXXXXXXXXXXX..XX..          ",
"          ..XX..XXXXXXXXXXXXXXXXXX......OO..........................OO..........................XXXXXXXXXXXXXXXX..XX..          ",
"          ..XX..XXXXXXXXXXXXXXXXXX......OO..........................OO..........................XXXXXXXXXXXXXXXX..XX..          ",
"          ..XX..XXXXXXXXXXXXXXXXXX......OO..........................OO..........................XXXXXXXXXXXXXXXX..XX..          ",
"          ..XX..XXXXXXXXXXXXXXXXXX......OO..........................OO..........................XXXXXXXXXXXXXXXX..XX..          ",
"          ..XX..XXXXXXXXXXXXXXXXXX......OO..........................OO..........................XXXXXXXXXXXXXXXX..XX..          ",
"          ..XX..XXXXXXXXXXXXXXXXXX......OO..........................OO..........................XXXXXXXXXXXXXXXX..XX..          ",
"          ..XX..XXXXXXXXXXXXXXXXXX......OO..........................OO..........................XXXXXXXXXXXXXXXX..XX..          ",
"          ..XX..XXXXXXXXXXXXXXXXXX......OO..........................OO..........................XXXXXXXXXXXXXXXX..XX..          ",
"          ..XX..XXXXXXXXXXXXXXXXXX......OO..........................OO..........................XXXXXXXXXXXXXXXX..XX..          ",
"          ..XX..XXXXXXXXXXXXXXXXXX......OO..........................OO..........................XXXXXXXXXXXXXXXX..XX..          ",
"          ..XX..XXXXXXXXXXXXXXXXXX......OO..........................OO..........................XXXXXXXXXXXXXXXX..XX..          ",
"          ..XX..XXXXXXXXXXXXXXXXXX......OO..........................OO..........................XXXXXXXXXXXXXXXX..XX..          ",
"          ..XX..XXXXXXXXXXXXXXXXXX......OO..........................OO..........................XXXXXXXXXXXXXXXX..XX..          ",
"          ..XX..XXXXXXXXXXXXXXXXXX......OO..........................OO..........................XXXXXXXXXXXXXXXX..XX..          ",
"          ..XX..XXXXXXXXXXXXXXXXXX..ooooooooooooooooooooooooooooooooooooooooooooooooooooooooooooXXXXXXXXXXXXXXXX..XX..          ",
"          ..XX..XXXXXXXXXXXXXXXXXX..ooooooooooooooooooooooooooooooooooooooooooooooooooooooooooooXXXXXXXXXXXXXXXX..XX..          ",
"          ..XX....................................................................................................XX..          ",
"          ..XX....................................................................................................XX..          ",
"          ..XXXXXXXXXXXXXXXXXXXXXXXXXXXXXXXXXXXXXXXXXXXXXXXXXXXXXXXXXXXXXXXXXXXXXXXXXXXXXXXXXXXXXXXXXXXXXXXXXXXXXXXX..          ",
"          ..XXXXXXXXXXXXXXXXXXXXXXXXXXXXXXXXXXXXXXXXXXXXXXXXXXXXXXXXXXXXXXXXXXXXXXXXXXXXXXXXXXXXXXXXXXXXXXXXXXXXXXXX..          ",
"          ............................................................................................................          ",
"          ............................................................................................................          ",
"                                                                                                                                ",
"                                                                                                                                ",
"                                                                                                                                ",
"                                                                                                                                ",
"                                                                                                                                ",
"                                                                                                                                ",
"                                                                                                                                ",
"                                                                                                                                ",
"                                                                                                                                ",
"                                                                                                                                "
};
