/* XPM */
static char *result[] = {
/* columns rows colors chars-per-pixel */
"64 64 4 1 ",
"  c black",
". c #6F6777",
"X c #C38E76",
"o c #C6CDB9",
/* pixels */
"                                                                ",
"                                                                ",
"                                                                ",
"                                                                ",
"                                                                ",
"     oooooooooooooooooooooooooooooooooooooooooooooooooooooo     ",
"     o....................................................o     ",
"     o.oooooooooooooooooooooooooooooooooooooooooooooooooo.o     ",
"     o.o........................o.......................o.o     ",
"     o.o........................o.......................o.o     ",
"     o.o........................o.......................o.o     ",
"     o.o........................o.......................o.o     ",
"     o.o........................o.......................o.o     ",
"     o.o........................o.......................o.o     ",
"     o.o........................o.......................o.o     ",
"     o.o........................o.......................o.o     ",
"     o.o........................o.......................o.o     ",
"     o.o........................o.......................o.o     ",
"     o.o........................o.......................o.o     ",
"     o.o........................o.......................o.o     ",
"     o.o........................o.......................o.o     ",
"     o.o........................o.......................o.o     ",
"     o.o........................o.......................o.o     ",
"     o.o........................o.......................o.o     ",
"     o.o.........................o......................o.o     ",
"     o.o...................o.....o.....o................o.o     ",
"     o.o..................oXo....o....oXo...............o.o     ",
"     o.o.................oXXXo...o...oXXXo..............o.o     ",
"     o.o.................oXXXo...o...oXXXo..............o.o     ",
"     o.o.................oXXXo...o...oXXXo..............o.o     ",
"     o.o.................oXXXo...o...oXXXo..............o.o     ",
"     o.o.................oXXXo...o...oXXXo..............o.o     ",
"     o.o.................oXXXo...o...oXXXo..............o.o     ",
"     o.o.................oXXXo...o...oXXXo..............o.o     ",
"     o.o..................oXo....o....oXo...............o.o     ",
"     o.o...................o.....o.....o................o.o     ",
"     o.o.........................o......................o.o     ",
"     o.o.........................o......................o.o     ",
"     o.o........................o.......................o.o     ",
"     o.o........................o.......................o.o     ",
"     o.o........................o.......................o.o     ",
"     o.o........................o.......................o.o     ",
"     o.o........................o.......................o.o     ",
"     o.o........................o.......................o.o     ",
"     o.o........................o.......................o.o     ",
"     o.o........................o.......................o.o     ",
"     o.o........................o.......................o.o     ",
"     o.o........................o.......................o.o     ",
"     o.o........................o.......................o.o     ",
"     o.o........................o.......................o.o     ",
"     o.o........................o.......................o.o     ",
"     o.o........................o.......................o.o     ",
"     o.o........................o.......................o.o     ",
"     o.o........................o.......................o.o     ",
"     o.o........................o.......................o.o     ",
"     o.o........................o.......................o.o     ",
"     o.oooooooooooooooooooooooooooooooooooooooooooooooooo.o     ",
"     o....................................................o     ",
"     oooooooooooooooooooooooooooooooooooooooooooooooooooooo     ",
"                                                                ",
"                                                                ",
"                                                                ",
"                                                                ",
"                                                                "
};
