/* XPM */
static char *e0f5458a82d248bfc16763cc6d4efd51YiLqZM8X0xpCvvyn[] = {
/* columns rows colors chars-per-pixel */
"64 64 4 1 ",
"  c black",
". c #42374E",
"X c #6F6777",
"o c #C6CDB9",
/* pixels */
"                                                                ",
"                                                                ",
"                                                                ",
"                                                                ",
"                                                                ",
"     oooooooooooooooooooooooooooooooooooooooooooooooooooooo     ",
"     oXXXXXXXXXXXXXXXXXXXXXXXXXXXXXXXXXXXXXXXXXXXXXXXXXXXXo     ",
"     oXooooooooooooooooooooooooooooooooooooooooooooooooooXo     ",
"     oXo................................................oXo     ",
"     oXo.ooooooooooo....................................oXo     ",
"     oXo.ooooooooooo....................................oXo     ",
"     oXo.ooooooooooo....................................oXo     ",
"     oXo.ooooooooooo....................................oXo     ",
"     oXo.ooooooooooo....................................oXo     ",
"     oXo.ooooooooooo....................................oXo     ",
"     oXo.ooooooooooo....................................oXo     ",
"     oXo.ooooooooooo.ooooooooooooo......................oXo     ",
"     oXo.ooooooooooo.ooooooooooooo......................oXo     ",
"     oXo.ooooooooooo.ooooooooooooo......................oXo     ",
"     oXo.ooooooooooo.ooooooooooooo......................oXo     ",
"     oXo.ooooooooooo.ooooooooooooo......................oXo     ",
"     oXo.ooooooooooo.ooooooooooooo......................oXo     ",
"     oXo.ooooooooooo.ooooooooooooo......................oXo     ",
"     oXo.ooooooooooo.ooooooooooooo......................oXo     ",
"     oXo.ooooooooooo.ooooooooooooo.ooooooooooooo........oXo     ",
"     oXo.ooooooooooo.ooooooooooooo.ooooooooooooo........oXo     ",
"     oXo.ooooooooooo.ooooooooooooo.ooooooooooooo........oXo     ",
"     oXo.ooooooooooo.ooooooooooooo.ooooooooooooo........oXo     ",
"     oXo.ooooooooooo.ooooooooooooo.ooooooooooooo........oXo     ",
"     oXo.ooooooooooo.ooooooooooooo.ooooooooooooo........oXo     ",
"     oXo.ooooooooooo.ooooooooooooo.ooooooooooooo........oXo     ",
"     oXo.ooooooooooo.ooooooooooooo.ooooooooooooo........oXo     ",
"     oXo.ooooooooooo.ooooooooooooo.ooooooooooooo........oXo     ",
"     oXo.ooooooooooo.ooooooooooooo.ooooooooooooo.oooooo.oXo     ",
"     oXo.ooooooooooo.ooooooooooooo.ooooooooooooo.oooooo.oXo     ",
"     oXo.ooooooooooo.ooooooooooooo.ooooooooooooo.oooooo.oXo     ",
"     oXo.ooooooooooo.ooooooooooooo.ooooooooooooo.oooooo.oXo     ",
"     oXo.ooooooooooo.ooooooooooooo.ooooooooooooo.oooooo.oXo     ",
"     oXo.ooooooooooo.ooooooooooooo.ooooooooooooo.oooooo.oXo     ",
"     oXo.ooooooooooo.ooooooooooooo.ooooooooooooo.oooooo.oXo     ",
"     oXo.ooooooooooo.ooooooooooooo.ooooooooooooo.oooooo.oXo     ",
"     oXo.ooooooooooo.ooooooooooooo.ooooooooooooo.oooooo.oXo     ",
"     oXo.ooooooooooo.ooooooooooooo.ooooooooooooo.oooooo.oXo     ",
"     oXo.ooooooooooo.ooooooooooooo.ooooooooooooo.oooooo.oXo     ",
"     oXo.ooooooooooo.ooooooooooooo.ooooooooooooo.oooooo.oXo     ",
"     oXo.ooooooooooo.ooooooooooooo.ooooooooooooo.oooooo.oXo     ",
"     oXo.ooooooooooo.ooooooooooooo.ooooooooooooo.oooooo.oXo     ",
"     oXo.ooooooooooo.ooooooooooooo.ooooooooooooo.oooooo.oXo     ",
"     oXo.ooooooooooo.ooooooooooooo.ooooooooooooo.oooooo.oXo     ",
"     oXo.ooooooooooo.ooooooooooooo.ooooooooooooo.oooooo.oXo     ",
"     oXo.ooooooooooo.ooooooooooooo.ooooooooooooo.oooooo.oXo     ",
"     oXo.ooooooooooo.ooooooooooooo.ooooooooooooo.oooooo.oXo     ",
"     oXo.ooooooooooo.ooooooooooooo.ooooooooooooo.oooooo.oXo     ",
"     oXo.ooooooooooo.ooooooooooooo.ooooooooooooo.oooooo.oXo     ",
"     oXo.ooooooooooo.ooooooooooooo.ooooooooooooo.oooooo.oXo     ",
"     oXo................................................oXo     ",
"     oXooooooooooooooooooooooooooooooooooooooooooooooooooXo     ",
"     oXXXXXXXXXXXXXXXXXXXXXXXXXXXXXXXXXXXXXXXXXXXXXXXXXXXXo     ",
"     oooooooooooooooooooooooooooooooooooooooooooooooooooooo     ",
"                                                                ",
"                                                                ",
"                                                                ",
"                                                                ",
"                                                                "
};
