/* XPM */
static char *result[] = {
/* columns rows colors chars-per-pixel */
"128 128 8 1 ",
"  c black",
". c #C5CCB8",
"X c #6F6776",
"o c #2A2035",
"O c #B0B7A5",
"+ c #C6CDB9",
"@ c #C28D75",
"# c white",
/* pixels */
"                                                                                                                                ",
"                                                                                                                                ",
"                                                                                                                                ",
"                                                                                                                                ",
"                                                                                                                                ",
"                                                                                                                                ",
"                                                                                                                                ",
"                                                                                                                                ",
"                                                                                                                                ",
"                                                                                                                                ",
"          ............................................................................................................          ",
"          ............................................................................................................          ",
"          ..XXXXXXXXXXXXXXXXXXXXXXXXXXXXXXXXXXXXXXXXXXXXXXXXXXXXXXXXXXXXXXXXXXXXXXXXXXXXXXXXXXXXXXXXXXXXXXXXXXXXXXXX..          ",
"          ..XXXXXXXXXXXXXXXXXXXXXXXXXXXXXXXXXXXXXXXXXXXXXXXXXXXXXXXXXXXXXXXXXXXXXXXXXXXXXXXXXXXXXXXXXXXXXXXXXXXXXXXX..          ",
"          ..XX....................................................................................................XX..          ",
"          ..XX....................................................................................................XX..          ",
"          ..XX..XXXXXXXXXXXXXXXXXXXXXXXXXXXXXXXXXX..ooooooooooooooooooooooooooooXXXXXXXXXXXXXXXXXXXXXXXXXXXXXXXX..XX..          ",
"          ..XX..XXXXXXXXXXXXXXXXXXXXXXXXXXXXXXXXXX..ooooooooooooooooooooooooooooXXXXXXXXXXXXXXXXXXXXXXXXXXXXXXXX..XX..          ",
"          ..XX..XXXXXXXXXXXXXXXXXXXXXXXXXXXXXXXXXX..ooooooooooooooooooooooooooooXXXXXXXXXXXXXXXXXXXXXXXXXXXXXXXX..XX..          ",
"          ..XX..XXXXXXXXXXXXXXXXXXXXXXXXXXXXXXXXXX..ooooooooooooooooooooooooooooXXXXXXXXXXXXXXXXXXXXXXXXXXXXXXXX..XX..          ",
"          ..XX..XXXXXXXXXXXXXXXXXXXXXXXXXXXXXXXXXX..ooooooooooooooooooooooooooooXXXXXXXXXXXXXXXXXXXXXXXXXXXXXXXX..XX..          ",
"          ..XX..XXXXXXXXXXXXXXXXXXXXXXXXXXXXXXXXXX..ooooooooooooooooooooooooooooXXXXXXXXXXXXXXXXXXXXXXXXXXXXXXXX..XX..          ",
"          ..XX..XXXXXXXXXXXXXXXXXXXXXXXXXXXXXXXXXX..ooooooooooooooooooooooooooooXXXXXXXXXXXXXXXXXXXXXXXXXXXXXXXX..XX..          ",
"          ..XX..XXXXXXXXXXXXXXXXXXXXXXXXXXXXXXXXXX..ooooooooooooooooooooooooooooXXXXXXXXXXXXXXXXXXXXXXXXXXXXXXXX..XX..          ",
"          ..XX..XXXXXXXXXXXXXXXXXXXXXXXXXXXXXXXXXX..ooooooooooooooooooooooooooooXXXXXXXXXXXXXXXXXXXXXXXXXXXXXXXX..XX..          ",
"          ..XX..XXXXXXXXXXXXXXXXXXXXXXXXXXXXXXXXXX..ooooooooooooooooooooooooooooXXXXXXXXXXXXXXXXXXXXXXXXXXXXXXXX..XX..          ",
"          ..XX..XXXXXXXXXXXXXXXXXXXXXXXXXXXXXXXXXX..ooooooooooooooooooooooooooooXXXXXXXXXXXXXXXXXXXXXXXXXXXXXXXX..XX..          ",
"          ..XX..XXXXXXXXXXXXXXXXXXXXXXXXXXXXXXXXXX..ooooooooooooooooooooooooooooXXXXXXXXXXXXXXXXXXXXXXXXXXXXXXXX..XX..          ",
"          ..XX..XXXXXXXXXXXXXXXXXXXXXXXXXXXXXXXXXX..ooooooooooooooooooooooooooooXXXXXXXXXXXXXXXXXXXXXXXXXXXXXXXX..XX..          ",
"          ..XX..XXXXXXXXXXXXXXXXXXXXXXXXXXXXXXXXXX..ooooooooooooooooooooooooooooXXXXXXXXXXXXXXXXXXXXXXXXXXXXXXXX..XX..          ",
"          ..XX..XXXXXXXXXXXXXXXXXXXXXXXXXXXXXXXXXX..ooooooooooooooooooooooooooooXXXXXXXXXXXXXXXXXXXXXXXXXXXXXXXX..XX..          ",
"          ..XX..XXXXXXXXXXXXXXXXXXXXXXXXXXXXXXXXXX..ooooooooooooooooooooooooooooXXXXXXXXXXXXXXXXXXXXXXXXXXXXXXXX..XX..          ",
"          ..XX..XXXXXXXXXXXXXXXXXXXXXXXXXXXXXXXXXX..OOOOOOOOOOOOOOOOooooooooooooXXXXXXXXXXXXXXXXXXXXXXXXXXXXXXXX..XX..          ",
"          ..XX..XXXXXXXXXXXXXXXXXXXXXXXXXXXXXXXXXX..OOOOOOOOOOOOOOOOooooooooooooXXXXXXXXXXXXXXXXXXXXXXXXXXXXXXXX..XX..          ",
"          ..XX..XXXXXXXXXXXXXXXXXXXXXXXXXXXXXXXXXX..OOOOOOOOOOOOOOOOooooooooooooXXXXXXXXXXXXXXXXXXXXXXXXXXXXXXXX..XX..          ",
"          ..XX..XXXXXXXXXXXXXXXXXXXXXXXXXXXXXXXXXX..OOOOOOOOOOOOOOOOooooooooooooXXXXXXXXXXXXXXXXXXXXXXXXXXXXXXXX..XX..          ",
"          ..XX..XXXXXXXXXXXXXXXXXXXXXXXXXXXXXXXXXX..OOOOOOOOOOOOOOOOooooooooooooXXXXXXXXXXXXXXXXXXXXXXXXXXXXXXXX..XX..          ",
"          ..XX..XXXXXXXXXXXXXXXXXXXXXXXXXXXXXXXXXX..OOOOOOOOOOOOOOOOooooooooooooXXXXXXXXXXXXXXXXXXXXXXXXXXXXXXXX..XX..          ",
"          ..XX..XXXXXXXXXXXXXXXXXXXXXXXXXXXXXXXXXX..OOOOOOOOOOOOOOOOooooooooooooXXXXXXXXXXXXXXXXXXXXXXXXXXXXXXXX..XX..          ",
"          ..XX..XXXXXXXXXXXXXXXXXXXXXXXXXXXXXXXXXX..OOOOOOOOOOOOOOOOooooooooooooXXXXXXXXXXXXXXXXXXXXXXXXXXXXXXXX..XX..          ",
"          ..XX..XXXXXXXXXXXXXXXXXXXXXXXXXXXXXXXXXX..OOOOOOOOOOOOOOOOooooooooooooXXXXXXXXXXXXXXXXXXXXXXXXXXXXXXXX..XX..          ",
"          ..XX..XXXXXXXXXXXXXXXXXXXXXXXXXXXXXXXXXX..OOOOOOOOOOOOOOOOooooooooooooXXXXXXXXXXXXXXXXXXXXXXXXXXXXXXXX..XX..          ",
"          ..XX..XXXXXXXXXXXXXXXXXXXXXXXXXXXXXXXXXX..OOOOOOOOOOOOOOOOooooooooooooXXXXXXXXXXXXXXXXXXXXXXXXXXXXXXXX..XX..          ",
"          ..XX..XXXXXXXXXXXXXXXXXXXXXXXXXXXXXXXXXX..OOOOOOOOOOOOOOOOooooooooooooXXXXXXXXXXXXXXXXXXXXXXXXXXXXXXXX..XX..          ",
"          ..XX..XXXXXXXXXXXXXXXXXXXXXXXXXXXXXXXXXX..OOOOOOOOOOOOOOOOooooooooooooXXXXXXXXXXXXXXXXXXXXXXXXXXXXXXXX..XX..          ",
"          ..XX..XXXXXXXXXXXXXXXXXXXXXXXXXXXXXXXXXX..OOOOOOOOOOOOOOOOooooooooooooXXXXXXXXXXXXXXXXXXXXXXXXXXXXXXXX..XX..          ",
"          ..XX..XXXXXXXXXXXXXXXXXXXXXXXXXXXXXXXXXX..OOOOOOOOOOOOOOOOooooooooooooXXXXXXXXXXXXXXXXXXXXXXXXXXXXXXXX..XX..          ",
"          ..XX..XXXXXXXXXXXXXXXXXXXXXXXXXXXXXXXXXX..OOOOOOOOOOOOOOOOooooooooooooXXXXXXXXXXXXXXXXXXXXXXXXXXXXXXXX..XX..          ",
"          ..XX..XXXXXXXXXXXXXXXXXXXXXXXXXXXXXXXXXXXX++OOOOOOOOOOOOOOooOOOOOOOOOOOOXXXXXXXXXXXXXXXXXXXXXXXXXXXXXX..XX..          ",
"          ..XX..XXXXXXXXXXXXXXXXXXXXXXXXXXXXXXXXXXXX++OOOOOOOOOOOOOOooOOOOOOOOOOOOXXXXXXXXXXXXXXXXXXXXXXXXXXXXXX..XX..          ",
"          ..XX..XXXXXXXXXXXXXXXXXXXXXXXX..XXXXXXXXXX++OOOOOOOOOOOOOOooOOOOOOOOOOOOXXXXXXXXXX..XXXXXXXXXXXXXXXXXX..XX..          ",
"          ..XX..XXXXXXXXXXXXXXXXXXXXXXXX..XXXXXXXXXX++OOOOOOOOOOOOOOooOOOOOOOOOOOOXXXXXXXXXX..XXXXXXXXXXXXXXXXXX..XX..          ",
"          ..XX..XXXXXXXXXXXXXXXXXXXXXX..@@..XXXXXXXX++OOOOOOOOOOOOOOooOOOOOOOOOOOOXXXXXXXX..@@..XXXXXXXXXXXXXXXX..XX..          ",
"          ..XX..XXXXXXXXXXXXXXXXXXXXXX..@@..XXXXXXXX++OOOOOOOOOOOOOOooOOOOOOOOOOOOXXXXXXXX..@@..XXXXXXXXXXXXXXXX..XX..          ",
"          ..XX..XXXXXXXXXXXXXXXXXXXX..@@@@@@..XXXXXX++OOOOOOOOOOOOOOooOOOOOOOOOOOOXXXXXX..@@@@@@..XXXXXXXXXXXXXX..XX..          ",
"          ..XX..XXXXXXXXXXXXXXXXXXXX..@@@@@@..XXXXXX++OOOOOOOOOOOOOOooOOOOOOOOOOOOXXXXXX..@@@@@@..XXXXXXXXXXXXXX..XX..          ",
"          ..XX..XXXXXXXXXXXXXXXXXXXX..@@@@@@..XXXXXX++OOOOOOOOOOOOOOooOOOOOOOOOOOOXXXXXX..@@@@@@..XXXXXXXXXXXXXX..XX..          ",
"          ..XX..XXXXXXXXXXXXXXXXXXXX..@@@@@@..XXXXXX++OOOOOOOOOOOOOOooOOOOOOOOOOOOXXXXXX..@@@@@@..XXXXXXXXXXXXXX..XX..          ",
"          ..XX..XXXXXXXXXXXXXXXXXXXX..@@@@@@..XXXXXX++OOOOOOOOOOOOOOooOOOOOOOOOOOOXXXXXX..@@@@@@..XXXXXXXXXXXXXX..XX..          ",
"          ..XX..XXXXXXXXXXXXXXXXXXXX..@@@@@@..XXXXXX++OOOOOOOOOOOOOOooOOOOOOOOOOOOXXXXXX..@@@@@@..XXXXXXXXXXXXXX..XX..          ",
"          ..XX..XXXXXXXXXXXXXXXXXXXX..@@@@@@..XXXXXX++OOOOOOOOOOOOOOooOOOOOOOOOOOOXXXXXX..@@@@@@..XXXXXXXXXXXXXX..XX..          ",
"          ..XX..XXXXXXXXXXXXXXXXXXXX..@@@@@@..XXXXXX++OOOOOOOOOOOOOOooOOOOOOOOOOOOXXXXXX..@@@@@@..XXXXXXXXXXXXXX..XX..          ",
"          ..XX..XXXXXXXXXXXXXXXXXXXX..@@@@@@..XXXXXX++OOOOOOOOOOOOOOooOOOOOOOOOOOOXXXXXX..@@@@@@..XXXXXXXXXXXXXX..XX..          ",
"          ..XX..XXXXXXXXXXXXXXXXXXXX..@@@@@@..XXXXXX++OOOOOOOOOOOOOOooOOOOOOOOOOOOXXXXXX..@@@@@@..XXXXXXXXXXXXXX..XX..          ",
"          ..XX..XXXXXXXXXXXXXXXXXXXX..@@@@@@..XXXXXX++OOOOOOOOOOOOOOooOOOOOOOOOOOOXXXXXX..@@@@@@..XXXXXXXXXXXXXX..XX..          ",
"          ..XX..XXXXXXXXXXXXXXXXXXXX..@@@@@@..XXXXXX++OOOOOOOOOOOOOOooOOOOOOOOOOOOXXXXXX..@@@@@@..XXXXXXXXXXXXXX..XX..          ",
"          ..XX..XXXXXXXXXXXXXXXXXXXX..@@@@@@..XXXXXX++OOOOOOOOOOOOOOooOOOOOOOOOOOOXXXXXX..@@@@@@..XXXXXXXXXXXXXX..XX..          ",
"          ..XX..XXXXXXXXXXXXXXXXXXXX..@@@@@@..XXXXXX++OOOOOOOOOOOOOOooOOOOOOOOOOOOXXXXXX..@@@@@@..XXXXXXXXXXXXXX..XX..          ",
"          ..XX..XXXXXXXXXXXXXXXXXXXXXX..@@..XXXXXXXX++OOOOOOOOOOOOOOooOOOOOOOOOOOOXXXXXXXX..@@..XXXXXXXXXXXXXXXX..XX..          ",
"          ..XX..XXXXXXXXXXXXXXXXXXXXXX..@@..XXXXXXXX++OOOOOOOOOOOOOOooOOOOOOOOOOOOXXXXXXXX..@@..XXXXXXXXXXXXXXXX..XX..          ",
"          ..XX..XXXXXXXXXXXXXXXXXXXXXXXX..XXXXXXXXXX++OOOOOOOOOOOOOOooOOOOOOOOOOOOXXXXXXXXXX..XXXXXXXXXXXXXXXXXX..XX..          ",
"          ..XX..XXXXXXXXXXXXXXXXXXXXXXXX..XXXXXXXXXX++OOOOOOOOOOOOOOooOOOOOOOOOOOOXXXXXXXXXX..XXXXXXXXXXXXXXXXXX..XX..          ",
"          ..XX..XXXXXXXXXXXXXXXXXXXXXXXXXXXXXXXXXXXX++OOOOOOOOOOOOOOooOOOOOOOOOOOOXXXXXXXXXXXXXXXXXXXXXXXXXXXXXX..XX..          ",
"          ..XX..XXXXXXXXXXXXXXXXXXXXXXXXXXXXXXXXXXXX++OOOOOOOOOOOOOOooOOOOOOOOOOOOXXXXXXXXXXXXXXXXXXXXXXXXXXXXXX..XX..          ",
"          ..XX..XXXXXXXXXXXXXXXXXXXXXXXXXXXXXXXXXXXX++OOOOOOOOOOOOOOooOOOOOOOOOOOOXXXXXXXXXXXXXXXXXXXXXXXXXXXXXX..XX..          ",
"          ..XX..XXXXXXXXXXXXXXXXXXXXXXXXXXXXXXXXXXXX++OOOOOOOOOOOOOOooOOOOOOOOOOOOXXXXXXXXXXXXXXXXXXXXXXXXXXXXXX..XX..          ",
"          ..XX..XXXXXXXXXXXXXXXXXXXXXXXXXXXXXXXXXX..OOOOOOOOOOOOOOOOooOOOOOOOOOOXXXXXXXXXXXXXXXXXXXXXXXXXXXXXXXX..XX..          ",
"          ..XX..XXXXXXXXXXXXXXXXXXXXXXXXXXXXXXXXXX..OOOOOOOOOOOOOOOOooOOOOOOOOOOXXXXXXXXXXXXXXXXXXXXXXXXXXXXXXXX..XX..          ",
"          ..XX..XXXXXXXXXXXXXXXXXXXXXXXXXXXXXXXXXX..OOOOOOOOOOOOOOOOooOOOOOOOOOOXXXXXXXXXXXXXXXXXXXXXXXXXXXXXXXX..XX..          ",
"          ..XX..XXXXXXXXXXXXXXXXXXXXXXXXXXXXXXXXXX..OOOOOOOOOOOOOOOOooOOOOOOOOOOXXXXXXXXXXXXXXXXXXXXXXXXXXXXXXXX..XX..          ",
"          ..XX..XXXXXXXXXXXXXXXXXXXXXXXXXXXXXXXXXX..OOOOOOOOOOOOOOOOooOOOOOOOOOOXXXXXXXXXXXXXXXXXXXXXXXXXXXXXXXX..XX..          ",
"          ..XX..XXXXXXXXXXXXXXXXXXXXXXXXXXXXXXXXXX..OOOOOOOOOOOOOOOOooOOOOOOOOOOXXXXXXXXXXXXXXXXXXXXXXXXXXXXXXXX..XX..          ",
"          ..XX..XXXXXXXXXXXXXXXXXXXXXXXXXXXXXXXXXX..OOOOOOOOOOOOOOOOooOOOOOOOOOOXXXXXXXXXXXXXXXXXXXXXXXXXXXXXXXX..XX..          ",
"          ..XX..XXXXXXXXXXXXXXXXXXXXXXXXXXXXXXXXXX..OOOOOOOOOOOOOOOOooOOOOOOOOOOXXXXXXXXXXXXXXXXXXXXXXXXXXXXXXXX..XX..          ",
"          ..XX..XXXXXXXXXXXXXXXXXXXXXXXXXXXXXXXXXX..OOOOOOOOOOOOOOOOooOOOOOOOOOOXXXXXXXXXXXXXXXXXXXXXXXXXXXXXXXX..XX..          ",
"          ..XX..XXXXXXXXXXXXXXXXXXXXXXXXXXXXXXXXXX..OOOOOOOOOOOOOOOOooOOOOOOOOOOXXXXXXXXXXXXXXXXXXXXXXXXXXXXXXXX..XX..          ",
"          ..XX..XXXXXXXXXXXXXXXXXXXXXXXXXXXXXXXXXX..OOOOOOOOOOOOOOOOooOOOOOOOOOOXXXXXXXXXXXXXXXXXXXXXXXXXXXXXXXX..XX..          ",
"          ..XX..XXXXXXXXXXXXXXXXXXXXXXXXXXXXXXXXXX..OOOOOOOOOOOOOOOOooOOOOOOOOOOXXXXXXXXXXXXXXXXXXXXXXXXXXXXXXXX..XX..          ",
"          ..XX..XXXXXXXXXXXXXXXXXXXXXXXXXXXXXXXXXX..OOOOOOOOOOOOOOOOooOOOOOOOOOOXXXXXXXXXXXXXXXXXXXXXXXXXXXXXXXX..XX..          ",
"          ..XX..XXXXXXXXXXXXXXXXXXXXXXXXXXXXXXXXXX..OOOOOOOOOOOOOOOOooOOOOOOOOOOXXXXXXXXXXXXXXXXXXXXXXXXXXXXXXXX..XX..          ",
"          ..XX..XXXXXXXXXXXXXXXXXXXXXXXXXXXXXXXXXX..OOOOOOOOOOOOOOOOooOOOOOOOOOOXXXXXXXXXXXXXXXXXXXXXXXXXXXXXXXX..XX..          ",
"          ..XX..XXXXXXXXXXXXXXXXXXXXXXXXXXXXXXXXXX..OOOOOOOOOOOOOOOOooOOOOOOOOOOXXXXXXXXXXXXXXXXXXXXXXXXXXXXXXXX..XX..          ",
"          ..XX..XXXXXXXXXXXXXXXXXXXXXXXXXXXXXXXXXX..OOOOOOOOOOOOOOOOooOOOOOOOOOOXXXXXXXXXXXXXXXXXXXXXXXXXXXXXXXX..XX..          ",
"          ..XX..XXXXXXXXXXXXXXXXXXXXXXXXXXXXXXXXXX..OOOOOOOOOOOOOOOOooOOOOOOOOOOXXXXXXXXXXXXXXXXXXXXXXXXXXXXXXXX..XX..          ",
"          ..XX..XXXXXXXXXXXXXXXXXXXXXXXXXXXXXXXXXX..OOOOOOOOOOOOOOOOooOOOOOOOOOOXXXXXXXXXXXXXXXXXXXXXXXXXXXXXXXX..XX..          ",
"          ..XX..XXXXXXXXXXXXXXXXXXXXXXXXXXXXXXXXXX..OOOOOOOOOOOOOOOOooOOOOOOOOOOXXXXXXXXXXXXXXXXXXXXXXXXXXXXXXXX..XX..          ",
"          ..XX..XXXXXXXXXXXXXXXXXXXXXXXXXXXXXXXXXX..OOOOOOOOOOOOOOOOooOOOOOOOOOOXXXXXXXXXXXXXXXXXXXXXXXXXXXXXXXX..XX..          ",
"          ..XX..XXXXXXXXXXXXXXXXXXXXXXXXXXXXXXXXXX..OOOOOOOOOOOOOOOOooOOOOOOOOOOXXXXXXXXXXXXXXXXXXXXXXXXXXXXXXXX..XX..          ",
"          ..XX..XXXXXXXXXXXXXXXXXXXXXXXXXXXXXXXXXX..OOOOOOOOOOOOOOOOooOOOOOOOOOOXXXXXXXXXXXXXXXXXXXXXXXXXXXXXXXX..XX..          ",
"          ..XX..XXXXXXXXXXXXXXXXXXXXXXXXXXXXXXXXXX..OOOOOOOOOOOOOOOOooOOOOOOOOOOXXXXXXXXXXXXXXXXXXXXXXXXXXXXXXXX..XX..          ",
"          ..XX..XXXXXXXXXXXXXXXXXXXXXXXXXXXXXXXXXX..OOOOOOOOOOOOOOOOooOOOOOOOOOOXXXXXXXXXXXXXXXXXXXXXXXXXXXXXXXX..XX..          ",
"          ..XX..XXXXXXXXXXXXXXXXXXXXXXXXXXXXXXXXXX..OOOOOOOOOOOOOOOOooOOOOOOOOOOXXXXXXXXXXXXXXXXXXXXXXXXXXXXXXXX..XX..          ",
"          ..XX..XXXXXXXXXXXXXXXXXXXXXXXXXXXXXXXXXX..OOOOOOOOOOOOOOOOooOOOOOOOOOOXXXXXXXXXXXXXXXXXXXXXXXXXXXXXXXX..XX..          ",
"          ..XX..XXXXXXXXXXXXXXXXXXXXXXXXXXXXXXXXXX..OOOOOOOOOOOOOOOOooOOOOOOOOOOXXXXXXXXXXXXXXXXXXXXXXXXXXXXXXXX..XX..          ",
"          ..XX..XXXXXXXXXXXXXXXXXXXXXXXXXXXXXXXXXX..OOOOOOOOOOOOOOOOooOOOOOOOOOOXXXXXXXXXXXXXXXXXXXXXXXXXXXXXXXX..XX..          ",
"          ..XX..XXXXXXXXXXXXXXXXXXXXXXXXXXXXXXXXXX..OOOOOOOOOOOOOOOOooOOOOOOOOOOXXXXXXXXXXXXXXXXXXXXXXXXXXXXXXXX..XX..          ",
"          ..XX..XXXXXXXXXXXXXXXXXXXXXXXXXXXXXXXXXX..OOOOOOOOOOOOOOOOooOOOOOOOOOOXXXXXXXXXXXXXXXXXXXXXXXXXXXXXXXX..XX..          ",
"          ..XX..XXXXXXXXXXXXXXXXXXXXXXXXXXXXXXXXXX..OOOOOOOOOOOOOOOOooOOOOOOOOOOXXXXXXXXXXXXXXXXXXXXXXXXXXXXXXXX..XX..          ",
"          ..XX..XXXXXXXXXXXXXXXXXXXXXXXXXXXXXXXXXX..OOOOOOOOOOOOOOOOooOOOOOOOOOOXXXXXXXXXXXXXXXXXXXXXXXXXXXXXXXX..XX..          ",
"          ..XX..XXXXXXXXXXXXXXXXXXXXXXXXXXXXXXXXXX..OOOOOOOOOOOOOOOOooOOOOOOOOOOXXXXXXXXXXXXXXXXXXXXXXXXXXXXXXXX..XX..          ",
"          ..XX..XXXXXXXXXXXXXXXXXXXXXXXXXXXXXXXXXX..ooooooooooooooooooooooooooooXXXXXXXXXXXXXXXXXXXXXXXXXXXXXXXX..XX..          ",
"          ..XX..XXXXXXXXXXXXXXXXXXXXXXXXXXXXXXXXXX..ooooooooooooooooooooooooooooXXXXXXXXXXXXXXXXXXXXXXXXXXXXXXXX..XX..          ",
"          ..XX....................................................................................................XX..          ",
"          ..XX....................................................................................................XX..          ",
"          ..XXXXXXXXXXXXXXXXXXXXXXXXXXXXXXXXXXXXXXXXXXXXXXXXXXXXXXXXXXXXXXXXXXXXXXXXXXXXXXXXXXXXXXXXXXXXXXXXXXXXXXXX..          ",
"          ..XXXXXXXXXXXXXXXXXXXXXXXXXXXXXXXXXXXXXXXXXXXXXXXXXXXXXXXXXXXXXXXXXXXXXXXXXXXXXXXXXXXXXXXXXXXXXXXXXXXXXXXX..          ",
"          ............................................................................................................          ",
"          ............................................................................................................          ",
"                                                                                                                                ",
"                                                                                                                                ",
"                                                                                                                                ",
"                                                                                                                                ",
"                                                                                                                                ",
"                                                                                                                                ",
"                                                                                                                                ",
"                                                                                                                                ",
"                                                                                                                                ",
"                                                                                                                                "
};
