/* XPM */
static char *result[] = {
/* columns rows colors chars-per-pixel */
"64 64 8 1 ",
"  c black",
". c #21172B",
"X c #2B1F38",
"o c #6F6777",
"O c #C38E76",
"+ c #9FA494",
"@ c #C6CDB9",
"# c #C7CEBA",
/* pixels */
"                                                                ",
"                                                                ",
"                                                                ",
"                                                                ",
"                                                                ",
"     @@@@@@@@@@@@@@@@@@@@@@@@@@@@@@@@@@@@@@@@@@@@@@@@@@@@@@     ",
"     @oooooooooooooooooooooooooooooooooooooooooooooooooooo@     ",
"     @o@@@@@@@@@@@@@@@@@@@@@@@@@@@@@@@@@@@@@@@@@@@@@@@@@@o@     ",
"     @o@ooooooooooooooooooooo@......oooooooooooooooooooo@o@     ",
"     @o@ooooooooooooooooooooo@......oooooooooooooooooooo@o@     ",
"     @o@ooooooooooooooooooooo@......oooooooooooooooooooo@o@     ",
"     @o@ooooooooooooooooooooo@......oooooooooooooooooooo@o@     ",
"     @o@ooooooooooooooooooooo@......oooooooooooooooooooo@o@     ",
"     @o@ooooooooooooooooooooo@......oooooooooooooooooooo@o@     ",
"     @o@ooooooooooooooooooooo@......oooooooooooooooooooo@o@     ",
"     @o@ooooooooooooooooooooo@......oooooooooooooooooooo@o@     ",
"     @o@ooooooooooooooooooooo@++++..oooooooooooooooooooo@o@     ",
"     @o@ooooooooooooooooooooo@++++..oooooooooooooooooooo@o@     ",
"     @o@ooooooooooooooooooooo@++++..oooooooooooooooooooo@o@     ",
"     @o@ooooooooooooooooooooo@++++..oooooooooooooooooooo@o@     ",
"     @o@ooooooooooooooooooooo@++++..oooooooooooooooooooo@o@     ",
"     @o@ooooooooooooooooooooo@++++..oooooooooooooooooooo@o@     ",
"     @o@ooooooooooooooooooooo@++++..oooooooooooooooooooo@o@     ",
"     @o@ooooooooooooooooooooo@++++..oooooooooooooooooooo@o@     ",
"     @o@oooooooooooooooooooooo#+++.++ooooooooooooooooooo@o@     ",
"     @o@oooooooooooooooo@ooooo#+++.++ooooo@ooooooooooooo@o@     ",
"     @o@ooooooooooooooo@O@oooo#+++.++oooo@O@oooooooooooo@o@     ",
"     @o@oooooooooooooo@OOO@ooo#+++.++ooo@OOO@ooooooooooo@o@     ",
"     @o@oooooooooooooo@OOO@ooo#+++.++ooo@OOO@ooooooooooo@o@     ",
"     @o@oooooooooooooo@OOO@ooo#+++.++ooo@OOO@ooooooooooo@o@     ",
"     @o@oooooooooooooo@OOO@ooo#+++.++ooo@OOO@ooooooooooo@o@     ",
"     @o@oooooooooooooo@OOO@ooo#+++.++ooo@OOO@ooooooooooo@o@     ",
"     @o@oooooooooooooo@OOO@ooo#+++.++ooo@OOO@ooooooooooo@o@     ",
"     @o@oooooooooooooo@OOO@ooo#+++.++ooo@OOO@ooooooooooo@o@     ",
"     @o@ooooooooooooooo@O@oooo#+++.++oooo@O@oooooooooooo@o@     ",
"     @o@oooooooooooooooo@ooooo#+++.++ooooo@ooooooooooooo@o@     ",
"     @o@oooooooooooooooooooooo#+++.++ooooooooooooooooooo@o@     ",
"     @o@oooooooooooooooooooooo#+++.++ooooooooooooooooooo@o@     ",
"     @o@ooooooooooooooooooooo@++++.+oooooooooooooooooooo@o@     ",
"     @o@ooooooooooooooooooooo@++++.+oooooooooooooooooooo@o@     ",
"     @o@ooooooooooooooooooooo@++++.+oooooooooooooooooooo@o@     ",
"     @o@ooooooooooooooooooooo@++++.+oooooooooooooooooooo@o@     ",
"     @o@ooooooooooooooooooooo@++++.+oooooooooooooooooooo@o@     ",
"     @o@ooooooooooooooooooooo@++++.+oooooooooooooooooooo@o@     ",
"     @o@ooooooooooooooooooooo@++++.+oooooooooooooooooooo@o@     ",
"     @o@ooooooooooooooooooooo@++++.+oooooooooooooooooooo@o@     ",
"     @o@ooooooooooooooooooooo@++++.+oooooooooooooooooooo@o@     ",
"     @o@ooooooooooooooooooooo@++++.+oooooooooooooooooooo@o@     ",
"     @o@ooooooooooooooooooooo@++++.+oooooooooooooooooooo@o@     ",
"     @o@ooooooooooooooooooooo@++++.+oooooooooooooooooooo@o@     ",
"     @o@ooooooooooooooooooooo@++++.+oooooooooooooooooooo@o@     ",
"     @o@ooooooooooooooooooooo@++++.+oooooooooooooooooooo@o@     ",
"     @o@ooooooooooooooooooooo@++++.+oooooooooooooooooooo@o@     ",
"     @o@ooooooooooooooooooooo@++++.+oooooooooooooooooooo@o@     ",
"     @o@ooooooooooooooooooooo@++++.+oooooooooooooooooooo@o@     ",
"     @o@ooooooooooooooooooooo@XXXXXXoooooooooooooooooooo@o@     ",
"     @o@@@@@@@@@@@@@@@@@@@@@@@@@@@@@@@@@@@@@@@@@@@@@@@@@@o@     ",
"     @oooooooooooooooooooooooooooooooooooooooooooooooooooo@     ",
"     @@@@@@@@@@@@@@@@@@@@@@@@@@@@@@@@@@@@@@@@@@@@@@@@@@@@@@     ",
"                                                                ",
"                                                                ",
"                                                                ",
"                                                                ",
"                                                                "
};
