/* XPM */
static char *result[] = {
/* columns rows colors chars-per-pixel */
"128 128 4 1 ",
"  c none",
". c #2E243B",
"X c #2F243B",
"o c #C5CCB8",
/* pixels */
"                                                                                                                                ",
"                                                                                                                                ",
"                                                                                                                                ",
"                                                                                                                                ",
"                                                                                                                                ",
"                                                                                                                                ",
"                                                                                                                                ",
"                                                                                                                                ",
"                                                                                                                                ",
"                                                                                                                                ",
"          oooooooooooooooooooooooooooooooooooooooooooooooooooooooooooooooooooooooooooooooooooooooooooooooooooooooooooo          ",
"          oooooooooooooooooooooooooooooooooooooooooooooooooooooooooooooooooooooooooooooooooooooooooooooooooooooooooooo          ",
"          oo..............................XXXXXXXXXXXXXXXXXXXXXXXXXXXXXXXXXXXXXXXXXXXXXXXXXXXXXXXXXXXXXXXXXXXXXXXXXXoo          ",
"          oo..............................XXXXXXXXXXXXXXXXXXXXXXXXXXXXXXXXXXXXXXXXXXXXXXXXXXXXXXXXXXXXXXXXXXXXXXXXXXoo          ",
"          oo..ooooooooooooooooooooooooooXXXXXXXXXXXXXXXXXXXXXXXXXXXXXXXXXXXXXXXXXXXXXXXXXXXXXXXXXXXXXXXXXXXXXXXXXXXXoo          ",
"          oo..ooooooooooooooooooooooooooXXXXXXXXXXXXXXXXXXXXXXXXXXXXXXXXXXXXXXXXXXXXXXXXXXXXXXXXXXXXXXXXXXXXXXXXXXXXoo          ",
"          oo..oooooooooooooooooooooooooo..XXXXXXXXXXXXXXXXXXXXXXXXXXXXXXXXXXXXXXXXXXXXXXXXXXXXXXXXXXXXXXXXXXXXXXXXXXoo          ",
"          oo..oooooooooooooooooooooooooo..XXXXXXXXXXXXXXXXXXXXXXXXXXXXXXXXXXXXXXXXXXXXXXXXXXXXXXXXXXXXXXXXXXXXXXXXXXoo          ",
"          oo..oooooooooooooooooooooooooo..XXXXXXXXXXXXXXXXXXXXXXXXXXXXXXXXXXXXXXXXXXXXXXXXXXXXXXXXXXXXXXXXXXXXXXXXXXoo          ",
"          oo..oooooooooooooooooooooooooo..XXXXXXXXXXXXXXXXXXXXXXXXXXXXXXXXXXXXXXXXXXXXXXXXXXXXXXXXXXXXXXXXXXXXXXXXXXoo          ",
"          oo..oooooooooooooooooooooooooo..XXXXXXXXXXXXXXXXXXXXXXXXXXXXXXXXXXXXXXXXXXXXXXXXXXXXXXXXXXXXXXXXXXXXXXXXXXoo          ",
"          oo..oooooooooooooooooooooooooo..XXXXXXXXXXXXXXXXXXXXXXXXXXXXXXXXXXXXXXXXXXXXXXXXXXXXXXXXXXXXXXXXXXXXXXXXXXoo          ",
"          oo..oooooooooooooooooooooooooo..XXXXXXXXXXXXXXXXXXXXXXXXXXXXXXXXXXXXXXXXXXXXXXXXXXXXXXXXXXXXXXXXXXXXXXXXXXoo          ",
"          oo..oooooooooooooooooooooooooo..XXXXXXXXXXXXXXXXXXXXXXXXXXXXXXXXXXXXXXXXXXXXXXXXXXXXXXXXXXXXXXXXXXXXXXXXXXoo          ",
"          oo..oooooooooooooooooooooooooo..XXXXXXXXXXXXXXXXXXXXXXXXXXXXXXXXXXXXXXXXXXXXXXXXXXXXXXXXXXXXXXXXXXXXXXXXXXoo          ",
"          oo..oooooooooooooooooooooooooo..XXXXXXXXXXXXXXXXXXXXXXXXXXXXXXXXXXXXXXXXXXXXXXXXXXXXXXXXXXXXXXXXXXXXXXXXXXoo          ",
"          oo..oooooooooooooooooooooooooo..XXXXXXXXXXXXXXXXXXXXXXXXXXXXXXXXXXXXXXXXXXXXXXXXXXXXXXXXXXXXXXXXXXXXXXXXXXoo          ",
"          oo..oooooooooooooooooooooooooo..XXXXXXXXXXXXXXXXXXXXXXXXXXXXXXXXXXXXXXXXXXXXXXXXXXXXXXXXXXXXXXXXXXXXXXXXXXoo          ",
"          oo..oooooooooooooooooooooooooo..XXXXXXXXXXXXXXXXXXXXXXXXXXXXXXXXXXXXXXXXXXXXXXXXXXXXXXXXXXXXXXXXXXXXXXXXXXoo          ",
"          oo..oooooooooooooooooooooooooo..XXXXXXXXXXXXXXXXXXXXXXXXXXXXXXXXXXXXXXXXXXXXXXXXXXXXXXXXXXXXXXXXXXXXXXXXXXoo          ",
"          oo..oooooooooooooooooooooooooo..............................XXXXXXXXXXXXXXXXXXXXXXXXXXXXXXXXXXXXXXXXXXXXXXoo          ",
"          oo..oooooooooooooooooooooooooo..............................XXXXXXXXXXXXXXXXXXXXXXXXXXXXXXXXXXXXXXXXXXXXXXoo          ",
"          oo..oooooooooooooooooooooooooo..oooooooooooooooooooooooooo..XXXXXXXXXXXXXXXXXXXXXXXXXXXXXXXXXXXXXXXXXXXXXXoo          ",
"          oo..oooooooooooooooooooooooooo..oooooooooooooooooooooooooo..XXXXXXXXXXXXXXXXXXXXXXXXXXXXXXXXXXXXXXXXXXXXXXoo          ",
"          oo..oooooooooooooooooooooooooo..oooooooooooooooooooooooooo..XXXXXXXXXXXXXXXXXXXXXXXXXXXXXXXXXXXXXXXXXXXXXXoo          ",
"          oo..oooooooooooooooooooooooooo..oooooooooooooooooooooooooo..XXXXXXXXXXXXXXXXXXXXXXXXXXXXXXXXXXXXXXXXXXXXXXoo          ",
"          oo..oooooooooooooooooooooooooo..oooooooooooooooooooooooooo..XXXXXXXXXXXXXXXXXXXXXXXXXXXXXXXXXXXXXXXXXXXXXXoo          ",
"          oo..oooooooooooooooooooooooooo..oooooooooooooooooooooooooo..XXXXXXXXXXXXXXXXXXXXXXXXXXXXXXXXXXXXXXXXXXXXXXoo          ",
"          oo..oooooooooooooooooooooooooo..oooooooooooooooooooooooooo..XXXXXXXXXXXXXXXXXXXXXXXXXXXXXXXXXXXXXXXXXXXXXXoo          ",
"          oo..oooooooooooooooooooooooooo..oooooooooooooooooooooooooo..XXXXXXXXXXXXXXXXXXXXXXXXXXXXXXXXXXXXXXXXXXXXXXoo          ",
"          oo..oooooooooooooooooooooooooo..oooooooooooooooooooooooooo..XXXXXXXXXXXXXXXXXXXXXXXXXXXXXXXXXXXXXXXXXXXXXXoo          ",
"          oo..oooooooooooooooooooooooooo..oooooooooooooooooooooooooo..XXXXXXXXXXXXXXXXXXXXXXXXXXXXXXXXXXXXXXXXXXXXXXoo          ",
"          oo..oooooooooooooooooooooooooo..oooooooooooooooooooooooooo..XXXXXXXXXXXXXXXXXXXXXXXXXXXXXXXXXXXXXXXXXXXXXXoo          ",
"          oo..oooooooooooooooooooooooooo..oooooooooooooooooooooooooo..XXXXXXXXXXXXXXXXXXXXXXXXXXXXXXXXXXXXXXXXXXXXXXoo          ",
"          oo..oooooooooooooooooooooooooo..oooooooooooooooooooooooooo..XXXXXXXXXXXXXXXXXXXXXXXXXXXXXXXXXXXXXXXXXXXXXXoo          ",
"          oo..oooooooooooooooooooooooooo..oooooooooooooooooooooooooo..XXXXXXXXXXXXXXXXXXXXXXXXXXXXXXXXXXXXXXXXXXXXXXoo          ",
"          oo..oooooooooooooooooooooooooo..oooooooooooooooooooooooooo..............................XXXXXXXXXXXXXXXXXXoo          ",
"          oo..oooooooooooooooooooooooooo..oooooooooooooooooooooooooo..............................XXXXXXXXXXXXXXXXXXoo          ",
"          oo..oooooooooooooooooooooooooo..oooooooooooooooooooooooooo..oooooooooooooooooooooooooo..XXXXXXXXXXXXXXXXXXoo          ",
"          oo..oooooooooooooooooooooooooo..oooooooooooooooooooooooooo..oooooooooooooooooooooooooo..XXXXXXXXXXXXXXXXXXoo          ",
"          oo..oooooooooooooooooooooooooo..oooooooooooooooooooooooooo..oooooooooooooooooooooooooo..XXXXXXXXXXXXXXXXXXoo          ",
"          oo..oooooooooooooooooooooooooo..oooooooooooooooooooooooooo..oooooooooooooooooooooooooo..XXXXXXXXXXXXXXXXXXoo          ",
"          oo..oooooooooooooooooooooooooo..oooooooooooooooooooooooooo..oooooooooooooooooooooooooo..XXXXXXXXXXXXXXXXXXoo          ",
"          oo..oooooooooooooooooooooooooo..oooooooooooooooooooooooooo..oooooooooooooooooooooooooo..XXXXXXXXXXXXXXXXXXoo          ",
"          oo..oooooooooooooooooooooooooo..oooooooooooooooooooooooooo..oooooooooooooooooooooooooo..XXXXXXXXXXXXXXXXXXoo          ",
"          oo..oooooooooooooooooooooooooo..oooooooooooooooooooooooooo..oooooooooooooooooooooooooo..XXXXXXXXXXXXXXXXXXoo          ",
"          oo..oooooooooooooooooooooooooo..oooooooooooooooooooooooooo..oooooooooooooooooooooooooo..XXXXXXXXXXXXXXXXXXoo          ",
"          oo..oooooooooooooooooooooooooo..oooooooooooooooooooooooooo..oooooooooooooooooooooooooo..XXXXXXXXXXXXXXXXXXoo          ",
"          oo..oooooooooooooooooooooooooo..oooooooooooooooooooooooooo..oooooooooooooooooooooooooo..XXXXXXXXXXXXXXXXXXoo          ",
"          oo..oooooooooooooooooooooooooo..oooooooooooooooooooooooooo..oooooooooooooooooooooooooo..XXXXXXXXXXXXXXXXXXoo          ",
"          oo..oooooooooooooooooooooooooo..oooooooooooooooooooooooooo..oooooooooooooooooooooooooo..XXXXXXXXXXXXXXXXXXoo          ",
"          oo..oooooooooooooooooooooooooo..oooooooooooooooooooooooooo..oooooooooooooooooooooooooo..XXXXXXXXXXXXXXXXXXoo          ",
"          oo..oooooooooooooooooooooooooo..oooooooooooooooooooooooooo..oooooooooooooooooooooooooo..XXXXXXXXXXXXXXXXXXoo          ",
"          oo..oooooooooooooooooooooooooo..oooooooooooooooooooooooooo..oooooooooooooooooooooooooo..XXXXXXXXXXXXXXXXXXoo          ",
"          oo..oooooooooooooooooooooooooo..oooooooooooooooooooooooooo..ooooooooooooooooooooooooooXXXXXXXXXXXXXXXXXXXXoo          ",
"          oo..oooooooooooooooooooooooooo..oooooooooooooooooooooooooo..ooooooooooooooooooooooooooXXXXXXXXXXXXXXXXXXXXoo          ",
"          oo..oooooooooooooooooooooooooo..oooooooooooooooooooooooooo..oooooooooooooooooooooooooo..oooooooooooooooooooo          ",
"          oo..oooooooooooooooooooooooooo..oooooooooooooooooooooooooo..oooooooooooooooooooooooooo..oooooooooooooooooooo          ",
"          oo..oooooooooooooooooooooooooo..oooooooooooooooooooooooooo..oooooooooooooooooooooooooo..oooooooooooooooooooo          ",
"          oo..oooooooooooooooooooooooooo..oooooooooooooooooooooooooo..oooooooooooooooooooooooooo..oooooooooooooooooooo          ",
"          oo..oooooooooooooooooooooooooo..oooooooooooooooooooooooooo..oooooooooooooooooooooooooo..oooooooooooooooooooo          ",
"          oo..oooooooooooooooooooooooooo..oooooooooooooooooooooooooo..oooooooooooooooooooooooooo..oooooooooooooooooooo          ",
"          oo..oooooooooooooooooooooooooo..oooooooooooooooooooooooooo..oooooooooooooooooooooooooo..oooooooooooooooooooo          ",
"          oo..oooooooooooooooooooooooooo..oooooooooooooooooooooooooo..oooooooooooooooooooooooooo..oooooooooooooooooooo          ",
"          oo..oooooooooooooooooooooooooo..oooooooooooooooooooooooooo..oooooooooooooooooooooooooo..oooooooooooooooooooo          ",
"          oo..oooooooooooooooooooooooooo..oooooooooooooooooooooooooo..oooooooooooooooooooooooooo..oooooooooooooooooooo          ",
"          oo..oooooooooooooooooooooooooo..oooooooooooooooooooooooooo..oooooooooooooooooooooooooo..oooooooooooooooooooo          ",
"          oo..oooooooooooooooooooooooooo..oooooooooooooooooooooooooo..oooooooooooooooooooooooooo..oooooooooooooooooooo          ",
"          oo..oooooooooooooooooooooooooo..oooooooooooooooooooooooooo..oooooooooooooooooooooooooo..oooooooooooooooooooo          ",
"          oo..oooooooooooooooooooooooooo..oooooooooooooooooooooooooo..oooooooooooooooooooooooooo..oooooooooooooooooooo          ",
"          oo..oooooooooooooooooooooooooo..oooooooooooooooooooooooooo..oooooooooooooooooooooooooo..oooooooooooooooooooo          ",
"          oo..oooooooooooooooooooooooooo..oooooooooooooooooooooooooo..oooooooooooooooooooooooooo..oooooooooooooooooooo          ",
"          oo..oooooooooooooooooooooooooo..oooooooooooooooooooooooooo..oooooooooooooooooooooooooo..oooooooooooooooooooo          ",
"          oo..oooooooooooooooooooooooooo..oooooooooooooooooooooooooo..oooooooooooooooooooooooooo..oooooooooooooooooooo          ",
"          oo..oooooooooooooooooooooooooo..oooooooooooooooooooooooooo..oooooooooooooooooooooooooo..oooooooooooooooooooo          ",
"          oo..oooooooooooooooooooooooooo..oooooooooooooooooooooooooo..oooooooooooooooooooooooooo..oooooooooooooooooooo          ",
"          oo..oooooooooooooooooooooooooo..oooooooooooooooooooooooooo..oooooooooooooooooooooooooo..oooooooooooooooooooo          ",
"          oo..oooooooooooooooooooooooooo..oooooooooooooooooooooooooo..oooooooooooooooooooooooooo..oooooooooooooooooooo          ",
"          oo..oooooooooooooooooooooooooo..oooooooooooooooooooooooooo..oooooooooooooooooooooooooo..oooooooooooooooooooo          ",
"          oo..oooooooooooooooooooooooooo..oooooooooooooooooooooooooo..oooooooooooooooooooooooooo..oooooooooooooooooooo          ",
"          oo..oooooooooooooooooooooooooo..oooooooooooooooooooooooooo..oooooooooooooooooooooooooo..oooooooooooooooooooo          ",
"          oo..oooooooooooooooooooooooooo..oooooooooooooooooooooooooo..oooooooooooooooooooooooooo..oooooooooooooooooooo          ",
"          oo..oooooooooooooooooooooooooo..oooooooooooooooooooooooooo..oooooooooooooooooooooooooo..oooooooooooooooooooo          ",
"          oo..oooooooooooooooooooooooooo..oooooooooooooooooooooooooo..oooooooooooooooooooooooooo..oooooooooooooooooooo          ",
"          oo..oooooooooooooooooooooooooo..oooooooooooooooooooooooooo..oooooooooooooooooooooooooo..oooooooooooooooooooo          ",
"          oo..oooooooooooooooooooooooooo..oooooooooooooooooooooooooo..oooooooooooooooooooooooooo..oooooooooooooooooooo          ",
"          oo..oooooooooooooooooooooooooo..oooooooooooooooooooooooooo..oooooooooooooooooooooooooo..oooooooooooooooooooo          ",
"          oo..oooooooooooooooooooooooooo..oooooooooooooooooooooooooo..oooooooooooooooooooooooooo..oooooooooooooooooooo          ",
"          oo..oooooooooooooooooooooooooo..oooooooooooooooooooooooooo..oooooooooooooooooooooooooo..oooooooooooooooooooo          ",
"          oo..oooooooooooooooooooooooooo..oooooooooooooooooooooooooo..oooooooooooooooooooooooooo..oooooooooooooooooooo          ",
"          oo..oooooooooooooooooooooooooo..oooooooooooooooooooooooooo..oooooooooooooooooooooooooo..oooooooooooooooooooo          ",
"          oo..oooooooooooooooooooooooooo..oooooooooooooooooooooooooo..oooooooooooooooooooooooooo..oooooooooooooooooooo          ",
"          oo..oooooooooooooooooooooooooo..oooooooooooooooooooooooooo..oooooooooooooooooooooooooo..oooooooooooooooooooo          ",
"          oo..oooooooooooooooooooooooooo..oooooooooooooooooooooooooo..oooooooooooooooooooooooooo..oooooooooooooooooooo          ",
"          oo..oooooooooooooooooooooooooo..oooooooooooooooooooooooooo..oooooooooooooooooooooooooo..oooooooooooooooooooo          ",
"          oo..oooooooooooooooooooooooooo..oooooooooooooooooooooooooo..oooooooooooooooooooooooooo..oooooooooooooooooooo          ",
"          oo..oooooooooooooooooooooooooo..oooooooooooooooooooooooooo..oooooooooooooooooooooooooo..oooooooooooooooooooo          ",
"          oo..oooooooooooooooooooooooooo..oooooooooooooooooooooooooo..oooooooooooooooooooooooooo..oooooooooooooooooooo          ",
"          oo..oooooooooooooooooooooooooo..oooooooooooooooooooooooooo..oooooooooooooooooooooooooo..oooooooooooooooooooo          ",
"          oo..oooooooooooooooooooooooooo..oooooooooooooooooooooooooo..oooooooooooooooooooooooooo..oooooooooooooooooooo          ",
"          oo..oooooooooooooooooooooooooo..oooooooooooooooooooooooooo..oooooooooooooooooooooooooo..oooooooooooooooooooo          ",
"          oo..oooooooooooooooooooooooooo..oooooooooooooooooooooooooo..oooooooooooooooooooooooooo..oooooooooooooooooooo          ",
"          oo..oooooooooooooooooooooooooo..oooooooooooooooooooooooooo..oooooooooooooooooooooooooo..oooooooooooooooooooo          ",
"          oo..oooooooooooooooooooooooooo..oooooooooooooooooooooooooo..oooooooooooooooooooooooooo..oooooooooooooooooooo          ",
"          oo............................XX..........................................................................oo          ",
"          oo............................XX..........................................................................oo          ",
"          oooooooooooooooooooooooooooooooooooooooooooooooooooooooooooooooooooooooooooooooooooooooooooooooooooooooooooo          ",
"          oooooooooooooooooooooooooooooooooooooooooooooooooooooooooooooooooooooooooooooooooooooooooooooooooooooooooooo          ",
"                                                                                                                                ",
"                                                                                                                                ",
"                                                                                                                                ",
"                                                                                                                                ",
"                                                                                                                                ",
"                                                                                                                                ",
"                                                                                                                                ",
"                                                                                                                                ",
"                                                                                                                                ",
"                                                                                                                                "
};
