/* XPM */
static char *result[] = {
/* columns rows colors chars-per-pixel */
"64 64 8 1 ",
"  c black",
". c #1A1224",
"X c #1B1224",
"o c #6F6777",
"O c #C38E76",
"+ c #8B8F81",
"@ c #C6CDB9",
"# c #C7CEBA",
/* pixels */
"                                                                ",
"                                                                ",
"                                                                ",
"                                                                ",
"                                                                ",
"     @@@@@@@@@@@@@@@@@@@@@@@@@@@@@@@@@@@@@@@@@@@@@@@@@@@@@@     ",
"     @oooooooooooooooooooooooooooooooooooooooooooooooooooo@     ",
"     @o@@@@@@@@@@@@@@@@@@@@@@@@@@@@@@@@@@@@@@@@@@@@@@@@@@o@     ",
"     @o@ooooooooooooooooooooooo@XXoooooooooooooooooooooo@o@     ",
"     @o@ooooooooooooooooooooooo@XXoooooooooooooooooooooo@o@     ",
"     @o@ooooooooooooooooooooooo@XXoooooooooooooooooooooo@o@     ",
"     @o@ooooooooooooooooooooooo@XXoooooooooooooooooooooo@o@     ",
"     @o@ooooooooooooooooooooooo@XXoooooooooooooooooooooo@o@     ",
"     @o@ooooooooooooooooooooooo@XXoooooooooooooooooooooo@o@     ",
"     @o@ooooooooooooooooooooooo@XXoooooooooooooooooooooo@o@     ",
"     @o@ooooooooooooooooooooooo@..oooooooooooooooooooooo@o@     ",
"     @o@ooooooooooooooooooooooo@++oooooooooooooooooooooo@o@     ",
"     @o@ooooooooooooooooooooooo@++oooooooooooooooooooooo@o@     ",
"     @o@ooooooooooooooooooooooo@++oooooooooooooooooooooo@o@     ",
"     @o@ooooooooooooooooooooooo@++oooooooooooooooooooooo@o@     ",
"     @o@ooooooooooooooooooooooo@++oooooooooooooooooooooo@o@     ",
"     @o@ooooooooooooooooooooooo@++oooooooooooooooooooooo@o@     ",
"     @o@ooooooooooooooooooooooo@++oooooooooooooooooooooo@o@     ",
"     @o@ooooooooooooooooooooooo@@+oooooooooooooooooooooo@o@     ",
"     @o@oooooooooooooooooooooooo#+.ooooooooooooooooooooo@o@     ",
"     @o@oooooooooooooooooo@ooooo#+.ooooo@ooooooooooooooo@o@     ",
"     @o@ooooooooooooooooo@O@oooo#+.oooo@O@oooooooooooooo@o@     ",
"     @o@oooooooooooooooo@OOO@ooo#+.ooo@OOO@ooooooooooooo@o@     ",
"     @o@oooooooooooooooo@OOO@ooo#+.ooo@OOO@ooooooooooooo@o@     ",
"     @o@oooooooooooooooo@OOO@ooo#+.ooo@OOO@ooooooooooooo@o@     ",
"     @o@oooooooooooooooo@OOO@ooo#+.ooo@OOO@ooooooooooooo@o@     ",
"     @o@oooooooooooooooo@OOO@ooo#+.ooo@OOO@ooooooooooooo@o@     ",
"     @o@oooooooooooooooo@OOO@ooo#+.ooo@OOO@ooooooooooooo@o@     ",
"     @o@oooooooooooooooo@OOO@ooo#+.ooo@OOO@ooooooooooooo@o@     ",
"     @o@ooooooooooooooooo@O@oooo#+.oooo@O@oooooooooooooo@o@     ",
"     @o@oooooooooooooooooo@ooooo#+.ooooo@ooooooooooooooo@o@     ",
"     @o@oooooooooooooooooooooooo#+.ooooooooooooooooooooo@o@     ",
"     @o@oooooooooooooooooooooooo#+.ooooooooooooooooooooo@o@     ",
"     @o@ooooooooooooooooooooooo@@+oooooooooooooooooooooo@o@     ",
"     @o@ooooooooooooooooooooooo@++oooooooooooooooooooooo@o@     ",
"     @o@ooooooooooooooooooooooo@++oooooooooooooooooooooo@o@     ",
"     @o@ooooooooooooooooooooooo@++oooooooooooooooooooooo@o@     ",
"     @o@ooooooooooooooooooooooo@++oooooooooooooooooooooo@o@     ",
"     @o@ooooooooooooooooooooooo@++oooooooooooooooooooooo@o@     ",
"     @o@ooooooooooooooooooooooo@++oooooooooooooooooooooo@o@     ",
"     @o@ooooooooooooooooooooooo@++oooooooooooooooooooooo@o@     ",
"     @o@ooooooooooooooooooooooo@++oooooooooooooooooooooo@o@     ",
"     @o@ooooooooooooooooooooooo@++oooooooooooooooooooooo@o@     ",
"     @o@ooooooooooooooooooooooo@++oooooooooooooooooooooo@o@     ",
"     @o@ooooooooooooooooooooooo@++oooooooooooooooooooooo@o@     ",
"     @o@ooooooooooooooooooooooo@++oooooooooooooooooooooo@o@     ",
"     @o@ooooooooooooooooooooooo@++oooooooooooooooooooooo@o@     ",
"     @o@ooooooooooooooooooooooo@++oooooooooooooooooooooo@o@     ",
"     @o@ooooooooooooooooooooooo@++oooooooooooooooooooooo@o@     ",
"     @o@ooooooooooooooooooooooo@++oooooooooooooooooooooo@o@     ",
"     @o@ooooooooooooooooooooooo@XXoooooooooooooooooooooo@o@     ",
"     @o@@@@@@@@@@@@@@@@@@@@@@@@@@@@@@@@@@@@@@@@@@@@@@@@@@o@     ",
"     @oooooooooooooooooooooooooooooooooooooooooooooooooooo@     ",
"     @@@@@@@@@@@@@@@@@@@@@@@@@@@@@@@@@@@@@@@@@@@@@@@@@@@@@@     ",
"                                                                ",
"                                                                ",
"                                                                ",
"                                                                ",
"                                                                "
};
