/* XPM */
static char *result[] = {
/* columns rows colors chars-per-pixel */
"64 128 6 1 ",
"  c none",
". c #C5CDB7",
"X c #6F6776",
"o c #433455",
"O c #2F243B",
"+ c white",
/* pixels */
"                                                                ",
"                                                                ",
"                                                                ",
"                                                                ",
"                                                                ",
"                                                                ",
"                                                                ",
"                                                                ",
"                                                                ",
"                                                                ",
"                                                                ",
"                                                                ",
"                                                                ",
"                                                                ",
"                                                                ",
"                                                                ",
"        ................                ................        ",
"        ................                ................        ",
"        ................                ................        ",
"        ................                ................        ",
"    ....XXXXXXXXXXXXXXXX....        ....XXXXXXXXXXXXXXXX....    ",
"    ....XXXXXXXXXXXXXXXX....        ....XXXXXXXXXXXXXXXX....    ",
"    ....XXXXXXXXXXXXXXXX....        ....XXXXXXXXXXXXXXXX....    ",
"    ....XXXXXXXXXXXXXXXX....        ....XXXXXXXXXXXXXXXX....    ",
"    ....XXXXXXXXXXXXXXXX....        ....XXXXXXXXXXXXXXXX....    ",
"    ....XXXXXXXXXXXXXXXX....        ....XXXXXXXXXXXXXXXX....    ",
"    ....XXXXXXXXXXXXXXXX....        ....XXXXXXXXXXXXXXXX....    ",
"    ....XXXXXXXXXXXXXXXX....        ....XXXXXXXXXXXXXXXX....    ",
"    ....XXXXXXXXXXXXXXXX....        ....XXXXXXXXXXXXXXXX....    ",
"    ....XXXXXXXXXXXXXXXX....        ....XXXXXXXXXXXXXXXX....    ",
"    ....XXXXXXXXXXXXXXXX....        ....XXXXXXXXXXXXXXXX....    ",
"    ....XXXXXXXXXXXXXXXX....        ....XXXXXXXXXXXXXXXX....    ",
"    ....XXXXXXXXXXXXXXXX....        ....XXXXXXXXXXXXXXXX....    ",
"    ....XXXXXXXXXXXXXXXX....        ....XXXXXXXXXXXXXXXX....    ",
"    ....XXXXXXXXXXXXXXXX....        ....XXXXXXXXXXXXXXXX....    ",
"    ....XXXXXXXXXXXXXXXX....        ....XXXXXXXXXXXXXXXX....    ",
"    ....XXXXXXXXXXXXXXXX....        ....XXXXXXXXXXXXXXXX....    ",
"    ....XXXXXXXXXXXXXXXX....        ....XXXXXXXXXXXXXXXX....    ",
"    ....XXXXXXXXXXXXXXXX....        ....XXXXXXXXXXXXXXXX....    ",
"    ....XXXXXXXXXXXXXXXX....        ....XXXXXXXXXXXXXXXX....    ",
"    ....XXXXXXXXXXXXXXXX....        ....XXXXXXXXXXXXXXXX....    ",
"    ....XXXXXXXXXXXXXXXX....        ....XXXXXXXXXXXXXXXX....    ",
"    ....XXXXXXXXXXXXXXXX....        ....XXXXXXXXXXXXXXXX....    ",
"    ....XXXXXXXXXXXXXXXX....        ....XXXXXXXXXXXXXXXX....    ",
"    ....XXXXXXXXXXXXXXXX....        ....XXXXXXXXXXXXXXXX....    ",
"    ....XXXXXXXXXXXXXXXX....        ....XXXXXXXXXXXXXXXX....    ",
"    ....XXXXXXXXXXXXXXXX....        ....XXXXXXXXXXXXXXXX....    ",
"    ....XXXXXXXXXXXXXXXX....        ....XXXXXXXXXXXXXXXX....    ",
"    ....XXXXXXXXXXXXXXXX....        ....XXXXXXXXXXXXXXXX....    ",
"    ....XXXXXXXXXXXXXXXX....        ....XXXXXXXXXXXXXXXX....    ",
"    ....XXXXXXXXXXXXXXXX....        ....XXXXXXXXXXXXXXXX....    ",
"    ....XXXXXXXXXXXXXXXX....        ....XXXXXXXXXXXXXXXX....    ",
"    ....XXXXXXXXXXXXXXXX................XXXXXXXXXXXXXXXX....    ",
"    ....XXXXXXXXXXXXXXXX................XXXXXXXXXXXXXXXX....    ",
"    ....XXXXXXXXXXXXXXXX................XXXXXXXXXXXXXXXX....    ",
"    ....XXXXXXXXXXXXXXXX................XXXXXXXXXXXXXXXX....    ",
"    ....oooooooooooooooooooooooooooooooooooooooooooooooo....    ",
"    ....oooooooooooooooooooooooooooooooooooooooooooooooo....    ",
"    ....oooooooooooooooooooooooooooooooooooooooooooooooo....    ",
"    ....oooooooooooooooooooooooooooooooooooooooooooooooo....    ",
"    ....oooooooooooooooooooooooooooooooooooooooooooooooo....    ",
"    ....oooooooooooooooooooooooooooooooooooooooooooooooo....    ",
"    ....oooooooooooooooooooooooooooooooooooooooooooooooo....    ",
"    ....oooooooooooooooooooooooooooooooooooooooooooooooo....    ",
"    ....oooooooooooooooooooooooooooooooooooooooooooooooo....    ",
"    ....oooooooooooooooooooooooooooooooooooooooooooooooo....    ",
"    ....oooooooooooooooooooooooooooooooooooooooooooooooo....    ",
"    ....oooooooooooooooooooooooooooooooooooooooooooooooo....    ",
"        ................................oooooooooooooooo....    ",
"        ................................oooooooooooooooo....    ",
"        ................................oooooooooooooooo....    ",
"        ................................oooooooooooooooo....    ",
"                                    ....oooooooooooooooo....    ",
"                                    ....oooooooooooooooo....    ",
"                                    ....oooooooooooooooo....    ",
"                                    ....oooooooooooooooo....    ",
"                                    ....oooooooooooooooo....    ",
"                                    ....oooooooooooooooo....    ",
"                                    ....oooooooooooooooo....    ",
"                                    ....oooooooooooooooo....    ",
"                                    ....oooooooooooooooo....    ",
"                                    ....oooooooooooooooo....    ",
"                                    ....oooooooooooooooo....    ",
"                                    ....oooooooooooooooo....    ",
"                                    ....OOOOOOOOOOOOOOOO....    ",
"                                    ....OOOOOOOOOOOOOOOO....    ",
"                                    ....OOOOOOOOOOOOOOOO....    ",
"                                    ....OOOOOOOOOOOOOOOO....    ",
"                                    ....OOOOOOOOOOOOOOOO....    ",
"                                    ....OOOOOOOOOOOOOOOO....    ",
"                                    ....OOOOOOOOOOOOOOOO....    ",
"                                    ....OOOOOOOOOOOOOOOO....    ",
"                                    ....OOOOOOOOOOOOOOOO....    ",
"                                    ....OOOOOOOOOOOOOOOO....    ",
"                                    ....OOOOOOOOOOOOOOOO....    ",
"                                    ....OOOOOOOOOOOOOOOO....    ",
"                                    ....OOOOOOOOOOOOOOOO....    ",
"                                    ....OOOOOOOOOOOOOOOO....    ",
"                                    ....OOOOOOOOOOOOOOOO....    ",
"                                    ....OOOOOOOOOOOOOOOO....    ",
"                                        ....OOOOOOOO....        ",
"                                        ....OOOOOOOO....        ",
"                                        ....OOOOOOOO....        ",
"                                        ....OOOOOOOO....        ",
"                                            ........            ",
"                                            ........            ",
"                                            ........            ",
"                                            ........            ",
"                                                                ",
"                                                                ",
"                                                                ",
"                                                                ",
"                                                                ",
"                                                                ",
"                                                                ",
"                                                                ",
"                                                                ",
"                                                                ",
"                                                                ",
"                                                                ",
"                                                                ",
"                                                                ",
"                                                                ",
"                                                                ",
"                                                                ",
"                                                                ",
"                                                                ",
"                                                                "
};
