/* XPM */
static char *result[] = {
/* columns rows colors chars-per-pixel */
"64 128 6 1 ",
"  c black",
". c #C5CDB7",
"X c #6F6776",
"o c #433455",
"O c #2F243B",
"+ c white",
/* pixels */
"                                                                ",
"                                                                ",
"                                                                ",
"                                                                ",
"                                                                ",
"                                                                ",
"                                                                ",
"                                                                ",
"                                                                ",
"                                                                ",
"                                                                ",
"                                                                ",
"                                                                ",
"                                                                ",
"                                                                ",
"                                                                ",
"        ................................................        ",
"        ................................................        ",
"        ................................................        ",
"        ................................................        ",
"    ........XXXXXXXXXXXXXXXXXXXXXXXXXXXXXXXXXXXXXXXX........    ",
"    ........XXXXXXXXXXXXXXXXXXXXXXXXXXXXXXXXXXXXXXXX........    ",
"    ........XXXXXXXXXXXXXXXXXXXXXXXXXXXXXXXXXXXXXXXX........    ",
"    ........XXXXXXXXXXXXXXXXXXXXXXXXXXXXXXXXXXXXXXXX........    ",
"    ....XXXXXXXXXXXXXXXXXXXXXXXXXXXXXXXXXXXXXXXXXXXXXXXX....    ",
"    ....XXXXXXXXXXXXXXXXXXXXXXXXXXXXXXXXXXXXXXXXXXXXXXXX....    ",
"    ....XXXXXXXXXXXXXXXXXXXXXXXXXXXXXXXXXXXXXXXXXXXXXXXX....    ",
"    ....XXXXXXXXXXXXXXXXXXXXXXXXXXXXXXXXXXXXXXXXXXXXXXXX....    ",
"    ....XXXXXXXXXXXXXXXXXXXXXXXXXXXXXXXXXXXXXXXXXXXXXXXX....    ",
"    ....XXXXXXXXXXXXXXXXXXXXXXXXXXXXXXXXXXXXXXXXXXXXXXXX....    ",
"    ....XXXXXXXXXXXXXXXXXXXXXXXXXXXXXXXXXXXXXXXXXXXXXXXX....    ",
"    ....XXXXXXXXXXXXXXXXXXXXXXXXXXXXXXXXXXXXXXXXXXXXXXXX....    ",
"    ....XXXXXXXXXXXXXXXXXX............XXXXXXXXXXXXXXXXXX....    ",
"    ....XXXXXXXXXXXXXXXXXX............XXXXXXXXXXXXXXXXXX....    ",
"    ....XXXXXXXXXXXXXXXXXX............XXXXXXXXXXXXXXXXXX....    ",
"    ....XXXXXXXXXXXXXXXXXX............XXXXXXXXXXXXXXXXXX....    ",
"    ....XXXXXXXXXXXXXXXXXX............XXXXXXXXXXXXXXXXXX....    ",
"    ....XXXXXXXXXXXXXXXXXX............XXXXXXXXXXXXXXXXXX....    ",
"    ....XXXXXXXXXXXXXXXXXX............XXXXXXXXXXXXXXXXXX....    ",
"    ....XXXXXXXXXXXXXXXXXX............XXXXXXXXXXXXXXXXXX....    ",
"    ....XXXXXXXXXXXXXXXXXX............XXXXXXXXXXXXXXXXXX....    ",
"    ....XXXXXXXXXXXXXXXXXX............XXXXXXXXXXXXXXXXXX....    ",
"    ....XXXXXXXXXXXXXXXXXX............XXXXXXXXXXXXXXXXXX....    ",
"    ....XXXXXXXXXXXXXXXXXX............XXXXXXXXXXXXXXXXXX....    ",
"    ....XXXXXXXXXXXXXXXXXX............XXXXXXXXXXXXXXXXXX....    ",
"    ....XXXXXXXXXXXXXXXXXX............XXXXXXXXXXXXXXXXXX....    ",
"    ....XXXXXXXXXXXXXXXXXXXXXXXXXXXXXXXXXXXXXXXXXXXXXXXX....    ",
"    ....XXXXXXXXXXXXXXXXXXXXXXXXXXXXXXXXXXXXXXXXXXXXXXXX....    ",
"    ....XXXXXXXXXXXXXXXXXXXXXXXXXXXXXXXXXXXXXXXXXXXXXXXX....    ",
"    ....XXXXXXXXXXXXXXXXXXXXXXXXXXXXXXXXXXXXXXXXXXXXXXXX....    ",
"    ....XXXXXXXXXXXXXXXXXXXXXXXXXXXXXXXXXXXXXXXXXXXXXXXX....    ",
"    ....XXXXXXXXXXXXXXXXXXXXXXXXXXXXXXXXXXXXXXXXXXXXXXXX....    ",
"    ....XXXXXXXXXXXXXXXXXXXXXXXXXXXXXXXXXXXXXXXXXXXXXXXX....    ",
"    ....XXXXXXXXXXXXXXXXXXXXXXXXXXXXXXXXXXXXXXXXXXXXXXXX....    ",
"    ....XXXXXXXXXXXXXXXXXXXXXXXXXXXXXXXXXXXXXXXXXXXXXXXX....    ",
"    ....XXXXXXXXXXXXXXXXXXXXXXXXXXXXXXXXXXXXXXXXXXXXXXXX....    ",
"    ..................................oooooooooooooooooo....    ",
"    ..................................oooooooooooooooooo....    ",
"    ..................................oooooooooooooooooo....    ",
"    ..................................oooooooooooooooooo....    ",
"        ..............................oooooooooooooooooo....    ",
"        ..............................oooooooooooooooooo....    ",
"        ..............................oooooooooooooooooo....    ",
"        ..............................oooooooooooooooooo....    ",
"                                  ....oooooooooooooooooo....    ",
"                                  ....oooooooooooooooooo....    ",
"                                  ....oooooooooooooooooo....    ",
"                                  ....oooooooooooooooooo....    ",
"                                  ....oooooooooooooooooo....    ",
"                                  ....oooooooooooooooooo....    ",
"                                  ....oooooooooooooooooo....    ",
"                                  ....oooooooooooooooooo....    ",
"                                  ....oooooooooooooooooo....    ",
"                                  ....oooooooooooooooooo....    ",
"                                  ....oooooooooooooooooo....    ",
"                                  ....oooooooooooooooooo....    ",
"                                  ....oooooooooooooooooo....    ",
"                                  ....oooooooooooooooooo....    ",
"                                  ....oooooooooooooooooo....    ",
"                                  ....oooooooooooooooooo....    ",
"                                  ....oooooooooooooooooo....    ",
"                                  ....oooooooooooooooooo....    ",
"                                  ....oooooooooooooooooo....    ",
"                                  ....oooooooooooooooooo....    ",
"                                  ....oooooooooooooooooo....    ",
"                                  ....oooooooooooooooooo....    ",
"                                  ....OOOOOOOOOOOOOOOOOO....    ",
"                                  ....OOOOOOOOOOOOOOOOOO....    ",
"                                  ....OOOOOOOOOOOOOOOOOO....    ",
"                                  ....OOOOOOOOOOOOOOOOOO....    ",
"                                  ....OOOOOOOOOOOOOOOOOO....    ",
"                                  ....OOOOOOOOOOOOOOOOOO....    ",
"                                  ....OOOOOOOOOOOOOOOOOO....    ",
"                                  ....OOOOOOOOOOOOOOOOOO....    ",
"                                  ....OOOOOOOOOOOOOOOOOO....    ",
"                                  ....OOOOOOOOOOOOOOOOOO....    ",
"                                  ....OOOOOOOOOOOOOOOOOO....    ",
"                                  ....OOOOOOOOOOOOOOOOOO....    ",
"                                  ....OOOOOOOOOOOOOOOOOO....    ",
"                                  ....OOOOOOOOOOOOOOOOOO....    ",
"                                  ........OOOOOOOOOO........    ",
"                                  ........OOOOOOOOOO........    ",
"                                  ........OOOOOOOOOO........    ",
"                                  ........OOOOOOOOOO........    ",
"                                  ..........................    ",
"                                  ..........................    ",
"                                  ..........................    ",
"                                  ..........................    ",
"                                      ..................        ",
"                                      ..................        ",
"                                      ..................        ",
"                                      ..................        ",
"                                                                ",
"                                                                ",
"                                                                ",
"                                                                ",
"                                                                ",
"                                                                ",
"                                                                ",
"                                                                ",
"                                                                ",
"                                                                ",
"                                                                ",
"                                                                ",
"                                                                ",
"                                                                ",
"                                                                ",
"                                                                "
};
