/* XPM */
static char *result[] = {
/* columns rows colors chars-per-pixel */
"64 128 5 1 ",
"  c black",
". c #2F243B",
"X c #433455",
"o c #6F6776",
"O c #C5CDB7",
/* pixels */
"                                                                ",
"                                                                ",
"                                                                ",
"                                                                ",
"                                                                ",
"                                                                ",
"                                                                ",
"                                                                ",
"                                                                ",
"                                                                ",
"                                                                ",
"                                                                ",
"                                                                ",
"                                                                ",
"                                                                ",
"                                                                ",
"        OOOOOOOOOOOOOOOOOOOOOOOOOOOOOOOOOOOOOOOOOOOOOOOO        ",
"        OOOOOOOOOOOOOOOOOOOOOOOOOOOOOOOOOOOOOOOOOOOOOOOO        ",
"        OOOOOOOOOOOOOOOOOOOOOOOOOOOOOOOOOOOOOOOOOOOOOOOO        ",
"        OOOOOOOOOOOOOOOOOOOOOOOOOOOOOOOOOOOOOOOOOOOOOOOO        ",
"    OOOOOOOOooooooooooooooooooooooooooooooooooooooooOOOOOOOO    ",
"    OOOOOOOOooooooooooooooooooooooooooooooooooooooooOOOOOOOO    ",
"    OOOOOOOOooooooooooooooooooooooooooooooooooooooooOOOOOOOO    ",
"    OOOOOOOOooooooooooooooooooooooooooooooooooooooooOOOOOOOO    ",
"    OOOOooooooooooooooooooooooooooooooooooooooooooooooooOOOO    ",
"    OOOOooooooooooooooooooooooooooooooooooooooooooooooooOOOO    ",
"    OOOOooooooooooooooooooooooooooooooooooooooooooooooooOOOO    ",
"    OOOOooooooooooooooooooooooooooooooooooooooooooooooooOOOO    ",
"    OOOOooooooooooooooooooooooooooooooooooooooooooooooooOOOO    ",
"    OOOOooooooooooooooooooooooooooooooooooooooooooooooooOOOO    ",
"    OOOOooooooooooooooooooooooooooooooooooooooooooooooooOOOO    ",
"    OOOOooooooooooooooooooooooooooooooooooooooooooooooooOOOO    ",
"    OOOOooooooooooooooooooooooooooooooooooooooooooooooooOOOO    ",
"    OOOOooooooooooooooooooooooooooooooooooooooooooooooooOOOO    ",
"    OOOOooooooooooooooooooooooooooooooooooooooooooooooooOOOO    ",
"    OOOOooooooooooooooooooooooooooooooooooooooooooooooooOOOO    ",
"    OOOOooooooooooooooooooooooooooooooooooooooooooooooooOOOO    ",
"    OOOOooooooooooooooooooooooooooooooooooooooooooooooooOOOO    ",
"    OOOOooooooooooooooooooooooooooooooooooooooooooooooooOOOO    ",
"    OOOOooooooooooooooooooooooooooooooooooooooooooooooooOOOO    ",
"    OOOOooooooooooooooooooooooooooooooooooooooooooooooooOOOO    ",
"    OOOOooooooooooooooooooooooooooooooooooooooooooooooooOOOO    ",
"    OOOOOOOOOOOOOOOOOOOOOOOOOOOOOOOOOOOOXXXXXXXXXXXXXXXXOOOO    ",
"    OOOOOOOOOOOOOOOOOOOOOOOOOOOOOOOOOOOOXXXXXXXXXXXXXXXXOOOO    ",
"    OOOOOOOOOOOOOOOOOOOOOOOOOOOOOOOOOOOOXXXXXXXXXXXXXXXXOOOO    ",
"    OOOOOOOOOOOOOOOOOOOOOOOOOOOOOOOOOOOOXXXXXXXXXXXXXXXXOOOO    ",
"    OOOOOOOOOOOOOOOOOOOOOOOOOOOOOOOOOOOOXXXXXXXXXXXXXXXXOOOO    ",
"    OOOOOOOOOOOOOOOOOOOOOOOOOOOOOOOOOOOOXXXXXXXXXXXXXXXXOOOO    ",
"    OOOOOOOOOOOOOOOOOOOOOOOOOOOOOOOOOOOOXXXXXXXXXXXXXXXXOOOO    ",
"    OOOOOOOOOOOOOOOOOOOOOOOOOOOOOOOOOOOOXXXXXXXXXXXXXXXXOOOO    ",
"                                    OOOOXXXXXXXXXXXXXXXXOOOO    ",
"                                    OOOOXXXXXXXXXXXXXXXXOOOO    ",
"                                    OOOOXXXXXXXXXXXXXXXXOOOO    ",
"                                    OOOOXXXXXXXXXXXXXXXXOOOO    ",
"                                    OOOOXXXXXXXXXXXXXXXXOOOO    ",
"                                    OOOOXXXXXXXXXXXXXXXXOOOO    ",
"                                    OOOOXXXXXXXXXXXXXXXXOOOO    ",
"                                    OOOOXXXXXXXXXXXXXXXXOOOO    ",
"                                    OOOOXXXXXXXXXXXXXXXXOOOO    ",
"                                    OOOOXXXXXXXXXXXXXXXXOOOO    ",
"                                    OOOOXXXXXXXXXXXXXXXXOOOO    ",
"                                    OOOOXXXXXXXXXXXXXXXXOOOO    ",
"                                    OOOOXXXXXXXXXXXXXXXXOOOO    ",
"                                    OOOOXXXXXXXXXXXXXXXXOOOO    ",
"                                    OOOOXXXXXXXXXXXXXXXXOOOO    ",
"                                    OOOOXXXXXXXXXXXXXXXXOOOO    ",
"                                    OOOOXXXXXXXXXXXXXXXXOOOO    ",
"                                    OOOOXXXXXXXXXXXXXXXXOOOO    ",
"                                    OOOOXXXXXXXXXXXXXXXXOOOO    ",
"                                    OOOOXXXXXXXXXXXXXXXXOOOO    ",
"                                    OOOOXXXXXXXXXXXXXXXXOOOO    ",
"                                    OOOOXXXXXXXXXXXXXXXXOOOO    ",
"                                    OOOO................OOOO    ",
"                                    OOOO................OOOO    ",
"                                    OOOO................OOOO    ",
"                                    OOOO................OOOO    ",
"                                    OOOO................OOOO    ",
"                                    OOOO................OOOO    ",
"                                    OOOO................OOOO    ",
"                                    OOOO................OOOO    ",
"                                    OOOO................OOOO    ",
"                                    OOOO................OOOO    ",
"                                    OOOO................OOOO    ",
"                                    OOOO................OOOO    ",
"                                    OOOO................OOOO    ",
"                                    OOOO................OOOO    ",
"                                    OOOO................OOOO    ",
"                                    OOOO................OOOO    ",
"                                    OOOO................OOOO    ",
"                                    OOOO................OOOO    ",
"                                    OOOO................OOOO    ",
"                                    OOOO................OOOO    ",
"                                    OOOO................OOOO    ",
"                                    OOOO................OOOO    ",
"                                    OOOO................OOOO    ",
"                                    OOOO................OOOO    ",
"                                    OOOO................OOOO    ",
"                                    OOOO................OOOO    ",
"                                    OOOO................OOOO    ",
"                                    OOOO................OOOO    ",
"                                    OOOOOOOO........OOOOOOOO    ",
"                                    OOOOOOOO........OOOOOOOO    ",
"                                    OOOOOOOO........OOOOOOOO    ",
"                                    OOOOOOOO........OOOOOOOO    ",
"                                    OOOOOOOOOOOOOOOOOOOOOOOO    ",
"                                    OOOOOOOOOOOOOOOOOOOOOOOO    ",
"                                    OOOOOOOOOOOOOOOOOOOOOOOO    ",
"                                    OOOOOOOOOOOOOOOOOOOOOOOO    ",
"                                        OOOOOOOOOOOOOOOO        ",
"                                        OOOOOOOOOOOOOOOO        ",
"                                        OOOOOOOOOOOOOOOO        ",
"                                        OOOOOOOOOOOOOOOO        ",
"                                                                ",
"                                                                ",
"                                                                ",
"                                                                ",
"                                                                ",
"                                                                ",
"                                                                ",
"                                                                ",
"                                                                ",
"                                                                ",
"                                                                ",
"                                                                ",
"                                                                ",
"                                                                ",
"                                                                ",
"                                                                "
};
