/* XPM */
static char *result[] = {
/* columns rows colors chars-per-pixel */
"64 128 6 1 ",
"  c black",
". c #C5CDB7",
"X c #6F6776",
"o c #433455",
"O c #2F243B",
"+ c white",
/* pixels */
"                                                                ",
"                                                                ",
"                                                                ",
"                                                                ",
"                                                                ",
"                                                                ",
"                                                                ",
"                                                                ",
"                                                                ",
"                                                                ",
"                                                                ",
"                                                                ",
"                                                                ",
"                                                                ",
"                                                                ",
"                                                                ",
"        ................................................        ",
"        ................................................        ",
"        ................................................        ",
"        ................................................        ",
"    ........XXXXXXXXXXXXXXXXXXXXXXXXXXXXXXXXXXXXXXXX........    ",
"    ........XXXXXXXXXXXXXXXXXXXXXXXXXXXXXXXXXXXXXXXX........    ",
"    ........XXXXXXXXXXXXXXXXXXXXXXXXXXXXXXXXXXXXXXXX........    ",
"    ........XXXXXXXXXXXXXXXXXXXXXXXXXXXXXXXXXXXXXXXX........    ",
"    ....XXXXXXXXXXXXXXXXXXXXXXXXXXXXXXXXXXXXXXXXXXXXXXXX....    ",
"    ....XXXXXXXXXXXXXXXXXXXXXXXXXXXXXXXXXXXXXXXXXXXXXXXX....    ",
"    ....XXXXXXXXXXXXXXXXXXXXXXXXXXXXXXXXXXXXXXXXXXXXXXXX....    ",
"    ....XXXXXXXXXXXXXXXXXXXXXXXXXXXXXXXXXXXXXXXXXXXXXXXX....    ",
"    ....XXXXXXXXXXXXXXXXXXXXXXXXXXXXXXXXXXXXXXXXXXXXXXXX....    ",
"    ....XXXXXXXXXXXXXXXXXXXXXXXXXXXXXXXXXXXXXXXXXXXXXXXX....    ",
"    ....XXXXXXXXXXXXXXXXXXXXXXXXXXXXXXXXXXXXXXXXXXXXXXXX....    ",
"    ....XXXXXXXXXXXXXXXXXXXXXXXXXXXXXXXXXXXXXXXXXXXXXXXX....    ",
"    ....XXXXXXXXXXXXXXXXXXXXXXXXXXXXXXXXXXXXXXXXXXXXXXXX....    ",
"    ....XXXXXXXXXXXXXXXXXXXXXXXXXXXXXXXXXXXXXXXXXXXXXXXX....    ",
"    ....XXXXXXXXXXXXXXXXXXXXXXXXXXXXXXXXXXXXXXXXXXXXXXXX....    ",
"    ....XXXXXXXXXXXXXXXXXXXXXXXXXXXXXXXXXXXXXXXXXXXXXXXX....    ",
"    ....XXXXXXXXXXXXXXXXXXXXXXXXXXXXXXXXXXXXXXXXXXXXXXXX....    ",
"    ....XXXXXXXXXXXXXXXXXXXXXXXXXXXXXXXXXXXXXXXXXXXXXXXX....    ",
"    ....XXXXXXXXXXXXXXXXXXXXXXXXXXXXXXXXXXXXXXXXXXXXXXXX....    ",
"    ....XXXXXXXXXXXXXXXXXXXXXXXXXXXXXXXXXXXXXXXXXXXXXXXX....    ",
"    ....XXXXXXXXXXXXXXXXXXXXXXXXXXXXXXXXXXXXXXXXXXXXXXXX....    ",
"    ....XXXXXXXXXXXXXXXXXXXXXXXXXXXXXXXXXXXXXXXXXXXXXXXX....    ",
"    ....................................oooooooooooooooo....    ",
"    ....................................oooooooooooooooo....    ",
"    ....................................oooooooooooooooo....    ",
"    ....................................oooooooooooooooo....    ",
"    ....................................oooooooooooooooo....    ",
"    ....................................oooooooooooooooo....    ",
"    ....................................oooooooooooooooo....    ",
"    ....................................oooooooooooooooo....    ",
"                                    ....oooooooooooooooo....    ",
"                                    ....oooooooooooooooo....    ",
"                                    ....oooooooooooooooo....    ",
"                                    ....oooooooooooooooo....    ",
"                                ....oooooooooooooooooooo....    ",
"                                ....oooooooooooooooooooo....    ",
"                                ....oooooooooooooooo....        ",
"                                ....oooooooooooooooo....        ",
"                            ....oooooooooooooooooooo....        ",
"                            ....oooooooooooooooooooo....        ",
"                            ....oooooooooooooooo....            ",
"                            ....oooooooooooooooo....            ",
"                        ....oooooooooooooooooooo....            ",
"                        ....oooooooooooooooooooo....            ",
"                        ....oooooooooooooooo....                ",
"                        ....oooooooooooooooo....                ",
"                    ....oooooooooooooooooooo....                ",
"                    ....oooooooooooooooooooo....                ",
"                ........oooooooooooooooo....                    ",
"                ........oooooooooooooooo....                    ",
"                ....oooooooooooooooooooo....                    ",
"                ....oooooooooooooooooooo....                    ",
"            ....OOOOOOOOOOOOOOOOOOOO....                        ",
"            ....OOOOOOOOOOOOOOOOOOOO....                        ",
"            ....OOOOOOOOOOOOOOOOOOOO....                        ",
"            ....OOOOOOOOOOOOOOOOOOOO....                        ",
"    ........OOOOOOOOOOOOOOOOOOOO....                            ",
"    ........OOOOOOOOOOOOOOOOOOOO....                            ",
"    ........OOOOOOOOOOOOOOOOOOOO....                            ",
"    ........OOOOOOOOOOOOOOOOOOOO....                            ",
"    ....OOOOOOOOOOOOOOOOOOOO....                                ",
"    ....OOOOOOOOOOOOOOOOOOOO....                                ",
"    ....OOOOOOOOOOOOOOOOOOOO....                                ",
"    ....OOOOOOOOOOOOOOOOOOOO....                                ",
"    ....OOOOOOOOOOOOOOOO....                                    ",
"    ....OOOOOOOOOOOOOOOO....                                    ",
"    ....OOOOOOOOOOOOOOOO....                                    ",
"    ....OOOOOOOOOOOOOOOO....                                    ",
"    ....OOOOOOOOOOOOOOOO....                                    ",
"    ....OOOOOOOOOOOOOOOO....                                    ",
"    ....OOOOOOOOOOOOOOOO....                                    ",
"    ....OOOOOOOOOOOOOOOO....                                    ",
"    ....OOOOOOOOOOOOOOOO....                                    ",
"    ....OOOOOOOOOOOOOOOO....                                    ",
"    ....OOOOOOOOOOOOOOOO....                                    ",
"    ....OOOOOOOOOOOOOOOO....                                    ",
"    ....OOOOOOOOOOOOOOOO....                                    ",
"    ....OOOOOOOOOOOOOOOO....                                    ",
"    ....OOOOOOOOOOOOOOOO....                                    ",
"    ....OOOOOOOOOOOOOOOO....                                    ",
"    ........OOOOOOOO........                                    ",
"    ........OOOOOOOO........                                    ",
"    ........OOOOOOOO........                                    ",
"    ........OOOOOOOO........                                    ",
"    ........................                                    ",
"    ........................                                    ",
"    ........................                                    ",
"    ........................                                    ",
"        ................                                        ",
"        ................                                        ",
"        ................                                        ",
"        ................                                        ",
"                                                                ",
"                                                                ",
"                                                                ",
"                                                                ",
"                                                                ",
"                                                                ",
"                                                                ",
"                                                                ",
"                                                                ",
"                                                                ",
"                                                                ",
"                                                                ",
"                                                                ",
"                                                                ",
"                                                                ",
"                                                                "
};
