/* XPM */
static char *result[] = {
/* columns rows colors chars-per-pixel */
"64 128 6 1 ",
"  c black",
". c #C5CDB7",
"X c #6F6776",
"o c #433455",
"O c #2F243B",
"+ c white",
/* pixels */
"                                                                ",
"                                                                ",
"                                                                ",
"                                                                ",
"                                                                ",
"                                                                ",
"                                                                ",
"                                                                ",
"                                                                ",
"                                                                ",
"                                                                ",
"                                                                ",
"                                                                ",
"                                                                ",
"                                                                ",
"                                                                ",
"        ................................................        ",
"        ................................................        ",
"        ................................................        ",
"        ................................................        ",
"    ........XXXXXXXXXXXXXXXXXXXXXXXXXXXXXXXXXXXXXXXX........    ",
"    ........XXXXXXXXXXXXXXXXXXXXXXXXXXXXXXXXXXXXXXXX........    ",
"    ........XXXXXXXXXXXXXXXXXXXXXXXXXXXXXXXXXXXXXXXX........    ",
"    ........XXXXXXXXXXXXXXXXXXXXXXXXXXXXXXXXXXXXXXXX........    ",
"    ....XXXXXXXXXXXXXXXXXXXXXXXXXXXXXXXXXXXXXXXXXXXXXXXX....    ",
"    ....XXXXXXXXXXXXXXXXXXXXXXXXXXXXXXXXXXXXXXXXXXXXXXXX....    ",
"    ....XXXXXXXXXXXXXXXXXXXXXXXXXXXXXXXXXXXXXXXXXXXXXXXX....    ",
"    ....XXXXXXXXXXXXXXXXXXXXXXXXXXXXXXXXXXXXXXXXXXXXXXXX....    ",
"    ....XXXXXXXXXXXXXXXXXXXXXXXXXXXXXXXXXXXXXXXXXXXXXXXX....    ",
"    ....XXXXXXXXXXXXXXXXXXXXXXXXXXXXXXXXXXXXXXXXXXXXXXXX....    ",
"    ....XXXXXXXXXXXXXXXXXXXXXXXXXXXXXXXXXXXXXXXXXXXXXXXX....    ",
"    ....XXXXXXXXXXXXXXXXXXXXXXXXXXXXXXXXXXXXXXXXXXXXXXXX....    ",
"    ....XXXXXXXXXXXXXXXXXXXXXXXXXXXXXXXXXXXXXXXXXXXXXXXX....    ",
"    ....XXXXXXXXXXXXXXXXXXXXXXXXXXXXXXXXXXXXXXXXXXXXXXXX....    ",
"    ....XXXXXXXXXXXXXXXXXXXXXXXXXXXXXXXXXXXXXXXXXXXXXXXX....    ",
"    ....XXXXXXXXXXXXXXXXXXXXXXXXXXXXXXXXXXXXXXXXXXXXXXXX....    ",
"    ....XXXXXXXXXXXXXXXXXXXXXXXXXXXXXXXXXXXXXXXXXXXXXXXX....    ",
"    ....XXXXXXXXXXXXXXXXXXXXXXXXXXXXXXXXXXXXXXXXXXXXXXXX....    ",
"    ....XXXXXXXXXXXXXXXXXXXXXXXXXXXXXXXXXXXXXXXXXXXXXXXX....    ",
"    ....XXXXXXXXXXXXXXXXXXXXXXXXXXXXXXXXXXXXXXXXXXXXXXXX....    ",
"    ....XXXXXXXXXXXXXXXXXXXXXXXXXXXXXXXXXXXXXXXXXXXXXXXX....    ",
"    ....XXXXXXXXXXXXXXXXXXXXXXXXXXXXXXXXXXXXXXXXXXXXXXXX....    ",
"    ....XXXXXXXXXXXXXXXXXXXX................................    ",
"    ....XXXXXXXXXXXXXXXXXXXX................................    ",
"    ....XXXXXXXXXXXXXXXXXXXX................................    ",
"    ....XXXXXXXXXXXXXXXXXXXX................................    ",
"    ....oooooooooooooooooooo................................    ",
"    ....oooooooooooooooooooo................................    ",
"    ....oooooooooooooooooooo................................    ",
"    ....oooooooooooooooooooo................................    ",
"    ....oooooooooooooooooooooooooooooooooooooooooooooooo....    ",
"    ....oooooooooooooooooooooooooooooooooooooooooooooooo....    ",
"    ....oooooooooooooooooooooooooooooooooooooooooooooooo....    ",
"    ....oooooooooooooooooooooooooooooooooooooooooooooooo....    ",
"    ....oooooooooooooooooooooooooooooooooooooooooooooooo....    ",
"    ....oooooooooooooooooooooooooooooooooooooooooooooooo....    ",
"    ....oooooooooooooooooooooooooooooooooooooooooooooooo....    ",
"    ....oooooooooooooooooooooooooooooooooooooooooooooooo....    ",
"    ....oooooooooooooooooooooooooooooooooooooooooooooooo....    ",
"    ....oooooooooooooooooooooooooooooooooooooooooooooooo....    ",
"    ....oooooooooooooooooooooooooooooooooooooooooooooooo....    ",
"    ....oooooooooooooooooooooooooooooooooooooooooooooooo....    ",
"    ....oooooooooooooooooooooooooooooooooooooooooooooooo....    ",
"    ....oooooooooooooooooooooooooooooooooooooooooooooooo....    ",
"    ....oooooooooooooooooooooooooooooooooooooooooooooooo....    ",
"    ....oooooooooooooooooooooooooooooooooooooooooooooooo....    ",
"    ....oooooooooooooooooooooooooooooooooooooooooooooooo....    ",
"    ....oooooooooooooooooooooooooooooooooooooooooooooooo....    ",
"    ....oooooooooooooooooooooooooooooooooooooooooooooooo....    ",
"    ....oooooooooooooooooooooooooooooooooooooooooooooooo....    ",
"    ....oooooooooooooooooo............oooooooooooooooooo....    ",
"    ....oooooooooooooooooo............oooooooooooooooooo....    ",
"    ....OOOOOOOOOOOOOOOOOO............OOOOOOOOOOOOOOOOOO....    ",
"    ....OOOOOOOOOOOOOOOOOO............OOOOOOOOOOOOOOOOOO....    ",
"    ....OOOOOOOOOOOOOOOOOO............OOOOOOOOOOOOOOOOOO....    ",
"    ....OOOOOOOOOOOOOOOOOO............OOOOOOOOOOOOOOOOOO....    ",
"    ....OOOOOOOOOOOOOOOOOO............OOOOOOOOOOOOOOOOOO....    ",
"    ....OOOOOOOOOOOOOOOOOO............OOOOOOOOOOOOOOOOOO....    ",
"    ....OOOOOOOOOOOOOOOOOO............OOOOOOOOOOOOOOOOOO....    ",
"    ....OOOOOOOOOOOOOOOOOO............OOOOOOOOOOOOOOOOOO....    ",
"    ....OOOOOOOOOOOOOOOOOO............OOOOOOOOOOOOOOOOOO....    ",
"    ....OOOOOOOOOOOOOOOOOO............OOOOOOOOOOOOOOOOOO....    ",
"    ....OOOOOOOOOOOOOOOOOO............OOOOOOOOOOOOOOOOOO....    ",
"    ....OOOOOOOOOOOOOOOOOO............OOOOOOOOOOOOOOOOOO....    ",
"    ....OOOOOOOOOOOOOOOOOOOOOOOOOOOOOOOOOOOOOOOOOOOOOOOO....    ",
"    ....OOOOOOOOOOOOOOOOOOOOOOOOOOOOOOOOOOOOOOOOOOOOOOOO....    ",
"    ....OOOOOOOOOOOOOOOOOOOOOOOOOOOOOOOOOOOOOOOOOOOOOOOO....    ",
"    ....OOOOOOOOOOOOOOOOOOOOOOOOOOOOOOOOOOOOOOOOOOOOOOOO....    ",
"    ....OOOOOOOOOOOOOOOOOOOOOOOOOOOOOOOOOOOOOOOOOOOOOOOO....    ",
"    ....OOOOOOOOOOOOOOOOOOOOOOOOOOOOOOOOOOOOOOOOOOOOOOOO....    ",
"    ....OOOOOOOOOOOOOOOOOOOOOOOOOOOOOOOOOOOOOOOOOOOOOOOO....    ",
"    ....OOOOOOOOOOOOOOOOOOOOOOOOOOOOOOOOOOOOOOOOOOOOOOOO....    ",
"    ....OOOOOOOOOOOOOOOOOOOOOOOOOOOOOOOOOOOOOOOOOOOOOOOO....    ",
"    ....OOOOOOOOOOOOOOOOOOOOOOOOOOOOOOOOOOOOOOOOOOOOOOOO....    ",
"    ....OOOOOOOOOOOOOOOOOOOOOOOOOOOOOOOOOOOOOOOOOOOOOOOO....    ",
"    ....OOOOOOOOOOOOOOOOOOOOOOOOOOOOOOOOOOOOOOOOOOOOOOOO....    ",
"    ....OOOOOOOOOOOOOOOOOOOOOOOOOOOOOOOOOOOOOOOOOOOOOOOO....    ",
"    ....OOOOOOOOOOOOOOOOOOOOOOOOOOOOOOOOOOOOOOOOOOOOOOOO....    ",
"    ....OOOOOOOOOOOOOOOOOOOOOOOOOOOOOOOOOOOOOOOOOOOOOOOO....    ",
"    ....OOOOOOOOOOOOOOOOOOOOOOOOOOOOOOOOOOOOOOOOOOOOOOOO....    ",
"    ........OOOOOOOOOOOOOOOOOOOOOOOOOOOOOOOOOOOOOOOO........    ",
"    ........OOOOOOOOOOOOOOOOOOOOOOOOOOOOOOOOOOOOOOOO........    ",
"    ........OOOOOOOOOOOOOOOOOOOOOOOOOOOOOOOOOOOOOOOO........    ",
"    ........OOOOOOOOOOOOOOOOOOOOOOOOOOOOOOOOOOOOOOOO........    ",
"    ........................................................    ",
"    ........................................................    ",
"    ........................................................    ",
"    ........................................................    ",
"        ................................................        ",
"        ................................................        ",
"        ................................................        ",
"        ................................................        ",
"                                                                ",
"                                                                ",
"                                                                ",
"                                                                ",
"                                                                ",
"                                                                ",
"                                                                ",
"                                                                ",
"                                                                ",
"                                                                ",
"                                                                ",
"                                                                ",
"                                                                ",
"                                                                ",
"                                                                ",
"                                                                "
};
