/* XPM */
static char *result[] = {
/* columns rows colors chars-per-pixel */
"64 128 6 1 ",
"  c black",
". c #C5CDB7",
"X c #6F6776",
"o c #433455",
"O c #2F243B",
"+ c white",
/* pixels */
"                                                                ",
"                                                                ",
"                                                                ",
"                                                                ",
"                                                                ",
"                                                                ",
"                                                                ",
"                                                                ",
"                                                                ",
"                                                                ",
"                                                                ",
"                                                                ",
"                                                                ",
"                                                                ",
"                                                                ",
"                                                                ",
"        ................................................        ",
"        ................................................        ",
"        ................................................        ",
"        ................................................        ",
"    ........XXXXXXXXXXXXXXXXXXXXXXXXXXXXXXXXXXXXXXXX........    ",
"    ........XXXXXXXXXXXXXXXXXXXXXXXXXXXXXXXXXXXXXXXX........    ",
"    ........XXXXXXXXXXXXXXXXXXXXXXXXXXXXXXXXXXXXXXXX........    ",
"    ........XXXXXXXXXXXXXXXXXXXXXXXXXXXXXXXXXXXXXXXX........    ",
"    ....XXXXXXXXXXXXXXXXXXXXXXXXXXXXXXXXXXXXXXXXXXXXXXXX....    ",
"    ....XXXXXXXXXXXXXXXXXXXXXXXXXXXXXXXXXXXXXXXXXXXXXXXX....    ",
"    ....XXXXXXXXXXXXXXXXXXXXXXXXXXXXXXXXXXXXXXXXXXXXXXXX....    ",
"    ....XXXXXXXXXXXXXXXXXXXXXXXXXXXXXXXXXXXXXXXXXXXXXXXX....    ",
"    ....XXXXXXXXXXXXXXXXXXXXXXXXXXXXXXXXXXXXXXXXXXXXXXXX....    ",
"    ....XXXXXXXXXXXXXXXXXXXXXXXXXXXXXXXXXXXXXXXXXXXXXXXX....    ",
"    ....XXXXXXXXXXXXXXXXXXXXXXXXXXXXXXXXXXXXXXXXXXXXXXXX....    ",
"    ....XXXXXXXXXXXXXXXXXXXXXXXXXXXXXXXXXXXXXXXXXXXXXXXX....    ",
"    ....XXXXXXXXXXXXXXXXXXXXXXXXXXXXXXXXXXXXXXXXXXXXXXXX....    ",
"    ....XXXXXXXXXXXXXXXXXXXXXXXXXXXXXXXXXXXXXXXXXXXXXXXX....    ",
"    ....XXXXXXXXXXXXXXXXXXXXXXXXXXXXXXXXXXXXXXXXXXXXXXXX....    ",
"    ....XXXXXXXXXXXXXXXXXXXXXXXXXXXXXXXXXXXXXXXXXXXXXXXX....    ",
"    ....XXXXXXXXXXXXXXXXXXXXXXXXXXXXXXXXXXXXXXXXXXXXXXXX....    ",
"    ....XXXXXXXXXXXXXXXXXXXXXXXXXXXXXXXXXXXXXXXXXXXXXXXX....    ",
"    ....XXXXXXXXXXXXXXXXXXXXXXXXXXXXXXXXXXXXXXXXXXXXXXXX....    ",
"    ....XXXXXXXXXXXXXXXXXXXXXXXXXXXXXXXXXXXXXXXXXXXXXXXX....    ",
"    ............................XXXXXXXXXXXXXXXXXXXXXXXX....    ",
"    ............................XXXXXXXXXXXXXXXXXXXXXXXX....    ",
"    ............................XXXXXXXXXXXXXXXXXXXXXXXX....    ",
"    ............................XXXXXXXXXXXXXXXXXXXXXXXX....    ",
"                ................XXXXXXXXXXXXXXXXXXXXXXXX....    ",
"                ................XXXXXXXXXXXXXXXXXXXXXXXX....    ",
"                ................XXXXXXXXXXXXXXXXXXXXXXXX....    ",
"                ................XXXXXXXXXXXXXXXXXXXXXXXX....    ",
"                ................XXXXXXXXXXXXXXXXXXXXXXXX....    ",
"                ................XXXXXXXXXXXXXXXXXXXXXXXX....    ",
"                ................XXXXXXXXXXXXXXXXXXXXXXXX....    ",
"                ................XXXXXXXXXXXXXXXXXXXXXXXX....    ",
"                ........XXXXXXXXXXXXXXXXXXXXXXXXXXXXXXXX....    ",
"                ........XXXXXXXXXXXXXXXXXXXXXXXXXXXXXXXX....    ",
"                ........XXXXXXXXXXXXXXXXXXXXXXXXXXXXXXXX....    ",
"                ........XXXXXXXXXXXXXXXXXXXXXXXXXXXXXXXX....    ",
"                ........oooooooooooooooooooooooo............    ",
"                ........oooooooooooooooooooooooo............    ",
"                ........oooooooooooooooooooooooo............    ",
"                ........oooooooooooooooooooooooo............    ",
"                ........oooooooooooooooooooooooo............    ",
"                ........oooooooooooooooooooooooo............    ",
"                ........oooooooooooooooooooooooo............    ",
"                ........oooooooooooooooooooooooo............    ",
"                ........oooooooooooooooooooooooo............    ",
"                ........oooooooooooooooooooooooo............    ",
"                ........oooooooooooooooooooooooo............    ",
"                ........oooooooooooooooooooooooo............    ",
"                ........oooooooooooooooooooooooooooooooo....    ",
"                ........oooooooooooooooooooooooooooooooo....    ",
"                ........oooooooooooooooooooooooooooooooo....    ",
"                ........oooooooooooooooooooooooooooooooo....    ",
"                ................oooooooooooooooooooooooo....    ",
"                ................oooooooooooooooooooooooo....    ",
"                ................oooooooooooooooooooooooo....    ",
"                ................oooooooooooooooooooooooo....    ",
"                ................oooooooooooooooooooooooo....    ",
"                ................oooooooooooooooooooooooo....    ",
"                ................oooooooooooooooooooooooo....    ",
"                ................oooooooooooooooooooooooo....    ",
"    ............................oooooooooooooooooooooooo....    ",
"    ............................oooooooooooooooooooooooo....    ",
"    ............................oooooooooooooooooooooooo....    ",
"    ............................oooooooooooooooooooooooo....    ",
"    ....OOOOOOOOOOOOOOOOOOOOOOOOOOOOOOOOOOOOOOOOOOOOOOOO....    ",
"    ....OOOOOOOOOOOOOOOOOOOOOOOOOOOOOOOOOOOOOOOOOOOOOOOO....    ",
"    ....OOOOOOOOOOOOOOOOOOOOOOOOOOOOOOOOOOOOOOOOOOOOOOOO....    ",
"    ....OOOOOOOOOOOOOOOOOOOOOOOOOOOOOOOOOOOOOOOOOOOOOOOO....    ",
"    ....OOOOOOOOOOOOOOOOOOOOOOOOOOOOOOOOOOOOOOOOOOOOOOOO....    ",
"    ....OOOOOOOOOOOOOOOOOOOOOOOOOOOOOOOOOOOOOOOOOOOOOOOO....    ",
"    ....OOOOOOOOOOOOOOOOOOOOOOOOOOOOOOOOOOOOOOOOOOOOOOOO....    ",
"    ....OOOOOOOOOOOOOOOOOOOOOOOOOOOOOOOOOOOOOOOOOOOOOOOO....    ",
"    ....OOOOOOOOOOOOOOOOOOOOOOOOOOOOOOOOOOOOOOOOOOOOOOOO....    ",
"    ....OOOOOOOOOOOOOOOOOOOOOOOOOOOOOOOOOOOOOOOOOOOOOOOO....    ",
"    ....OOOOOOOOOOOOOOOOOOOOOOOOOOOOOOOOOOOOOOOOOOOOOOOO....    ",
"    ....OOOOOOOOOOOOOOOOOOOOOOOOOOOOOOOOOOOOOOOOOOOOOOOO....    ",
"    ....OOOOOOOOOOOOOOOOOOOOOOOOOOOOOOOOOOOOOOOOOOOOOOOO....    ",
"    ....OOOOOOOOOOOOOOOOOOOOOOOOOOOOOOOOOOOOOOOOOOOOOOOO....    ",
"    ....OOOOOOOOOOOOOOOOOOOOOOOOOOOOOOOOOOOOOOOOOOOOOOOO....    ",
"    ....OOOOOOOOOOOOOOOOOOOOOOOOOOOOOOOOOOOOOOOOOOOOOOOO....    ",
"    ........OOOOOOOOOOOOOOOOOOOOOOOOOOOOOOOOOOOOOOOO........    ",
"    ........OOOOOOOOOOOOOOOOOOOOOOOOOOOOOOOOOOOOOOOO........    ",
"    ........OOOOOOOOOOOOOOOOOOOOOOOOOOOOOOOOOOOOOOOO........    ",
"    ........OOOOOOOOOOOOOOOOOOOOOOOOOOOOOOOOOOOOOOOO........    ",
"    ........................................................    ",
"    ........................................................    ",
"    ........................................................    ",
"    ........................................................    ",
"        ................................................        ",
"        ................................................        ",
"        ................................................        ",
"        ................................................        ",
"                                                                ",
"                                                                ",
"                                                                ",
"                                                                ",
"                                                                ",
"                                                                ",
"                                                                ",
"                                                                ",
"                                                                ",
"                                                                ",
"                                                                ",
"                                                                ",
"                                                                ",
"                                                                ",
"                                                                ",
"                                                                "
};
