/* XPM */
static char *result[] = {
/* columns rows colors chars-per-pixel */
"64 128 6 1 ",
"  c black",
". c #C5CCB8",
"X c #6F6776",
"o c #433455",
"O c #2F243B",
"+ c white",
/* pixels */
"                                                                ",
"                                                                ",
"                                                                ",
"                                                                ",
"                                                                ",
"                                                                ",
"                                                                ",
"                                                                ",
"                                                                ",
"                                                                ",
"                                                                ",
"                                                                ",
"                                                                ",
"                                                                ",
"                                                                ",
"                                                                ",
"                    ........................                    ",
"                    ........................                    ",
"                    ........................                    ",
"                    ........................                    ",
"                ....XXXXXXXXXXXXXXXXXXXXXXXX....                ",
"                ....XXXXXXXXXXXXXXXXXXXXXXXX....                ",
"                ....XXXXXXXXXXXXXXXXXXXXXXXX....                ",
"                ....XXXXXXXXXXXXXXXXXXXXXXXX....                ",
"            ....XXXXXXXXXXXXXXXXXXXXXXXXXXXXXXXX....            ",
"            ....XXXXXXXXXXXXXXXXXXXXXXXXXXXXXXXX....            ",
"            ....XXXXXXXXXXXXXXXXXXXXXXXXXXXXXXXX....            ",
"            ....XXXXXXXXXXXXXXXXXXXXXXXXXXXXXXXX....            ",
"        ....XXXXXXXXXXXXXXXXXXXXXXXXXXXXXXXXXXXXXXXX....        ",
"        ....XXXXXXXXXXXXXXXXXXXXXXXXXXXXXXXXXXXXXXXX....        ",
"        ....XXXXXXXXXXXXXXXXXXXXXXXXXXXXXXXXXXXXXXXX....        ",
"        ....XXXXXXXXXXXXXXXXXXXXXXXXXXXXXXXXXXXXXXXX....        ",
"    ....XXXXXXXXXXXXXXXXXXXXXXXXXXXXXXXXXXXXXXXXXXXXXXXX....    ",
"    ....XXXXXXXXXXXXXXXXXXXXXXXXXXXXXXXXXXXXXXXXXXXXXXXX....    ",
"    ....XXXXXXXXXXXXXXXXXXXXXXXXXXXXXXXXXXXXXXXXXXXXXXXX....    ",
"    ....XXXXXXXXXXXXXXXXXXXXXXXXXXXXXXXXXXXXXXXXXXXXXXXX....    ",
"    ....XXXXXXXXXXXXXXXXXXXXXXXXXXXXXXXXXXXXXXXXXXXXXXXX....    ",
"    ....XXXXXXXXXXXXXXXXXXXXXXXXXXXXXXXXXXXXXXXXXXXXXXXX....    ",
"    ....XXXXXXXXXXXXXXXXXXXXXXXXXXXXXXXXXXXXXXXXXXXXXXXX....    ",
"    ....XXXXXXXXXXXXXXXXXXXXXXXXXXXXXXXXXXXXXXXXXXXXXXXX....    ",
"    ....XXXXXXXXXXXXXXXXXXXX........XXXXXXXXXXXXXXXXXXXX....    ",
"    ....XXXXXXXXXXXXXXXXXXXX........XXXXXXXXXXXXXXXXXXXX....    ",
"    ....XXXXXXXXXXXXXXXXXXXX........XXXXXXXXXXXXXXXXXXXX....    ",
"    ....XXXXXXXXXXXXXXXXXXXX........XXXXXXXXXXXXXXXXXXXX....    ",
"    ....XXXXXXXXXXXXXXXX................XXXXXXXXXXXXXXXX....    ",
"    ....XXXXXXXXXXXXXXXX................XXXXXXXXXXXXXXXX....    ",
"    ....XXXXXXXXXXXXXXXX................XXXXXXXXXXXXXXXX....    ",
"    ....XXXXXXXXXXXXXXXX................XXXXXXXXXXXXXXXX....    ",
"    ....XXXXXXXXXXXXXXXX................XXXXXXXXXXXXXXXX....    ",
"    ....XXXXXXXXXXXXXXXX................XXXXXXXXXXXXXXXX....    ",
"    ....XXXXXXXXXXXXXXXX................XXXXXXXXXXXXXXXX....    ",
"    ....XXXXXXXXXXXXXXXX................XXXXXXXXXXXXXXXX....    ",
"    ....XXXXXXXXXXXXXXXX................XXXXXXXXXXXXXXXX....    ",
"    ....XXXXXXXXXXXXXXXX................XXXXXXXXXXXXXXXX....    ",
"    ....XXXXXXXXXXXXXXXX................XXXXXXXXXXXXXXXX....    ",
"    ....XXXXXXXXXXXXXXXX................XXXXXXXXXXXXXXXX....    ",
"    ....XXXXXXXXXXXXXXXX................XXXXXXXXXXXXXXXX....    ",
"    ....XXXXXXXXXXXXXXXX................XXXXXXXXXXXXXXXX....    ",
"    ....oooooooooooooooo................oooooooooooooooo....    ",
"    ....oooooooooooooooo................oooooooooooooooo....    ",
"    ....oooooooooooooooo................oooooooooooooooo....    ",
"    ....oooooooooooooooo................oooooooooooooooo....    ",
"    ....oooooooooooooooo................oooooooooooooooo....    ",
"    ....oooooooooooooooo................oooooooooooooooo....    ",
"    ....oooooooooooooooo................oooooooooooooooo....    ",
"    ....oooooooooooooooo................oooooooooooooooo....    ",
"    ....oooooooooooooooo................oooooooooooooooo....    ",
"    ....oooooooooooooooo................oooooooooooooooo....    ",
"    ....oooooooooooooooo................oooooooooooooooo....    ",
"    ....oooooooooooooooo................oooooooooooooooo....    ",
"    ....oooooooooooooooo................oooooooooooooooo....    ",
"    ....oooooooooooooooo................oooooooooooooooo....    ",
"    ....oooooooooooooooo................oooooooooooooooo....    ",
"    ....oooooooooooooooo................oooooooooooooooo....    ",
"    ....oooooooooooooooo................oooooooooooooooo....    ",
"    ....oooooooooooooooo................oooooooooooooooo....    ",
"    ....oooooooooooooooo................oooooooooooooooo....    ",
"    ....oooooooooooooooo................oooooooooooooooo....    ",
"    ....oooooooooooooooo................oooooooooooooooo....    ",
"    ....oooooooooooooooo................oooooooooooooooo....    ",
"    ....oooooooooooooooo................oooooooooooooooo....    ",
"    ....oooooooooooooooo................oooooooooooooooo....    ",
"    ....oooooooooooooooo................oooooooooooooooo....    ",
"    ....oooooooooooooooo................oooooooooooooooo....    ",
"    ....oooooooooooooooooooo........oooooooooooooooooooo....    ",
"    ....oooooooooooooooooooo........oooooooooooooooooooo....    ",
"    ....oooooooooooooooooooo........oooooooooooooooooooo....    ",
"    ....oooooooooooooooooooo........oooooooooooooooooooo....    ",
"    ....oooooooooooooooooooooooooooooooooooooooooooooooo....    ",
"    ....oooooooooooooooooooooooooooooooooooooooooooooooo....    ",
"    ....OOOOOOOOOOOOOOOOOOOOOOOOOOOOOOOOOOOOOOOOOOOOOOOO....    ",
"    ....OOOOOOOOOOOOOOOOOOOOOOOOOOOOOOOOOOOOOOOOOOOOOOOO....    ",
"    ....OOOOOOOOOOOOOOOOOOOOOOOOOOOOOOOOOOOOOOOOOOOOOOOO....    ",
"    ....OOOOOOOOOOOOOOOOOOOOOOOOOOOOOOOOOOOOOOOOOOOOOOOO....    ",
"    ....OOOOOOOOOOOOOOOOOOOOOOOOOOOOOOOOOOOOOOOOOOOOOOOO....    ",
"    ....OOOOOOOOOOOOOOOOOOOOOOOOOOOOOOOOOOOOOOOOOOOOOOOO....    ",
"        ....OOOOOOOOOOOOOOOOOOOOOOOOOOOOOOOOOOOOOOOO....        ",
"        ....OOOOOOOOOOOOOOOOOOOOOOOOOOOOOOOOOOOOOOOO....        ",
"        ....OOOOOOOOOOOOOOOOOOOOOOOOOOOOOOOOOOOOOOOO....        ",
"        ....OOOOOOOOOOOOOOOOOOOOOOOOOOOOOOOOOOOOOOOO....        ",
"            ....OOOOOOOOOOOOOOOOOOOOOOOOOOOOOOOO....            ",
"            ....OOOOOOOOOOOOOOOOOOOOOOOOOOOOOOOO....            ",
"            ....OOOOOOOOOOOOOOOOOOOOOOOOOOOOOOOO....            ",
"            ....OOOOOOOOOOOOOOOOOOOOOOOOOOOOOOOO....            ",
"                ....OOOOOOOOOOOOOOOOOOOOOOOO....                ",
"                ....OOOOOOOOOOOOOOOOOOOOOOOO....                ",
"                ....OOOOOOOOOOOOOOOOOOOOOOOO....                ",
"                ....OOOOOOOOOOOOOOOOOOOOOOOO....                ",
"                    ........................                    ",
"                    ........................                    ",
"                    ........................                    ",
"                    ........................                    ",
"                                                                ",
"                                                                ",
"                                                                ",
"                                                                ",
"                                                                ",
"                                                                ",
"                                                                ",
"                                                                ",
"                                                                ",
"                                                                ",
"                                                                ",
"                                                                ",
"                                                                ",
"                                                                ",
"                                                                ",
"                                                                "
};
