/* XPM */
static char *result[] = {
/* columns rows colors chars-per-pixel */
"64 64 8 1 ",
"  c black",
". c #413154",
"X c #6F6777",
"o c #C38E76",
"O c #D5B0A0",
"+ c #C6CDB9",
"@ c #D7DCCE",
"# c None",
/* pixels */
"                                                                ",
"                                                                ",
"                                                                ",
"                                                                ",
"                                                                ",
"                                                                ",
"                                                                ",
"                                                                ",
"                                                                ",
"                     .                   .                      ",
"                    .+.                 .@.                     ",
"                   .+.                   .@.                    ",
"                   .+.                   .@@.                   ",
"                  .++...                .++@.                   ",
"                  .+++++.................++@.                   ",
"                   .+++..++++++++++++++@.+..                    ",
"                    .+..+++++++++++++++@...                     ",
"                     ..++++++++++++++++@@@.                     ",
"                      .++++++++++++++++++@.                     ",
"                      .++++++++++++++++++@.                     ",
"                      .++++++++++++++++++@.                     ",
"                      .++++++++ooooooooooO.                     ",
"                      .+++++++o............                     ",
"                      .++++++++o...........                     ",
"                      .++++++++oooooo..ooO.                     ",
"                      .+++++++++++++o..o++.                     ",
"                      .+++++++++++++o..o++.                     ",
"                      .+++++++++++++o..o++.                     ",
"                      .+++++++++++++o..o++.                     ",
"                       ..+++++++++++o..o+.                      ",
"                         ................                       ",
"                         .............o..                       ",
"                       .XXXXXo+++++++..oo.                      ",
"                      .XXXXXXX++++++++.+.                       ",
"                     .XXoooooXX+++++++.+.                       ",
"                    .XXoooooooXX+++o+o.+.                       ",
"                   .XXooo+o+oooXX+oo+o.+.                       ",
"                   .XXoo++o++ooXX+++++.+.                       ",
"                   .XXoooooooooXX+oo+o.+.                       ",
"                   .XXoo++o++ooXX++o+o...                       ",
"                   .XXooo+o+oooXX+++++.+.                       ",
"                    .XXoooooooXX++++++.+.                       ",
"                     .XXoooooXX#+++++.+.                        ",
"                      .XXXXXXX..........                        ",
"                       .XXXXX...+..+.                           ",
"                        .....  .+..+.                           ",
"                               .+..+.                           ",
"                               .+..+.                           ",
"                               .+o.+o.                          ",
"                                .....                           ",
"                                                                ",
"                                                                ",
"                                                                ",
"                                                                ",
"                                                                ",
"                                                                ",
"                                                                ",
"                                                                ",
"                                                                ",
"                                                                ",
"                                                                ",
"                                                                ",
"                                                                ",
"                                                                "
};
