/* XPM */
static char *result[] = {
/* columns rows colors chars-per-pixel */
"128 128 8 1 ",
"  c black",
". c #413154",
"X c #6F6777",
"o c #C38E76",
"O c #D5B0A0",
"+ c #C6CDB9",
"@ c #D7DCCE",
"# c None",
/* pixels */
"                                                                                                                                ",
"                                                                                                                                ",
"                                                                                                                                ",
"                                                                                                                                ",
"                                                                                                                                ",
"                                                                                                                                ",
"                                                                                                                                ",
"                                                                                                                                ",
"                                                                                                                                ",
"                                                                                                                                ",
"                                                                                                                                ",
"                                                                                                                                ",
"                                                                                                                                ",
"                                                                                                                                ",
"                                                                                                                                ",
"                                                                                                                                ",
"                                                                                                                                ",
"                                                                                                                                ",
"                                            ..                                      ..                                          ",
"                                            ..                                      ..                                          ",
"                                          ..@@..                                  ..++..                                        ",
"                                          ..@@..                                  ..++..                                        ",
"                                        ..@@..                                      ..++..                                      ",
"                                        ..@@..                                      ..++..                                      ",
"                                      ..@@@@..                                      ..++..                                      ",
"                                      ..@@@@..                                      ..++..                                      ",
"                                      ..@@++++..                                ......++++..                                    ",
"                                      ..@@++++..                                ......++++..                                    ",
"                                      ..@@++++..................................++++++++++..                                    ",
"                                      ..@@++++..................................++++++++++..                                    ",
"                                        ....++..@@++++++++++++++++++++++++++++....++++++..                                      ",
"                                        ....++..@@++++++++++++++++++++++++++++....++++++..                                      ",
"                                          ......@@++++++++++++++++++++++++++++++....++..                                        ",
"                                          ......@@++++++++++++++++++++++++++++++....++..                                        ",
"                                          ..@@@@@@++++++++++++++++++++++++++++++++....                                          ",
"                                          ..@@@@@@++++++++++++++++++++++++++++++++....                                          ",
"                                          ..@@++++++++++++++++++++++++++++++++++++..                                            ",
"                                          ..@@++++++++++++++++++++++++++++++++++++..                                            ",
"                                          ..@@++++++++++++++++++++++++++++++++++++..                                            ",
"                                          ..@@++++++++++++++++++++++++++++++++++++..                                            ",
"                                          ..@@++++++++++++++++++++++++++++++++++++..                                            ",
"                                          ..@@++++++++++++++++++++++++++++++++++++..                                            ",
"                                          ..OOoooooooooooooooooooo++++++++++++++++..                                            ",
"                                          ..OOoooooooooooooooooooo++++++++++++++++..                                            ",
"                                          ........................oo++++++++++++++..                                            ",
"                                          ........................oo++++++++++++++..                                            ",
"                                          ......................oo++++++++++++++++..                                            ",
"                                          ......................oo++++++++++++++++..                                            ",
"                                          ..OOoooo....oooooooooooo++++++++++++++++..                                            ",
"                                          ..OOoooo....oooooooooooo++++++++++++++++..                                            ",
"                                          ..++++oo....oo++++++++++++++++++++++++++..                                            ",
"                                          ..++++oo....oo++++++++++++++++++++++++++..                                            ",
"                                          ..++++oo....oo++++++++++++++++++++++++++..                                            ",
"                                          ..++++oo....oo++++++++++++++++++++++++++..                                            ",
"                                          ..++++oo....oo++++++++++++++++++++++++++..                                            ",
"                                          ..++++oo....oo++++++++++++++++++++++++++..                                            ",
"                                          ..++++oo....oo++++++++++++++++++++++++++..                                            ",
"                                          ..++++oo....oo++++++++++++++++++++++++++..                                            ",
"                                            ..++oo....oo++++++++++++++++++++++....                                              ",
"                                            ..++oo....oo++++++++++++++++++++++....                                              ",
"                                              ................................                                                  ",
"                                              ................................                                                  ",
"                                              ................................                                                  ",
"                                             ....oo...........................                                                  ",
"                                             ....oo...++++++++++++++oo..........                                                ",
"                                           ..oooo.....++++++++++++++ooXXXXXXXXXX..                                              ",
"                                           ..oooo...++++++++++++++++++XXXXXXXXXX..                                              ",
"                                             ..++...++++++++++++++++XXXXXXXXXXXXXX..                                            ",
"                                             ..++...++++++++++++++++XXXXXXXXXXXXXX..                                            ",
"                                             ..++...++++++++++++++XXXXooooooooooXXXX..                                          ",
"                                             ..++...oo++oo++++++++XXXXooooooooooXXXX..                                          ",
"                                             ..++...oo++oo++++++XXXXooooooooooooooXXXX..                                        ",
"                                             ..++...oo++oooo++++XXXXooooooooooooooXXXX..                                        ",
"                                             ..++...oo++oooo++XXXXoooooo++oo++ooooooXXXX..                                      ",
"                                             ..++...++++++++++XXXXoooooo++oo++ooooooXXXX..                                      ",
"                                             ..++...++++++++++XXXXoooo++++oo++++ooooXXXX..                                      ",
"                                             ..++...oo++oooo++XXXXoooo++++oo++++ooooXXXX..                                      ",
"                                             ..++...oo++oooo++XXXXooooooooooooooooooXXXX..                                      ",
"                                             ..++...oo++oo++++XXXXooooooooooooooooooXXXX..                                      ",
"                                             .......oo++oo++++XXXXoooo++++oo++++ooooXXXX..                                      ",
"                                             .......++++++++++XXXXoooo++++oo++++ooooXXXX..                                      ",
"                                             ..++...++++++++++XXXXoooooo++oo++ooooooXXXX..                                      ",
"                                             ..++...++++++++++XXXXoooooo++oo++ooooooXXXX..                                      ",
"                                             ..++...++++++++++++XXXXooooooooooooooXXXX..                                        ",
"                                             ..++.....++++++++++XXXXooooooooooooooXXXX..                                        ",
"                                               ..++...++++++++++#.XXXXooooooooooXXXX..                                          ",
"                                               ..++...............XXXXooooooooooXXXX..                                          ",
"                                               .....................XXXXXXXXXXXXXX..                                            ",
"                                                      ..++....++....XXXXXXXXXXXXXX..                                            ",
"                                                      ..++....++......XXXXXXXXXX..                                              ",
"                                                      ..++....++..  ..XXXXXXXXXX..                                              ",
"                                                      ..++....++..    ..........                                                ",
"                                                      ..++....++..    ..........                                                ",
"                                                      ..++....++..                                                              ",
"                                                      ..++....++..                                                              ",
"                                                      ..++....++..                                                              ",
"                                                    ..oo++..oo++..                                                              ",
"                                                    ..oo++..oo++..                                                              ",
"                                                      ..........                                                                ",
"                                                      ..........                                                                ",
"                                                                                                                                ",
"                                                                                                                                ",
"                                                                                                                                ",
"                                                                                                                                ",
"                                                                                                                                ",
"                                                                                                                                ",
"                                                                                                                                ",
"                                                                                                                                ",
"                                                                                                                                ",
"                                                                                                                                ",
"                                                                                                                                ",
"                                                                                                                                ",
"                                                                                                                                ",
"                                                                                                                                ",
"                                                                                                                                ",
"                                                                                                                                ",
"                                                                                                                                ",
"                                                                                                                                ",
"                                                                                                                                ",
"                                                                                                                                ",
"                                                                                                                                ",
"                                                                                                                                ",
"                                                                                                                                ",
"                                                                                                                                ",
"                                                                                                                                ",
"                                                                                                                                ",
"                                                                                                                                ",
"                                                                                                                                "
};
