/* XPM */
static char *result[] = {
/* columns rows colors chars-per-pixel */
"64 64 7 1 ",
"  c black",
". c #413154",
"X c #6F6777",
"o c #C38E76",
"O c #D5B0A0",
"+ c #C6CDB9",
"@ c #D7DCCE",
/* pixels */
"                                                                ",
"                                                                ",
"                                                                ",
"                                                                ",
"                                                                ",
"                                                                ",
"                                                                ",
"                                                                ",
"                                                                ",
"                     .                   .                      ",
"                    .+.                 .@.                     ",
"                   .+.                   .@.                    ",
"                   .+.                   .@@.                   ",
"                  .++...                .++@.                   ",
"                  .+++++.................++@.                   ",
"                   .+++..++++++++++++++@.+..                    ",
"                    .+..+++++++++++++++@...                     ",
"                     ..++++++++++++++++@@@.                     ",
"                      .++++++++++++++++++@.                     ",
"                      .++++++++++++++++++@.                     ",
"                      .++++++++++++++++++@.                     ",
"                      .++++++++ooooooooooO.                     ",
"                      .+++++++o............                     ",
"                      .++++++++o...........                     ",
"                      .++++++++oooooo..ooO.                     ",
"                      .+++++++++++++o..o++.                     ",
"                      .+++++++++++++o..o++.                     ",
"                      .+++++++++++++o..o++.                     ",
"                      .+++++++++++++o..o++.                     ",
"                       ..+++++++++++o..o+.                      ",
"                         ................                       ",
"                         ................                       ",
"                        .....o+++++++.o..                       ",
"                       .XXXXX+++++++++.oo.                      ",
"                      .XXXXXXX++++++++.+.                       ",
"                     .XXoooooXX++++o+o.+.                       ",
"                    .XXoooooooXX++oo+o.+.                       ",
"                   .XXooo+o+oooXX+++++.+.                       ",
"                   .XXoo++o++ooXX+oo+o.+.                       ",
"                   .XXoooooooooXX++o+o.+.                       ",
"                   .XXoo++o++ooXX+++++...                       ",
"                   .XXooo+o+oooXX+++++.+.                       ",
"                    .XXoooooooXX+++++..+.                       ",
"                     .XXoooooXX.......+.                        ",
"                      .XXXXXXX..+..+. .                         ",
"                       .XXXXX. .+..+.                           ",
"                        .....  .+..+.                           ",
"                               .+..+.                           ",
"                               .+o.+o.                          ",
"                                .....                           ",
"                                                                ",
"                                                                ",
"                                                                ",
"                                                                ",
"                                                                ",
"                                                                ",
"                                                                ",
"                                                                ",
"                                                                ",
"                                                                ",
"                                                                ",
"                                                                ",
"                                                                ",
"                                                                "
};
