/* XPM */
static char *result[] = {
/* columns rows colors chars-per-pixel */
"128 128 8 1 ",
"  c black",
". c #433455",
"X c #C5CCB8",
"o c #D6DBCD",
"O c #C28D75",
"+ c #D4AF9F",
"@ c #6F6776",
"# c white",
/* pixels */
"                                                                                                                                ",
"                                                                                                                                ",
"                                                                                                                                ",
"                                                                                                                                ",
"                                                                                                                                ",
"                                                                                                                                ",
"                                                                                                                                ",
"                                                                                                                                ",
"                                                                                                                                ",
"                                                                                                                                ",
"                                                                                                                                ",
"                                                                                                                                ",
"                                                                                                                                ",
"                                                                                                                                ",
"                                                                                                                                ",
"                                                                                                                                ",
"                                                                                                                                ",
"                                                                                                                                ",
"                                                                                                                                ",
"                                                                                                                                ",
"                                          ..                                      ..                                            ",
"                                          ..                                      ..                                            ",
"                                        ..XX..                                  ..oo..                                          ",
"                                        ..XX..                                  ..oo..                                          ",
"                                      ..XX..                                      ..oo..                                        ",
"                                      ..XX..                                      ..oo..                                        ",
"                                      ..XX..                                      ..oooo..                                      ",
"                                      ..XX..                                      ..oooo..                                      ",
"                                    ..XXXX......                                ..XXXXoo..                                      ",
"                                    ..XXXX......                                ..XXXXoo..                                      ",
"                                    ..XXXXXXXXXX..................................XXXXoo..                                      ",
"                                    ..XXXXXXXXXX..................................XXXXoo..                                      ",
"                                      ..XXXXXX....XXXXXXXXXXXXXXXXXXXXXXXXXXXXoo..XX....                                        ",
"                                      ..XXXXXX....XXXXXXXXXXXXXXXXXXXXXXXXXXXXoo..XX....                                        ",
"                                        ..XX....XXXXXXXXXXXXXXXXXXXXXXXXXXXXXXoo......                                          ",
"                                        ..XX....XXXXXXXXXXXXXXXXXXXXXXXXXXXXXXoo......                                          ",
"                                          ....XXXXXXXXXXXXXXXXXXXXXXXXXXXXXXXXoooooo..                                          ",
"                                          ....XXXXXXXXXXXXXXXXXXXXXXXXXXXXXXXXoooooo..                                          ",
"                                            ..XXXXXXXXXXXXXXXXXXXXXXXXXXXXXXXXXXXXoo..                                          ",
"                                            ..XXXXXXXXXXXXXXXXXXXXXXXXXXXXXXXXXXXXoo..                                          ",
"                                            ..XXXXXXXXXXXXXXXXXXXXXXXXXXXXXXXXXXXXoo..                                          ",
"                                            ..XXXXXXXXXXXXXXXXXXXXXXXXXXXXXXXXXXXXoo..                                          ",
"                                            ..XXXXXXXXXXXXXXXXXXXXXXXXXXXXXXXXXXXXoo..                                          ",
"                                            ..XXXXXXXXXXXXXXXXXXXXXXXXXXXXXXXXXXXXoo..                                          ",
"                                            ..XXXXXXXXXXXXXXXXOOOOOOOOOOOOOOOOOOOO++..                                          ",
"                                            ..XXXXXXXXXXXXXXXXOOOOOOOOOOOOOOOOOOOO++..                                          ",
"                                            ..XXXXXXXXXXXXXXOO........................                                          ",
"                                            ..XXXXXXXXXXXXXXOO........................                                          ",
"                                            ..XXXXXXXXXXXXXXXXOO......................                                          ",
"                                            ..XXXXXXXXXXXXXXXXOO......................                                          ",
"                                            ..XXXXXXXXXXXXXXXXOOOOOOOOOOOO....OOOO++..                                          ",
"                                            ..XXXXXXXXXXXXXXXXOOOOOOOOOOOO....OOOO++..                                          ",
"                                            ..XXXXXXXXXXXXXXXXXXXXXXXXXXOO....OOXXXX..                                          ",
"                                            ..XXXXXXXXXXXXXXXXXXXXXXXXXXOO....OOXXXX..                                          ",
"                                            ..XXXXXXXXXXXXXXXXXXXXXXXXXXOO....OOXXXX..                                          ",
"                                            ..XXXXXXXXXXXXXXXXXXXXXXXXXXOO....OOXXXX..                                          ",
"                                            ..XXXXXXXXXXXXXXXXXXXXXXXXXXOO....OOXXXX..                                          ",
"                                            ..XXXXXXXXXXXXXXXXXXXXXXXXXXOO....OOXXXX..                                          ",
"                                            ..XXXXXXXXXXXXXXXXXXXXXXXXXXOO....OOXXXX..                                          ",
"                                            ..XXXXXXXXXXXXXXXXXXXXXXXXXXOO....OOXXXX..                                          ",
"                                              ....XXXXXXXXXXXXXXXXXXXXXXOO....OOXX..                                            ",
"                                              ....XXXXXXXXXXXXXXXXXXXXXXOO....OOXX..                                            ",
"                                                  ................................                                              ",
"                                                  ................................                                              ",
"                                                      ....OOXXXXXXXXXXXXXX..OO....                                              ",
"                                                ..........OOXXXXXXXXXXXXXX..OO....                                              ",
"                                                ......OOOOXXXXXXXXXXXXXXXXXX..OOOO..                                            ",
"                                              ..@@@@@@@@@@XXXXXXXXXXXXXXXXXX..OOOO..                                            ",
"                                              ..@@@@@@@@@@XXXXXXXXXXXXXXXXXX..XX..                                              ",
"                                            ..@@@@@@@@@@@@@@XXXXXXXXXXXXXXXX..XX..                                              ",
"                                            ..@@@@@@@@@@@@@@XXXXXXXXXXOOXXOO..XX..                                              ",
"                                          ..@@@@OOOOOOOOOO@@@@XXXXXXXXOOXXOO..XX..                                              ",
"                                          ..@@@@OOOOOOOOOO@@@@XXXXXXOOOOXXOO..XX..                                              ",
"                                        ..@@@@OOOOOOOOOOOOOO@@@@XXXXOOOOXXOO..XX..                                              ",
"                                        ..@@@@OOOOOOOOOOOOOO@@@@XXXXXXXXXXXX..XX..                                              ",
"                                      ..@@@@OOOOOOXXOOXXOOOOOO@@@@XXXXXXXXXX..XX..                                              ",
"                                      ..@@@@OOOOOOXXOOXXOOOOOO@@@@XXOOOOXXOO..XX..                                              ",
"                                      ..@@@@OOOOXXXXOOXXXXOOOO@@@@XXOOOOXXOO..XX..                                              ",
"                                      ..@@@@OOOOXXXXOOXXXXOOOO@@@@XXXXOOXXOO..XX..                                              ",
"                                      ..@@@@OOOOOOOOOOOOOOOOOO@@@@XXXXOOXXOO..XX..                                              ",
"                                      ..@@@@OOOOOOOOOOOOOOOOOO@@@@XXXXXXXXXX......                                              ",
"                                      ..@@@@OOOOXXXXOOXXXXOOOO@@@@XXXXXXXXXX......                                              ",
"                                      ..@@@@OOOOXXXXOOXXXXOOOO@@@@XXXXXXXXXX..XX..                                              ",
"                                      ..@@@@OOOOOOXXOOXXOOOOOO@@@@XXXXXXXXXX..XX..                                              ",
"                                      ..@@@@OOOOOOXXOOXXOOOOOO@@@@XXXXXXXX....XX..                                              ",
"                                        ..@@@@OOOOOOOOOOOOOO@@@@XXXXXXXXXX....XX..                                              ",
"                                        ..@@@@OOOOOOOOOOOOOO@@@@............XX..                                                ",
"                                          ..@@@@OOOOOOOOOO@@@@..............XX..                                                ",
"                                          ..@@@@OOOOOOOOOO@@@@..XX....XX..  ..                                                  ",
"                                            ..@@@@@@@@@@@@@@....XX....XX..  ..                                                  ",
"                                            ..@@@@@@@@@@@@@@....XX....XX..                                                      ",
"                                              ..@@@@@@@@@@..  ..XX....XX..                                                      ",
"                                              ..@@@@@@@@@@..  ..XX....XX..                                                      ",
"                                                ..........    ..XX....XX..                                                      ",
"                                                ..........    ..XX....XX..                                                      ",
"                                                              ..XX....XX..                                                      ",
"                                                              ..XXOO..XXOO..                                                    ",
"                                                              ..XXOO..XXOO..                                                    ",
"                                                                ..........                                                      ",
"                                                                ..........                                                      ",
"                                                                                                                                ",
"                                                                                                                                ",
"                                                                                                                                ",
"                                                                                                                                ",
"                                                                                                                                ",
"                                                                                                                                ",
"                                                                                                                                ",
"                                                                                                                                ",
"                                                                                                                                ",
"                                                                                                                                ",
"                                                                                                                                ",
"                                                                                                                                ",
"                                                                                                                                ",
"                                                                                                                                ",
"                                                                                                                                ",
"                                                                                                                                ",
"                                                                                                                                ",
"                                                                                                                                ",
"                                                                                                                                ",
"                                                                                                                                ",
"                                                                                                                                ",
"                                                                                                                                ",
"                                                                                                                                ",
"                                                                                                                                ",
"                                                                                                                                ",
"                                                                                                                                ",
"                                                                                                                                ",
"                                                                                                                                "
};
