/* XPM */
static char *result[] = {
/* columns rows colors chars-per-pixel */
"128 128 7 1 ",
"  c black",
". c #433455",
"X c #6F6776",
"o c #C28D75",
"O c #D4AF9F",
"+ c #C5CCB8",
"@ c #D6DBCD",
/* pixels */
"                                                                                                                                ",
"                                                                                                                                ",
"                                                                                                                                ",
"                                                                                                                                ",
"                                                                                                                                ",
"                                                                                                                                ",
"                                                                                                                                ",
"                                                                                                                                ",
"                                                                                                                                ",
"                                                                                                                                ",
"                                                                                                                                ",
"                                                                                                                                ",
"                                                                                                                                ",
"                                                                                                                                ",
"                                                                                                                                ",
"                                                                                                                                ",
"                                                                                                                                ",
"                                                                                                                                ",
"                                        ......                                  ......                                          ",
"                                        ......                                  ......                                          ",
"                                      ....++..                                  ..@@....                                        ",
"                                      ....++..                                  ..@@....                                        ",
"                                      ..++....                                    ..@@....                                      ",
"                                      ..++....                                    ..@@....                                      ",
"                                    ....++..                                      ..@@@@..                                      ",
"                                    ....++..                                      ..@@@@..                                      ",
"                                    ..++++........                              ..++++@@..                                      ",
"                                    ..++++........                              ..++++@@..                                      ",
"                                    ..++++++++++..................................++++@@..                                      ",
"                                    ..++++++++++..................................++++@@..                                      ",
"                                    ....++++++....++++++++++++++++++++++++++++@@..++......                                      ",
"                                    ....++++++....++++++++++++++++++++++++++++@@..++......                                      ",
"                                      ....++....++++++++++++++++++++++++++++++@@......                                          ",
"                                      ....++....++++++++++++++++++++++++++++++@@......                                          ",
"                                        ......++++++++++++++++++++++++++++++++@@@@@@..                                          ",
"                                        ......++++++++++++++++++++++++++++++++@@@@@@..                                          ",
"                                            ..++++++++++++++++++++++++++++++++++++@@..                                          ",
"                                            ..++++++++++++++++++++++++++++++++++++@@..                                          ",
"                                            ..++++++++++++++++++++++++++++++++++++@@..                                          ",
"                                            ..++++++++++++++++++++++++++++++++++++@@..                                          ",
"                                            ..++++++++++++++++++++++++++++++++++++@@..                                          ",
"                                            ..++++++++++++++++++++++++++++++++++++@@..                                          ",
"                                            ..++++++++++++++++ooooooooooooooooooooOO..                                          ",
"                                            ..++++++++++++++++ooooooooooooooooooooOO..                                          ",
"                                            ..++++++++++++++oo........................                                          ",
"                                            ..++++++++++++++oo........................                                          ",
"                                            ..++++++++++++++++oo......................                                          ",
"                                            ..++++++++++++++++oo......................                                          ",
"                                            ..++++++++++++++++oooooooooooo....ooooOO..                                          ",
"                                            ..++++++++++++++++oooooooooooo....ooooOO..                                          ",
"                                            ..++++++++++++++++++++++++++oo....oo++++..                                          ",
"                                            ..++++++++++++++++++++++++++oo....oo++++..                                          ",
"                                            ..++++++++++++++++++++++++++oo....oo++++..                                          ",
"                                            ..++++++++++++++++++++++++++oo....oo++++..                                          ",
"                                            ..++++++++++++++++++++++++++oo....oo++++..                                          ",
"                                            ..++++++++++++++++++++++++++oo....oo++++..                                          ",
"                                            ..++++++++++++++++++++++++++oo....oo++++..                                          ",
"                                            ..++++++++++++++++++++++++++oo....oo++++..                                          ",
"                                            ......++++++++++++++++++++++oo....oo++....                                          ",
"                                            ......++++++++++++++++++++++oo....oo++....                                          ",
"                                                ....................................                                            ",
"                                                ....................................                                            ",
"                                            ....................................                                                ",
"                                            ....................................                                                ",
"                                          ....XXXXXXXXXX..oo++++++++++++++..oo......                                            ",
"                                          ....XXXXXXXXXX..oo++++++++++++++..oo......                                            ",
"                                        ....XXXXXXXXXXXXXX++++++++++++++++++..oooo..                                            ",
"                                        ....XXXXXXXXXXXXXX++++++++++++++++++..oooo..                                            ",
"                                      ....XXXXooooooooooXXXX++++++++++++++++..++....                                            ",
"                                      ....XXXXooooooooooXXXX++++++++++++++++..++....                                            ",
"                                      ..XXXXooooooooooooooXXXX++++++++oo++oo..++..                                              ",
"                                      ..XXXXooooooooooooooXXXX++++++++oo++oo..++..                                              ",
"                                      ..XXoooooo++oo++ooooooXXXX++++oooo++oo..++..                                              ",
"                                      ..XXoooooo++oo++ooooooXXXX++++oooo++oo..++..                                              ",
"                                      ..XXoooo++++oo++++ooooXXXX++++++++++++..++..                                              ",
"                                      ..XXoooo++++oo++++ooooXXXX++++++++++++..++..                                              ",
"                                      ..XXooooooooooooooooooXXXX++++oooo++oo..++..                                              ",
"                                      ..XXooooooooooooooooooXXXX++++oooo++oo..++..                                              ",
"                                      ..XXoooo++++oo++++ooooXXXX++++++oo++oo..++..                                              ",
"                                      ..XXoooo++++oo++++ooooXXXX++++++oo++oo..++..                                              ",
"                                      ..XXoooooo++oo++ooooooXXXX++++++++++++......                                              ",
"                                      ..XXoooooo++oo++ooooooXXXX++++++++++++......                                              ",
"                                      ..XXXXooooooooooooooXXXX++++++++++++++..++..                                              ",
"                                      ..XXXXooooooooooooooXXXX++++++++++++++..++..                                              ",
"                                      ....XXXXooooooooooXXXX..++++++++++++....++..                                              ",
"                                      ....XXXXooooooooooXXXX..++++++++++++....++..                                              ",
"                                        ....XXXXXXXXXXXXXX..................++....                                              ",
"                                        ....XXXXXXXXXXXXXX..................++....                                              ",
"                                          ....XXXXXXXXXX....  ..++....++........                                                ",
"                                          ....XXXXXXXXXX....  ..++....++........                                                ",
"                                            ..............    ..++....++..                                                      ",
"                                            ..............    ..++....++..                                                      ",
"                                                              ..++....++..                                                      ",
"                                                              ..++....++..                                                      ",
"                                                              ..++....++....                                                    ",
"                                                              ..++....++....                                                    ",
"                                                              ..++oo..++oo..                                                    ",
"                                                              ..++oo..++oo..                                                    ",
"                                                              ..............                                                    ",
"                                                              ..............                                                    ",
"                                                                                                                                ",
"                                                                                                                                ",
"                                                                                                                                ",
"                                                                                                                                ",
"                                                                                                                                ",
"                                                                                                                                ",
"                                                                                                                                ",
"                                                                                                                                ",
"                                                                                                                                ",
"                                                                                                                                ",
"                                                                                                                                ",
"                                                                                                                                ",
"                                                                                                                                ",
"                                                                                                                                ",
"                                                                                                                                ",
"                                                                                                                                ",
"                                                                                                                                ",
"                                                                                                                                ",
"                                                                                                                                ",
"                                                                                                                                ",
"                                                                                                                                ",
"                                                                                                                                ",
"                                                                                                                                ",
"                                                                                                                                ",
"                                                                                                                                ",
"                                                                                                                                ",
"                                                                                                                                ",
"                                                                                                                                "
};
