/* XPM */
static char *result[] = {
/* columns rows colors chars-per-pixel */
"128 128 8 1 ",
"  c black",
". c #433455",
"X c #C5CCB8",
"o c #D6DBCD",
"O c #C28D75",
"+ c #D4AF9F",
"@ c #6F6776",
"# c white",
/* pixels */
"                                                                                                                                ",
"                                                                                                                                ",
"                                                                                                                                ",
"                                                                                                                                ",
"                                                                                                                                ",
"                                                                                                                                ",
"                                                                                                                                ",
"                                                                                                                                ",
"                                                                                                                                ",
"                                                                                                                                ",
"                                                                                                                                ",
"                                                                                                                                ",
"                                                                                                                                ",
"                                                                                                                                ",
"                                                                                                                                ",
"                                                                                                                                ",
"                                                                                                                                ",
"                                                                                                                                ",
"                                                                                                                                ",
"                                          ..                                      ..                                            ",
"                                          ..                                      ..                                            ",
"                                        ..XX..                                  ..oo..                                          ",
"                                        ..XX..                                  ..oo..                                          ",
"                                      ..XX..                                      ..oo..                                        ",
"                                      ..XX..                                      ..oo..                                        ",
"                                      ..XX..                                      ..oooo..                                      ",
"                                      ..XX..                                      ..oooo..                                      ",
"                                    ..XXXX......                                ..XXXXoo..                                      ",
"                                    ..XXXX......                                ..XXXXoo..                                      ",
"                                    ..XXXXXXXXXX..................................XXXXoo..                                      ",
"                                    ..XXXXXXXXXX..................................XXXXoo..                                      ",
"                                      ..XXXXXX....XXXXXXXXXXXXXXXXXXXXXXXXXXXXoo..XX....                                        ",
"                                      ..XXXXXX....XXXXXXXXXXXXXXXXXXXXXXXXXXXXoo..XX....                                        ",
"                                        ..XX....XXXXXXXXXXXXXXXXXXXXXXXXXXXXXXoo......                                          ",
"                                        ..XX....XXXXXXXXXXXXXXXXXXXXXXXXXXXXXXoo......                                          ",
"                                          ....XXXXXXXXXXXXXXXXXXXXXXXXXXXXXXXXoooooo..                                          ",
"                                          ....XXXXXXXXXXXXXXXXXXXXXXXXXXXXXXXXoooooo..                                          ",
"                                            ..XXXXXXXXXXXXXXXXXXXXXXXXXXXXXXXXXXXXoo..                                          ",
"                                            ..XXXXXXXXXXXXXXXXXXXXXXXXXXXXXXXXXXXXoo..                                          ",
"                                            ..XXXXXXXXXXXXXXXXXXXXXXXXXXXXXXXXXXXXoo..                                          ",
"                                            ..XXXXXXXXXXXXXXXXXXXXXXXXXXXXXXXXXXXXoo..                                          ",
"                                            ..XXXXXXXXXXXXXXXXXXXXXXXXXXXXXXXXXXXXoo..                                          ",
"                                            ..XXXXXXXXXXXXXXXXXXXXXXXXXXXXXXXXXXXXoo..                                          ",
"                                            ..XXXXXXXXXXXXXXXXOOOOOOOOOOOOOOOOOOOO++..                                          ",
"                                            ..XXXXXXXXXXXXXXXXOOOOOOOOOOOOOOOOOOOO++..                                          ",
"                                            ..XXXXXXXXXXXXXXOO........................                                          ",
"                                            ..XXXXXXXXXXXXXXOO........................                                          ",
"                                            ..XXXXXXXXXXXXXXXXOO......................                                          ",
"                                            ..XXXXXXXXXXXXXXXXOO......................                                          ",
"                                            ..XXXXXXXXXXXXXXXXOOOOOOOOOOOO....OOOO++..                                          ",
"                                            ..XXXXXXXXXXXXXXXXOOOOOOOOOOOO....OOOO++..                                          ",
"                                            ..XXXXXXXXXXXXXXXXXXXXXXXXXXOO....OOXXXX..                                          ",
"                                            ..XXXXXXXXXXXXXXXXXXXXXXXXXXOO....OOXXXX..                                          ",
"                                            ..XXXXXXXXXXXXXXXXXXXXXXXXXXOO....OOXXXX..                                          ",
"                                            ..XXXXXXXXXXXXXXXXXXXXXXXXXXOO....OOXXXX..                                          ",
"                                            ..XXXXXXXXXXXXXXXXXXXXXXXXXXOO....OOXXXX..                                          ",
"                                            ..XXXXXXXXXXXXXXXXXXXXXXXXXXOO....OOXXXX..                                          ",
"                                            ..XXXXXXXXXXXXXXXXXXXXXXXXXXOO....OOXXXX..                                          ",
"                                            ..XXXXXXXXXXXXXXXXXXXXXXXXXXOO....OOXXXX..                                          ",
"                                              ....XXXXXXXXXXXXXXXXXXXXXXOO....OOXX..                                            ",
"                                              ....XXXXXXXXXXXXXXXXXXXXXXOO....OOXX..                                            ",
"                                                  ................................                                              ",
"                                                  ................................                                              ",
"                                                  ................................                                              ",
"                                                ..........OOXXXXXXXXXXXXXX...OO....                                             ",
"                                                ..........OOXXXXXXXXXXXXXX...OO....                                             ",
"                                              ..@@@@@@@@@@XXXXXXXXXXXXXXXXXX...OOOO..                                           ",
"                                              ..@@@@@@@@@@XXXXXXXXXXXXXXXXXX...OOOO..                                           ",
"                                            ..@@@@@@@@@@@@@@XXXXXXXXXXXXXXXX...XX..                                             ",
"                                            ..@@@@@@@@@@@@@@XXXXXXXXXXXXXXXX...XX..                                             ",
"                                          ..@@@@OOOOOOOOOO@@@@XXXXXXXXOOXXOO...XX..                                             ",
"                                          ..@@@@OOOOOOOOOO@@@@XXXXXXXXOOXXOO...XX..                                             ",
"                                        ..@@@@OOOOOOOOOOOOOO@@@@XXXXOOOOXXOO...XX..                                             ",
"                                        ..@@@@OOOOOOOOOOOOOO@@@@XXXXOOOOXXOO...XX..                                             ",
"                                      ..@@@@OOOOOOXXOOXXOOOOOO@@@@XXXXXXXXXX...XX..                                             ",
"                                      ..@@@@OOOOOOXXOOXXOOOOOO@@@@XXXXXXXXXX...XX..                                             ",
"                                      ..@@@@OOOOXXXXOOXXXXOOOO@@@@XXOOOOXXOO...XX..                                             ",
"                                      ..@@@@OOOOXXXXOOXXXXOOOO@@@@XXOOOOXXOO...XX..                                             ",
"                                      ..@@@@OOOOOOOOOOOOOOOOOO@@@@XXXXOOXXOO...XX..                                             ",
"                                      ..@@@@OOOOOOOOOOOOOOOOOO@@@@XXXXOOXXOO...XX..                                             ",
"                                      ..@@@@OOOOXXXXOOXXXXOOOO@@@@XXXXXXXXXX.......                                             ",
"                                      ..@@@@OOOOXXXXOOXXXXOOOO@@@@XXXXXXXXXX.......                                             ",
"                                      ..@@@@OOOOOOXXOOXXOOOOOO@@@@XXXXXXXXXX...XX..                                             ",
"                                      ..@@@@OOOOOOXXOOXXOOOOOO@@@@XXXXXXXXXX...XX..                                             ",
"                                        ..@@@@OOOOOOOOOOOOOO@@@@XXXXXXXXXX.....XX..                                             ",
"                                        ..@@@@OOOOOOOOOOOOOO@@@@XXXXXXXXXX.....XX..                                             ",
"                                          ..@@@@OOOOOOOOOO@@@@...............XX..                                               ",
"                                          ..@@@@OOOOOOOOOO@@@@...............XX..                                               ",
"                                            ..@@@@@@@@@@@@@@....XX....XX..  ...                                                 ",
"                                            ..@@@@@@@@@@@@@@....XX....XX..  ...                                                 ",
"                                              ..@@@@@@@@@@..  ..XX....XX..                                                      ",
"                                              ..@@@@@@@@@@..  ..XX....XX..                                                      ",
"                                                ..........    ..XX....XX..                                                      ",
"                                                ..........    ..XX....XX..                                                      ",
"                                                              ..XX....XX..                                                      ",
"                                                              ..XX....XX..                                                      ",
"                                                              ..XXOO..XXOO..                                                    ",
"                                                              ..XXOO..XXOO..                                                    ",
"                                                                ..........                                                      ",
"                                                                ..........                                                      ",
"                                                                                                                                ",
"                                                                                                                                ",
"                                                                                                                                ",
"                                                                                                                                ",
"                                                                                                                                ",
"                                                                                                                                ",
"                                                                                                                                ",
"                                                                                                                                ",
"                                                                                                                                ",
"                                                                                                                                ",
"                                                                                                                                ",
"                                                                                                                                ",
"                                                                                                                                ",
"                                                                                                                                ",
"                                                                                                                                ",
"                                                                                                                                ",
"                                                                                                                                ",
"                                                                                                                                ",
"                                                                                                                                ",
"                                                                                                                                ",
"                                                                                                                                ",
"                                                                                                                                ",
"                                                                                                                                ",
"                                                                                                                                ",
"                                                                                                                                ",
"                                                                                                                                ",
"                                                                                                                                ",
"                                                                                                                                "
};
