/* XPM */
static char *result[] = {
/* columns rows colors chars-per-pixel */
"128 128 7 1 ",
"  c black",
". c #433455",
"X c #6F6776",
"o c #C28D75",
"O c #D4AF9F",
"+ c #C5CCB8",
"@ c #D6DBCD",
/* pixels */
"                                                                                                                                ",
"                                                                                                                                ",
"                                                                                                                                ",
"                                                                                                                                ",
"                                                                                                                                ",
"                                                                                                                                ",
"                                                                                                                                ",
"                                                                                                                                ",
"                                                                                                                                ",
"                                                                                                                                ",
"                                                                                                                                ",
"                                                                                                                                ",
"                                                                                                                                ",
"                                                                                                                                ",
"                                                                                                                                ",
"                                                                                                                                ",
"                                                                                                                                ",
"                                                                                                                                ",
"                                                                                                                                ",
"                                                                                                                                ",
"                                          ..                                      ..                                            ",
"                                          ..                                      ..                                            ",
"                                        ..++..                                  ..@@..                                          ",
"                                        ..++..                                  ..@@..                                          ",
"                                      ..++..                                      ..@@..                                        ",
"                                      ..++..                                      ..@@..                                        ",
"                                      ..++..                                      ..@@@@..                                      ",
"                                      ..++..                                      ..@@@@..                                      ",
"                                    ..++++......                                ..++++@@..                                      ",
"                                    ..++++......                                ..++++@@..                                      ",
"                                    ..++++++++++..................................++++@@..                                      ",
"                                    ..++++++++++..................................++++@@..                                      ",
"                                      ..++++++....++++++++++++++++++++++++++++@@..++....                                        ",
"                                      ..++++++....++++++++++++++++++++++++++++@@..++....                                        ",
"                                        ..++....++++++++++++++++++++++++++++++@@......                                          ",
"                                        ..++....++++++++++++++++++++++++++++++@@......                                          ",
"                                          ....++++++++++++++++++++++++++++++++@@@@@@..                                          ",
"                                          ....++++++++++++++++++++++++++++++++@@@@@@..                                          ",
"                                            ..++++++++++++++++++++++++++++++++++++@@..                                          ",
"                                            ..++++++++++++++++++++++++++++++++++++@@..                                          ",
"                                            ..++++++++++++++++++++++++++++++++++++@@..                                          ",
"                                            ..++++++++++++++++++++++++++++++++++++@@..                                          ",
"                                            ..++++++++++++++++++++++++++++++++++++@@..                                          ",
"                                            ..++++++++++++++++++++++++++++++++++++@@..                                          ",
"                                            ..++++++++++++++++ooooooooooooooooooooOO..                                          ",
"                                            ..++++++++++++++++ooooooooooooooooooooOO..                                          ",
"                                            ..++++++++++++++oo........................                                          ",
"                                            ..++++++++++++++oo........................                                          ",
"                                            ..++++++++++++++++oo......................                                          ",
"                                            ..++++++++++++++++oo......................                                          ",
"                                            ..++++++++++++++++oooooooooooo....ooooOO..                                          ",
"                                            ..++++++++++++++++oooooooooooo....ooooOO..                                          ",
"                                            ..++++++++++++++++++++++++++oo....oo++++..                                          ",
"                                            ..++++++++++++++++++++++++++oo....oo++++..                                          ",
"                                            ..++++++++++++++++++++++++++oo....oo++++..                                          ",
"                                            ..++++++++++++++++++++++++++oo....oo++++..                                          ",
"                                            ..++++++++++++++++++++++++++oo....oo++++..                                          ",
"                                            ..++++++++++++++++++++++++++oo....oo++++..                                          ",
"                                            ..++++++++++++++++++++++++++oo....oo++++..                                          ",
"                                            ..++++++++++++++++++++++++++oo....oo++++..                                          ",
"                                              ....++++++++++++++++++++++oo....oo++..                                            ",
"                                              ....++++++++++++++++++++++oo....oo++..                                            ",
"                                                  ................................                                              ",
"                                                  ................................                                              ",
"                                                      ....oo++++++++++++++..oo....                                              ",
"                                                      ....oo++++++++++++++..oo....                                              ",
"                                                ......oooo++++++++++++++++++..oooo..                                            ",
"                                                ......oooo++++++++++++++++++..oooo..                                            ",
"                                              ..XXXXXXXXXX++++++++++++++++++..++..                                              ",
"                                              ..XXXXXXXXXX++++++++++++++++++..++..                                              ",
"                                            ..XXXXXXXXXXXXXX++++++++++oo++oo..++..                                              ",
"                                            ..XXXXXXXXXXXXXX++++++++++oo++oo..++..                                              ",
"                                          ..XXXXooooooooooXXXX++++++oooo++oo..++..                                              ",
"                                          ..XXXXooooooooooXXXX++++++oooo++oo..++..                                              ",
"                                        ..XXXXooooooooooooooXXXX++++++++++++..++..                                              ",
"                                        ..XXXXooooooooooooooXXXX++++++++++++..++..                                              ",
"                                      ..XXXXoooooo++oo++ooooooXXXX++oooo++oo..++..                                              ",
"                                      ..XXXXoooooo++oo++ooooooXXXX++oooo++oo..++..                                              ",
"                                      ..XXXXoooo++++oo++++ooooXXXX++++oo++oo..++..                                              ",
"                                      ..XXXXoooo++++oo++++ooooXXXX++++oo++oo..++..                                              ",
"                                      ..XXXXooooooooooooooooooXXXX++++++++++......                                              ",
"                                      ..XXXXooooooooooooooooooXXXX++++++++++......                                              ",
"                                      ..XXXXoooo++++oo++++ooooXXXX++++++++++..++..                                              ",
"                                      ..XXXXoooo++++oo++++ooooXXXX++++++++++..++..                                              ",
"                                      ..XXXXoooooo++oo++ooooooXXXX++++++++....++..                                              ",
"                                      ..XXXXoooooo++oo++ooooooXXXX++++++++....++..                                              ",
"                                        ..XXXXooooooooooooooXXXX............++..                                                ",
"                                        ..XXXXooooooooooooooXXXX............++..                                                ",
"                                          ..XXXXooooooooooXXXX..++....++..  ..                                                  ",
"                                          ..XXXXooooooooooXXXX..++....++..  ..                                                  ",
"                                            ..XXXXXXXXXXXXXX....++....++..                                                      ",
"                                            ..XXXXXXXXXXXXXX....++....++..                                                      ",
"                                              ..XXXXXXXXXX..  ..++....++..                                                      ",
"                                              ..XXXXXXXXXX..  ..++....++..                                                      ",
"                                                ..........    ..++....++..                                                      ",
"                                                ..........    ..++....++..                                                      ",
"                                                              ..++oo..++oo..                                                    ",
"                                                              ..++oo..++oo..                                                    ",
"                                                                ..........                                                      ",
"                                                                ..........                                                      ",
"                                                                                                                                ",
"                                                                                                                                ",
"                                                                                                                                ",
"                                                                                                                                ",
"                                                                                                                                ",
"                                                                                                                                ",
"                                                                                                                                ",
"                                                                                                                                ",
"                                                                                                                                ",
"                                                                                                                                ",
"                                                                                                                                ",
"                                                                                                                                ",
"                                                                                                                                ",
"                                                                                                                                ",
"                                                                                                                                ",
"                                                                                                                                ",
"                                                                                                                                ",
"                                                                                                                                ",
"                                                                                                                                ",
"                                                                                                                                ",
"                                                                                                                                ",
"                                                                                                                                ",
"                                                                                                                                ",
"                                                                                                                                ",
"                                                                                                                                ",
"                                                                                                                                ",
"                                                                                                                                ",
"                                                                                                                                "
};
