/* XPM */
static char *result[] = {
/* columns rows colors chars-per-pixel */
"128 128 7 1 ",
"  c black",
". c #2F243B",
"X c #6F6776",
"o c #876252",
"O c #C28D75",
"+ c #C5CCB8",
"@ c None",
/* pixels */
"                                                                                                                                ",
"                                                                                                                                ",
"                                                                                                                                ",
"                                                                                                                                ",
"                                                                                                                                ",
"                                                                                                                                ",
"                                                                                                                                ",
"                                                                                                                                ",
"                                                                                                                                ",
"                                                                                                                                ",
"                                                                                                                                ",
"                                                                                                                                ",
"                                                                                                                                ",
"                                                                                                                                ",
"                                                                                                                                ",
"                                                                                                                                ",
"                                                                                                                                ",
"                                                                                                                                ",
"                                                                                                                                ",
"                                                                                                                                ",
"                                                                                                                                ",
"                                                                                                                                ",
"                                                                                                                                ",
"                                                                                                                                ",
"                                                                                                                                ",
"                                                                                                                                ",
"                                                                                                                                ",
"                                                                                                                                ",
"                                                                                                                                ",
"                                                                                                                                ",
"                                                                                                                                ",
"                                                                                                                                ",
"                                                          XXXXXXXXXXXXXXXXXXXXXX                                                ",
"                                                          XXXXXXXXXXXXXXXXXXXXXX                                                ",
"                                                      XXXX++++++++++++++++++++++XXXX                                            ",
"                                                      XXXX++++++++++++++++++++++XXXX                                            ",
"                                                    XX++++++++++++++++++++++++++++++XX                                          ",
"                                                    XX++++++++++++++++++++++++++++++XX                                          ",
"                                                  XX++++++++++++++++++++++++++++++++++XX                                        ",
"                                                  XX++++++++++++++++++++++++++++++++++XX                                        ",
"                                                  XX++++++++++++++++++++++++++++++++++XX                                        ",
"                                                  XX++++++++++++++++++++++++++++++++++XX                                        ",
"                                                XX++++++++++++++++++++++++++++++++++++++XX                                      ",
"                                                XX++++++++++++++++++++++++++++++++++++++XX                                      ",
"                                                XX++++++++++++++++++++++++++++++++++++++XX                                      ",
"                                                XX++++++++++++++++++++++++++++++++++++++XX                                      ",
"                                                XX++++++++++++++++++++++++++++++++++++++XX                                      ",
"                                                XX++++++++++++++++++++++++++++++++++++++XX                                      ",
"                                                XX++++++++++++++++OO++++++++++OO++++++++XX                                      ",
"                                                XX++++++++++++++++OO++++++++++OO++++++++XX                                      ",
"                                                XX++++++++++++++++++++++++++++++++++++++XX                                      ",
"                                                XX++++++++++++++++++++++++++++++++++++++XX                                      ",
"                                                XX++++++++....XX++............XX++XX++++XX                                      ",
"                                                XX++++++++....XX++............XX++XX++++XX                                      ",
"                                                XX++++++++........................XX++++XX                                      ",
"                                                XX++++++++........................XX++++XX                                      ",
"                                                XX++++++++........................XX++++XX                                      ",
"                                                XX++++++++........................XX++++XX                                      ",
"                                                XX++++++++........................XX++++XX                                      ",
"                                                XX++++++++........................XX++++XX                                      ",
"                                                XX++++++++........................XX++++XX                                      ",
"                                                XX++++++++........................XX++++XX                                      ",
"                                                XX++++++++........................XX++++XX                                      ",
"                                                XX++++++++........................XX++++XX                                      ",
"                                              XX++++++++++++......ooooOOOOooOOXXXX++++++XX                                      ",
"                                              XX++++++++++++......ooooOOOOooOOXXXX++++++XX                                      ",
"                                              XX++++++++++++++++++++ooOOOOooOO++++++++++XX                                      ",
"                                              XX++++++++++++++++++++ooOOOOooOO++++++++++XX                                      ",
"                                          XXXX++++++++++++++++++++++ooOOOOooOO++++++++++XX                                      ",
"                                          XXXX++++++++++++++++++++++ooOOOOooOO++++++++++XX                                      ",
"                                      XXXX++++++++++++++++++++++++++ooOOOOooOO++++++++++XX                                      ",
"                                      XXXX++++++++++++++++++++++++++ooOOOOooOO++++++++++XX                                      ",
"                                    XX++++++++++++++++++++++++++++++ooOOOOooOO++++++++++XX                                      ",
"                                    XX++++++++++++++++++++++++++++++ooOOOOooOO++++++++++XX                                      ",
"                                      XX++++++++++++++++++++++++++++ooOOOOOOOO++++++++++XX                                      ",
"                                      XX++++++++++++++++++++++++++++ooOOOOOOOO++++++++++XX                                      ",
"                                    XX++XX++++++++++++++++++++++++++ooOOOOOOOO++++++++++XX                                      ",
"                                    XX++XX++++++++++++++++++++++++++ooOOOOOOOO++++++++++XX                                      ",
"                                  XX@@XX++++++++++++++++++++++++++++++++++++++++++++++++XX                                      ",
"                                  XX@@XX++++++++++++++++++++++++++++++++++++++++++++++++XX                                      ",
"                                    XX++++++++++++++++++++++++++++++++++++++++++++++++++XX                                      ",
"                                    XX++++++++++++++++++++++++++++++++++++++++++++++++++XX                                      ",
"                                  XX@@XX++XX++++++++++++++++++++++++++++++++++++++++XX++XX                                      ",
"                                  XX@@XX++XX++++++++++++++++++++++++++++++++++++++++XX++XX                                      ",
"                                XX@@XX@@XX++XX++++++++++++++++++++XX++++++++++++++XX@@XX                                        ",
"                                XX@@XX@@XX++XX++++++++++++++++++++XX++++++++++++++XX@@XX                                        ",
"                                  XX@@XX@@XX++++++XX++XX++XX++XXXX++++XX++++++++XX@@XX                                          ",
"                                  XX@@XX@@XX++++++XX++XX++XX++XXXX++++XX++++++++XX@@XX                                          ",
"                                    XX@@XX@@XX++XX++XX++XX++XX++XX++XX++XX++++XX  XX                                            ",
"                                    XX@@XX@@XX++XX++XX++XX++XX++XX++XX++XX++++XX  XX                                            ",
"                                  XX@@XX@@XX@@XX@@XX@@XX@@XX@@XX@@XX@@XX@@XXXX                                                  ",
"                                  XX@@XX@@XX@@XX@@XX@@XX@@XX@@XX@@XX@@XX@@XXXX                                                  ",
"                                    XX@@XX  XX@@XX  XXXXXX  XX  XX  XX  XX                                                      ",
"                                    XX@@XX  XX@@XX  XXXXXX  XX  XX  XX  XX                                                      ",
"                                      XX      XX    XX      XX      XX                                                          ",
"                                      XX      XX    XX      XX      XX                                                          ",
"                                                                                                                                ",
"                                                                                                                                ",
"                                                                                                                                ",
"                                                                                                                                ",
"                                                                                                                                ",
"                                                                                                                                ",
"                                                                                                                                ",
"                                                                                                                                ",
"                                                                                                                                ",
"                                                                                                                                ",
"                                                                                                                                ",
"                                                                                                                                ",
"                                                                                                                                ",
"                                                                                                                                ",
"                                                                                                                                ",
"                                                                                                                                ",
"                                                                                                                                ",
"                                                                                                                                ",
"                                                                                                                                ",
"                                                                                                                                ",
"                                                                                                                                ",
"                                                                                                                                ",
"                                                                                                                                ",
"                                                                                                                                ",
"                                                                                                                                ",
"                                                                                                                                ",
"                                                                                                                                ",
"                                                                                                                                ",
"                                                                                                                                ",
"                                                                                                                                ",
"                                                                                                                                ",
"                                                                                                                                "
};
