/* XPM */
static char *result[] = {
/* columns rows colors chars-per-pixel */
"128 128 7 1 ",
"  c black",
". c #2F243B",
"X c #433455",
"o c #6F6776",
"O c #876252",
"+ c #C28D75",
"@ c #C5CCB8",
/* pixels */
"                                                                                                                                ",
"                                                                                                                                ",
"                                                                                                                                ",
"                                                                                                                                ",
"                                                                                                                                ",
"                                                                                                                                ",
"                                                                                                                                ",
"                                                                                                                                ",
"                                                                                                                                ",
"                                                                                                                                ",
"                                                                                                                                ",
"                                                                                                                                ",
"                                                                                                                                ",
"                                                                                                                                ",
"                                                                                                                                ",
"                                                                                                                                ",
"                                                                                                                                ",
"                                                                                                                                ",
"                                                                                                                                ",
"                                                                                                                                ",
"                                                                                                                                ",
"                                                                                                                                ",
"                                                                                                                                ",
"                                                                                                                                ",
"                                                                                                                                ",
"                                                                                                                                ",
"                                                          oooooooooooooooooooooo                                                ",
"                                                          oooooooooooooooooooooo                                                ",
"                                                      oooo@@@@@@@@@@@@@@@@@@@@@@oooo                                            ",
"                                                      oooo@@@@@@@@@@@@@@@@@@@@@@oooo                                            ",
"                                                    oo@@@@@@@@@@@@@@@@@@@@@@@@@@@@@@oo                                          ",
"                                                    oo@@@@@@@@@@@@@@@@@@@@@@@@@@@@@@oo                                          ",
"                                                  oo@@@@@@@@@@@@@@@@@@@@@@@@@@@@@@@@@@oo                                        ",
"                                                  oo@@@@@@@@@@@@@@@@@@@@@@@@@@@@@@@@@@oo                                        ",
"                                                  oo@@@@@@@@@@@@@@@@@@@@@@@@@@@@@@@@@@oo                                        ",
"                                                  oo@@@@@@@@@@@@@@@@@@@@@@@@@@@@@@@@@@oo                                        ",
"                                                oo@@@@@@@@@@@@@@@@@@@@@@@@@@@@@@@@@@@@@@oo                                      ",
"                                                oo@@@@@@@@@@@@@@@@@@@@@@@@@@@@@@@@@@@@@@oo                                      ",
"                                                oo@@@@@@@@@@@@@@@@@@@@@@@@@@@@@@@@@@@@@@oo                                      ",
"                                                oo@@@@@@@@@@@@@@@@@@@@@@@@@@@@@@@@@@@@@@oo                                      ",
"                                                oo@@@@@@@@@@@@@@@@@@@@@@@@@@@@@@@@@@@@@@oo                                      ",
"                                                oo@@@@@@@@@@@@@@@@@@@@@@@@@@@@@@@@@@@@@@oo                                      ",
"                                                oo@@@@@@@@@@@@@@@@++@@@@@@@@@@++@@@@@@@@oo                                      ",
"                                                oo@@@@@@@@@@@@@@@@++@@@@@@@@@@++@@@@@@@@oo                                      ",
"                                                oo@@@@@@@@@@@@@@@@@@@@@@@@@@@@@@@@@@@@@@oo                                      ",
"                                                oo@@@@@@@@@@@@@@@@@@@@@@@@@@@@@@@@@@@@@@oo                                      ",
"                                                oo@@@@@@@@....oo@@............oo@@oo@@@@oo                                      ",
"                                                oo@@@@@@@@....oo@@............oo@@oo@@@@oo                                      ",
"                                                oo@@@@@@@@........................oo@@@@oo                                      ",
"                                                oo@@@@@@@@........................oo@@@@oo                                      ",
"                                                oo@@@@@@@@........................oo@@@@oo                                      ",
"                                                oo@@@@@@@@........................oo@@@@oo                                      ",
"                                                oo@@@@@@@@@@@@....OOOO++++OO++....@@@@@@oo                                      ",
"                                                oo@@@@@@@@@@@@....OOOO++++OO++....@@@@@@oo                                      ",
"                                                oo@@@@@@@@@@@@@@@@@@OO++++OO++@@@@@@@@@@oo                                      ",
"                                                oo@@@@@@@@@@@@@@@@@@OO++++OO++@@@@@@@@@@oo                                      ",
"                                                oo@@@@@@@@@@@@@@@@@@OO++++OO++@@@@@@@@@@oo                                      ",
"                                                oo@@@@@@@@@@@@@@@@@@OO++++OO++@@@@@@@@@@oo                                      ",
"                                              oo@@@@@@@@@@@@@@@@@@@@OO++++OO++@@@@@@@@@@oo                                      ",
"                                              oo@@@@@@@@@@@@@@@@@@@@OO++++OO++@@@@@@@@@@oo                                      ",
"                                              oo@@@@@@@@@@@@@@@@@@@@OO++++OO++@@@@@@@@@@oo                                      ",
"                                              oo@@@@@@@@@@@@@@@@@@@@OO++++OO++@@@@@@@@@@oo                                      ",
"                                          oooo@@@@@@@@@@@@@@@@@@@@@@OO++++++++@@@@@@@@@@oo                                      ",
"                                          oooo@@@@@@@@@@@@@@@@@@@@@@OO++++++++@@@@@@@@@@oo                                      ",
"                                      oooo@@@@@@@@@@@@@@@@@@@@@@@@@@OO++++++++@@@@@@@@@@oo                                      ",
"                                      oooo@@@@@@@@@@@@@@@@@@@@@@@@@@OO++++++++@@@@@@@@@@oo                                      ",
"                                    oo@@@@@@@@@@@@@@@@@@@@@@@@@@@@@@@@@@@@@@@@@@@@@@@@@@oo                                      ",
"                                    oo@@@@@@@@@@@@@@@@@@@@@@@@@@@@@@@@@@@@@@@@@@@@@@@@@@oo                                      ",
"                                      oo@@@@@@@@@@@@@@@@@@@@@@@@@@@@@@@@@@@@@@@@@@@@@@@@oo                                      ",
"                                      oo@@@@@@@@@@@@@@@@@@@@@@@@@@@@@@@@@@@@@@@@@@@@@@@@oo                                      ",
"                                    oo@@oo@@@@@@@@@@@@@@@@@@@@@@@@@@@@@@@@@@@@@@@@@@@@@@oo                                      ",
"                                    oo@@oo@@@@@@@@@@@@@@@@@@@@@@@@@@@@@@@@@@@@@@@@@@@@@@oo                                      ",
"                                  ooXXoo@@@@@@@@@@@@@@@@@@@@@@@@@@@@@@@@@@@@@@@@@@@@@@@@oo                                      ",
"                                  ooXXoo@@@@@@@@@@@@@@@@@@@@@@@@@@@@@@@@@@@@@@@@@@@@@@@@oo                                      ",
"                                    oo@@@@@@@@@@@@@@@@@@@@@@@@@@@@@@@@@@@@@@@@@@@@@@@@@@oo                                      ",
"                                    oo@@@@@@@@@@@@@@@@@@@@@@@@@@@@@@@@@@@@@@@@@@@@@@@@@@oo                                      ",
"                                  ooXXoo@@oo@@@@@@@@@@@@@@@@@@@@@@@@@@@@@@@@@@@@@@@@oo@@oo                                      ",
"                                  ooXXoo@@oo@@@@@@@@@@@@@@@@@@@@@@@@@@@@@@@@@@@@@@@@oo@@oo                                      ",
"                                ooXXooXXoo@@oo@@@@@@@@@@@@@@@@@@@@oo@@@@@@@@@@@@@@ooXXoo                                        ",
"                                ooXXooXXoo@@oo@@@@@@@@@@@@@@@@@@@@oo@@@@@@@@@@@@@@ooXXoo                                        ",
"                                  ooXXooXXoo@@@@@@oo@@oo@@oo@@oooo@@@@oo@@@@@@@@ooXXoo                                          ",
"                                  ooXXooXXoo@@@@@@oo@@oo@@oo@@oooo@@@@oo@@@@@@@@ooXXoo                                          ",
"                                    ooXXooXXoo@@oo@@oo@@oo@@oo@@oo@@oo@@oo@@@@oo  oo                                            ",
"                                    ooXXooXXoo@@oo@@oo@@oo@@oo@@oo@@oo@@oo@@@@oo  oo                                            ",
"                                  ooXXooXXooXXooXXooXXooXXooXXooXXooXXooXXoooo                                                  ",
"                                  ooXXooXXooXXooXXooXXooXXooXXooXXooXXooXXoooo                                                  ",
"                                    ooXXoo  ooXXoo  oooooo  oo  oo  oo  oo                                                      ",
"                                    ooXXoo  ooXXoo  oooooo  oo  oo  oo  oo                                                      ",
"                                      oo      oo    oo      oo      oo                                                          ",
"                                      oo      oo    oo      oo      oo                                                          ",
"                                                                                                                                ",
"                                                                                                                                ",
"                                                                                                                                ",
"                                                                                                                                ",
"                                                                                                                                ",
"                                                                                                                                ",
"                                                                                                                                ",
"                                                                                                                                ",
"                                                                                                                                ",
"                                                                                                                                ",
"                                                                                                                                ",
"                                                                                                                                ",
"                                                                                                                                ",
"                                                                                                                                ",
"                                                                                                                                ",
"                                                                                                                                ",
"                                                                                                                                ",
"                                                                                                                                ",
"                                                                                                                                ",
"                                                                                                                                ",
"                                                                                                                                ",
"                                                                                                                                ",
"                                                                                                                                ",
"                                                                                                                                ",
"                                                                                                                                ",
"                                                                                                                                ",
"                                                                                                                                ",
"                                                                                                                                ",
"                                                                                                                                ",
"                                                                                                                                ",
"                                                                                                                                ",
"                                                                                                                                ",
"                                                                                                                                ",
"                                                                                                                                ",
"                                                                                                                                ",
"                                                                                                                                ",
"                                                                                                                                ",
"                                                                                                                                "
};
