/* XPM */
static char *result[] = {
/* columns rows colors chars-per-pixel */
"128 128 4 1 ",
"  c #433455",
". c #6F6776",
"X c #C28D75",
"o c #C5CCB8",
/* pixels */
"oooooooooooooooooooooooooooooooooooooooooooooooooooooooooooooooooooooooooooooooooooooooooooooooooooooooooooooooooooooooooooooooo",
"oooooooooooooooooooooooooooooooooooooooooooooooooooooooooooooooooooooooooooooooooooooooooooooooooooooooooooooooooooooooooooooooo",
"                          oo                                      oo                                      oo                    ",
"                          oo                                      oo                                      oo                    ",
"                          oo                                      oo                                      oo                    ",
"                          oo                                      oo                                      oo                    ",
"                          oo                                      oo                                      oo                    ",
"                          oo                                      oo                                      oo                    ",
"                          oo                                      oo                                      oo                    ",
"                          oo                                      oo                                      oo                    ",
"                          oo                                      oo                                      oo                    ",
"                          oo                                      oo                                      oo                    ",
"                          oo                                      oo                                      oo                    ",
"                          oo                                      oo                                      oo                    ",
"oooooooooooooooooooooooooooooooooooooooooooooooooooooooooooooooooooooooooooooooooooooooooooooooooooooooooooooooooooooooooooooooo",
"oooooooooooooooooooooooooooooooooooooooooooooooooooooooooooooooooooooooooooooooooooooooooooooooooooooooooooooooooooooooooooooooo",
"    oo                                      oo                                      oo                                      oo  ",
"    oo                                      oo                                      oo                                      oo  ",
"    oo                                      oo                                      oo                                      oo  ",
"    oo                                      oo                                      oo                                      oo  ",
"    oo                                      oo                                      oo                                      oo  ",
"    oo                                      oo                                      oo                                      oo  ",
"    oo                                      oo                                      oo                                      oo  ",
"    oo                                      oo                                      oo                                      oo  ",
"    oo                                      oo                                      oo                                      oo  ",
"    oo                                      oo                                      oo                                      oo  ",
"    oo                                      oo                                      oo                                      oo  ",
"    oo                                      oo                                      oo                                      oo  ",
"oooooooooooooooooooooooooooooooooooooooooooooooooooooooooooooooooooooooooooooooooooooooooooooooooooooooooooooooooooooooooooooooo",
"oooooooooooooooooooooooooooooooooooooooooooooooooooooooooooooooooooooooooooooooooooooooooooooooooooooooooooooooooooooooooooooooo",
"                          oo                                      oo                                      oo                    ",
"                          oo                                      oo                                      oo                    ",
"                          oo                                      oo                                      oo                    ",
"                          oo                                      oo                                      oo                    ",
"                          oo                                      oo                                      oo                    ",
"                          oo                                      oo                                      oo                    ",
"                          oo                                      oo                                      oo                    ",
"                          oo                                      oo                                      oo                    ",
"                          oo                                    ......                                    oo                    ",
"                          oo                                    ......                                    oo                    ",
"                          oo                                  ..  oo  ..                                  oo                    ",
"                          oo                                  ..  oo  ..                                  oo                    ",
"oooooooooooooooooooooooooooooooooooooooooooooooooooooooooooooo..oooooo..ooooooooooooooXXXXoooooooooooooooooooooooooooooooooooooo",
"oooooooooooooooooooooooooooooooooooooooooooooooooooooooooooooo..oooooo..ooooooooooooooXXXXoooooooooooooooooooooooooooooooooooooo",
"    oo                                      oo        XX        ..                  ooXXXX                                  oo  ",
"    oo                                      oo        XX        ..                  ooXXXX                                  oo  ",
"    oo                                      oo                    ..            XX  oo                                      oo  ",
"    oo                                      oo                    ..            XX  oo                                      oo  ",
"    oo                                      oo                    ..            XX  oo                                      oo  ",
"    oo                                      oo                    ..            XX  oo                                      oo  ",
"    oo                                      oo                ..........            oo                                      oo  ",
"    oo                                      oo                ..........            oo                                      oo  ",
"    oo                                  XXXXXX          ......................      oo                                      oo  ",
"    oo                                  XXXXXX          ......................      oo                                      oo  ",
"    oo                                XX    ooXX      ..........................    oo                                      oo  ",
"    oo                                XX    ooXX      ..........................    oo                                      oo  ",
"ooooooooooooooooooooooooooooooooooooooXXooooooXXoooooooooo..ooXXXXXXXXXXoo..ooooooooooXXXXoooooooooooooooooooooooooooooooooooooo",
"ooooooooooooooooooooooooooooooooooooooXXooooooXXoooooooooo..ooXXXXXXXXXXoo..ooooooooooXXXXoooooooooooooooooooooooooooooooooooooo",
"                          oo          XX      XX          ..ooXXXXXXXXXXoo..          XXXX                oo                    ",
"                          oo          XX      XX          ..ooXXXXXXXXXXoo..          XXXX                oo                    ",
"                          oo            XXXXXX      XX    ..ooXXXXXXXXXXoo..                              oo                    ",
"                          oo            XXXXXX      XX    ..ooXXXXXXXXXXoo..                              oo                    ",
"                          oo                      XX  XX  ..ooooXXXXXXoooo..                              oo                    ",
"                          oo                      XX  XX  ..ooooXXXXXXoooo..                              oo                    ",
"                          oo                        XX    ..XXooooooooooXX..          XXXX                oo                    ",
"                          oo                        XX    ..XXooooooooooXX..          XXXX                oo                    ",
"                          oo                                ..XXXXXXXXXX..          XX    XX              oo                    ",
"                          oo                                ..XXXXXXXXXX..          XX    XX              oo                    ",
"                          oo                                  ..........    XXXX    XX    XX              oo                    ",
"                          oo                                  ..........    XXXX    XX    XX              oo                    ",
"ooooooooooooooooooooooooooooooooooooooooooooooooXXXXooooooooooooooooooooooooXXXXooooooXXXXoooooooooooooooooooooooooooooooooooooo",
"ooooooooooooooooooooooooooooooooooooooooooooooooXXXXooooooooooooooooooooooooXXXXooooooXXXXoooooooooooooooooooooooooooooooooooooo",
"    oo                                      oo              XXXX                    oo                                      oo  ",
"    oo                                      oo              XXXX                    oo                                      oo  ",
"    oo                                      oo            XX    XX      XX          oo                                      oo  ",
"    oo                                      oo            XX    XX      XX          oo                                      oo  ",
"    oo                                      oo            XX    XX                  oo                                      oo  ",
"    oo                                      oo            XX    XX                  oo                                      oo  ",
"    oo                                      oo              XXXX                    oo                                      oo  ",
"    oo                                      oo              XXXX                    oo                                      oo  ",
"    oo                                      oo                                      oo                                      oo  ",
"    oo                                      oo                                      oo                                      oo  ",
"    oo                                      oo                                      oo                                      oo  ",
"    oo                                      oo                                      oo                                      oo  ",
"oooooooooooooooooooooooooooooooooooooooooooooooooooooooooooooooooooooooooooooooooooooooooooooooooooooooooooooooooooooooooooooooo",
"oooooooooooooooooooooooooooooooooooooooooooooooooooooooooooooooooooooooooooooooooooooooooooooooooooooooooooooooooooooooooooooooo",
"                          oo                                      oo                                      oo                    ",
"                          oo                                      oo                                      oo                    ",
"                          oo                                      oo                                      oo                    ",
"                          oo                                      oo                                      oo                    ",
"                          oo                                      oo                                      oo                    ",
"                          oo                                      oo                                      oo                    ",
"                          oo                                      oo                                      oo                    ",
"                          oo                                      oo                                      oo                    ",
"                          oo                                      oo                                      oo                    ",
"                          oo                                      oo                                      oo                    ",
"                          oo                                      oo                                      oo                    ",
"                          oo                                      oo                                      oo                    ",
"oooooooooooooooooooooooooooooooooooooooooooooooooooooooooooooooooooooooooooooooooooooooooooooooooooooooooooooooooooooooooooooooo",
"oooooooooooooooooooooooooooooooooooooooooooooooooooooooooooooooooooooooooooooooooooooooooooooooooooooooooooooooooooooooooooooooo",
"    oo                                      oo                                      oo                                      oo  ",
"    oo                                      oo                                      oo                                      oo  ",
"    oo                                      oo                                      oo                                      oo  ",
"    oo                                      oo                                      oo                                      oo  ",
"    oo                                      oo                                      oo                                      oo  ",
"    oo                                      oo                                      oo                                      oo  ",
"    oo                                      oo                                      oo                                      oo  ",
"    oo                                      oo                                      oo                                      oo  ",
"    oo                                      oo                                      oo                                      oo  ",
"    oo                                      oo                                      oo                                      oo  ",
"    oo                                      oo                                      oo                                      oo  ",
"    oo                                      oo                                      oo                                      oo  ",
"oooooooooooooooooooooooooooooooooooooooooooooooooooooooooooooooooooooooooooooooooooooooooooooooooooooooooooooooooooooooooooooooo",
"oooooooooooooooooooooooooooooooooooooooooooooooooooooooooooooooooooooooooooooooooooooooooooooooooooooooooooooooooooooooooooooooo",
"                          oo                                      oo                                      oo                    ",
"                          oo                                      oo                                      oo                    ",
"                          oo                                      oo                                      oo                    ",
"                          oo                                      oo                                      oo                    ",
"                          oo                                      oo                                      oo                    ",
"                          oo                                      oo                                      oo                    ",
"                          oo                                      oo                                      oo                    ",
"                          oo                                      oo                                      oo                    ",
"                          oo                                      oo                                      oo                    ",
"                          oo                                      oo                                      oo                    ",
"                          oo                                      oo                                      oo                    ",
"                          oo                                      oo                                      oo                    ",
"oooooooooooooooooooooooooooooooooooooooooooooooooooooooooooooooooooooooooooooooooooooooooooooooooooooooooooooooooooooooooooooooo",
"oooooooooooooooooooooooooooooooooooooooooooooooooooooooooooooooooooooooooooooooooooooooooooooooooooooooooooooooooooooooooooooooo"
};
