/* XPM */
static char *result[] = {
/* columns rows colors chars-per-pixel */
"128 128 7 1 ",
"  c black",
". c #C7CEBA",
"X c #C48F77",
"o c #3F2D53",
"O c #8B9082",
"+ c #61645A",
"@ c white",
/* pixels */
"                                                                                                                                ",
"                                                                                                                                ",
"                                                                                                                                ",
"                                                                                                                                ",
"                                                                                                                                ",
"                                                                                                                                ",
"                                                                                                                                ",
"                                                                                                                                ",
"                                                                                                                                ",
"                                                                                                                                ",
"                                                                                                                                ",
"                                                                                                                                ",
"                                                                                                                                ",
"                                                                                                                                ",
"                                                                                                                                ",
"                                                                                                                                ",
"                                                                                                                                ",
"                                                                                                                                ",
"                                                                                                                                ",
"                                                                                                                                ",
"                                                                                                                                ",
"                                                                                                                                ",
"                                                                                                                                ",
"                                                                                                                                ",
"                                                    ......................                                                      ",
"                                                    ......................                                                      ",
"                                                  ..........................                                                    ",
"                                                  ..........................                                                    ",
"                                                ..............................                                                  ",
"                                                ..............................                                                  ",
"                                              ................................                                                  ",
"                                              ................................                                                  ",
"                                              ...XXXXX..........XXXXXX........                                                  ",
"                                              ...XXXXX..........XXXXXX........                                                  ",
"                                              ...XXXXX..XXXX....XXXXXX........                                                  ",
"                                              ...XXXXX..XXXX....XXXXXX........                                                  ",
"                                              ...XXXXX..........XXXXXX....oo..                                                  ",
"                                              ...XXXXX..........XXXXXX....oo..                                                  ",
"                                              ...XXXXX..........XXXXXX....oo..          OO                                      ",
"                                              ............................oo..          OO                                      ",
"                                                ........................oo....          OO                                      ",
"                                                ........................oo....          OO                                      ",
"                                    OO          ......  ......  ............      OO    OO    OO                                ",
"                                    OO          ......  ......  ............      OO    OO    OO                                ",
"                                    OO          ......  ......  ..........          OO      OO                                  ",
"                                    OO          ......  ......  ..........          OO      OO                                  ",
"                              OO    OO    OO    ......  ......  ........                                                        ",
"                              OO    OO    OO    ......  ......  ........                                                        ",
"                                OO      OO        ....  ......  ......              OOOOOOOOOO                                  ",
"                                OO      OO        ....  ......  ......              OOOOOOOOOO                                  ",
"                                                                                      OOOOOO                                    ",
"                                                                                      OOOOOO                                    ",
"                                OOOOOOOOOO                                                                                      ",
"                                OOOOOOOOOO                                                                                      ",
"                                  OOOOOO                                                OO                                      ",
"                                  OOOOOO                                                OO                                      ",
"                                                                                      OO                                        ",
"                                                                                      OO                                        ",
"                                      OO          ....  ......  ......              OO                                          ",
"                                      OO          ....  ......  ......              OO                                          ",
"                                        OO          ................        ++    OO                                            ",
"                                        OO          ................        ++    OO                                            ",
"                                          OO      ++          ++      OO  ++oo++                                                ",
"                                          OO      ++          ++      OO  ++oo++                                                ",
"                                            OO  ++oo++  OO    ++  OOOO      ++                                                  ",
"                                            OO  ++oo++  OO    ++  OOOO      ++                                                  ",
"                                                  ++      OOOOOOOO                                                              ",
"                                                  ++      OOOOOOOO                                                              ",
"                                                              ++                                                                ",
"                                                              ++                                                                ",
"                                                              ++      OO                                                        ",
"                                                              ++      OO                                                        ",
"                                                        OO    ++  OOOO                                                          ",
"                                                        OO    ++  OOOO                                                          ",
"                                                          OOOOOOOO                                                              ",
"                                                          OOOOOOOO                                                              ",
"                                                              ++                                                                ",
"                                                              ++                                                                ",
"                                                              ++    OO                                                          ",
"                                                              ++    OO                                                          ",
"                                                          OO  ++  OO                                                            ",
"                                                          OO  ++  OO                                                            ",
"                                                            OOOOOO    ++                                                        ",
"                                                            OOOOOO    ++                                                        ",
"                                                        ++          ++oo++                                                      ",
"                                                        ++          ++oo++                                                      ",
"                                                          ++          ++                                                        ",
"                                                          ++          ++                                                        ",
"                                                                                                                                ",
"                                                                                                                                ",
"                                                          OO          OO                                                        ",
"                                                          OO          OO                                                        ",
"                                                          OO          OO                                                        ",
"                                                          OO          OO                                                        ",
"                                                          OO          OO                                                        ",
"                                                          OO          OO                                                        ",
"                                                                                                                                ",
"                                                                                                                                ",
"                                                                                                                                ",
"                                                                                                                                ",
"                                                                                                                                ",
"                                                                                                                                ",
"                                                                                                                                ",
"                                                                                                                                ",
"                                                                                                                                ",
"                                                                                                                                ",
"                                                                                                                                ",
"                                                                                                                                ",
"                                                                                                                                ",
"                                                                                                                                ",
"                                                                                                                                ",
"                                                                                                                                ",
"                                                                                                                                ",
"                                                                                                                                ",
"                                                                                                                                ",
"                                                                                                                                ",
"                                                                                                                                ",
"                                                                                                                                ",
"                                                                                                                                ",
"                                                                                                                                ",
"                                                                                                                                ",
"                                                                                                                                ",
"                                                                                                                                ",
"                                                                                                                                ",
"                                                                                                                                ",
"                                                                                                                                ",
"                                                                                                                                ",
"                                                                                                                                "
};
