/* XPM */
static char *result[] = {
/* columns rows colors chars-per-pixel */
"128 128 6 1 ",
"  c black",
". c #C7CEBA",
"X c #43453E",
"o c #C48F77",
"O c #3F2D53",
"+ c white",
/* pixels */
"                                                                                                                                ",
"                                                                                                                                ",
"                                                                                                                                ",
"                                                                                                                                ",
"                                                                                                                                ",
"                                                                                                                                ",
"                                                                                                                                ",
"                                                                                                                                ",
"                                                                                                                                ",
"                                                                                                                                ",
"                                                                                                                                ",
"                                                                                                                                ",
"                                                                                                                                ",
"                                                                                                                                ",
"                                                                                                                                ",
"                                                                                                                                ",
"                                                                                                                                ",
"                                                                                                                                ",
"                                                                                                                                ",
"                                                                                                                                ",
"                                                                                                                                ",
"                                                                                                                                ",
"                                                                                                                                ",
"                                                                                                                                ",
"                                                                                                                                ",
"                                                                                                                                ",
"                                                                                                                                ",
"                                                                                                                                ",
"                                                                                                                                ",
"                                                                                                                                ",
"                                                                                                                                ",
"                                                                                                                                ",
"                                                                                                                                ",
"                                                                                                                                ",
"                                                                                                                                ",
"                                                                                                                                ",
"                                                    ......................                                                      ",
"                                                    ......................                                                      ",
"                                                  ..........................            XX                                      ",
"                                                  ..........................            XX                                      ",
"                                                ..............................          XX                                      ",
"                                                ..............................          XX                                      ",
"                                    XX        ................................    XX    XX    XX                                ",
"                                    XX        ................................    XX    XX    XX                                ",
"                                    XX        ...ooooo..........oooooo........      XX      XX                                  ",
"                                    XX        ...ooooo..........oooooo........      XX      XX                                  ",
"                              XX    XX    XX  ...ooooo..oooo....oooooo........                                                  ",
"                              XX    XX    XX  ...ooooo..oooo....oooooo........                                                  ",
"                                XX      XX    ...ooooo..........oooooo....OO..      XXXXXXXXXX                                  ",
"                                XX      XX    ...ooooo..........oooooo....OO..      XXXXXXXXXX                                  ",
"                                              ...ooooo..........oooooo....OO..        XXXXXX                                    ",
"                                              ............................OO..        XXXXXX                                    ",
"                                XXXXXXXXXX      ........................OO....                                                  ",
"                                XXXXXXXXXX      ........................OO....                                                  ",
"                                  XXXXXX        ......  ......  ............                                                    ",
"                                  XXXXXX        ......  ......  ............                                                    ",
"                                                ......  ......  ..........                                                      ",
"                                                ......  ......  ..........                                                      ",
"                                                ......  ......  ........                                                        ",
"                                                ......  ......  ........                                                        ",
"                                                  ....  ......  ......                                                          ",
"                                                  ....  ......  ......                                                          ",
"                                                                                                                                ",
"                                                                                                                                ",
"                                                                                                                                ",
"                                                                                                                                ",
"                                                                                                                                ",
"                                                                                                                                ",
"                                                                                                                                ",
"                                                                                                                                ",
"                                                  ....  ......  ......                                                          ",
"                                                  ....  ......  ......                                                          ",
"                                                    ................                                                            ",
"                                                    ................                                                            ",
"                                                                                                                                ",
"                                                                                                                                ",
"                                                                                                                                ",
"                                                                                                                                ",
"                                                                                                                                ",
"                                                                                                                                ",
"                                                                                                                                ",
"                                                                                                                                ",
"                                                                                                                                ",
"                                                                                                                                ",
"                                                                                                                                ",
"                                                                                                                                ",
"                                                                                                                                ",
"                                                                                                                                ",
"                                                                                                                                ",
"                                                                                                                                ",
"                                                                                                                                ",
"                                                                                                                                ",
"                                                                                                                                ",
"                                                                                                                                ",
"                                                                                                                                ",
"                                                                                                                                ",
"                                                                                                                                ",
"                                                                                                                                ",
"                                                                                                                                ",
"                                                                                                                                ",
"                                                                                                                                ",
"                                                                                                                                ",
"                                                                                                                                ",
"                                                                                                                                ",
"                                                                                                                                ",
"                                                                                                                                ",
"                                                                                                                                ",
"                                                                                                                                ",
"                                                                                                                                ",
"                                                                                                                                ",
"                                                                                                                                ",
"                                                                                                                                ",
"                                                                                                                                ",
"                                                                                                                                ",
"                                                                                                                                ",
"                                                                                                                                ",
"                                                                                                                                ",
"                                                                                                                                ",
"                                                                                                                                ",
"                                                                                                                                ",
"                                                                                                                                ",
"                                                                                                                                ",
"                                                                                                                                ",
"                                                                                                                                ",
"                                                                                                                                ",
"                                                                                                                                ",
"                                                                                                                                ",
"                                                                                                                                "
};
