/* XPM */
static char *result[] = {
/* columns rows colors chars-per-pixel */
"128 128 5 1 ",
"  c black",
". c #C7CEBA",
"X c #C48F77",
"o c #3F2D53",
"O c white",
/* pixels */
"                                                                                                                                ",
"                                                                                                                                ",
"                                                                                                                                ",
"                                                                                                                                ",
"                                                                                                                                ",
"                                                                                                                                ",
"                                                                                                                                ",
"                                                                                                                                ",
"                                                                                                                                ",
"                                                                                                                                ",
"                                                                                                                                ",
"                                                                                                                                ",
"                                                                                                                                ",
"                                                                                                                                ",
"                                                                                                                                ",
"                                                                                                                                ",
"                                                                                                                                ",
"                                                                                                                                ",
"                                                                                                                                ",
"                                                                                                                                ",
"                                                                                                                                ",
"                                                                                                                                ",
"                                                                                                                                ",
"                                                                                                                                ",
"                                                                                                                                ",
"                                                                                                                                ",
"                                                                                                                                ",
"                                                                                                                                ",
"                                                                                                                                ",
"                                                                                                                                ",
"                                                                                                                                ",
"                                                                                                                                ",
"                                                                                                                                ",
"                                                                                                                                ",
"                                                                                                                                ",
"                                                                                                                                ",
"                                                                                                                                ",
"                                                                                                                                ",
"                                                                                                                                ",
"                                                                                                                                ",
"                                                                                                                                ",
"                                                                                                                                ",
"                                                                                                                                ",
"                                                                                                                                ",
"                                                                                                                                ",
"                                                                                                                                ",
"                                                                                                                                ",
"                                                                                                                                ",
"                                                                                                                                ",
"                                                                                                                                ",
"                                                                                                                                ",
"                                                                                                                                ",
"                                                                                                                                ",
"                                                                                                                                ",
"                                                                                                                                ",
"                                                                                                                                ",
"                                                                                                                                ",
"                                                                                                                                ",
"                                                                                                                                ",
"                                                                                                                                ",
"                                                                                                                                ",
"                                                                                                                                ",
"                                                    ......................                                                      ",
"                                                    ......................                                                      ",
"                                                  ..........................                                                    ",
"                                                  ..........................                                                    ",
"                                                ..............................                                                  ",
"                                                ..............................                                                  ",
"                                              ................................                                                  ",
"                                              ................................                                                  ",
"                                              ...XXXXX..........XXXXXX........                                                  ",
"                                              ...XXXXX..........XXXXXX........                                                  ",
"                                              ...XXXXX..XXXX....XXXXXX........                                                  ",
"                                              ...XXXXX..XXXX....XXXXXX........                                                  ",
"                                              ...XXXXX..........XXXXXX....oo..                                                  ",
"                                              ...XXXXX..........XXXXXX....oo..                                                  ",
"                                              ...XXXXX..........XXXXXX....oo..                                                  ",
"                                              ............................oo..                                                  ",
"                                                ........................oo....                                                  ",
"                                                ........................oo....                                                  ",
"                                                ......  ......  ............                                                    ",
"                                                ......  ......  ............                                                    ",
"                                                ......  ......  ..........                                                      ",
"                                                ......  ......  ..........                                                      ",
"                                                ......  ......  ........                                                        ",
"                                                ......  ......  ........                                                        ",
"                                                  ....  ......  ......                                                          ",
"                                                  ....  ......  ......                                                          ",
"                                                                                                                                ",
"                                                                                                                                ",
"                                                                                                                                ",
"                                                                                                                                ",
"                                                                                                                                ",
"                                                                                                                                ",
"                                                                                                                                ",
"                                                                                                                                ",
"                                                  ....  ......  ......                                                          ",
"                                                  ....  ......  ......                                                          ",
"                                                    ................                                                            ",
"                                                    ................                                                            ",
"                                                                                                                                ",
"                                                                                                                                ",
"                                                                                                                                ",
"                                                                                                                                ",
"                                                                                                                                ",
"                                                                                                                                ",
"                                                                                                                                ",
"                                                                                                                                ",
"                                                                                                                                ",
"                                                                                                                                ",
"                                                                                                                                ",
"                                                                                                                                ",
"                                                                                                                                ",
"                                                                                                                                ",
"                                                                                                                                ",
"                                                                                                                                ",
"                                                                                                                                ",
"                                                                                                                                ",
"                                                                                                                                ",
"                                                                                                                                ",
"                                                                                                                                ",
"                                                                                                                                ",
"                                                                                                                                ",
"                                                                                                                                ",
"                                                                                                                                ",
"                                                                                                                                ",
"                                                                                                                                ",
"                                                                                                                                "
};
