/* XPM */
static char *result[] = {
/* columns rows colors chars-per-pixel */
"64 64 5 1 ",
"  c black",
". c #3F2D53",
"X c #C48F77",
"o c #8C9082",
"O c #C7CEBA",
/* pixels */
"                                                                ",
"                                                                ",
"                                                                ",
"                                                                ",
"                                                                ",
"                                                                ",
"                                                                ",
"                                                                ",
"                                                                ",
"                                                                ",
"                                                                ",
"                                                                ",
"                                                                ",
"                           OOOOOOOOOOO                          ",
"                          OOOOOOOOOOOOO                         ",
"                         OOOOOOOOOOOOOOO                        ",
"                        OOOOOOOOOOOOOOOO                        ",
"                        OXXXOOOOOXXXXOOO                        ",
"                        OXXXOXXOOXXXXOOO                        ",
"                        OXOXOOOOOXOXXO.O                        ",
"                        OOOOOOOOOOOOOO.O    O                   ",
"                         OOOOOOOOOOOO.OO    O                   ",
"                     O   OOO OOO OOOOOO  O  O O                 ",
"                     O   OOO OOO OOOOO    O   O                 ",
"                  O  O O OOO OOO OOOO                           ",
"                   O   O  OO OOO OOO      OOOOO                 ",
"                                           OOO                  ",
"                   OOOOO  OO OOO OOO                            ",
"                    OOO    OOOOOOOO         O                   ",
"                                            O                   ",
"                     O                 o  OO                    ",
"                     O    o     o   O o.o                       ",
"                      OO o.o O  o OO   o                        ",
"                          o   OOOO                              ",
"                                o                               ",
"                                o   O                           ",
"                             O  o OO                            ",
"                              OOOO                              ",
"                                o                               ",
"                                o  O                            ",
"                              O o O                             ",
"                               OOO  o                           ",
"                             o     o.o                          ",
"                              o     o                           ",
"                                                                ",
"                              O     O                           ",
"                             O     O                            ",
"                             O     O                            ",
"                                                                ",
"                             O     O                            ",
"                             O     O                            ",
"                             O     O                            ",
"                           OO    OO                             ",
"                                                                ",
"                                                                ",
"                                                                ",
"                                                                ",
"                                                                ",
"                                                                ",
"                                                                ",
"                                                                ",
"                                                                ",
"                                                                ",
"                                                                "
};
