/* XPM */
static char *result[] = {
/* columns rows colors chars-per-pixel */
"128 128 5 1 ",
"  c black",
". c #433455",
"X c #C28D75",
"o c #8A8E80",
"O c #C5CCB8",
/* pixels */
"                                                                                                                                ",
"                                                                                                                                ",
"                                                                                                                                ",
"                                                                                                                                ",
"                                                                                                                                ",
"                                                                                                                                ",
"                                                                                                                                ",
"                                                                                                                                ",
"                                                                                                                                ",
"                                                                                                                                ",
"                                                                                                                                ",
"                                                                                                                                ",
"                                                                                                                                ",
"                                                                                                                                ",
"                                                                                                                                ",
"                                                                                                                                ",
"                                                                                                                                ",
"                                                                                                                                ",
"                                                                                                                                ",
"                                                                                                                                ",
"                                                                                                                                ",
"                                                                                                                                ",
"                                                                                                                                ",
"                                                                                                                                ",
"                                                    OOOOOOOOOOOOOOOOOOOOOO                                                      ",
"                                                    OOOOOOOOOOOOOOOOOOOOOO                                                      ",
"                                                  OOOOOOOOOOOOOOOOOOOOOOOOOO                                                    ",
"                                                  OOOOOOOOOOOOOOOOOOOOOOOOOO                                                    ",
"                                                OOOOOOOOOOOOOOOOOOOOOOOOOOOOOO                                                  ",
"                                                OOOOOOOOOOOOOOOOOOOOOOOOOOOOOO                                                  ",
"                                              OOOOOOOOOOOOOOOOOOOOOOOOOOOOOOOO                                                  ",
"                                              OOOOOOOOOOOOOOOOOOOOOOOOOOOOOOOO                                                  ",
"                                              OOXXXXXXOOOOOOOOOOXXXXXXXXOOOOOO                                                  ",
"                                              OOXXXXXXOOOOOOOOOOXXXXXXXXOOOOOO                                                  ",
"                                              OOXXXXXXOOXXXXOOOOXXXXXXXXOOOOOO                                                  ",
"                                              OOXXXXXXOOXXXXOOOOXXXXXXXXOOOOOO                                                  ",
"                                              OOXXOOXXOOOOOOOOOOXXOOXXXXOO..OO                                                  ",
"                                              OOXXOOXXOOOOOOOOOOXXOOXXXXOO..OO                                                  ",
"                                              OOOOOOOOOOOOOOOOOOOOOOOOOOOO..OO          OO                                      ",
"                                              OOOOOOOOOOOOOOOOOOOOOOOOOOOO..OO          OO                                      ",
"                                    OO          OOOOOOOOOOOOOOOOOOOOOOOO..OOOO    OO    OO    OO                                ",
"                                    OO          OOOOOOOOOOOOOOOOOOOOOOOO..OOOO    OO    OO    OO                                ",
"                                    OO          OOOOOO  OOOOOO  OOOOOOOOOOOO        OO  OO  OO                                  ",
"                                    OO          OOOOOO  OOOOOO  OOOOOOOOOOOO        OO  OO  OO                                  ",
"                              OO    OO    OO    OOOOOO  OOOOOO  OOOOOOOOOO                                                      ",
"                              OO    OO    OO    OOOOOO  OOOOOO  OOOOOOOOOO                                                      ",
"                                OO      OO      OOOOOO  OOOOOO  OOOOOOOO                                                        ",
"                                OO      OO      OOOOOO  OOOOOO  OOOOOOOO                                                        ",
"                                                  OOOO  OOOOOO  OOOOOO              OOOOOOOOOO                                  ",
"                                                  OOOO  OOOOOO  OOOOOO              OOOOOOOOOO                                  ",
"                                OOOOOOOOOO                                            OOOOOO                                    ",
"                                OOOOOOOOOO                                            OOOOOO                                    ",
"                                  OOOOOO                                                                                        ",
"                                  OOOOOO                                                                                        ",
"                                                  OOOO  OOOOOO  OOOOOO                  OO                                      ",
"                                                  OOOO  OOOOOO  OOOOOO                  OO                                      ",
"                                      OO            OOOOOOOOOOOOOOOO                  OO                                        ",
"                                      OO            OOOOOOOOOOOOOOOO                  OO                                        ",
"                                        OO                                          OO                                          ",
"                                        OO                                          OO                                          ",
"                                        OO                                  oo    OO                                            ",
"                                        OO                                  oo    OO                                            ",
"                                          OO      oo          oo      OO  oo..oo                                                ",
"                                          OO      oo          oo      OO  oo..oo                                                ",
"                                            OO  oo..oo  OO    oo  OOOO      oo                                                  ",
"                                            OO  oo..oo  OO    oo  OOOO      oo                                                  ",
"                                                  oo      OOOOOOOO                                                              ",
"                                                  oo      OOOOOOOO                                                              ",
"                                                              oo                                                                ",
"                                                              oo                                                                ",
"                                                              oo      OO                                                        ",
"                                                              oo      OO                                                        ",
"                                                        OO    oo  OOOO                                                          ",
"                                                        OO    oo  OOOO                                                          ",
"                                                          OOOOOOOO                                                              ",
"                                                          OOOOOOOO                                                              ",
"                                                              oo                                                                ",
"                                                              oo                                                                ",
"                                                              oo    OO                                                          ",
"                                                              oo    OO                                                          ",
"                                                          OO  oo  OO                                                            ",
"                                                          OO  oo  OO                                                            ",
"                                                            OOOOOO    oo                                                        ",
"                                                            OOOOOO    oo                                                        ",
"                                                        oo          oo..oo                                                      ",
"                                                        oo          oo..oo                                                      ",
"                                                          oo          oo                                                        ",
"                                                          oo          oo                                                        ",
"                                                                                                                                ",
"                                                                                                                                ",
"                                                          OO          OO                                                        ",
"                                                          OO          OO                                                        ",
"                                                          OO          OO                                                        ",
"                                                          OO          OO                                                        ",
"                                                          OO          OO                                                        ",
"                                                          OO          OO                                                        ",
"                                                          OO          OO                                                        ",
"                                                          OO          OO                                                        ",
"                                                          OO          OO                                                        ",
"                                                          OO          OO                                                        ",
"                                                          OO          OO                                                        ",
"                                                          OO          OO                                                        ",
"                                                        OO          OO                                                          ",
"                                                        OO          OO                                                          ",
"                                                      OO          OO                                                            ",
"                                                      OO          OO                                                            ",
"                                                                                                                                ",
"                                                                                                                                ",
"                                                                                                                                ",
"                                                                                                                                ",
"                                                                                                                                ",
"                                                                                                                                ",
"                                                                                                                                ",
"                                                                                                                                ",
"                                                                                                                                ",
"                                                                                                                                ",
"                                                                                                                                ",
"                                                                                                                                ",
"                                                                                                                                ",
"                                                                                                                                ",
"                                                                                                                                ",
"                                                                                                                                ",
"                                                                                                                                ",
"                                                                                                                                ",
"                                                                                                                                ",
"                                                                                                                                ",
"                                                                                                                                ",
"                                                                                                                                "
};
