/* XPM */
static char *result[] = {
/* columns rows colors chars-per-pixel */
"128 128 7 1 ",
"  c black",
". c #C6CDB9",
"X c #C38E76",
"o c #413154",
"O c #C5CCB8",
"+ c #8B8F81",
"@ c white",
/* pixels */
"                                                                                                                                ",
"                                                                                                                                ",
"                                                                                                                                ",
"                                                                                                                                ",
"                                                                                                                                ",
"                                                                                                                                ",
"                                                                                                                                ",
"                                                                                                                                ",
"                                                                                                                                ",
"                                                                                                                                ",
"                                                                                                                                ",
"                                                                                                                                ",
"                                                                                                                                ",
"                                                                                                                                ",
"                                                                                                                                ",
"                                                                                                                                ",
"                                                                                                                                ",
"                                                                                                                                ",
"                                                                                                                                ",
"                                                                                                                                ",
"                                                                                                                                ",
"                                                                                                                                ",
"                                                                                                                                ",
"                                                                                                                                ",
"                                                    ......................                                                      ",
"                                                    ......................                                                      ",
"                                                  ..........................                                                    ",
"                                                  ..........................                                                    ",
"                                                ..............................                                                  ",
"                                                ..............................                                                  ",
"                                              ................................                                                  ",
"                                              ................................                                                  ",
"                                              ..XXXXXX..........XXXXXXXX......                                                  ",
"                                              ..XXXXXX..........XXXXXXXX......                                                  ",
"                                              ..XXXXXX..XXXX....XXXXXXXX......                                                  ",
"                                              ..XXXXXX..XXXX....XXXXXXXX......                                                  ",
"                                              ..XX..XX..........XX..XXXX..oo..                                                  ",
"                                              ..XX..XX..........XX..XXXX..oo..                                                  ",
"                                              ............................oo..          ..                                      ",
"                                              ............................oo..          ..                                      ",
"                                                ........................oo....          ..                                      ",
"                                                ........................oo....          ..                                      ",
"                                    ..          ......  ......  ............      ..    ..    ..                                ",
"                                    ..          ......  ......  ............      ..    ..    ..                                ",
"                                    ..          ......  ......  ..........          ..      ..                                  ",
"                                    ..          ......  ......  ..........          ..      ..                                  ",
"                              ..    ..    ..    ......  ......  ........                                                        ",
"                              ..    ..    ..    ......  ......  ........                                                        ",
"                                ..      ..        ....  ......  ......              ..........                                  ",
"                                ..      ..        ....  ......  ......              ..........                                  ",
"                                                                                      ......                                    ",
"                                                                                      ......                                    ",
"                                ..........                                                                                      ",
"                                ..........                                                                                      ",
"                                  ......          ....  ......  ......                  ..                                      ",
"                                  ......          ....  ......  ......                  ..                                      ",
"                                                    ................                  ..                                        ",
"                                                    ................                  ..                                        ",
"                                      OO                                            ..                                          ",
"                                      OO                                            ..                                          ",
"                                        ..                                  ++    ..                                            ",
"                                        ..                                  ++    ..                                            ",
"                                          ..      ++          ++      ..  ++oo++                                                ",
"                                          ..      ++          ++      ..  ++oo++                                                ",
"                                            ..  ++oo++  ..    ++  ....      ++                                                  ",
"                                            ..  ++oo++  ..    ++  ....      ++                                                  ",
"                                                  ++      ........                                                              ",
"                                                  ++      ........                                                              ",
"                                                              ++                                                                ",
"                                                              ++                                                                ",
"                                                              ++      ..                                                        ",
"                                                              ++      ..                                                        ",
"                                                        ..    ++  ....                                                          ",
"                                                        ..    ++  ....                                                          ",
"                                                          ........                                                              ",
"                                                          ........                                                              ",
"                                                              ++                                                                ",
"                                                              ++                                                                ",
"                                                              ++    ..                                                          ",
"                                                              ++    ..                                                          ",
"                                                          ..  ++  ..                                                            ",
"                                                          ..  ++  ..                                                            ",
"                                                            ......    ++                                                        ",
"                                                            ......    ++                                                        ",
"                                                        ++          ++oo++                                                      ",
"                                                        ++          ++oo++                                                      ",
"                                                          ++          ++                                                        ",
"                                                          ++          ++                                                        ",
"                                                                                                                                ",
"                                                                                                                                ",
"                                                          ..          ..                                                        ",
"                                                          ..          ..                                                        ",
"                                                          ..          ..                                                        ",
"                                                          ..          ..                                                        ",
"                                                          ..          ..                                                        ",
"                                                          ..          ..                                                        ",
"                                                                                                                                ",
"                                                                                                                                ",
"                                                          ..          ..                                                        ",
"                                                          ..          ..                                                        ",
"                                                          ..          ..                                                        ",
"                                                          ..          ..                                                        ",
"                                                          ..          ..                                                        ",
"                                                          ..          ..                                                        ",
"                                                      ....        ....                                                          ",
"                                                      ....        ....                                                          ",
"                                                                                                                                ",
"                                                                                                                                ",
"                                                                                                                                ",
"                                                                                                                                ",
"                                                                                                                                ",
"                                                                                                                                ",
"                                                                                                                                ",
"                                                                                                                                ",
"                                                                                                                                ",
"                                                                                                                                ",
"                                                                                                                                ",
"                                                                                                                                ",
"                                                                                                                                ",
"                                                                                                                                ",
"                                                                                                                                ",
"                                                                                                                                ",
"                                                                                                                                ",
"                                                                                                                                ",
"                                                                                                                                ",
"                                                                                                                                ",
"                                                                                                                                ",
"                                                                                                                                "
};
