/* XPM */
static char *result[] = {
/* columns rows colors chars-per-pixel */
"64 64 6 1 ",
"  c black",
". c #3F2D53",
"X c #C48F77",
"o c #8C9082",
"O c #C6CDB9",
"+ c #C7CEBA",
/* pixels */
"                                                                ",
"                                                                ",
"                                                                ",
"                                                                ",
"                                                                ",
"                                                                ",
"                                                                ",
"                                                                ",
"                                                                ",
"                                                                ",
"                                                                ",
"                                                                ",
"                          +++++++++++                           ",
"                         +++++++++++++                          ",
"                        +++++++++++++++                         ",
"                       ++++++++++++++++                         ",
"                       +XXX+++++XXXX+++                         ",
"                       +XXX+XX++XXXX+++                         ",
"                       +X+X+++++X+XX+.+                         ",
"                       ++++++++++++++.+     +                   ",
"                        ++++++++++++.++     +                   ",
"                  +     +++ +++ ++++++   +  +  +                ",
"                  +     +++ +++ +++++     +   +                 ",
"               +  +  +  +++ +++ ++++                            ",
"                +   +    ++ +++ +++       +++++                 ",
"                                           +++                  ",
"                +++++                                           ",
"                 +++     ++ +++ +++         +                   ",
"                          ++++++++         +                    ",
"                   O                      +                     ",
"                    +                 o  +                      ",
"                     +   o     o   + o.o                        ",
"                      + o.o +  o ++   o                         ",
"                         o   ++++                               ",
"                               o                                ",
"                               o   +                            ",
"                            +  o ++                             ",
"                             ++++                               ",
"                               o                                ",
"                               o  +                             ",
"                             + o +                              ",
"                              +++  o                            ",
"                            o     o.o                           ",
"                             o     o                            ",
"                                                                ",
"                             +     +                            ",
"                             +     +                            ",
"                             +     +                            ",
"                                                                ",
"                             +     +                            ",
"                             +     +                            ",
"                             +     +                            ",
"                           ++    ++                             ",
"                                                                ",
"                                                                ",
"                                                                ",
"                                                                ",
"                                                                ",
"                                                                ",
"                                                                ",
"                                                                ",
"                                                                ",
"                                                                ",
"                                                                "
};
