/* XPM */
static char *result[] = {
/* columns rows colors chars-per-pixel */
"128 128 7 1 ",
"  c black",
". c #C7CEBA",
"X c #C48F77",
"o c #3F2D53",
"O c #8C9082",
"+ c #C6CDB9",
"@ c white",
/* pixels */
"                                                                                                                                ",
"                                                                                                                                ",
"                                                                                                                                ",
"                                                                                                                                ",
"                                                                                                                                ",
"                                                                                                                                ",
"                                                                                                                                ",
"                                                                                                                                ",
"                                                                                                                                ",
"                                                                                                                                ",
"                                                                                                                                ",
"                                                                                                                                ",
"                                                                                                                                ",
"                                                                                                                                ",
"                                                                                                                                ",
"                                                                                                                                ",
"                                                                                                                                ",
"                                                                                                                                ",
"                                                                                                                                ",
"                                                                                                                                ",
"                                                                                                                                ",
"                                                                                                                                ",
"                                                                                                                                ",
"                                                                                                                                ",
"                                                                                                                                ",
"                                                     ......................                                                     ",
"                                                     ......................                                                     ",
"                                                   ..........................                                                   ",
"                                                   ..........................                                                   ",
"                                                 ..............................                                                 ",
"                                                 ..............................                                                 ",
"                                                 ................................                                               ",
"                                                 ................................                                               ",
"                                                 ......XXXXXXXX..........XXXXXX..                                               ",
"                                                 ......XXXXXXXX..........XXXXXX..                                               ",
"                                                 ......XXXXXXXX....XXXX..XXXXXX..                                               ",
"                                                 ......XXXXXXXX....XXXX..XXXXXX..                                               ",
"                                                 ..oo..XXXX..XX..........XX..XX..                                               ",
"                                                 ..oo..XXXX..XX..........XX..XX..                                               ",
"                                                 ..oo............................                                               ",
"                                                 ..oo............................                                               ",
"                                     ..          ....oo........................                                                 ",
"                                     ..          ....oo........................                                                 ",
"                                     ..            ............  ......  ......                                                 ",
"                                ..   ..   ..       ............  ......  ......                                                 ",
"                                ..   ..   ..         ..........  ......  ......          ..                                     ",
"                                 ..  ..  ..          ..........  ......  ......          ..                                     ",
"                                 ..      ..            ........  ......  ......          ..                                     ",
"                                                       ........  ......  ......     ..   ..   ..                                ",
"                                                         ......  ......  ....       ..   ..   ..                                ",
"                                 ..........              ......  ......  ....        ..  ..  ..                                 ",
"                                 ..........                                          ..      ..                                 ",
"                                   ......                                                                                       ",
"                                   ......                                                                                       ",
"                                                         ......  ......  ....        ..........                                 ",
"                                                         ......  ......  ....        ..........                                 ",
"                                     ..                    ................            ......                                   ",
"                                     ..                    ................            ......                                   ",
"                                       ..                                                                                       ",
"                                       ..                                                                                       ",
"                                         ....    OO                                    ++                                       ",
"                                         ....    OO                                    ++                                       ",
"                                               OOooOO  ..      OO          OO        ..                                         ",
"                                               OOooOO  ..      OO          OO        ..                                         ",
"                                                 OO      ....  OO    ..  OOooOO  ....                                           ",
"                                                 OO      ....  OO    ..  OOooOO  ....                                           ",
"                                                             ........      OO                                                   ",
"                                                             ........      OO                                                   ",
"                                                               OO                                                               ",
"                                                               OO                                                               ",
"                                                       ..      OO                                                               ",
"                                                       ..      OO                                                               ",
"                                                         ....  OO    ..                                                         ",
"                                                         ....  OO    ..                                                         ",
"                                                             ........                                                           ",
"                                                             ........                                                           ",
"                                                               OO                                                               ",
"                                                               OO                                                               ",
"                                                         ..    OO                                                               ",
"                                                         ..    OO                                                               ",
"                                                           ..  OO  ..                                                           ",
"                                                           ..  OO  ..                                                           ",
"                                                       OO    ......                                                             ",
"                                                       OO    ......                                                             ",
"                                                     OOooOO          OO                                                         ",
"                                                     OOooOO          OO                                                         ",
"                                                       OO          OO                                                           ",
"                                                       OO          OO                                                           ",
"                                                                                                                                ",
"                                                                                                                                ",
"                                                       ..          ..                                                           ",
"                                                       ..          ..                                                           ",
"                                                        ..          ..                                                          ",
"                                                        ..          ..                                                          ",
"                                                        ..          ..                                                          ",
"                                                        ..          ..                                                          ",
"                                                                                                                                ",
"                                                                                                                                ",
"                                                        ..          ..                                                          ",
"                                                        ..          ..                                                          ",
"                                                        ..          ..                                                          ",
"                                                        ..          ..                                                          ",
"                                                        ..          ..                                                          ",
"                                                        ..          ..                                                          ",
"                                                          ....        ....                                                      ",
"                                                          ....        ....                                                      ",
"                                                                                                                                ",
"                                                                                                                                ",
"                                                                                                                                ",
"                                                                                                                                ",
"                                                                                                                                ",
"                                                                                                                                ",
"                                                                                                                                ",
"                                                                                                                                ",
"                                                                                                                                ",
"                                                                                                                                ",
"                                                                                                                                ",
"                                                                                                                                ",
"                                                                                                                                ",
"                                                                                                                                ",
"                                                                                                                                ",
"                                                                                                                                ",
"                                                                                                                                ",
"                                                                                                                                ",
"                                                                                                                                ",
"                                                                                                                                ",
"                                                                                                                                ",
"                                                                                                                                "
};
